<?xml version="1.0" encoding="UTF-8"?>
<svg version="1.1" xmlns="http://www.w3.org/2000/svg" width="512" height="512">
<path d="M0 0 C0.77434387 0.1700354 1.54868774 0.3400708 2.34649658 0.51525879 C23.02805826 5.09640373 23.02805826 5.09640373 26 8.6875 C26.98021459 12.97593883 27.05991496 15.75517009 25.0625 19.75 C22.00545844 22.28510763 20.16513561 22.24663639 16.28540039 22.15087891 C10.55131866 21.58294899 5.01305015 20.03090918 -0.5625 18.625 C-12.92317664 15.59628049 -25.2983646 13.20887664 -37.88232422 11.29614258 C-40.5233347 10.87124582 -43.14320087 10.37439906 -45.76953125 9.8671875 C-52.47353055 8.63269298 -59.21900082 7.97176381 -66 7.3125 C-67.83304687 7.12397461 -67.83304687 7.12397461 -69.703125 6.93164062 C-86.12789236 5.30449821 -102.51001059 4.70521454 -119.01098633 4.74462891 C-121.72417588 4.7500736 -124.43720549 4.74459607 -127.15039062 4.73828125 C-128.90625036 4.73894088 -130.66210999 4.74021964 -132.41796875 4.7421875 C-133.21389938 4.74016327 -134.00983002 4.73813904 -134.82987976 4.73605347 C-139.80824102 4.75673099 -144.56728688 5.20433263 -149.5 5.875 C-150.99721996 5.97180754 -152.49624937 6.04712847 -153.99609375 6.0859375 C-208.45812821 7.88047621 -263.61360169 21.36907352 -314.0625 41.75 C-315.39945923 42.28524292 -315.39945923 42.28524292 -316.76342773 42.83129883 C-321.24934726 44.69717046 -324.83120854 46.61080424 -328.5 49.875 C-329.44875 50.49375 -330.3975 51.1125 -331.375 51.75 C-346.23820492 61.85697934 -354.64708046 77.51082884 -358.5 94.875 C-359.27594841 98.95132039 -359.61903589 102.78203811 -359.59765625 106.9296875 C-359.59282227 108.59257812 -359.59282227 108.59257812 -359.58789062 110.2890625 C-359.57951172 111.43117188 -359.57113281 112.57328125 -359.5625 113.75 C-359.55798828 114.9153125 -359.55347656 116.080625 -359.54882812 117.28125 C-359.53708781 120.14588645 -359.5206657 123.01041633 -359.5 125.875 C-359.0555957 125.41174316 -358.61119141 124.94848633 -358.15332031 124.47119141 C-345.02381139 111.02205024 -328.04042351 104.12334869 -309.375 103.625 C-297.96237287 103.74388153 -287.52397653 106.46264581 -277.5 111.875 C-276.60796875 112.35582031 -275.7159375 112.83664063 -274.796875 113.33203125 C-264.17063708 119.57115094 -255.64622044 128.22155123 -249.5 138.875 C-248.84 138.875 -248.18 138.875 -247.5 138.875 C-246.25851599 137.18631608 -246.25851599 137.18631608 -245 135 C-234.61925378 119.06617989 -217.90680256 109.48426332 -199.6875 105.0625 C-180.08450877 101.28854679 -160.90706169 105.44347087 -144.0703125 116.02734375 C-135.0610311 122.5036205 -127.23189332 130.31622497 -121.5 139.875 C-121.5 140.535 -121.5 141.195 -121.5 141.875 C-120.84 141.875 -120.18 141.875 -119.5 141.875 C-119.25378906 141.15957031 -119.00757813 140.44414062 -118.75390625 139.70703125 C-112.5313707 125.65301794 -97.44918002 114.57392673 -83.41894531 109.05664062 C-63.83339353 102.07013935 -44.47737089 101.91094083 -25.296875 110.51171875 C-12.71990923 116.64211128 -1.0057261 125.84998107 6.5 137.875 C6.5 138.535 6.5 139.195 6.5 139.875 C9.17033431 137.5013695 10.99120738 135.13293458 12.75 132.0625 C15.60036074 127.36983293 19.23997266 124.27067397 23.5 120.875 C24.1909375 120.2871875 24.881875 119.699375 25.59375 119.09375 C40.11408754 107.09868856 56.93602117 102.81254544 75.5 103.875 C92.92606875 106.27794325 105.27841727 113.77349614 118.5 124.875 C118.92947083 107.97587347 118.73877973 93.03450832 111.5859375 77.36328125 C110.63756703 75.19021654 109.98744928 73.18767604 109.5 70.875 C108.84 70.875 108.18 70.875 107.5 70.875 C107.005 69.905625 106.51 68.93625 106 67.9375 C96.86555996 52.12789224 80.15235762 43.67034643 63.4453125 37.91015625 C59.74097299 36.60823321 56.08901625 35.19245099 52.4375 33.75 C51.45342163 33.36896118 51.45342163 33.36896118 50.44946289 32.98022461 C47.6503375 31.86932057 45.6529513 31.0279513 43.5 28.875 C42.80563384 24.69265497 42.8503861 21.03300739 44.9375 17.3125 C48.76955177 15.16281242 52.25684645 15.31344451 56.5 15.875 C61.25243627 17.27989998 65.79422036 19.1169532 70.375 21 C71.57769531 21.474375 72.78039062 21.94875 74.01953125 22.4375 C85.21309603 26.93437184 95.26052597 32.08422399 104.5 39.875 C105.30179687 40.51953125 106.10359375 41.1640625 106.9296875 41.828125 C121.89901009 54.419144 132.9280986 73.42248406 135.5 92.875 C136.21452501 102.77352404 136.11693744 112.72066198 136.10316515 122.63998938 C136.10100293 125.72914525 136.11084819 128.81822085 136.12037599 131.90735924 C136.14242844 139.19644061 136.14351503 146.48531564 136.13134766 153.77441406 C136.11923419 161.26611579 136.14400606 168.75706951 136.18648779 176.24864376 C136.22179862 182.71620866 136.23371156 189.18353608 136.22721231 195.65119374 C136.22360388 199.49904343 136.22868622 203.34635725 136.25664139 207.1941185 C136.28192546 210.80781116 136.27779478 214.4203375 136.25181961 218.03401375 C136.24489313 219.97620359 136.26734237 221.91843024 136.29095459 223.86048889 C136.19399746 231.99531711 134.5966299 237.45757757 129.5 243.875 C125.30952381 247.875 125.30952381 247.875 122.5 247.875 C122.17 248.535 121.84 249.195 121.5 249.875 C113.9268814 252.94067126 106.25393727 253.34126076 98.1875 253.25 C97.14271484 253.26160156 96.09792969 253.27320313 95.02148438 253.28515625 C89.48522727 253.26403893 85.2018875 253.14254335 80.5 249.875 C78.15450326 246.35675489 77.92008597 245.01724306 78.5 240.875 C81.05024365 237.77335231 82.67699247 236.14933584 86.5 234.875 C88.35976965 234.76025203 90.22291865 234.69678918 92.0859375 234.6640625 C93.18164062 234.63570312 94.27734375 234.60734375 95.40625 234.578125 C97.71077823 234.52622121 100.01549017 234.48189698 102.3203125 234.4453125 C103.96773438 234.39890625 103.96773438 234.39890625 105.6484375 234.3515625 C106.65052246 234.33174316 107.65260742 234.31192383 108.68505859 234.29150391 C112.01767519 233.79840383 113.856807 232.96064894 116.5 230.875 C118.33709642 227.19711626 118.75580028 224.18168564 118.7746582 220.09765625 C118.78419022 218.95876953 118.79372223 217.81988281 118.80354309 216.64648438 C118.80263168 215.42251953 118.80172028 214.19855469 118.80078125 212.9375 C118.80506638 211.66583984 118.8093515 210.39417969 118.81376648 209.08398438 C118.81950887 206.39064742 118.82094816 203.69769361 118.81567383 201.00439453 C118.80992163 197.58990996 118.82671082 194.17597538 118.8500185 190.76158142 C118.86851085 187.46605994 118.86456542 184.17056385 118.86328125 180.875 C118.87709587 179.06334351 118.87709587 179.06334351 118.89118958 177.21508789 C118.81302823 162.60744729 115.67411436 148.28503957 105.19921875 137.5078125 C103.8251766 136.3314567 102.41847249 135.19109101 100.96875 134.109375 C100.4840625 133.70203125 99.999375 133.2946875 99.5 132.875 C99.5 132.215 99.5 131.555 99.5 130.875 C98.7884375 130.59785156 98.076875 130.32070313 97.34375 130.03515625 C93.56820226 128.49485724 89.90368753 126.74022851 86.21875 124.99609375 C75.2968978 120.49239895 60.21439749 121.67742045 49.359375 125.6171875 C35.63917093 131.65257782 26.24489059 141.12465062 20.6875 155.125 C18.57683292 161.79026446 18.23928126 168.31397837 17.9375 175.25 C17.89431641 176.17683594 17.85113281 177.10367188 17.80664062 178.05859375 C17.70123904 180.33058351 17.60018257 182.60277413 17.5 184.875 C23.11 184.545 28.72 184.215 34.5 183.875 C35.985 180.41 35.985 180.41 37.5 176.875 C40.76582223 173.09352163 44.32473253 169.33655084 49.47329712 168.58816528 C51.87895473 168.46177341 54.26679455 168.43304624 56.67578125 168.44140625 C57.55977097 168.4361644 58.44376068 168.43092255 59.35453796 168.42552185 C61.22129265 168.41911198 63.08808778 168.42042524 64.95483398 168.42895508 C67.79289828 168.43744139 70.62893242 168.40872854 73.46679688 168.37695312 C75.28645773 168.37534019 77.10612212 168.37592041 78.92578125 168.37890625 C79.76563065 168.36767227 80.60548004 168.35643829 81.47077942 168.34486389 C87.21258574 168.41184941 91.74432839 169.54424148 96.5 172.875 C101.75700022 179.479949 101.73694143 184.96765859 101.8125 193.0625 C101.84150391 194.07892578 101.87050781 195.09535156 101.90039062 196.14257812 C101.96119441 203.38758351 101.00220685 209.04831479 95.99536133 214.51904297 C91.52061448 218.57663383 85.70846901 218.3397586 80 218.5625 C79.08379883 218.59867432 78.16759766 218.63484863 77.22363281 218.67211914 C47.16012716 219.65356499 47.16012716 219.65356499 39.96484375 213.48828125 C36.18271273 209.32289428 35.5 207.66406358 35.5 201.875 C29.56 201.875 23.62 201.875 17.5 201.875 C17.58696867 205.93853636 17.69386671 209.99986942 17.8125 214.0625 C17.83505859 215.21298828 17.85761719 216.36347656 17.88085938 217.54882812 C17.9340332 219.21655273 17.9340332 219.21655273 17.98828125 220.91796875 C18.01446533 221.93914795 18.04064941 222.96032715 18.06762695 224.01245117 C18.56544902 227.30830874 19.53426541 229.20019789 21.5 231.875 C27.65816073 235.98044048 36.01582429 234.90563865 43.1875 234.8125 C48.7049527 234.77878848 53.31813968 234.94450302 58.5 236.875 C60.94794742 240.54692113 61.21435887 243.60606028 60.5 247.875 C58.29259319 250.84358157 57.01402627 251.70365791 53.5 252.875 C49.48328186 253.11057884 45.46038738 253.06018932 41.4375 253.0625 C40.34244141 253.07474609 39.24738281 253.08699219 38.11914062 253.09960938 C30.13496676 253.11387532 22.84993661 252.29709466 15.25 249.8125 C12.51218833 249.56035182 12.51218833 249.56035182 11.15625 251.19921875 C10.18471782 252.44331968 9.22305959 253.69517205 8.26953125 254.953125 C3.6532084 259.96687962 -3.66712166 262.63432984 -10.39281273 262.96925926 C-12.71381093 263.01217313 -15.03284953 263.02153641 -17.35424805 263.02026367 C-18.23624374 263.02362228 -19.11823944 263.0269809 -20.02696228 263.03044128 C-22.93856217 263.039928 -25.85010437 263.04189348 -28.76171875 263.04296875 C-30.79327925 263.0461837 -32.82483952 263.04954796 -34.85639954 263.05305481 C-39.11577897 263.05904095 -43.37513814 263.06089532 -47.63452148 263.06030273 C-53.07367358 263.06020132 -58.51269453 263.07383406 -63.95181561 263.09107494 C-68.14960824 263.1022346 -72.34736961 263.1042207 -76.54517555 263.10369301 C-78.54928856 263.1048679 -80.55340252 263.10926191 -82.55750084 263.11702538 C-85.37135157 263.12690229 -88.18492338 263.1239167 -90.9987793 263.11791992 C-91.81523926 263.12353943 -92.63169922 263.12915894 -93.47290039 263.13494873 C-101.08279542 263.0940588 -108.71352028 262.09426438 -115.625 258.75 C-116.37007813 258.39679688 -117.11515625 258.04359375 -117.8828125 257.6796875 C-118.41648437 257.41414063 -118.95015625 257.14859375 -119.5 256.875 C-119.5 256.215 -119.5 255.555 -119.5 254.875 C-120.11746094 255.28492188 -120.73492187 255.69484375 -121.37109375 256.1171875 C-122.21800781 256.65601563 -123.06492188 257.19484375 -123.9375 257.75 C-124.76121094 258.28367187 -125.58492187 258.81734375 -126.43359375 259.3671875 C-135.26604701 263.71027917 -144.68432547 263.18566651 -154.28515625 263.13574219 C-156.75805846 263.12496488 -159.23024406 263.13571088 -161.703125 263.1484375 C-163.28645992 263.14711682 -164.86979441 263.14455632 -166.453125 263.140625 C-167.18654114 263.14467346 -167.91995728 263.14872192 -168.67559814 263.15289307 C-173.98217779 263.10450104 -177.56139362 262.25243085 -181.875 259.1875 C-183.5 256.875 -183.5 256.875 -183.5 253.375 C-182.37937681 249.45281885 -181.75991111 248.2580698 -178.5 245.875 C-175.48883589 245.49253775 -172.83270348 245.34072012 -169.82421875 245.37109375 C-168.55914238 245.3569619 -168.55914238 245.3569619 -167.26850891 245.34254456 C-164.57459225 245.3138963 -161.88155661 245.31081516 -159.1875 245.3125 C-156.50428323 245.30888283 -153.82170987 245.29922249 -151.1386261 245.27174377 C-149.47137999 245.25506744 -147.8039231 245.25199095 -146.13664246 245.26475525 C-140.86000691 245.21742324 -137.191013 244.33683453 -132.5 241.875 C-129.8028035 238.58250945 -130.33223229 234.98465149 -130.4375 230.875 C-130.55127241 224.18771075 -130.35888502 217.55348595 -130 210.875 C-129.95222412 209.98425781 -129.90444824 209.09351563 -129.85522461 208.17578125 C-129.74002198 206.07534256 -129.62049992 203.97514145 -129.5 201.875 C-130.0662207 202.04249756 -130.63244141 202.20999512 -131.21582031 202.38256836 C-133.62686029 202.902349 -135.58980101 202.90332291 -138.046875 202.75390625 C-138.89121094 202.70556641 -139.73554688 202.65722656 -140.60546875 202.60742188 C-141.47816406 202.55134766 -142.35085937 202.49527344 -143.25 202.4375 C-144.13816406 202.38529297 -145.02632812 202.33308594 -145.94140625 202.27929688 C-148.12799196 202.14998267 -150.31407894 202.01503358 -152.5 201.875 C-152.60441406 202.94878906 -152.70882812 204.02257812 -152.81640625 205.12890625 C-153.48522573 208.79403699 -153.97759904 210.16013735 -156.4375 212.8125 C-156.96214844 213.39902344 -157.48679688 213.98554688 -158.02734375 214.58984375 C-159.5 215.875 -159.5 215.875 -161.5 215.875 C-161.5 216.535 -161.5 217.195 -161.5 217.875 C-169.82857666 218.96890261 -178.02193086 218.93082616 -186.39624023 218.68798828 C-188.69310947 218.62484579 -190.98974492 218.58358676 -193.28710938 218.54296875 C-194.76826496 218.50393962 -196.24938722 218.46361979 -197.73046875 218.421875 C-198.4066777 218.41234802 -199.08288666 218.40282104 -199.77958679 218.39300537 C-204.70834726 218.21787156 -208.1388184 216.99572036 -212.5 214.875 C-212.5 214.215 -212.5 213.555 -212.5 212.875 C-213.16 212.875 -213.82 212.875 -214.5 212.875 C-215.82 209.575 -217.14 206.275 -218.5 202.875 C-229.885 202.38 -229.885 202.38 -241.5 201.875 C-241.42571399 206.44743183 -241.34263737 211.01800814 -241.23754883 215.58959961 C-241.20445223 217.14223362 -241.17637349 218.69498353 -241.15356445 220.24780273 C-241.11973476 222.4899194 -241.06741013 224.73098847 -241.01171875 226.97265625 C-241.00213387 228.00121483 -241.00213387 228.00121483 -240.99235535 229.05055237 C-240.84212141 234.06101278 -239.81019581 237.50569441 -237.5 241.875 C-233.07372449 244.82585034 -229.13154772 244.98938592 -223.90234375 245.05078125 C-222.85369141 245.07462891 -221.80503906 245.09847656 -220.72460938 245.12304688 C-218.5294964 245.16608831 -216.33412021 245.19729911 -214.13867188 245.21679688 C-212.56762695 245.25836914 -212.56762695 245.25836914 -210.96484375 245.30078125 C-210.012146 245.31536377 -209.05944824 245.32994629 -208.07788086 245.3449707 C-204.75829041 246.02750038 -203.58121878 247.24585951 -201.5 249.875 C-200.4375 253.3125 -200.4375 253.3125 -200.5 256.875 C-202.65432339 259.553348 -204.42508839 261.33754419 -207.5 262.875 C-208.96499131 262.97072746 -210.43422965 263.00574077 -211.90234375 263.0078125 C-212.78760742 263.01022949 -213.67287109 263.01264648 -214.58496094 263.01513672 C-219.22382238 262.99052106 -223.8615929 262.94357011 -228.5 262.875 C-229.66144531 262.86984375 -230.82289063 262.8646875 -232.01953125 262.859375 C-239.62651782 262.55466023 -244.90222782 259.60758331 -250.16796875 254.14453125 C-251.33554092 252.76764642 -252.42793021 251.32748165 -253.5 249.875 C-254.09167969 250.00777344 -254.68335938 250.14054687 -255.29296875 250.27734375 C-256.08316406 250.45394531 -256.87335938 250.63054687 -257.6875 250.8125 C-258.85345703 251.07353516 -258.85345703 251.07353516 -260.04296875 251.33984375 C-260.85378906 251.51644531 -261.66460937 251.69304687 -262.5 251.875 C-263.21355652 252.04836884 -263.92711304 252.22173767 -264.66229248 252.40036011 C-268.23796108 252.99843265 -271.74703087 253.01447899 -275.36035156 253.00439453 C-276.13666428 253.00614685 -276.91297699 253.00789917 -277.71281433 253.00970459 C-280.27210749 253.01409535 -282.83133116 253.01119372 -285.390625 253.0078125 C-287.1779583 253.00848661 -288.96529152 253.00945753 -290.75262451 253.01071167 C-294.49834059 253.01218512 -298.2440328 253.01004643 -301.98974609 253.00537109 C-306.77205444 252.99969055 -311.55430645 253.00294442 -316.3366127 253.00894356 C-320.02909767 253.01257281 -323.72156949 253.01139946 -327.41405487 253.00881577 C-329.17616533 253.00815217 -330.93827702 253.00895493 -332.70038605 253.01129532 C-335.17431249 253.01385893 -337.64815039 253.00992878 -340.12207031 253.00439453 C-340.83926743 253.00641876 -341.55646454 253.00844299 -342.2953949 253.01052856 C-353.05947711 252.9663271 -360.80994005 251.65982314 -369.25 244.5625 C-369.9925 243.675625 -370.735 242.78875 -371.5 241.875 C-371.92612548 241.37007837 -372.35225096 240.86515675 -372.79128933 240.34493446 C-377.46998216 233.9859268 -377.20128053 227.81869761 -377.13110352 220.15380859 C-377.13624961 218.77633749 -377.14353608 217.39887299 -377.15278625 216.02142334 C-377.1712317 212.29768514 -377.15840164 208.57466713 -377.13869596 204.8509593 C-377.12223111 200.93640874 -377.13113411 197.02190102 -377.13621521 193.10733032 C-377.14073068 186.52863162 -377.12490844 179.9502177 -377.09692383 173.37158203 C-377.06495425 165.79846146 -377.06485831 158.22585661 -377.0821386 150.65269983 C-377.09809074 143.3356078 -377.09120953 136.01870225 -377.07420158 128.70161819 C-377.06738271 125.6038673 -377.06831003 122.50626823 -377.07574654 119.40851974 C-377.08349692 115.74584417 -377.07100365 112.08374351 -377.04389763 108.42116547 C-377.03389659 106.46064011 -377.04310793 104.50004504 -377.05322266 102.53952026 C-376.81696681 80.21273551 -365.9603097 59.57964679 -350.5 43.875 C-291.6470516 -11.74897487 -165.63665555 -17.59204195 0 0 Z M-347.80859375 137.6796875 C-357.90345805 150.7820287 -360.97198459 163.78646855 -360.93359375 180.1796875 C-360.93816942 181.51580059 -360.94347903 182.85191134 -360.94947815 184.1880188 C-360.95833076 186.96300949 -360.95607183 189.73771106 -360.94604492 192.51269531 C-360.93448146 196.05674203 -360.954917 199.59980316 -360.98396206 203.14372063 C-361.00675072 206.55159506 -360.99985937 209.95923878 -360.99609375 213.3671875 C-361.00732773 214.63287567 -361.01856171 215.89856384 -361.03013611 217.2026062 C-361.01114383 225.86182043 -361.01114383 225.86182043 -356.5 232.875 C-351.69411769 236.07892154 -346.48194564 235.41077341 -340.8125 235.5625 C-339.81962982 235.59044647 -339.81962982 235.59044647 -338.80670166 235.61895752 C-324.44026389 236.00066532 -310.06348693 235.93932282 -295.69418335 235.78677368 C-293.1511368 235.76228751 -290.60800037 235.74580884 -288.06484985 235.73739624 C-284.44612297 235.72196677 -280.82922546 235.67382455 -277.2109375 235.6171875 C-275.5721035 235.61829781 -275.5721035 235.61829781 -273.90016174 235.61943054 C-267.42918452 235.50316524 -267.42918452 235.50316524 -261.82250977 232.59008789 C-259.16476034 229.50451337 -259.16476034 229.50451337 -258.62890625 225.69140625 C-258.59168457 224.9142627 -258.55446289 224.13711914 -258.51611328 223.33642578 C-258.5107959 222.52415527 -258.50547852 221.71188477 -258.5 220.875 C-258.48050293 220.0485498 -258.46100586 219.22209961 -258.44091797 218.37060547 C-258.40248742 215.84926991 -258.41227366 213.33401802 -258.4375 210.8125 C-258.458125 207.863125 -258.47875 204.91375 -258.5 201.875 C-264.44 201.875 -270.38 201.875 -276.5 201.875 C-277.056875 203.4425 -277.61375 205.01 -278.1875 206.625 C-279.90699997 210.93594495 -281.39331452 213.45310856 -285.5 215.875 C-296.40507794 219.51002598 -310.59856197 218.12408273 -322 217.6875 C-322.75732422 217.66961426 -323.51464844 217.65172852 -324.29492188 217.63330078 C-330.42350496 217.31255508 -335.00943919 215.4485795 -339.375 210.9375 C-343.39106821 203.57470828 -343.23483208 191.01214427 -342.0703125 182.87109375 C-340.43813786 177.45190717 -337.56289545 173.66770418 -332.60224915 170.76425171 C-330.33267353 169.80422088 -328.7544758 169.6105858 -326.30151367 169.58447266 C-325.48353806 169.57171295 -324.66556244 169.55895325 -323.82279968 169.54580688 C-322.94670547 169.54358124 -322.07061127 169.54135559 -321.16796875 169.5390625 C-319.80301018 169.5290773 -319.80301018 169.5290773 -318.41047668 169.51889038 C-316.48648089 169.50877455 -314.56245009 169.50407303 -312.63842773 169.50439453 C-309.70822639 169.50003087 -306.7795434 169.46372674 -303.84960938 169.42578125 C-301.97656763 169.41991081 -300.10351875 169.41594294 -298.23046875 169.4140625 C-297.36044724 169.39969147 -296.49042572 169.38532043 -295.59403992 169.37051392 C-289.72854952 169.41413306 -286.32977169 170.5077787 -281.5 173.875 C-278.73795182 177.10447172 -277.5265513 180.76879478 -276.5 184.875 C-270.56 184.875 -264.62 184.875 -258.5 184.875 C-257.98564721 165.59629537 -259.34657814 150.58874225 -272.9375 135.625 C-284.95017684 124.20280805 -298.70317853 121.34218014 -314.7265625 121.6015625 C-327.21527975 122.09718546 -339.31956741 128.55654112 -347.80859375 137.6796875 Z M-228.5 140.875 C-238.26418674 153.57387738 -242.2978611 167.91777795 -241.5 183.875 C-240.48363023 185.11421211 -240.48363023 185.11421211 -238.36694336 184.98852539 C-237.45050049 184.98328857 -236.53405762 184.97805176 -235.58984375 184.97265625 C-234.60048828 184.96943359 -233.61113281 184.96621094 -232.59179688 184.96289062 C-231.03041992 184.95032227 -231.03041992 184.95032227 -229.4375 184.9375 C-228.39271484 184.93298828 -227.34792969 184.92847656 -226.27148438 184.92382812 C-223.6809334 184.91199913 -221.09049441 184.89551689 -218.5 184.875 C-218.00125366 183.78481567 -218.00125366 183.78481567 -217.49243164 182.67260742 C-215.18155299 177.683156 -213.35484589 173.81345935 -208.5 170.875 C-204.50885879 169.5446196 -200.64823612 169.67250978 -196.484375 169.63671875 C-195.59518372 169.628647 -194.70599243 169.62057526 -193.78985596 169.61225891 C-191.9069615 169.59842957 -190.02404209 169.58770227 -188.14111328 169.57983398 C-185.27457579 169.56264735 -182.40919979 169.51875456 -179.54296875 169.47460938 C-177.71094596 169.46447956 -175.87891338 169.45596436 -174.046875 169.44921875 C-173.19559021 169.43171066 -172.34430542 169.41420258 -171.46722412 169.39616394 C-165.64091704 169.41719088 -162.27999899 170.49649671 -157.5 173.875 C-154.35224387 177.76827732 -153.50190666 179.8654667 -152.5 184.875 C-144.91 184.875 -137.32 184.875 -129.5 184.875 C-128.93142022 167.53331685 -131.13576072 152.12239923 -143.5 138.875 C-144.16 138.875 -144.82 138.875 -145.5 138.875 C-145.73976563 138.28589844 -145.97953125 137.69679688 -146.2265625 137.08984375 C-150.89115547 128.97688604 -163.16652821 124.60629506 -171.7578125 122.2578125 C-193.88222571 119.1692192 -213.05971064 124.23406606 -228.5 140.875 Z M-99.5 140.875 C-107.94565897 151.86271869 -111.72266352 163.51562347 -111.5625 177.25 C-111.541875 179.76625 -111.52125 182.2825 -111.5 184.875 C-103.91 184.875 -96.32 184.875 -88.5 184.875 C-87.51 182.235 -86.52 179.595 -85.5 176.875 C-82.40405654 173.22337438 -79.38811545 170.25199565 -74.50283813 169.61430359 C-73.80145721 169.6096962 -73.10007629 169.60508881 -72.37744141 169.6003418 C-71.57625885 169.59080978 -70.77507629 169.58127777 -69.94961548 169.57145691 C-69.092258 169.57236832 -68.23490051 169.57327972 -67.3515625 169.57421875 C-66.46141449 169.56993362 -65.57126648 169.5656485 -64.65414429 169.56123352 C-62.77301889 169.55549681 -60.89187132 169.5549851 -59.01074219 169.55932617 C-56.14218995 169.56248109 -53.27467441 169.53903655 -50.40625 169.51367188 C-48.57552213 169.51139821 -46.7447915 169.5106957 -44.9140625 169.51171875 C-43.63409897 169.49790413 -43.63409897 169.49790413 -42.32827759 169.48381042 C-36.25386504 169.53066721 -32.2112872 170.78343559 -27.3125 174.5625 C-25.5 176.875 -25.5 176.875 -22.5 184.875 C-14.91 184.875 -7.32 184.875 0.5 184.875 C0.69709874 167.33321228 -2.74284059 155.51073911 -12.5 140.875 C-13.16 140.875 -13.82 140.875 -14.5 140.875 C-14.726875 140.2975 -14.95375 139.72 -15.1875 139.125 C-16.84848222 136.27760191 -18.81524561 134.75432807 -21.5 132.875 C-22.16 132.875 -22.82 132.875 -23.5 132.875 C-23.5 132.215 -23.5 131.555 -23.5 130.875 C-24.49 130.875 -25.48 130.875 -26.5 130.875 C-26.5 130.215 -26.5 129.555 -26.5 128.875 C-50.92877606 115.25725675 -80.45694501 120.39201647 -99.5 140.875 Z M-324.5 185.875 C-324.5 190.825 -324.5 195.775 -324.5 200.875 C-314.27 200.875 -304.04 200.875 -293.5 200.875 C-293.5 195.925 -293.5 190.975 -293.5 185.875 C-303.73 185.875 -313.96 185.875 -324.5 185.875 Z M-200.5 185.875 C-200.5 190.825 -200.5 195.775 -200.5 200.875 C-190.27 200.875 -180.04 200.875 -169.5 200.875 C-169.5 195.925 -169.5 190.975 -169.5 185.875 C-179.73 185.875 -189.96 185.875 -200.5 185.875 Z M-71.5 185.875 C-71.5 190.825 -71.5 195.775 -71.5 200.875 C-67.24578286 200.8979132 -62.99177843 200.91783889 -58.73754883 200.92993164 C-57.28929927 200.93497101 -55.84105483 200.94180253 -54.39282227 200.95043945 C-52.31525412 200.96252247 -50.23775303 200.96823211 -48.16015625 200.97265625 C-46.90855713 200.97789307 -45.65695801 200.98312988 -44.36743164 200.98852539 C-41.60267706 201.20387035 -41.60267706 201.20387035 -40.5 199.875 C-40.5 195.255 -40.5 190.635 -40.5 185.875 C-50.73 185.875 -60.96 185.875 -71.5 185.875 Z M52.5 185.875 C52.5 190.825 52.5 195.775 52.5 200.875 C62.73 200.875 72.96 200.875 83.5 200.875 C84.82686023 195.09053546 84.82686023 195.09053546 84.5 185.875 C73.94 185.875 63.38 185.875 52.5 185.875 Z M-111.5 201.875 C-111.56906124 206.75021204 -111.62873492 211.62371108 -111.66479492 216.49902344 C-111.67983465 218.15565763 -111.70027177 219.81225231 -111.72631836 221.46875 C-111.76291515 223.8568703 -111.77977439 226.24446188 -111.79296875 228.6328125 C-111.80845261 229.36742706 -111.82393646 230.10204163 -111.83988953 230.85891724 C-111.84142928 235.6174556 -111.06788178 238.85998519 -108.5 242.875 C-103.25164279 246.37390481 -97.92938364 246.02767569 -91.78173828 246.03613281 C-90.48077713 246.04358017 -90.48077713 246.04358017 -89.15353394 246.05117798 C-86.29245197 246.06574921 -83.43142543 246.07259262 -80.5703125 246.078125 C-78.57640584 246.08387988 -76.58249918 246.08963757 -74.58859253 246.09539795 C-70.41078433 246.10589309 -66.2329953 246.11174572 -62.05517578 246.11523438 C-56.70983488 246.12072094 -51.36474846 246.14475882 -46.01948738 246.17320633 C-41.90159368 246.19185524 -37.78376107 246.19703948 -33.6658287 246.19857025 C-31.69551067 246.20159138 -29.72519358 246.20960163 -27.75491714 246.22275543 C-24.99543258 246.23986566 -22.23656729 246.23792373 -19.47705078 246.23144531 C-18.26423431 246.24526749 -18.26423431 246.24526749 -17.0269165 246.2593689 C-11.13213162 246.21615418 -5.97258112 245.34758112 -1.625 241 C0.82831449 236.36596151 0.61815453 231.53178708 0.59765625 226.38671875 C0.5962413 225.68352005 0.59482635 224.98032135 0.59336853 224.2558136 C0.58780109 222.02466456 0.57525475 219.79361836 0.5625 217.5625 C0.55748079 216.04362125 0.55291862 214.52474091 0.54882812 213.00585938 C0.53869607 209.29550207 0.51911465 205.58536524 0.5 201.875 C-7.42 201.875 -15.34 201.875 -23.5 201.875 C-24.49 204.845 -25.48 207.815 -26.5 210.875 C-30.60742788 214.98242788 -33.74579683 216.98913597 -39.54077148 217.02026367 C-40.75234169 217.02983345 -40.75234169 217.02983345 -41.98838806 217.03959656 C-43.29157738 217.04126579 -43.29157738 217.04126579 -44.62109375 217.04296875 C-45.96555321 217.04796135 -45.96555321 217.04796135 -47.33717346 217.05305481 C-49.23267097 217.05811689 -51.12817738 217.06046336 -53.02368164 217.06030273 C-55.92283815 217.06248894 -58.82161396 217.08065142 -61.72070312 217.09960938 C-63.5624987 217.10254349 -65.40429608 217.10452817 -67.24609375 217.10546875 C-68.1128624 217.11265427 -68.97963104 217.11983978 -69.87266541 217.12724304 C-70.68353104 217.12416641 -71.49439667 217.12108978 -72.32983398 217.11791992 C-73.39547829 217.12005745 -73.39547829 217.12005745 -74.48265076 217.12223816 C-76.82945733 216.83462304 -78.40789441 215.9442719 -80.5 214.875 C-81.49 214.875 -82.48 214.875 -83.5 214.875 C-85.5 210.875 -85.5 210.875 -88.5 201.875 C-96.09 201.875 -103.68 201.875 -111.5 201.875 Z " fill="#131313" transform="translate(376.5,131.125)"/>
<path d="M0 0 C0.99 1.485 0.99 1.485 2 3 C-2.52515959 0.79484609 -6.92568 -1.65336191 -11.3359375 -4.078125 C-22.13067934 -9.91076777 -32.36728377 -10.1802419 -44.4375 -10.1875 C-45.50548828 -10.19974609 -46.57347656 -10.21199219 -47.67382812 -10.22460938 C-55.5869389 -10.23911111 -63.20349542 -9.89825229 -70.375 -6.3125 C-73.35512876 -4.82243562 -73.97213679 -5.04010294 -77 -6 C-51.53841722 -17.79813268 -23.16521205 -16.88937771 0 0 Z " fill="#939393" transform="translate(235,249)"/>
<path d="M0 0 C1.37401474 -0.00350464 1.37401474 -0.00350464 2.77578735 -0.00708008 C21.87151176 -0.02524545 40.76114142 1.32327224 59.75 3.25 C59.75 3.58 59.75 3.91 59.75 4.25 C48.97317246 4.31418417 38.2110567 4.15681822 27.43798828 3.87768555 C24.82984772 3.81135162 22.22159726 3.7523414 19.61328125 3.69335938 C17.95311373 3.65148619 16.29295692 3.60918536 14.6328125 3.56640625 C13.85382599 3.54969376 13.07483948 3.53298126 12.27224731 3.51576233 C6.86433403 3.36433403 6.86433403 3.36433403 5.75 2.25 C4.39905018 2.15731001 3.04332909 2.13252674 1.68920898 2.13647461 C0.82839218 2.13655014 -0.03242462 2.13662567 -0.91932678 2.13670349 C-2.32244362 2.14444542 -2.32244362 2.14444542 -3.75390625 2.15234375 C-5.18342873 2.15446617 -5.18342873 2.15446617 -6.64183044 2.15663147 C-9.69875165 2.16224848 -12.75560077 2.17480384 -15.8125 2.1875 C-17.87955624 2.19251281 -19.94661362 2.19707609 -22.01367188 2.20117188 C-27.09247588 2.21222344 -32.1712257 2.22949945 -37.25 2.25 C-37.25 1.92 -37.25 1.59 -37.25 1.25 C-24.82808265 0.38260402 -12.45142445 0.01464791 0 0 Z " fill="#999999" transform="translate(256.25,117.75)"/>
<path d="M0 0 C0.66022156 0.00141495 1.32044312 0.0028299 2.00067139 0.00428772 C4.09945294 0.0098638 6.19812595 0.02241178 8.296875 0.03515625 C9.72395679 0.04017435 11.15104025 0.04473671 12.578125 0.04882812 C16.06774332 0.05982537 19.55729856 0.07707345 23.046875 0.09765625 C23.046875 0.42765625 23.046875 0.75765625 23.046875 1.09765625 C18.06433034 1.79395688 13.17668446 2.22206953 8.15014648 2.38769531 C-15.50835662 3.17881274 -40.031376 6.0861737 -62.953125 12.09765625 C-62.953125 11.43765625 -62.953125 10.77765625 -62.953125 10.09765625 C-61.963125 10.09765625 -60.973125 10.09765625 -59.953125 10.09765625 C-59.953125 9.43765625 -59.953125 8.77765625 -59.953125 8.09765625 C-50.32751669 6.10615108 -40.78133757 4.62788224 -30.98706055 3.74462891 C-27.15249764 3.73326862 -27.15249764 3.73326862 -23.953125 2.09765625 C-21.85293046 1.88675805 -19.74729878 1.72888398 -17.640625 1.59765625 C-13.36385091 1.40356353 -13.36385091 1.40356353 -9.18774414 0.58618164 C-6.09960112 -0.08893845 -3.1594836 -0.01338764 0 0 Z " fill="#7D7D7D" transform="translate(211.953125,134.90234375)"/>
<path d="M0 0 C8.58 0 17.16 0 26 0 C26.99 3.63 27.98 7.26 29 11 C26 8 26 8 25 1 C17.41 1 9.82 1 2 1 C2.12009281 5.89314314 2.24283236 10.7860721 2.37231445 15.67895508 C2.41553784 17.34232681 2.45722146 19.00573932 2.49731445 20.66918945 C2.55532332 23.06474068 2.61892829 25.46008908 2.68359375 27.85546875 C2.70030624 28.5952446 2.71701874 29.33502045 2.73423767 30.09721375 C2.8407276 33.83645932 3.12187752 37.35938544 4 41 C3.01 40.67 2.02 40.34 1 40 C-0.46591094 36.06254435 -0.12555681 31.87955435 -0.09765625 27.734375 C-0.0962413 26.94097717 -0.09482635 26.14757935 -0.09336853 25.33013916 C-0.08778415 22.80338728 -0.07523454 20.27672496 -0.0625 17.75 C-0.05748298 16.03385545 -0.05292043 14.31770951 -0.04882812 12.6015625 C-0.03867198 8.40097965 -0.01909359 4.20058973 0 0 Z " fill="#838383" transform="translate(263,332)"/>
<path d="M0 0 C11.22 0 22.44 0 34 0 C34 5.61 34 11.22 34 17 C22.78 17 11.56 17 0 17 C0 11.39 0 5.78 0 0 Z M1 1 C1 5.95 1 10.9 1 16 C5.25421714 16.0229132 9.50822157 16.04283889 13.76245117 16.05493164 C15.21070073 16.05997101 16.65894517 16.06680253 18.10717773 16.07543945 C20.18474588 16.08752247 22.26224697 16.09323211 24.33984375 16.09765625 C25.59144287 16.10289307 26.84304199 16.10812988 28.13256836 16.11352539 C30.89732294 16.32887035 30.89732294 16.32887035 32 15 C32 10.38 32 5.76 32 1 C21.77 1 11.54 1 1 1 Z " fill="#B7B7B7" transform="translate(304,316)"/>
<path d="M0 0 C0 0.99 0 1.98 0 3 C-6.38191159 7.63887504 -12.02770506 7.55805679 -19.75 7.5625 C-21.99488309 7.57141838 -24.239762 7.59296049 -26.484375 7.62890625 C-27.47147461 7.62963135 -28.45857422 7.63035645 -29.47558594 7.63110352 C-32.02022509 7.80556603 -32.02022509 7.80556603 -33.80175781 9.29272461 C-35.68413501 11.97476693 -35.69820428 14.80096538 -36 18 C-38 16 -38 16 -38.4375 13.1875 C-37.85847714 8.96890488 -36.2480597 7.64376953 -33 5 C-29.90651639 3.9688388 -27.65878524 3.84606085 -24.4140625 3.7890625 C-23.31835938 3.76070313 -22.22265625 3.73234375 -21.09375 3.703125 C-18.78922177 3.65122121 -16.48450983 3.60689698 -14.1796875 3.5703125 C-13.08140625 3.539375 -11.983125 3.5084375 -10.8515625 3.4765625 C-9.84947754 3.45674316 -8.84739258 3.43692383 -7.81494141 3.41650391 C-4.60203175 2.94111589 -2.65445757 1.82854535 0 0 Z " fill="#919191" transform="translate(493,362)"/>
<path d="M0 0 C8.58 0 17.16 0 26 0 C26.04603801 4.87491345 26.08582503 9.74906541 26.10986328 14.62402344 C26.11988957 16.28062503 26.13351406 17.93720907 26.15087891 19.59375 C26.17527621 21.98181505 26.18651694 24.36964508 26.1953125 26.7578125 C26.20563507 27.49242706 26.21595764 28.22704163 26.22659302 28.98391724 C26.22754068 33.37696359 25.62276337 36.91782363 24 41 C23.34 41 22.68 41 22 41 C22.165 40.484375 22.33 39.96875 22.5 39.4375 C23.15499576 36.24439569 23.05344523 33.260159 23 30 C22.89927266 20.3118616 23.44521238 10.6691556 24 1 C23.4337793 1.16749756 22.86755859 1.33499512 22.28417969 1.50756836 C19.87313971 2.027349 17.91019899 2.02832291 15.453125 1.87890625 C14.60878906 1.83056641 13.76445312 1.78222656 12.89453125 1.73242188 C12.02183594 1.67634766 11.14914063 1.62027344 10.25 1.5625 C9.36183594 1.51029297 8.47367188 1.45808594 7.55859375 1.40429688 C5.37200804 1.27498267 3.18592106 1.14003358 1 1 C0.67 3.31 0.34 5.62 0 8 C-1.08174162 4.63458162 -0.92538169 3.70152678 0 0 Z " fill="#818181" transform="translate(223,332)"/>
<path d="M0 0 C0.91280228 -0.00807175 1.82560455 -0.01614349 2.7660675 -0.02445984 C4.70201719 -0.03830642 6.63799135 -0.049026 8.57397461 -0.05688477 C11.52179974 -0.07404999 14.46848942 -0.11792487 17.41601562 -0.16210938 C19.29816885 -0.1722406 21.1803316 -0.18075536 23.0625 -0.1875 C23.93879562 -0.20500809 24.81509125 -0.22251617 25.71794128 -0.24055481 C31.60554641 -0.21989904 34.99085324 0.90828754 39.86328125 4.23828125 C39.86328125 5.22828125 39.86328125 6.21828125 39.86328125 7.23828125 C39.30640625 6.76390625 38.74953125 6.28953125 38.17578125 5.80078125 C33.28421842 2.49567123 27.49273647 3.09164464 21.80078125 3.10546875 C20.93187256 3.10451202 20.06296387 3.1035553 19.16772461 3.10256958 C17.33544848 3.10189081 15.50316991 3.10372395 13.67089844 3.10791016 C10.87299171 3.11326267 8.07524551 3.10795489 5.27734375 3.1015625 C3.49348923 3.10222334 1.70963481 3.10350461 -0.07421875 3.10546875 C-0.90767822 3.10344452 -1.7411377 3.10142029 -2.59985352 3.09933472 C-6.57871482 3.11532577 -10.25280544 3.25062956 -14.13671875 4.23828125 C-9.80131114 -0.29419034 -6.05925781 0.05049468 0 0 Z " fill="#494949" transform="translate(55.13671875,299.76171875)"/>
<path d="M0 0 C0 0.33 0 0.66 0 1 C-19.47 1 -38.94 1 -59 1 C-59.33 0.34 -59.66 -0.32 -60 -1 C-39.93990757 -2.67416569 -19.96517987 -2.66519684 0 0 Z " fill="#5F5F5F" transform="translate(295,135)"/>
<path d="M0 0 C0.80125809 -0.00960754 1.60251617 -0.01921509 2.42805481 -0.02911377 C3.29057358 -0.03336365 4.15309235 -0.03761353 5.04174805 -0.04199219 C5.933311 -0.04769226 6.82487396 -0.05339233 7.74345398 -0.05926514 C9.63055232 -0.06871068 11.51766712 -0.07524735 13.40478516 -0.07910156 C16.282115 -0.08879525 19.15872681 -0.11981774 22.03588867 -0.15136719 C23.8711709 -0.15789876 25.70645822 -0.16314863 27.54174805 -0.16699219 C28.39819412 -0.17933899 29.2546402 -0.19168579 30.13703918 -0.20440674 C35.19296756 -0.18569073 38.56218321 0.44166493 42.9909668 3.16113281 C42.3309668 3.49113281 41.6709668 3.82113281 40.9909668 4.16113281 C40.3309668 3.83113281 39.6709668 3.50113281 38.9909668 3.16113281 C37.47932288 3.07135553 35.96376501 3.04355849 34.44946289 3.04760742 C33.03822647 3.04772072 33.03822647 3.04772072 31.59848022 3.0478363 C30.07186264 3.05557823 30.07186264 3.05557823 28.5144043 3.06347656 C26.95382797 3.06559898 26.95382797 3.06559898 25.36172485 3.06776428 C22.02977659 3.07337415 18.69789485 3.08592834 15.3659668 3.09863281 C13.11075943 3.10364654 10.85555102 3.10820967 8.6003418 3.11230469 C3.06386066 3.12334678 -2.47258152 3.14009454 -8.0090332 3.16113281 C-6.31882425 -0.2192851 -3.41137297 0.03310519 0 0 Z " fill="#777777" transform="translate(304.009033203125,299.8388671875)"/>
<path d="M0 0 C16.5 0 33 0 50 0 C49.67 0.66 49.34 1.32 49 2 C38.03530981 5.65489673 23.76526514 4.24451017 12.3125 3.75 C11.13880859 3.71060303 11.13880859 3.71060303 9.94140625 3.67041016 C5.28861378 3.40951554 3.90043353 2.92532515 0 0 Z " fill="#595959" transform="translate(42,346)"/>
<path d="M0 0 C4.31754595 4.31754595 3.25911213 10.46787992 3.3125 16.1875 C3.34150391 17.20392578 3.37050781 18.22035156 3.40039062 19.26757812 C3.4614359 26.5413569 2.51819888 32.30954119 -2.63549805 37.71557617 C-3.08578369 38.13943604 -3.53606934 38.5632959 -4 39 C-4 36 -4 36 -2.53198242 34.27441406 C-0.3572937 31.04582439 -0.564993 28.47564705 -0.48828125 24.609375 C-0.47033005 23.90476135 -0.45237885 23.20014771 -0.43388367 22.47418213 C-0.37988142 20.23284821 -0.34591912 17.99172595 -0.3125 15.75 C-0.27931782 14.22653311 -0.24482731 12.70309411 -0.20898438 11.1796875 C-0.12416262 7.4533284 -0.05730276 3.72689537 0 0 Z " fill="#7E7E7E" transform="translate(475,308)"/>
<path d="M0 0 C0.86768005 0.00091141 1.73536011 0.00182281 2.6293335 0.00276184 C3.5223114 -0.00152328 4.41528931 -0.00580841 5.33532715 -0.01022339 C7.22840527 -0.01597394 9.1215055 -0.01646163 11.0145874 -0.01213074 C13.90088112 -0.00898452 16.78613639 -0.03237256 19.67230225 -0.05778503 C21.51214471 -0.06005944 23.35198992 -0.06076087 25.1918335 -0.05973816 C26.48120819 -0.07355278 26.48120819 -0.07355278 27.79663086 -0.08764648 C32.85550696 -0.04893283 36.24536071 0.58436865 40.6762085 3.30354309 C38.6762085 4.30354309 38.6762085 4.30354309 36.65594482 3.88581848 C32.44358842 3.06267469 28.28364835 3.06730699 24.00042725 2.98713684 C23.0752681 2.96635574 22.15010895 2.94557465 21.19691467 2.92416382 C18.25258543 2.8589775 15.30816985 2.79992751 12.3637085 2.74104309 C10.36304866 2.69782845 8.36239744 2.65421323 6.36175537 2.61018372 C1.46666071 2.50332789 -3.42852048 2.4019739 -8.3237915 2.30354309 C-5.65695688 -0.36329153 -3.62793152 0.04315492 0 0 Z " fill="#737373" transform="translate(430.32379150390625,299.6964569091797)"/>
<path d="M0 0 C-2.83582698 1.5889412 -5.00599313 2.28039227 -8.24609375 2.44921875 C-9.07391357 2.49328857 -9.9017334 2.5373584 -10.75463867 2.58276367 C-12.08265503 2.63460815 -12.08265503 2.63460815 -13.4375 2.6875 C-14.35313721 2.72657471 -15.26877441 2.76564941 -16.2121582 2.8059082 C-23.04963558 3.04529854 -29.85272331 2.97587466 -36.6875 2.6875 C-37.58976318 2.65293701 -38.49202637 2.61837402 -39.42163086 2.58276367 C-40.25573486 2.53869385 -41.08983887 2.49462402 -41.94921875 2.44921875 C-43.05269653 2.39254028 -43.05269653 2.39254028 -44.1784668 2.3347168 C-46 2 -46 2 -48 0 C-41.48568186 -0.16801189 -34.97120174 -0.32794171 -28.45654297 -0.48217773 C-26.23904904 -0.53564069 -24.02159938 -0.59097328 -21.80419922 -0.64819336 C-18.62216745 -0.72998452 -15.44003851 -0.8051129 -12.2578125 -0.87890625 C-10.76400558 -0.91945885 -10.76400558 -0.91945885 -9.24002075 -0.96083069 C-8.31921722 -0.98092697 -7.3984137 -1.00102325 -6.44970703 -1.02172852 C-5.23059128 -1.05170677 -5.23059128 -1.05170677 -3.98684692 -1.08229065 C-2 -1 -2 -1 0 0 Z " fill="#545454" transform="translate(470,347)"/>
<path d="M0 0 C0.94875 0.309375 1.8975 0.61875 2.875 0.9375 C18.69858472 5.3643362 36.81258811 2.99505496 53 2 C52.34 2.33 51.68 2.66 51 3 C51 3.66 51 4.32 51 5 C42.67142334 6.09390261 34.47806914 6.05582616 26.10375977 5.81298828 C23.80689053 5.74984579 21.51025508 5.70858676 19.21289062 5.66796875 C17.73173504 5.62893962 16.25061278 5.58861979 14.76953125 5.546875 C14.0933223 5.53734802 13.41711334 5.52782104 12.72041321 5.51800537 C7.79165274 5.34287156 4.3611816 4.12072036 0 2 C0 1.34 0 0.68 0 0 Z " fill="#737373" transform="translate(164,344)"/>
<path d="M0 0 C0.495 0.99 0.495 0.99 1 2 C-4.20665935 5.17452437 -8.2187317 5.40406201 -14.1171875 5.29296875 C-14.97434357 5.28872391 -15.83149963 5.28447906 -16.71463013 5.28010559 C-19.43508164 5.26339886 -22.15477482 5.22576219 -24.875 5.1875 C-26.72655175 5.17244278 -28.57811519 5.1587562 -30.4296875 5.14648438 C-34.95341433 5.11352165 -39.47657887 5.06179537 -44 5 C-44.309375 5.639375 -44.61875 6.27875 -44.9375 6.9375 C-46 9 -46 9 -47 10 C-47.36760731 12.32817964 -47.70241581 14.6618385 -48 17 C-48.66 17 -49.32 17 -50 17 C-51.34622701 10.75840203 -51.34622701 10.75840203 -49.6875 7.125 C-48 5 -48 5 -46 4 C-43.16675395 3.87910186 -40.35391628 3.81427558 -37.51953125 3.7890625 C-35.78058978 3.76097917 -34.04165762 3.73231462 -32.30273438 3.703125 C-29.56209723 3.66197503 -26.82163108 3.62508814 -24.08081055 3.59863281 C-21.43501818 3.57088058 -18.79001543 3.52499435 -16.14453125 3.4765625 C-15.33385696 3.47330963 -14.52318268 3.47005676 -13.6879425 3.46670532 C-8.41713248 3.35386498 -4.71956094 2.36942026 0 0 Z " fill="#9E9E9E" transform="translate(244,373)"/>
<path d="M0 0 C1.22589844 0.24363281 1.22589844 0.24363281 2.4765625 0.4921875 C6.4624509 1.06665035 10.35877011 1.14932499 14.375 1.125 C15.15214355 1.12306641 15.92928711 1.12113281 16.72998047 1.11914062 C24.5082775 1.06242223 32.24633735 0.59156009 40 0 C39.67 0.66 39.34 1.32 39 2 C31.91163352 4.06167288 25.16128768 4.33522352 17.8125 4.3125 C16.75869141 4.32861328 15.70488281 4.34472656 14.61914062 4.36132812 C8.90815505 4.36492673 4.82887689 4.16087106 0 1 C0 0.67 0 0.34 0 0 Z " fill="#8A8A8A" transform="translate(457,380)"/>
<path d="M0 0 C0.66 0 1.32 0 2 0 C4.8902003 10.7866404 4.17572073 21.93935603 4 33 C-2.6 33 -9.2 33 -16 33 C-16 32.01 -16 31.02 -16 30 C-16.66 30 -17.32 30 -18 30 C-18.33 27.69 -18.66 25.38 -19 23 C-15.38296899 25.83071992 -15.86880418 26.78717492 -15 32 C-9.06 32 -3.12 32 3 32 C2.40716946 15.90366709 2.40716946 15.90366709 0 0 Z " fill="#B0B0B0" transform="translate(115,284)"/>
<path d="M0 0 C3.44108925 5.16163388 3.13215498 10.26977605 3.0625 16.3125 C3.041875 18.849375 3.02125 21.38625 3 24 C-5.58 24 -14.16 24 -23 24 C-23.99 21.03 -24.98 18.06 -26 15 C-26.66 13.68 -27.32 12.36 -28 11 C-22.8318347 14.40010875 -22.89284437 15.37504471 -21 22 C-13.41 22.33 -5.82 22.66 2 23 C1.41468868 14.97875035 1.41468868 14.97875035 0.4375 7 C0 4 0 4 0 0 Z " fill="#C0C0C0" transform="translate(375,293)"/>
<path d="M0 0 C0.66 0.33 1.32 0.66 2 1 C-7.76873265 12.47826087 -7.76873265 12.47826087 -13 17 C-13.66 17 -14.32 17 -15 17 C-15.33 18.32 -15.66 19.64 -16 21 C-16.66 21 -17.32 21 -18 21 C-15.02984294 12.18381951 -7.06095454 5.70885686 0 0 Z " fill="#383838" transform="translate(148,249)"/>
<path d="M0 0 C0 0.33 0 0.66 0 1 C-1.37720215 0.98428955 -1.37720215 0.98428955 -2.78222656 0.96826172 C-6.19647746 0.93412785 -9.61054638 0.9090759 -13.02490234 0.89013672 C-14.50116847 0.88009409 -15.97741479 0.86645735 -17.45361328 0.84912109 C-19.57850034 0.82479579 -21.70312385 0.8134996 -23.828125 0.8046875 C-25.1059082 0.79421387 -26.38369141 0.78374023 -27.70019531 0.77294922 C-30.82463858 0.98793385 -32.36669233 1.43771318 -35 3 C-37.140625 3.1953125 -37.140625 3.1953125 -39.25 3.125 C-41.10625 3.063125 -41.10625 3.063125 -43 3 C-31.36715294 -4.75523137 -12.85653903 -2.93863749 0 0 Z " fill="#ABABAB" transform="translate(339,237)"/>
<path d="M0 0 C-3.44831362 1.0803261 -6.48221344 1.03754941 -10.078125 0.87890625 C-11.23828125 0.83056641 -12.3984375 0.78222656 -13.59375 0.73242188 C-14.8003125 0.67634766 -16.006875 0.62027344 -17.25 0.5625 C-18.47203125 0.51029297 -19.6940625 0.45808594 -20.953125 0.40429688 C-23.96901481 0.27470786 -26.98456646 0.13974424 -30 0 C-30 0.66 -30 1.32 -30 2 C-32.75078884 2.91692961 -34.35948913 3.10886083 -37.1875 3.0625 C-39.0746875 3.0315625 -39.0746875 3.0315625 -41 3 C-29.76392974 -4.49071351 -12.53702173 -3.23536045 0 0 Z " fill="#B8B8B8" transform="translate(462,237)"/>
<path d="M0 0 C1.35200741 2.70401482 0.60295082 4.0577346 0 7 C-0.0793925 9.13028006 -0.10775926 11.26279622 -0.09765625 13.39453125 C-0.09443359 14.59658203 -0.09121094 15.79863281 -0.08789062 17.03710938 C-0.07951172 18.28298828 -0.07113281 19.52886719 -0.0625 20.8125 C-0.05798828 22.07771484 -0.05347656 23.34292969 -0.04882812 24.64648438 C-0.03706251 27.7643711 -0.02062272 30.88216133 0 34 C-0.66 33.67 -1.32 33.34 -2 33 C-4.84676168 23.07480386 -5.42415954 10.35879902 -1 1 C-0.67 0.67 -0.34 0.34 0 0 Z " fill="#A1A1A1" transform="translate(37,307)"/>
<path d="M0 0 C0.66 0.33 1.32 0.66 2 1 C0 4 0 4 -3 5 C-4.61070961 6.62689134 -4.61070961 6.62689134 -6.1875 8.625 C-9.77482388 12.87153297 -13.73176717 16.45237791 -18 20 C-18 15.02122937 -14.02642478 12.21472699 -10.7578125 8.7421875 C-7.4169109 5.42021452 -3.92359764 2.59746548 0 0 Z " fill="#7D7D7D" transform="translate(280,247)"/>
<path d="M0 0 C8.75155666 -0.24197853 17.34484652 0.07090385 26.0625 0.875 C27.39994263 0.99270752 27.39994263 0.99270752 28.7644043 1.11279297 C33.4391283 1.57315233 37.58721416 2.27546301 42 4 C41.34 4.66 40.68 5.32 40 6 C38.16650391 5.81494141 38.16650391 5.81494141 35.8515625 5.2265625 C28.76577108 3.63806014 21.59078124 3.05110412 14.375 2.375 C12.97521537 2.24004973 11.57547532 2.10463629 10.17578125 1.96875 C6.78426273 1.64129304 3.39236999 1.31849344 0 1 C0 0.67 0 0.34 0 0 Z " fill="#A1A1A1" transform="translate(295,136)"/>
<path d="M0 0 C-2.97787295 2.58241415 -4.76916957 3.37363146 -8.703125 3.328125 C-9.60160156 3.32296875 -10.50007813 3.3178125 -11.42578125 3.3125 C-12.82376953 3.2815625 -12.82376953 3.2815625 -14.25 3.25 C-15.62478516 3.24226563 -15.62478516 3.24226563 -17.02734375 3.234375 C-22.42856094 3.17273486 -27.6554987 2.77783822 -33 2 C-33 1.67 -33 1.34 -33 1 C-28.43755286 0.83186513 -23.87503444 0.66574745 -19.3125 0.5 C-18.01892578 0.45230469 -16.72535156 0.40460938 -15.39257812 0.35546875 C-13.52182617 0.28779297 -13.52182617 0.28779297 -11.61328125 0.21875 C-9.89298706 0.1559082 -9.89298706 0.1559082 -8.13793945 0.09179688 C-5.42259389 0.01236251 -2.71620292 -0.01779658 0 0 Z " fill="#8A8A8A" transform="translate(173,391)"/>
<path d="M0 0 C0.66 0.33 1.32 0.66 2 1 C-3.3250511 7.12627407 -8.72690435 12.83794309 -15 18 C-15 13.78193333 -13.14807199 12.61332709 -10.3125 9.5625 C-9.44238281 8.61503906 -8.57226562 7.66757813 -7.67578125 6.69140625 C-5.23784139 4.23923024 -2.74711696 2.0937486 0 0 Z " fill="#6B6B6B" transform="translate(33,169)"/>
<path d="M0 0 C0.92515915 0.00424484 1.8503183 0.00848969 2.80351257 0.01286316 C5.74821505 0.02960882 8.69222435 0.06725353 11.63671875 0.10546875 C13.63735988 0.1205209 15.63801178 0.13420838 17.63867188 0.14648438 C22.53411982 0.17949892 27.4290519 0.231253 32.32421875 0.29296875 C32.32421875 0.62296875 32.32421875 0.95296875 32.32421875 1.29296875 C31.12821045 1.31278809 29.93220215 1.33260742 28.69995117 1.35302734 C24.26614181 1.42905147 19.83266201 1.51777372 15.39916992 1.61035156 C13.47963971 1.64865452 11.5600374 1.68350508 9.64038086 1.71484375 C6.88238745 1.76046577 4.12489098 1.81846455 1.3671875 1.87890625 C0.07798653 1.89623306 0.07798653 1.89623306 -1.23725891 1.91390991 C-2.0378624 1.9337796 -2.83846588 1.95364929 -3.66333008 1.97412109 C-4.36726395 1.98744476 -5.07119781 2.00076843 -5.79646301 2.01449585 C-8.00675589 2.2054106 -8.00675589 2.2054106 -10.67578125 4.29296875 C-12.86328125 3.91796875 -12.86328125 3.91796875 -14.67578125 3.29296875 C-9.96321452 -0.39124708 -5.7069318 -0.09896525 0 0 Z " fill="#B6B6B6" transform="translate(55.67578125,299.70703125)"/>
<path d="M0 0 C0.33 0 0.66 0 1 0 C1 12.87 1 25.74 1 39 C-0.485 39.495 -0.485 39.495 -2 40 C-1.835 39.484375 -1.67 38.96875 -1.5 38.4375 C-0.84500424 35.24439569 -0.94655477 32.260159 -1 29 C-1.10072734 19.3118616 -0.55478762 9.6691556 0 0 Z " fill="#DDDDDD" transform="translate(247,333)"/>
<path d="M0 0 C0.33 0 0.66 0 1 0 C1.02505615 1.03406982 1.0501123 2.06813965 1.07592773 3.13354492 C1.1703343 6.98213387 1.27047291 10.83055629 1.37231445 14.67895508 C1.41553784 16.34232681 1.45722146 18.00573932 1.49731445 19.66918945 C1.55532332 22.06474068 1.61892829 24.46008908 1.68359375 26.85546875 C1.70030624 27.5952446 1.71701874 28.33502045 1.73423767 29.09721375 C1.8407276 32.83645932 2.12187752 36.35938544 3 40 C2.01 39.67 1.02 39.34 0 39 C0 26.13 0 13.26 0 0 Z " fill="#EFEFEF" transform="translate(264,333)"/>
<path d="M0 0 C0 0.66 0 1.32 0 2 C-6.76485645 3.6120509 -13.04958914 4.26618595 -20 4 C-16.89234404 2.25971266 -14.0636951 1.48685934 -10.5625 0.875 C-9.17224609 0.62363281 -9.17224609 0.62363281 -7.75390625 0.3671875 C-5.12946175 0.01726157 -2.64357647 -0.06716891 0 0 Z " fill="#888888" transform="translate(166,126)"/>
<path d="M0 0 C0.66 0.33 1.32 0.66 2 1 C-2.38067283 6.10337266 -6.67576522 10.87371805 -12 15 C-12 12 -12 12 -9.9375 9.75 C-8.96003453 8.83151952 -7.98063409 7.91509667 -7 7 C-5.72522205 5.73312357 -4.45446477 4.46219016 -3.1875 3.1875 C-2.125 2.125 -1.0625 1.0625 0 0 Z " fill="#848484" transform="translate(403,249)"/>
<path d="M0 0 C1.58167969 -0.01836914 1.58167969 -0.01836914 3.1953125 -0.03710938 C4.21109375 -0.03904297 5.226875 -0.04097656 6.2734375 -0.04296875 C7.66828369 -0.04913208 7.66828369 -0.04913208 9.09130859 -0.05541992 C11.72946455 0.19751563 13.36130225 0.84792981 15.625 2.1875 C14.91891602 2.18226318 14.21283203 2.17702637 13.48535156 2.17163086 C10.28191012 2.15082587 7.0784829 2.13782859 3.875 2.125 C2.76382812 2.11662109 1.65265625 2.10824219 0.5078125 2.09960938 C-0.56210937 2.09638672 -1.63203125 2.09316406 -2.734375 2.08984375 C-4.21115723 2.08198853 -4.21115723 2.08198853 -5.71777344 2.07397461 C-8.10369514 2.17590897 -10.09664581 2.50446643 -12.375 3.1875 C-12.705 2.5275 -13.035 1.8675 -13.375 1.1875 C-9.40063582 -0.79968209 -4.36949074 0.00265139 0 0 Z " fill="#CBCBCB" transform="translate(444.375,251.8125)"/>
<path d="M0 0 C1.89935998 0.7177617 3.76791368 1.51605552 5.62890625 2.328125 C1.87890625 3.453125 1.87890625 3.453125 -0.37109375 2.328125 C-1.99378366 2.23200748 -3.62056681 2.19830148 -5.24609375 2.203125 C-6.10976563 2.20054687 -6.9734375 2.19796875 -7.86328125 2.1953125 C-10.17775346 2.31788579 -12.15398491 2.67846055 -14.37109375 3.328125 C-14.04109375 2.338125 -13.71109375 1.348125 -13.37109375 0.328125 C-9.32423994 -1.69530191 -4.26703571 -1.20911061 0 0 Z " fill="#A1A1A1" transform="translate(435.37109375,147.671875)"/>
<path d="M0 0 C-5.59675416 4.92514366 -11.89909367 5.24915461 -19 5 C-16.07382565 3.0492171 -13.97955419 2.28486538 -10.625 1.375 C-9.68914062 1.11460937 -8.75328125 0.85421875 -7.7890625 0.5859375 C-5.09876365 0.02074867 -2.73855429 -0.10954217 0 0 Z " fill="#888888" transform="translate(128,134)"/>
<path d="M0 0 C0.66 0.33 1.32 0.66 2 1 C0 4 0 4 -2.125 5.1875 C-6.3431607 7.84677523 -9.56542349 11.41201809 -13 15 C-13 12 -13 12 -10.91796875 9.58984375 C-10.01691406 8.71457031 -9.11585938 7.83929688 -8.1875 6.9375 C-7.29417969 6.05964844 -6.40085938 5.18179688 -5.48046875 4.27734375 C-3 2 -3 2 0 0 Z " fill="#A5A5A5" transform="translate(148,249)"/>
<path d="M0 0 C1.32 0.33 2.64 0.66 4 1 C1.36 3.64 -1.28 6.28 -4 9 C-4.33 7.68 -4.66 6.36 -5 5 C-2.8125 2.1875 -2.8125 2.1875 0 0 Z " fill="#5D5D5D" transform="translate(166,302)"/>
<path d="M0 0 C3.4430565 5.16458475 3.13280841 10.26056862 3.0625 16.3125 C3.05798828 17.05306641 3.05347656 17.79363281 3.04882812 18.55664062 C3.03712175 20.37112899 3.01918898 22.18557534 3 24 C2.67 24 2.34 24 2 24 C1.93941406 23.14277344 1.87882812 22.28554688 1.81640625 21.40234375 C1.31784844 14.14981711 1.31784844 14.14981711 0.4375 6.9375 C0 4 0 4 0 0 Z " fill="#9D9D9D" transform="translate(375,293)"/>
<path d="M0 0 C1.32 0.33 2.64 0.66 4 1 C3.34 1.66 2.68 2.32 2 3 C1.59952556 5.32275177 1.2602896 7.65739357 1 10 C0.34 10 -0.32 10 -1 10 C-2.25 3.375 -2.25 3.375 0 0 Z " fill="#6D6D6D" transform="translate(195,380)"/>
<path d="M0 0 C1 2 1 2 0.3125 4.5625 C-1.29950994 8.78443079 -3.11939549 12.89188335 -5 17 C-6.30230734 13.99353048 -5.96485975 12.90644333 -4.78515625 9.765625 C-4.21667969 8.60546875 -3.64820313 7.4453125 -3.0625 6.25 C-2.21365234 4.49429688 -2.21365234 4.49429688 -1.34765625 2.703125 C-0.90292969 1.81109375 -0.45820313 0.9190625 0 0 Z " fill="#909090" transform="translate(9,198)"/>
<path d="M0 0 C2.04136395 -0.05451714 4.08315856 -0.09302485 6.125 -0.125 C7.83042969 -0.15980469 7.83042969 -0.15980469 9.5703125 -0.1953125 C13.05757767 0.00327891 15.7553862 0.7475199 19 2 C18.34 2.66 17.68 3.32 17 4 C14.05976327 3.65374458 11.26827865 3.20741323 8.375 2.625 C7.57320313 2.47289062 6.77140625 2.32078125 5.9453125 2.1640625 C3.96157813 1.78620834 1.98051003 1.39440564 0 1 C0 0.67 0 0.34 0 0 Z " fill="#7B7B7B" transform="translate(318,138)"/>
<path d="M0 0 C0 0.33 0 0.66 0 1 C-1.98 1 -3.96 1 -6 1 C-6 1.66 -6 2.32 -6 3 C-8.75078884 3.91692961 -10.35948913 4.10886083 -13.1875 4.0625 C-15.0746875 4.0315625 -15.0746875 4.0315625 -17 4 C-11.6013038 0.4008692 -6.3999927 -0.26122419 0 0 Z " fill="#969696" transform="translate(438,236)"/>
<path d="M0 0 C0.66 0.33 1.32 0.66 2 1 C0.59447701 2.03612271 -0.82491694 3.05344925 -2.25 4.0625 C-3.43335938 4.91521484 -3.43335938 4.91521484 -4.640625 5.78515625 C-7 7 -7 7 -9.296875 6.68359375 C-9.85890625 6.45800781 -10.4209375 6.23242188 -11 6 C-9.73168307 5.18357746 -8.46024069 4.37200895 -7.1875 3.5625 C-6.47980469 3.11003906 -5.77210938 2.65757812 -5.04296875 2.19140625 C-3 1 -3 1 0 0 Z " fill="#919191" transform="translate(419,240)"/>
<path d="M0 0 C0.33 0 0.66 0 1 0 C1.2358396 5.77807024 0.86783046 10.51324804 -1 16 C-1.33 16 -1.66 16 -2 16 C-2.20674944 10.21101581 -1.59162079 5.57067277 0 0 Z " fill="#888888" transform="translate(2,215)"/>
<path d="M0 0 C-0.99 0.495 -0.99 0.495 -2 1 C-2 1.66 -2 2.32 -2 3 C-7.61 2.67 -13.22 2.34 -19 2 C-19 1.67 -19 1.34 -19 1 C-16.77100213 0.83109082 -14.54179338 0.66496313 -12.3125 0.5 C-10.45044922 0.36078125 -10.45044922 0.36078125 -8.55078125 0.21875 C-5.68500671 0.04220063 -2.86900043 -0.04388528 0 0 Z " fill="#4B4B4B" transform="translate(217,346)"/>
<path d="M0 0 C3.66172475 0.62678171 6.8818995 1.64451846 10.3125 3.0625 C11.19550781 3.42472656 12.07851563 3.78695312 12.98828125 4.16015625 C13.65214844 4.43730469 14.31601562 4.71445313 15 5 C10.26600414 6.57799862 6.98283195 4.47321538 2.625 2.375 C1.75875 1.92125 0.8925 1.4675 0 1 C0 0.67 0 0.34 0 0 Z " fill="#ABABAB" transform="translate(441,151)"/>
<path d="M0 0 C1.32 0.33 2.64 0.66 4 1 C0.535 3.97 0.535 3.97 -3 7 C-2.25 2.25 -2.25 2.25 0 0 Z " fill="#5E5E5E" transform="translate(294,303)"/>
<path d="M0 0 C0.33 1.32 0.66 2.64 1 4 C0.01 4.33 -0.98 4.66 -2 5 C-2 6.65 -2 8.3 -2 10 C-2.99 9.67 -3.98 9.34 -5 9 C-5 8.01 -5 7.02 -5 6 C-4.34 6 -3.68 6 -3 6 C-2.690625 5.195625 -2.38125 4.39125 -2.0625 3.5625 C-1 1 -1 1 0 0 Z " fill="#8F8F8F" transform="translate(260,267)"/>
<path d="M0 0 C0 0.66 0 1.32 0 2 C-2.75 4.1875 -2.75 4.1875 -6 6 C-8.203125 5.61328125 -8.203125 5.61328125 -10 5 C-8.71186658 4.16121545 -7.41936744 3.32913217 -6.125 2.5 C-5.40570313 2.0359375 -4.68640625 1.571875 -3.9453125 1.09375 C-2 0 -2 0 0 0 Z " fill="#848484" transform="translate(49,160)"/>
<path d="M0 0 C0.66 0.33 1.32 0.66 2 1 C-0.38957269 4.24299151 -2.2047869 6.50902342 -6 8 C-4.55746343 4.63408134 -2.66735273 2.48952921 0 0 Z " fill="#747474" transform="translate(420,302)"/>
<path d="M0 0 C0.33 0 0.66 0 1 0 C1.66 4.29 2.32 8.58 3 13 C2.01 12.67 1.02 12.34 0 12 C0 8.04 0 4.08 0 0 Z " fill="#B8B8B8" transform="translate(264,360)"/>
<path d="M0 0 C0.309375 0.639375 0.61875 1.27875 0.9375 1.9375 C1.8345163 3.93610821 1.8345163 3.93610821 3 5 C3.14115161 7.67058851 3.04247107 10.32432238 3 13 C2.67 13 2.34 13 2 13 C0.54815522 8.46298506 -0.23509196 4.81938524 0 0 Z " fill="#5E5E5E" transform="translate(509,219)"/>
<path d="M0 0 C-6 4 -6 4 -8.1875 3.625 C-8.785625 3.41875 -9.38375 3.2125 -10 3 C-6.48812804 0.59185923 -4.27343092 -0.36629408 0 0 Z " fill="#9C9C9C" transform="translate(51,300)"/>
<path d="M0 0 C0.99 0.495 0.99 0.495 2 1 C2 1.66 2 2.32 2 3 C2.99 2.67 3.98 2.34 5 2 C4.67 3.32 4.34 4.64 4 6 C3.01 6 2.02 6 1 6 C0.67 4.02 0.34 2.04 0 0 Z " fill="#9B9B9B" transform="translate(381,268)"/>
</svg>
