<?xml version="1.0" encoding="UTF-8"?>
<svg version="1.1" xmlns="http://www.w3.org/2000/svg" width="512" height="512">
<path d="M0 0 C1.29421875 -0.02449219 2.5884375 -0.04898438 3.921875 -0.07421875 C21.15279163 -0.12632838 36.49891348 6.94581617 48.9375 18.83203125 C62.37673252 33.61064674 67.60471011 48.95558395 67.625 68.6875 C67.64949219 69.92951172 67.67398438 71.17152344 67.69921875 72.45117188 C67.75530767 90.27809879 59.91125708 105.16074581 47.79589844 117.87207031 C35.24687764 130.07228699 17.83441341 136.46914613 0.5 136.625 C-1.91737227 136.56555642 -4.33439115 136.4848004 -6.75 136.375 C-7.595625 136.3440625 -8.44125 136.313125 -9.3125 136.28125 C-14.70665428 135.89595327 -19.29563956 134.19861404 -24.26953125 132.1171875 C-27.01820948 131.29474834 -28.13738411 131.25065179 -30.75 132.375 C-32.49183061 133.75670728 -32.49183061 133.75670728 -34 135.4375 C-34.52078125 135.98535156 -35.0415625 136.53320312 -35.578125 137.09765625 C-35.96484375 137.51917969 -36.3515625 137.94070312 -36.75 138.375 C-35.29700171 141.73652609 -33.45957052 143.87718106 -30.8359375 146.4140625 C-29.69511719 147.53167969 -29.69511719 147.53167969 -28.53125 148.671875 C-27.34015625 149.82429688 -27.34015625 149.82429688 -26.125 151 C-24.54497816 152.52921728 -22.96921026 154.06284633 -21.3984375 155.6015625 C-20.69895996 156.27783691 -19.99948242 156.95411133 -19.27880859 157.65087891 C-17.75 159.375 -17.75 159.375 -17.75 161.375 C-17.15237854 161.64795898 -16.55475708 161.92091797 -15.93902588 162.20214844 C-13.8115941 163.34199868 -12.42459528 164.44714943 -10.72558594 166.140625 C-10.16530701 166.69459961 -9.60502808 167.24857422 -9.027771 167.81933594 C-8.43595032 168.41520508 -7.84412964 169.01107422 -7.234375 169.625 C-6.61854553 170.23891602 -6.00271606 170.85283203 -5.3682251 171.48535156 C-4.07147354 172.78074483 -2.77723343 174.07865644 -1.48535156 175.37890625 C0.49975202 177.37475068 2.49533591 179.35966726 4.4921875 181.34375 C5.75064211 182.60352555 7.00847654 183.86392101 8.265625 185.125 C8.8655426 185.72086914 9.46546021 186.31673828 10.08355713 186.93066406 C14.25 191.14506753 14.25 191.14506753 14.25 193.375 C14.91 193.375 15.57 193.375 16.25 193.375 C34.64016305 212.07039397 40.31227568 235.96879979 42.5 261.25 C42.59240967 262.28350586 42.68481934 263.31701172 42.7800293 264.38183594 C43.56852562 274.58244533 44.18157486 284.21074817 37.25 292.375 C32.13130189 297.84713203 27.42205767 299.98869836 19.875 300.6875 C11.90225619 300.0001945 5.60693678 297.42945459 0.25 291.375 C-6.12038979 283.37219783 -5.43879408 270.79438287 -6.13671875 261.0234375 C-7.42556625 243.80492765 -11.39026364 233.64392272 -23.75 221.375 C-25.06803142 220.04842136 -26.38600195 218.7217817 -27.70297241 217.39414978 C-33.35875662 211.69424465 -39.04635028 206.0270222 -44.75 200.375 C-47.54912692 201.65126215 -49.58723774 202.96621125 -51.74706554 205.1511097 C-52.31378953 205.71940188 -52.88051352 206.28769406 -53.46441096 206.87320721 C-54.38322573 207.80996912 -54.38322573 207.80996912 -55.32060242 208.76565552 C-55.97920551 209.42889985 -56.6378086 210.09214418 -57.31636935 210.77548683 C-59.5264581 213.00338316 -61.72930905 215.23830316 -63.93237305 217.47314453 C-65.51390334 219.06996963 -67.09594197 220.66629139 -68.67845154 222.262146 C-72.08796327 225.70172728 -75.49469463 229.14403119 -78.89957237 232.58819962 C-84.28333411 238.03234228 -89.67840863 243.46517525 -95.0761261 248.89547729 C-96.92335193 250.75410877 -98.77057231 252.61274567 -100.61778736 254.47138786 C-101.54288125 255.40218343 -102.46797513 256.33297901 -103.42110217 257.2919805 C-108.20582484 262.10656847 -112.98903183 266.92266082 -117.77124023 271.73974609 C-118.25109703 272.22309468 -118.73095382 272.70644327 -119.22535173 273.20443879 C-127.00180158 281.03831936 -134.76515136 288.88507386 -142.52464297 296.73574711 C-150.49406452 304.79801638 -158.48092865 312.84266262 -166.48254615 320.87300193 C-170.97361255 325.38153493 -175.45596241 329.89804806 -179.91895103 334.43439102 C-184.11621035 338.70047 -188.33386932 342.94524734 -192.56817055 347.17455292 C-194.11879219 348.73084837 -195.66168271 350.29489082 -197.19616699 351.86709976 C-199.29203502 354.01220611 -201.413877 356.12778343 -203.54447937 358.23831177 C-204.14586894 358.86728115 -204.74725851 359.49625054 -205.36687201 360.1442796 C-208.64241312 363.325548 -210.85711375 364.76465054 -215.50112629 364.91869926 C-218.8399256 364.80193676 -220.57808351 364.20569344 -222.9375 361.8125 C-224.75 358.375 -224.75 358.375 -224.375 354.8125 C-222.59804527 351.05355731 -220.73793406 349.24149035 -217.75 346.375 C-216.75865761 345.38848369 -215.76982344 344.399442 -214.78320312 343.40820312 C-138.75 267.375 -138.75 267.375 -136.1373291 264.8248291 C-134.12674905 262.7616123 -132.40404369 260.72548314 -130.75 258.375 C-140.43810004 258.48512812 -150.1261617 258.59814322 -159.81419086 258.71433926 C-164.3182522 258.76827997 -168.82231923 258.82141239 -173.32641602 258.87231445 C-174.18604635 258.88221248 -175.04567669 258.8921105 -175.93135643 258.90230846 C-177.67032972 258.92191294 -179.40931479 258.94049875 -181.14830971 258.95808125 C-185.57292532 259.00542732 -189.99495078 259.07727147 -194.41830444 259.19438171 C-202.6784892 259.39543375 -210.80381308 259.45172383 -219.04400349 258.76146317 C-236.36065198 257.32736937 -251.25185297 256.63635795 -265.28299236 268.12172604 C-272.76071553 274.65917789 -279.40493868 281.97625655 -285.965271 289.41491699 C-289.40217303 293.25358304 -292.98179687 296.95482134 -296.54296875 300.67773438 C-301.68339693 306.10860135 -306.79461014 311.56413027 -311.76269531 317.15356445 C-312.28783218 317.72670883 -312.81296906 318.29985321 -313.35401917 318.8903656 C-315.94243498 321.76993404 -315.94243498 321.76993404 -316.89186096 325.40744019 C-315.17137431 328.37203965 -312.87979489 330.67864108 -310.4675293 333.07739258 C-309.91785492 333.6355365 -309.36818054 334.19368042 -308.80184937 334.76873779 C-306.98374793 336.61022795 -305.15466362 338.44031546 -303.32421875 340.26953125 C-302.05697965 341.54386899 -300.79004132 342.81850588 -299.52339172 344.09342957 C-296.86785644 346.76241271 -294.20645312 349.42537949 -291.54125977 352.0847168 C-288.12100775 355.49906199 -284.71938433 358.93132807 -281.32234478 362.36874866 C-278.71190665 365.00498584 -276.09013651 367.62971861 -273.46494484 370.25125694 C-272.20545303 371.51244623 -270.94995991 372.77764164 -269.69852257 374.0468235 C-267.95086209 375.81652653 -266.18816985 377.56973872 -264.4206543 379.31958008 C-263.90361435 379.84988327 -263.3865744 380.38018646 -262.85386658 380.92655945 C-261.26359799 382.53759096 -261.26359799 382.53759096 -258.75 384.375 C-255.49948002 384.31111108 -254.8024098 383.42556624 -252.41796875 381.125 C-250.76782307 379.29554715 -249.12196225 377.46222007 -247.48046875 375.625 C-244.14268943 372.87455524 -242.03824688 372.45404603 -237.75 372.375 C-234.3125 374.375 -234.3125 374.375 -231.75 377.375 C-230.9375 380.6875 -230.9375 380.6875 -231.75 384.375 C-236.77208669 391.50629957 -243.76313585 397.67401054 -249.89208984 403.8671875 C-251.04919105 405.04091654 -252.20089082 406.21999465 -253.34716797 407.40429688 C-266.48395069 420.972101 -266.48395069 420.972101 -276.68359375 422.94140625 C-285.11813955 422.92824783 -291.27805278 420.75911522 -297.375 414.81640625 C-299.57799521 412.38966934 -301.6968251 409.92907022 -303.75 407.375 C-308.11130336 407.80297837 -310.21630534 410.70100578 -313 413.75 C-317.304371 418.23814667 -320.55941944 421.13688389 -326.75 422.375 C-331.15524882 422.1510043 -334.74477535 421.19555666 -338.75 419.375 C-341.77079491 421.57194175 -344.26433108 423.89449386 -346.65209961 426.74145508 C-351.88769275 432.7850465 -357.5977243 438.36672071 -363.25390625 444.01171875 C-364.46278711 445.22127467 -365.67151962 446.43097889 -366.88011169 447.64082336 C-369.40079502 450.16297301 -371.92325768 452.6833255 -374.44702148 455.20239258 C-377.67032749 458.41998965 -380.88910584 461.64207282 -384.10656834 464.86551189 C-386.5969791 467.35954667 -389.08977961 469.85118195 -391.58329582 472.34211159 C-392.77087585 473.52902807 -393.9577233 474.71667803 -395.14380074 475.90509605 C-396.8038176 477.56767116 -398.46703855 479.22697593 -400.13110352 480.88549805 C-400.85368599 481.61111687 -400.85368599 481.61111687 -401.59086609 482.35139465 C-404.8317005 485.57240181 -408.22621754 488.47550483 -411.75 491.375 C-414.46632349 493.96785424 -416.66569854 496.24854781 -418.75 499.375 C-419.41 499.375 -420.07 499.375 -420.75 499.375 C-420.75 500.035 -420.75 500.695 -420.75 501.375 C-422.39453125 502.9609375 -422.39453125 502.9609375 -424.5625 504.75 C-426.82659336 506.62231035 -428.56198118 508.06564346 -430.09375 510.5859375 C-431.75 512.375 -431.75 512.375 -434.88671875 512.765625 C-436.64435547 512.69601562 -436.64435547 512.69601562 -438.4375 512.625 C-439.61699219 512.58890625 -440.79648437 512.5528125 -442.01171875 512.515625 C-443.36716797 512.44601562 -443.36716797 512.44601562 -444.75 512.375 C-445.61078921 500.55349482 -445.61078921 500.55349482 -442.375 496.625 C-439.75 494.375 -439.75 494.375 -437.75 494.375 C-437.5025 493.80265625 -437.255 493.2303125 -437 492.640625 C-435.55683801 490.02489389 -433.86783778 488.22726544 -431.75 486.125 C-430.698125 485.06539063 -430.698125 485.06539063 -429.625 483.984375 C-427.75 482.375 -427.75 482.375 -425.75 482.375 C-425.5025 481.75625 -425.255 481.1375 -425 480.5 C-423.51259631 477.97141373 -422.31321991 477.65660996 -419.75 476.375 C-419.49539505 475.81603027 -419.2407901 475.25706055 -418.97846985 474.68115234 C-417.23993612 471.41747953 -414.697797 469.05308333 -412.09448242 466.4765625 C-411.22827019 465.60750275 -411.22827019 465.60750275 -410.34455872 464.72088623 C-408.43637866 462.80900502 -406.52109797 460.90441513 -404.60546875 459 C-403.27472578 457.67044962 -401.94435279 456.34052883 -400.61433411 455.01025391 C-397.82564355 452.22312723 -395.03362666 449.43939119 -392.23901367 446.65820312 C-388.66289979 443.09905402 -385.09337863 439.53338299 -381.52611828 435.96536255 C-378.77858264 433.21809937 -376.02844408 430.47345449 -373.27742958 427.72967529 C-371.96077341 426.41619425 -370.64471582 425.10211289 -369.32927513 423.78741455 C-367.48657973 421.94689639 -365.6406224 420.10971388 -363.79370117 418.2734375 C-363.25377533 417.73305847 -362.71384949 417.19267944 -362.15756226 416.63592529 C-359.83661299 414.33443 -357.52086276 412.1974717 -354.93476868 410.19384766 C-352.49477628 408.48727303 -352.49477628 408.48727303 -351.75 405.375 C-352.50911128 403.47701172 -352.50911128 403.47701172 -353.6875 401.5625 C-355.58362776 397.94862584 -356.47068345 395.51892984 -355.75 391.375 C-352.1700009 384.52630607 -346.17809445 378.80309445 -340.75 373.375 C-340.96897164 370.84409526 -341.4592054 369.67342701 -343.23828125 367.84765625 C-343.84027344 367.38230469 -344.44226563 366.91695313 -345.0625 366.4375 C-348.06276297 363.99901467 -350.52790066 361.57482305 -352.75 358.375 C-352.75 357.715 -352.75 357.055 -352.75 356.375 C-353.41 356.045 -354.07 355.715 -354.75 355.375 C-356.42821424 348.30883476 -356.04536039 341.84802934 -352.75 335.375 C-350.95687579 332.52316947 -349.11045572 329.7880564 -346.75 327.375 C-346.09 327.375 -345.43 327.375 -344.75 327.375 C-344.75 326.715 -344.75 326.055 -344.75 325.375 C-343.24609375 323.89453125 -343.24609375 323.89453125 -341.1875 322.1875 C-337.16325101 318.76759935 -333.440996 315.14761508 -329.75 311.375 C-328.08333333 309.70833333 -326.41666667 308.04166667 -324.75 306.375 C-324.03235096 305.65721217 -323.31470192 304.93942434 -322.57530594 304.19988537 C-319.1078385 300.73293409 -315.63900238 297.26735453 -312.17010498 293.80183411 C-310.60077575 292.23397157 -309.03145017 290.66610537 -307.46212769 289.09823608 C-306.62664272 288.26352657 -305.79115776 287.42881706 -304.93035507 286.56881332 C-286.3049247 267.96050393 -267.68203139 249.34965773 -249.06094055 230.73700588 C-246.31213052 227.98944638 -243.56329859 225.2419088 -240.81445312 222.49438477 C-240.26726983 221.94746378 -239.72008653 221.40054279 -239.15632191 220.83704843 C-230.27369712 211.95878579 -221.38930882 203.08228987 -212.50428018 194.20643298 C-203.38194056 185.09343162 -194.26148862 175.97854428 -185.14280057 166.86188906 C-179.5173454 161.23780779 -173.89041006 155.61521582 -168.26158789 149.99450435 C-163.95547958 145.69428685 -159.65199498 141.39145353 -155.34950638 137.08761406 C-153.58021212 135.31859611 -151.81005339 133.55044229 -150.03899002 131.7831955 C-147.63101316 129.380156 -145.22609723 126.97409537 -142.82196045 124.56721497 C-141.75754388 123.50716766 -141.75754388 123.50716766 -140.67162395 122.42570525 C-140.03177161 121.78386187 -139.39191926 121.14201848 -138.73267746 120.48072529 C-137.8988901 119.64750751 -137.8988901 119.64750751 -137.04825854 118.79745704 C-135.64231174 117.38682116 -135.64231174 117.38682116 -134.75 115.375 C-134.09 115.375 -133.43 115.375 -132.75 115.375 C-133.62596392 110.67321987 -136.52668794 108.13067232 -139.8046875 104.8515625 C-140.42086945 104.22776703 -141.03705139 103.60397156 -141.67190552 102.96127319 C-142.98115898 101.6412136 -144.29441402 100.32511263 -145.61132812 99.01269531 C-147.59705246 97.02793399 -149.56058541 95.02297499 -151.5234375 93.015625 C-167.02137619 77.36063085 -180.16869187 74.50502668 -201.60205078 72.69775391 C-203.64674359 72.52334099 -205.69051734 72.34015514 -207.734375 72.15625 C-209.53986816 72.0025293 -209.53986816 72.0025293 -211.38183594 71.84570312 C-218.91047254 70.79357125 -223.74808988 68.00614828 -228.75 62.375 C-232.37840084 56.38657913 -234.25064336 50.47898881 -233.125 43.5 C-231.23870408 36.96667042 -227.76991772 31.06365 -221.89135742 27.42773438 C-213.60714745 23.35505014 -204.02652494 24.29937283 -195.125 25.0625 C-193.89168945 25.16208008 -192.65837891 25.26166016 -191.38769531 25.36425781 C-159.26638788 28.11895688 -139.48095844 38.33274374 -116.671875 61.390625 C-115.85680481 62.20948181 -115.04173462 63.02833862 -114.20196533 63.87200928 C-111.63216299 66.4538877 -109.06566902 69.03901459 -106.5 71.625 C-103.10188579 75.04980097 -99.70040567 78.47120775 -96.296875 81.890625 C-95.14357697 83.05637054 -95.14357697 83.05637054 -93.96697998 84.2456665 C-90.81775433 87.40918029 -87.70102281 90.4867633 -84.21582031 93.28027344 C-83.40209961 93.9715332 -82.58837891 94.66279297 -81.75 95.375 C-81.75 96.035 -81.75 96.695 -81.75 97.375 C-81.09 97.375 -80.43 97.375 -79.75 97.375 C-79.75 98.035 -79.75 98.695 -79.75 99.375 C-79.151875 99.643125 -78.55375 99.91125 -77.9375 100.1875 C-75.77775192 101.35993467 -74.39209744 102.56869282 -72.75 104.375 C-68.9865111 103.1205037 -67.35943555 101.32778233 -64.75 98.375 C-63.09724421 94.56354277 -64.34811006 91.74615449 -65.625 87.9375 C-67.95844471 80.89637139 -68.97211415 74.81901073 -69.0625 67.4375 C-69.09150391 66.65181641 -69.12050781 65.86613281 -69.15039062 65.05664062 C-69.20862445 59.70360796 -68.41847656 56.55262455 -64.75 52.375 C-60.72721247 51.13159294 -58.72312002 50.93074955 -54.875 52.6875 C-52.75 54.375 -52.75 54.375 -51.75 56.375 C-51.63697078 58.2274234 -51.52974589 60.08049338 -51.46020508 61.93505859 C-50.81768573 78.92039807 -47.09476888 92.51122998 -35.1796875 105.1484375 C-31.39523873 108.61650148 -27.31536765 111.06933614 -22.75 113.375 C-21.63625 113.9525 -20.5225 114.53 -19.375 115.125 C-8.98792297 118.7067507 1.57499026 119.44641608 12.1875 116.6875 C12.88625244 116.50670898 13.58500488 116.32591797 14.30493164 116.13964844 C27.2326827 112.61294233 36.85365848 104.81445952 43.74609375 93.31640625 C51.7897575 77.58425351 51.34742394 63.06999351 46.3828125 46.4765625 C45.70536299 44.43131018 44.98349016 42.40082997 44.25 40.375 C43.59 40.375 42.93 40.375 42.25 40.375 C41.21564444 38.72943434 40.22236487 37.0579392 39.25 35.375 C36.27305487 31.14496867 32.84393833 28.45392739 28.5 25.75 C27.87673828 25.35683594 27.25347656 24.96367187 26.61132812 24.55859375 C14.51033705 17.07889687 0.99239175 15.41254029 -12.9375 18.5 C-24.7950602 21.90137185 -33.15816772 28.78316772 -41.75 37.375 C-46.66746739 37.93929954 -48.66810765 38.14134041 -52.75 35.25 C-54.75 32.375 -54.75 32.375 -55.4375 29.5625 C-53.57900625 20.94584715 -45.76487803 15.03359849 -38.75 10.375 C-36.08480319 8.82742192 -33.37345678 7.39369157 -30.625 6 C-29.96838379 5.66613281 -29.31176758 5.33226562 -28.63525391 4.98828125 C-19.13102621 0.3749932 -10.46179719 0.01029704 0 0 Z M-214.75 43.375 C-215.69084486 47.00397301 -216.25823915 49.30205069 -214.625 52.75 C-210.87205535 56.00255203 -205.45555529 55.62216277 -200.68359375 55.98828125 C-199.29616359 56.10278651 -197.90879552 56.21804604 -196.52148438 56.33398438 C-194.36558483 56.5119989 -192.20976183 56.68584277 -190.05249023 56.84643555 C-162.83789247 58.89592607 -148.17659514 72.82195861 -129.70654297 91.2097168 C-128.31921204 92.58748812 -126.93171548 93.96509268 -125.54406738 95.34254456 C-121.02292244 99.83257031 -116.5070872 104.3279143 -111.9921875 108.82421875 C-111.22080775 109.59230118 -110.449428 110.36038361 -109.6546731 111.15174127 C-102.36670814 118.40895652 -95.08078092 125.66821187 -87.79968071 132.93231487 C-78.52697278 142.18311041 -69.24434398 151.42369567 -59.94790924 160.65064877 C-53.38761657 167.1635846 -46.83896426 173.68808294 -40.29868424 180.22111446 C-36.4025455 184.11231861 -32.50160036 187.99838833 -28.58800888 191.87204552 C-24.90569778 195.51726599 -21.23813244 199.17671967 -17.58093262 202.84712791 C-16.24466635 204.18334062 -14.90334733 205.51452468 -13.55636978 206.83993912 C3.14123757 223.2846398 9.0981051 238.76774156 11.3125 261.8125 C11.55162005 264.28292559 11.79372581 266.75284561 12.04624939 269.22193909 C12.20229023 270.74811362 12.35071226 272.27509167 12.49049377 273.80284119 C12.85693482 277.39294428 13.20794246 279.31191369 15.25 282.375 C18.48241728 283.35877917 20.33696084 283.82166664 23.421875 282.3125 C26.12243654 279.4503664 25.71239026 277.38489418 25.625 273.5 C25.60993408 272.80745117 25.59486816 272.11490234 25.5793457 271.40136719 C24.8939023 248.88319054 22.42265267 227.11928872 7.25 209.375 C6.56292969 208.55644531 5.87585938 207.73789063 5.16796875 206.89453125 C2.30429525 203.54532959 2.30429525 203.54532959 -0.75 200.375 C-1.41 200.375 -2.07 200.375 -2.75 200.375 C-2.75 199.715 -2.75 199.055 -2.75 198.375 C-3.41 198.375 -4.07 198.375 -4.75 198.375 C-5.11931641 197.51890137 -5.11931641 197.51890137 -5.49609375 196.64550781 C-6.95898997 193.9965719 -8.67645319 192.18951454 -10.8125 190.046875 C-11.60914063 189.24765625 -12.40578125 188.4484375 -13.2265625 187.625 C-14.05929687 186.8 -14.89203125 185.975 -15.75 185.125 C-16.58273437 184.28453125 -17.41546875 183.4440625 -18.2734375 182.578125 C-19.07007813 181.7840625 -19.86671875 180.99 -20.6875 180.171875 C-21.78384766 179.07891113 -21.78384766 179.07891113 -22.90234375 177.96386719 C-24.59659142 176.15766279 -24.59659142 176.15766279 -26.75 176.375 C-27.41 175.055 -28.07 173.735 -28.75 172.375 C-29.41 172.375 -30.07 172.375 -30.75 172.375 C-30.75 171.715 -30.75 171.055 -30.75 170.375 C-31.41 170.375 -32.07 170.375 -32.75 170.375 C-32.75 169.715 -32.75 169.055 -32.75 168.375 C-33.41 168.375 -34.07 168.375 -34.75 168.375 C-34.9975 167.7975 -35.245 167.22 -35.5 166.625 C-36.93299988 164.04560021 -38.53424676 162.31378408 -40.75 160.375 C-41.41 160.375 -42.07 160.375 -42.75 160.375 C-42.75 159.715 -42.75 159.055 -42.75 158.375 C-43.41 158.375 -44.07 158.375 -44.75 158.375 C-45.14807861 157.48992767 -45.14807861 157.48992767 -45.55419922 156.5869751 C-46.78525263 154.30979019 -48.06062516 152.81078188 -49.8828125 150.98339844 C-50.83389893 150.02285553 -50.83389893 150.02285553 -51.80419922 149.04290771 C-52.48756348 148.36359192 -53.17092773 147.68427612 -53.875 146.984375 C-54.5777002 146.27976135 -55.28040039 145.57514771 -56.00439453 144.84918213 C-57.48810104 143.36411647 -58.97432892 141.88156619 -60.46289062 140.40136719 C-62.74843591 138.12655675 -65.02309017 135.8412464 -67.296875 133.5546875 C-68.73894219 132.11394132 -70.18162935 130.67381535 -71.625 129.234375 C-72.30836426 128.54696228 -72.99172852 127.85954956 -73.69580078 127.15130615 C-74.3298584 126.52355286 -74.96391602 125.89579956 -75.6171875 125.24902344 C-76.17519043 124.69261169 -76.73319336 124.13619995 -77.30810547 123.56292725 C-78.6958983 122.16304606 -78.6958983 122.16304606 -80.75 122.375 C-80.97816406 121.82231445 -81.20632813 121.26962891 -81.44140625 120.70019531 C-83.12845518 117.70253597 -85.25812518 115.6073494 -87.6875 113.171875 C-88.40860962 112.4478952 -88.40860962 112.4478952 -89.14428711 111.70928955 C-90.15721093 110.69500936 -91.17264638 109.68323196 -92.19042969 108.67382812 C-93.75173165 107.12328028 -95.30202497 105.56229497 -96.8515625 104 C-97.83790061 103.01498266 -98.8248585 102.03058547 -99.8125 101.046875 C-100.71097656 100.1506543 -101.60945313 99.25443359 -102.53515625 98.33105469 C-104.50735592 96.15434653 -104.50735592 96.15434653 -106.75 96.375 C-106.9975 95.80265625 -107.245 95.2303125 -107.5 94.640625 C-108.94316199 92.02489389 -110.63216222 90.22726544 -112.75 88.125 C-113.45125 87.41859375 -114.1525 86.7121875 -114.875 85.984375 C-116.59110768 84.15789601 -116.59110768 84.15789601 -118.75 84.375 C-118.9975 83.7975 -119.245 83.22 -119.5 82.625 C-120.93299988 80.04560021 -122.53424676 78.31378408 -124.75 76.375 C-125.41 76.375 -126.07 76.375 -126.75 76.375 C-126.75 75.715 -126.75 75.055 -126.75 74.375 C-128.36974559 72.66269752 -130.0458946 71.00336738 -131.75 69.375 C-133.0803125 67.9828125 -133.0803125 67.9828125 -134.4375 66.5625 C-136.46162149 64.14593338 -136.46162149 64.14593338 -138.75 64.375 C-138.75 63.715 -138.75 63.055 -138.75 62.375 C-144.08640436 56.78947602 -150.54049187 53.213935 -157.4375 49.9375 C-158.5056897 49.42485596 -158.5056897 49.42485596 -159.59545898 48.90185547 C-164.00999763 46.88644465 -167.89481958 45.9465241 -172.75 45.375 C-174.31234375 44.88386719 -174.31234375 44.88386719 -175.90625 44.3828125 C-181.31072723 42.96578493 -186.68937762 42.64672277 -192.25 42.25 C-193.90322266 42.12044922 -193.90322266 42.12044922 -195.58984375 41.98828125 C-205.60943516 40.61590126 -205.60943516 40.61590126 -214.75 43.375 Z M-53.75 111.375 C-56.39573501 113.60377725 -56.39573501 113.60377725 -58.75 116.375 C-58.48265298 119.74357242 -57.09776543 121.3685813 -54.6875 123.625 C-54.13964844 124.14578125 -53.59179688 124.6665625 -53.02734375 125.203125 C-52.60582031 125.58984375 -52.18429687 125.9765625 -51.75 126.375 C-48.86562221 125.08200306 -46.87780579 123.71558637 -44.75 121.375 C-46.13188453 118.16456118 -47.67421903 116.32563635 -50.375 114.125 C-51.00664062 113.60421875 -51.63828125 113.0834375 -52.2890625 112.546875 C-52.77117187 112.16015625 -53.25328125 111.7734375 -53.75 111.375 Z M-124.23609924 129.7341156 C-124.94179366 130.43747003 -124.94179366 130.43747003 -125.66174453 131.15503365 C-127.25028604 132.73956083 -128.83519898 134.32766941 -130.42016602 135.91577148 C-131.55309609 137.04734771 -132.68623906 138.17871084 -133.81958008 139.30987549 C-136.90648728 142.39220641 -139.99020188 145.47771331 -143.07323956 148.56391406 C-146.29220225 151.78539934 -149.51359362 155.00445446 -152.73460388 158.22389221 C-158.14445173 163.63191807 -163.55218149 169.0420552 -168.95874023 174.45336914 C-175.2194847 180.71955628 -181.48382368 186.98213262 -187.7500425 193.242845 C-193.1191608 198.607433 -198.48633739 203.9739578 -203.85188049 209.34212166 C-207.0612287 212.5530331 -210.27125867 215.76325512 -213.48303413 218.97173882 C-216.50165691 221.98748408 -219.51784426 225.00564369 -222.53212738 228.02572632 C-223.64230546 229.13723265 -224.75334648 230.24787781 -225.86528587 231.35762215 C-227.37613208 232.86575938 -228.88390169 234.37690448 -230.3908844 235.88890076 C-231.66101049 237.15959239 -231.66101049 237.15959239 -232.95679569 238.45595455 C-234.86379075 240.05903208 -234.86379075 240.05903208 -234.75 241.375 C-194.16 241.375 -153.57 241.375 -111.75 241.375 C-110.76 239.395 -110.76 239.395 -109.75 237.375 C-108.43987195 236.66381317 -107.1032346 236.00028261 -105.75 235.375 C-104.39177782 234.19609572 -103.08086458 232.96161248 -101.80761719 231.69140625 C-100.66688751 230.56013306 -100.66688751 230.56013306 -99.50311279 229.40600586 C-98.69255432 228.59139893 -97.88199585 227.77679199 -97.046875 226.9375 C-95.79019012 225.6836853 -95.79019012 225.6836853 -94.50811768 224.40454102 C-92.74058097 222.63836443 -90.97556398 220.86966312 -89.21289062 219.09863281 C-86.50351726 216.37853119 -83.78362235 213.66928001 -81.0625 210.9609375 C-79.34831643 209.24543283 -77.6347531 207.52930814 -75.921875 205.8125 C-74.69389191 204.5905896 -74.69389191 204.5905896 -73.44110107 203.34399414 C-72.69322327 202.58981201 -71.94534546 201.83562988 -71.17480469 201.05859375 C-70.51180359 200.39400146 -69.84880249 199.72940918 -69.16571045 199.04467773 C-67.53442814 197.48560248 -67.53442814 197.48560248 -67.75 195.375 C-67.15703125 195.11976563 -66.5640625 194.86453125 -65.953125 194.6015625 C-63.53775462 193.25683502 -62.23788294 191.88285633 -60.5 189.75 C-59.97921875 189.11835938 -59.4584375 188.48671875 -58.921875 187.8359375 C-58.53515625 187.35382813 -58.1484375 186.87171875 -57.75 186.375 C-65.68321588 178.41866499 -73.61909247 170.46499465 -81.55842495 162.51476288 C-85.24445891 158.82349914 -88.92955236 155.13130635 -92.61254883 151.43701172 C-96.16353344 147.87520157 -99.71691972 144.31580416 -103.27202034 140.75810242 C-104.63133537 139.39693253 -105.98976664 138.03487952 -107.34731865 136.67195129 C-109.24153718 134.77052677 -111.138808 132.87220088 -113.03686523 130.97460938 C-113.8870649 130.1190168 -113.8870649 130.1190168 -114.75444031 129.24613953 C-119.59196433 124.42153715 -119.47126206 124.97139907 -124.23609924 129.7341156 Z M-334.875 340 C-337.06009689 342.28710387 -337.71047173 343.20251299 -338.4375 346.375 C-337.16354662 351.93406931 -333.22813964 355.01434741 -329.06079102 358.57641602 C-324.79169371 362.29020635 -320.77128032 366.20902601 -316.77734375 370.21484375 C-316.05059952 370.94063126 -315.32385529 371.66641876 -314.5750885 372.41419983 C-313.05037704 373.93823556 -311.5269085 375.46351569 -310.00463867 376.98999023 C-307.69366109 379.30632463 -305.37739229 381.61727078 -303.06054688 383.92773438 C-301.5699918 385.41895034 -300.079747 386.91047653 -298.58984375 388.40234375 C-297.90736069 389.08280258 -297.22487762 389.76326141 -296.52171326 390.46434021 C-292.58930491 394.41569175 -288.89036164 398.46584978 -285.35353088 402.77711487 C-283.65580823 404.69121061 -283.65580823 404.69121061 -280.1875 405.6875 C-275.4266929 405.25469935 -274.02735837 403.80842305 -270.75 400.375 C-270.42 399.385 -270.09 398.395 -269.75 397.375 C-271.86905463 395.20222286 -273.99472878 393.03673092 -276.125 390.875 C-276.72828125 390.25496094 -277.3315625 389.63492188 -277.953125 388.99609375 C-278.53320312 388.40957031 -279.11328125 387.82304687 -279.7109375 387.21875 C-280.24509277 386.67412109 -280.77924805 386.12949219 -281.32958984 385.56835938 C-282.69602023 384.16058001 -282.69602023 384.16058001 -284.75 384.375 C-284.9975 383.79878906 -285.245 383.22257812 -285.5 382.62890625 C-286.93694245 380.0379194 -288.60958333 378.35455193 -290.75 376.3125 C-293.12442798 374.03846144 -294.91347952 372.12978071 -296.75 369.375 C-297.41 369.375 -298.07 369.375 -298.75 369.375 C-298.75 368.715 -298.75 368.055 -298.75 367.375 C-299.41 367.375 -300.07 367.375 -300.75 367.375 C-300.75 366.715 -300.75 366.055 -300.75 365.375 C-303.38684747 362.97679695 -303.38684747 362.97679695 -306.75 362.375 C-306.976875 361.82328125 -307.20375 361.2715625 -307.4375 360.703125 C-309.13725926 357.68807583 -311.29804816 355.56269631 -313.75 353.125 C-314.636875 352.23296875 -315.52375 351.3409375 -316.4375 350.421875 C-318.48489103 348.15406927 -318.48489103 348.15406927 -320.75 348.375 C-321.0078125 347.79234375 -321.265625 347.2096875 -321.53125 346.609375 C-322.84834017 344.1947097 -324.30088384 342.55759823 -326.25 340.625 C-326.8584375 340.01140625 -327.466875 339.3978125 -328.09375 338.765625 C-331.06178434 336.27359617 -332.37364142 337.64364771 -334.875 340 Z M-330.5390625 386.80078125 C-331.14492188 387.42339844 -331.75078125 388.04601562 -332.375 388.6875 C-333.29152344 389.60982422 -333.29152344 389.60982422 -334.2265625 390.55078125 C-335.96257029 392.40374589 -335.96257029 392.40374589 -336.75 395.375 C-335.31941504 397.51446938 -335.31941504 397.51446938 -333.3125 399.5625 C-332.65378906 400.27792969 -331.99507813 400.99335938 -331.31640625 401.73046875 C-330.79949219 402.27316406 -330.28257812 402.81585938 -329.75 403.375 C-326.00571064 402.29409986 -326.00571064 402.29409986 -323.6875 399.375 C-323.378125 398.715 -323.06875 398.055 -322.75 397.375 C-320.625 396.125 -320.625 396.125 -318.75 395.375 C-318.75 394.055 -318.75 392.735 -318.75 391.375 C-319.41 391.375 -320.07 391.375 -320.75 391.375 C-320.75 390.715 -320.75 390.055 -320.75 389.375 C-325.23110518 385.00998056 -325.23110518 385.00998056 -330.5390625 386.80078125 Z " fill="#171717" transform="translate(444.75,-0.375)"/>
<path d="M0 0 C10.2008403 6.58006422 17.91159257 15.07000138 21 27 C22.32570623 38.73366304 20.86114419 48.9966435 13.8125 58.75 C6.06752607 67.903151 -2.64460889 72.93197125 -14.703125 74.30859375 C-17.18043123 74.37481105 -19.53570452 74.25367748 -22 74 C-22.80953125 73.92910156 -23.6190625 73.85820313 -24.453125 73.78515625 C-34.28425293 72.40941665 -42.41420548 66.66792239 -48.5703125 59.0390625 C-55.26748949 49.48735105 -57.01134761 39.55464645 -56 28 C-53.560983 17.10757179 -47.09479916 8.36172708 -38 2 C-27.33555277 -4.38898805 -11.25020455 -6.26987684 0 0 Z M-35 21.9375 C-38.56444498 27.39555637 -39.79286814 32.49848124 -39 39 C-37.55991543 44.68675733 -35.28656949 50.0307195 -30.0703125 53.15625 C-24.02156949 56.25816949 -18.56149026 58.43718186 -11.71875 56.28125 C-4.91161647 53.46763481 -0.40437057 49.63852261 3 43 C5.1118338 37.24045328 4.28436859 31.44420997 1.96484375 25.91796875 C-0.95220684 20.11929733 -4.69438771 17.01785969 -10.61328125 14.69921875 C-19.6447404 12.05334119 -28.6699093 14.88131066 -35 21.9375 Z " fill="#1C1C1C" transform="translate(462,32)"/>
<path d="M0 0 C0.33 0.99 0.66 1.98 1 3 C0.47535156 3.45173584 -0.04929687 3.90347168 -0.58984375 4.36889648 C-6.31947369 9.40794395 -11.75221642 14.68255468 -17.125 20.09765625 C-17.84365234 20.82181732 -18.56230469 21.54597839 -19.30273438 22.29208374 C-22.30551655 25.32261875 -25.30448673 28.35686937 -28.29931641 31.39526367 C-30.50774937 33.63369353 -32.72219625 35.86602911 -34.9375 38.09765625 C-35.6176416 38.79125748 -36.2977832 39.4848587 -36.99853516 40.19947815 C-37.62679199 40.83111374 -38.25504883 41.46274933 -38.90234375 42.11352539 C-39.72980103 42.95216881 -39.72980103 42.95216881 -40.57397461 43.80775452 C-42 45 -42 45 -44 45 C-44.66 46.32 -45.32 47.64 -46 49 C-87.58 49 -129.16 49 -172 49 C-170 47 -170 47 -167.84693432 46.7678709 C-166.9482277 46.77620858 -166.04952108 46.78454626 -165.12358093 46.7931366 C-164.09311646 46.79761307 -163.06265198 46.80208954 -162.0009613 46.80670166 C-160.86586624 46.82174744 -159.73077118 46.83679321 -158.5612793 46.85229492 C-157.36932953 46.86003433 -156.17737976 46.86777374 -154.9493103 46.87574768 C-151.67430908 46.89807195 -148.39949853 46.92891678 -145.12459159 46.96186996 C-141.69833148 46.99294933 -138.27201506 47.00881678 -134.84565735 47.02497864 C-123.16977616 47.08259817 -111.49413644 47.15999195 -99.81860352 47.26733398 C-93.37248711 47.32643977 -86.92650951 47.36759014 -80.48015529 47.3891018 C-77.0686777 47.40133759 -73.65784174 47.42317346 -70.24661827 47.46751976 C-66.43978446 47.51313005 -62.6339763 47.52799457 -58.8269043 47.53588867 C-57.69788193 47.55700714 -56.56885956 47.57812561 -55.40562439 47.59988403 C-49.25082088 47.64594576 -49.25082088 47.64594576 -44.01034546 44.71603394 C-43.34693146 43.81974274 -42.68351746 42.92345154 -42 42 C-28 28 -14 14 0 0 Z " fill="#FBFBFB" transform="translate(380,193)"/>
<path d="M0 0 C41.58 0 83.16 0 126 0 C126 0.66 126 1.32 126 2 C125.34 2 124.68 2 124 2 C123.731875 2.5775 123.46375 3.155 123.1875 3.75 C121.9611378 6.07363365 120.75156566 8.03824646 119 10 C118.01 10 117.02 10 116 10 C116 9.34 116 8.68 116 8 C117.98260426 6.31267723 119.9832342 4.64633943 122 3 C122.33 2.34 122.66 1.68 123 1 C122.0932402 1.01252808 121.18648041 1.02505615 120.25224304 1.03796387 C108.73072037 1.19644584 97.20913906 1.35021617 85.6875 1.5 C84.77412872 1.51187725 83.86075745 1.5237545 82.91970825 1.53599167 C55.27867668 1.89381636 27.64376711 2.16382612 0 2 C0 1.34 0 0.68 0 0 Z " fill="#848484" transform="translate(191,257)"/>
<path d="M0 0 C2.1484375 1.54296875 2.1484375 1.54296875 4 4 C4.43131981 6.82265075 4.64828085 9.29905917 4.6875 12.125 C4.74063934 13.64719025 4.79532204 15.16932742 4.8515625 16.69140625 C4.87379883 17.42762207 4.89603516 18.16383789 4.91894531 18.92236328 C5.07683096 22.96937192 5.55297507 26.97677562 6 31 C1.87902108 24.81853162 1.62188489 18.83609604 1.375 11.625 C1.33632813 10.69816406 1.29765625 9.77132812 1.2578125 8.81640625 C1.16412882 6.54457704 1.08100191 4.27231672 1 2 C-2.3 2.33 -5.6 2.66 -9 3 C-10.07624414 8.44452918 -10.32192966 13.84582589 -10.5625 19.375 C-10.60568359 20.30183594 -10.64886719 21.22867188 -10.69335938 22.18359375 C-10.79876186 24.45560294 -10.90088606 26.72770925 -11 29 C-11.33 29 -11.66 29 -12 29 C-13.14936666 24.35581114 -13.25425809 19.81892236 -13.3125 15.0625 C-13.34150391 14.27681641 -13.37050781 13.49113281 -13.40039062 12.68164062 C-13.45869507 7.32211698 -12.64751377 4.1995699 -9 0 C-5.41563853 -1.19478716 -3.63093708 -0.96330984 0 0 Z " fill="#949494" transform="translate(389,52)"/>
<path d="M0 0 C0.495 1.485 0.495 1.485 1 3 C0.47535156 3.45173584 -0.04929687 3.90347168 -0.58984375 4.36889648 C-6.31947369 9.40794395 -11.75221642 14.68255468 -17.125 20.09765625 C-17.84365234 20.82181732 -18.56230469 21.54597839 -19.30273438 22.29208374 C-22.30551655 25.32261875 -25.30448673 28.35686937 -28.29931641 31.39526367 C-30.50774937 33.63369353 -32.72219625 35.86602911 -34.9375 38.09765625 C-35.6176416 38.79125748 -36.2977832 39.4848587 -36.99853516 40.19947815 C-37.62679199 40.83111374 -38.25504883 41.46274933 -38.90234375 42.11352539 C-39.45398193 42.672621 -40.00562012 43.23171661 -40.57397461 43.80775452 C-42 45 -42 45 -44 45 C-44.66 46.32 -45.32 47.64 -46 49 C-46 46 -46 46 -44.02758789 43.84008789 C-43.01992888 42.89175617 -42.01050784 41.94529553 -41 41 C-39.69567663 39.70391324 -38.39585659 38.40328645 -37.09936523 37.09936523 C-24.73291016 24.73291016 -12.36645508 12.36645508 0 0 Z " fill="#8D8D8D" transform="translate(380,193)"/>
<path d="M0 0 C1.32 0 2.64 0 4 0 C4 0.66 4 1.32 4 2 C5.49853516 2.09087891 5.49853516 2.09087891 7.02734375 2.18359375 C8.31769531 2.26738281 9.60804688 2.35117188 10.9375 2.4375 C12.86916016 2.55931641 12.86916016 2.55931641 14.83984375 2.68359375 C18 3 18 3 19 4 C20.61286321 4.12125098 22.23054467 4.17963764 23.84765625 4.2109375 C25.34522461 4.25347656 25.34522461 4.25347656 26.87304688 4.296875 C28.97184249 4.34828457 31.07082176 4.39274545 33.16992188 4.4296875 C39.44453096 4.62238183 44.26147577 5.42351973 50 8 C45.68665653 9.27000669 41.77546602 8.71440663 37.375 8.1875 C35.67057384 7.9934815 33.96614673 7.79947129 32.26171875 7.60546875 C31.39208496 7.50411621 30.52245117 7.40276367 29.62646484 7.29833984 C27.07163708 7.00813725 24.5155603 6.74358242 21.95703125 6.48828125 C20.75457764 6.3651355 20.75457764 6.3651355 19.52783203 6.23950195 C18.00711905 6.08387714 16.48597009 5.93243557 14.96435547 5.78588867 C3.76312284 4.59937237 3.76312284 4.59937237 0 0 Z " fill="#797979" transform="translate(221,66)"/>
<path d="M0 0 C-0.61746094 0.40089844 -1.23492187 0.80179688 -1.87109375 1.21484375 C-7.6254017 5.07732443 -12.45371918 9.2138889 -17.1875 14.27734375 C-19 16 -19 16 -21 16 C-21.103125 16.680625 -21.20625 17.36125 -21.3125 18.0625 C-22.14725019 21.62915989 -23.49472754 24.66222194 -25 28 C-26.09142742 25.25509273 -26.03727116 24.1091624 -25.06640625 21.265625 C-21.13590678 13.38420789 -10.92185949 -3.64061983 0 0 Z " fill="#7E7E7E" transform="translate(433,32)"/>
<path d="M0 0 C1.62418745 -0.08090971 3.24951745 -0.13914995 4.875 -0.1875 C5.77992188 -0.22230469 6.68484375 -0.25710937 7.6171875 -0.29296875 C8.79667969 -0.14794922 8.79667969 -0.14794922 10 0 C12.47057998 3.70586998 12.40677669 6.76035312 12.5625 11.0625 C12.63384154 12.59382419 12.70675341 14.12507605 12.78125 15.65625 C12.81605469 16.39875 12.85085938 17.14125 12.88671875 17.90625 C13.10575382 21.95462237 13.55240638 25.9716574 14 30 C9.87902108 23.81853162 9.62188489 17.83609604 9.375 10.625 C9.33632813 9.69816406 9.29765625 8.77132812 9.2578125 7.81640625 C9.16412882 5.54457704 9.08100191 3.27231672 9 1 C5.7 1.33 2.4 1.66 -1 2 C-0.67 1.34 -0.34 0.68 0 0 Z " fill="#6F6F6F" transform="translate(381,53)"/>
<path d="M0 0 C0 0.66 0 1.32 0 2 C-10.04883925 8.69922617 -25.33380899 8.16601903 -36.8125 6.125 C-39.20703125 5.6328125 -39.20703125 5.6328125 -41 5 C-41.33 4.34 -41.66 3.68 -42 3 C-40.62328125 3.2165625 -40.62328125 3.2165625 -39.21875 3.4375 C-37.9915625 3.623125 -36.764375 3.80875 -35.5 4 C-34.2934375 4.185625 -33.086875 4.37125 -31.84375 4.5625 C-24.54618353 5.39311732 -18.64862265 4.96665286 -11.625 3.0625 C-10.91472656 2.88009766 -10.20445312 2.69769531 -9.47265625 2.50976562 C-6.33614333 1.69141548 -3.17826043 0 0 0 Z " fill="#ACACAC" transform="translate(469,113)"/>
<path d="M0 0 C0.33 0 0.66 0 1 0 C0.39975941 12.00481177 -4.8788879 22.43941373 -12 32 C-12.99 32.495 -12.99 32.495 -14 33 C-12.7439697 29.60516338 -11.27534364 26.80151522 -9.25 23.8125 C-4.72185194 16.48493036 -2.51253502 8.17910335 0 0 Z " fill="#B6B6B6" transform="translate(511,78)"/>
<path d="M0 0 C-3.43113767 1.91465954 -6.90017022 2.86671198 -10.6875 3.875 C-15.83977889 5.2987267 -20.56082097 6.95274594 -25.328125 9.36328125 C-26.15570313 9.67845703 -26.15570313 9.67845703 -27 10 C-27.66 9.67 -28.32 9.34 -29 9 C-10.99421965 -0.45809249 -10.99421965 -0.45809249 0 0 Z " fill="#939393" transform="translate(437,0)"/>
<path d="M0 0 C0.66 0.33 1.32 0.66 2 1 C-3.8580664 7.79775623 -9.91916889 14.40235323 -16 21 C-16.99 20.67 -17.98 20.34 -19 20 C-18.67 19.34 -18.34 18.68 -18 18 C-17.34 18 -16.68 18 -16 18 C-16 17.34 -16 16.68 -16 16 C-14.49609375 14.51953125 -14.49609375 14.51953125 -12.4375 12.8125 C-5.3421461 7.14904144 -5.3421461 7.14904144 0 0 Z " fill="#727272" transform="translate(116,309)"/>
<path d="M0 0 C10.05992921 0.24482129 18.517454 3.71579102 27 9 C26.01 9.495 26.01 9.495 25 10 C23.00390625 9.07421875 23.00390625 9.07421875 20.5625 7.6875 C15.86993414 5.21521929 11.68836678 4.18140827 6.4453125 3.5546875 C3.66268458 2.92348436 2.14410187 1.84492487 0 0 Z " fill="#BFBFBF" transform="translate(454,0)"/>
<path d="M0 0 C0.66 0.33 1.32 0.66 2 1 C1.01 2.485 1.01 2.485 0 4 C-0.99 4 -1.98 4 -3 4 C-3.226875 4.556875 -3.45375 5.11375 -3.6875 5.6875 C-5.38617978 8.68041199 -7.42072687 10.73527237 -10 13 C-10.99 13 -11.98 13 -13 13 C-11.57142347 9.63951428 -9.83945402 7.72274139 -7.0625 5.375 C-6.37285156 4.78460937 -5.68320312 4.19421875 -4.97265625 3.5859375 C-3 2 -3 2 0 0 Z " fill="#868686" transform="translate(406,10)"/>
<path d="M0 0 C0.67740234 -0.01224609 1.35480469 -0.02449219 2.05273438 -0.03710938 C5.77191947 -0.04801608 8.53094986 0.13452523 11.6875 2.1875 C11.6875 2.5175 11.6875 2.8475 11.6875 3.1875 C3.7675 3.1875 -4.1525 3.1875 -12.3125 3.1875 C-10.9925 2.5275 -9.6725 1.8675 -8.3125 1.1875 C-6.34773763 -0.77726237 -2.67718224 0.00250438 0 0 Z " fill="#686868" transform="translate(445.3125,13.8125)"/>
<path d="M0 0 C0.66 0.33 1.32 0.66 2 1 C1.50886719 1.55171875 1.01773438 2.1034375 0.51171875 2.671875 C-1.30109424 5.46370069 -1.3172951 6.96185741 -1.1875 10.25 C-1.14689453 11.58804687 -1.14689453 11.58804687 -1.10546875 12.953125 C-1.05326172 13.96632813 -1.05326172 13.96632813 -1 15 C-2.32 13.68 -3.64 12.36 -5 11 C-3.92289822 6.69159287 -2.96052484 3.36423277 0 0 Z " fill="#8F8F8F" transform="translate(225,347)"/>
<path d="M0 0 C1.4552777 2.9105554 0.63516661 4.95849052 0.0625 8.125 C-0.13214844 9.22070312 -0.32679687 10.31640625 -0.52734375 11.4453125 C-0.68332031 12.28835938 -0.83929688 13.13140625 -1 14 C-3.29480503 9.9840912 -2.98836818 7.53002084 -2 3 C-1.34 2.01 -0.68 1.02 0 0 Z " fill="#9B9B9B" transform="translate(92,386)"/>
<path d="M0 0 C0.66 0.33 1.32 0.66 2 1 C-1.06093224 4.93548431 -3.49115974 7.68116787 -8 10 C-6.44303593 6.17836093 -3.96591316 3.81381505 -1 1 C-0.67 0.67 -0.34 0.34 0 0 Z " fill="#898989" transform="translate(223,27)"/>
<path d="M0 0 C3.3 0.33 6.6 0.66 10 1 C10 1.66 10 2.32 10 3 C10.66 3.33 11.32 3.66 12 4 C4.5 3.375 4.5 3.375 0 0 Z " fill="#7F7F7F" transform="translate(454,0)"/>
<path d="M0 0 C1.29862143 2.59724285 1.52427843 5.1456706 2 8 C2.33 8.66 2.66 9.32 3 10 C2.01 10 1.02 10 0 10 C-2.29013653 6.5647952 -2.17842973 5.014669 -2 1 C-1.34 0.67 -0.68 0.34 0 0 Z " fill="#7D7D7D" transform="translate(229,44)"/>
<path d="M0 0 C3.96 0.33 7.92 0.66 12 1 C11.67 1.66 11.34 2.32 11 3 C5.04296875 3.29296875 5.04296875 3.29296875 3 3 C2.01 2.01 1.02 1.02 0 0 Z " fill="#7C7C7C" transform="translate(392,34)"/>
<path d="M0 0 C0.33 0.99 0.66 1.98 1 3 C-0.89885096 4.89885096 -3.57247903 4.12367506 -6.08984375 4.1328125 C-8 4 -8 4 -10 3 C-9.67 2.34 -9.34 1.68 -9 1 C-8.071875 1.20625 -7.14375 1.4125 -6.1875 1.625 C-2.84826598 2.36692966 -2.84826598 2.36692966 0 0 Z " fill="#969696" transform="translate(469,280)"/>
<path d="M0 0 C0.66 0.33 1.32 0.66 2 1 C1.07456291 2.34173403 0.13422595 3.67320159 -0.8125 5 C-1.33457031 5.7425 -1.85664063 6.485 -2.39453125 7.25 C-2.92433594 7.8275 -3.45414062 8.405 -4 9 C-4.99 9 -5.98 9 -7 9 C-7 8.34 -7 7.68 -7 7 C-5.01739574 5.31267723 -3.0167658 3.64633943 -1 2 C-0.67 1.34 -0.34 0.68 0 0 Z " fill="#939393" transform="translate(314,258)"/>
<path d="M0 0 C-5.41538462 4.06153846 -5.41538462 4.06153846 -8.375 3.75 C-8.91125 3.5025 -9.4475 3.255 -10 3 C-3.375 -1.125 -3.375 -1.125 0 0 Z " fill="#9F9F9F" transform="translate(433,32)"/>
</svg>
