<?xml version="1.0" encoding="UTF-8"?>
<svg version="1.1" xmlns="http://www.w3.org/2000/svg" width="512" height="512">
<path d="M0 0 C4.25295685 3.13301155 6.67518735 7.23852532 9.34375 11.7265625 C17.09007125 24.41861193 23.0542465 31.7595237 36.10546875 39.328125 C43.04557325 43.37392583 49.62993234 47.74474584 52.34375 55.7265625 C53.22015854 62.15355848 53.07648011 68.22514629 49.74609375 73.9140625 C45.9019048 78.8825964 40.87489958 82.78813929 35.34375 85.7265625 C36.65136092 89.8972836 38.24131661 93.73819643 40.15625 97.6640625 C54.91722573 129.55638962 57.32935702 166.90075999 45.46118164 200.12109375 C44.81607418 201.85534574 44.14839523 203.58142567 43.45483398 205.296875 C41.63889499 209.69804875 41.63889499 209.69804875 41.93359375 214.3125 C42.39894531 215.10914063 42.86429687 215.90578125 43.34375 216.7265625 C44.14619141 218.49193359 44.14619141 218.49193359 44.96484375 220.29296875 C45.25931396 220.9370166 45.55378418 221.58106445 45.85717773 222.24462891 C52.59003768 237.14052566 56.09429583 251.63901407 51.4375 267.8515625 C45.26106008 284.08677601 32.39002469 291.96197631 17.34375 298.7265625 C16.42207031 299.16097656 15.50039063 299.59539062 14.55078125 300.04296875 C8.98630426 302.50295776 3.54770503 303.49868256 -2.48046875 304.234375 C-6.12659428 304.79945719 -9.23806931 305.29247477 -12.65625 306.7265625 C-14.04961856 309.22030157 -14.73036657 310.90548815 -15.40625 313.6015625 C-15.60250977 314.31062744 -15.79876953 315.01969238 -16.00097656 315.75024414 C-19.3860496 328.6199349 -20.73530885 341.5163505 -21.09375 354.7890625 C-21.6495507 374.21196219 -23.67830373 393.83227133 -31.65625 411.7265625 C-31.96079102 412.41814453 -32.26533203 413.10972656 -32.57910156 413.82226562 C-36.56222298 422.69615769 -41.02949969 430.51624318 -47.65625 437.7265625 C-48.30464844 438.44328125 -48.95304687 439.16 -49.62109375 439.8984375 C-60.10287367 450.94062942 -73.96788243 457.60831478 -89.32763672 458.01904297 C-108.02813265 458.19389367 -123.76296493 452.62747007 -137.65625 439.7265625 C-139.84375 436.8515625 -139.84375 436.8515625 -141.65625 433.7265625 C-142.78035721 432.22589332 -143.9054687 430.72597621 -145.03125 429.2265625 C-151.92013696 419.30189484 -155.44531207 407.72560239 -159.40625 396.4140625 C-159.79538574 395.30482422 -160.18452148 394.19558594 -160.58544922 393.05273438 C-162.45190291 387.62216138 -164.09228406 382.28082733 -165.234375 376.65258789 C-165.82878917 373.93885329 -166.76990717 371.35745312 -167.65625 368.7265625 C-168.26024356 366.14586275 -168.84100303 363.56551454 -169.40625 360.9765625 C-171.36160708 352.32463306 -174.07221448 344.003106 -176.99316406 335.63525391 C-177.9060978 333.00737616 -178.78277802 330.3677754 -179.65625 327.7265625 C-180.31625 327.7265625 -180.97625 327.7265625 -181.65625 327.7265625 C-182.39875 326.8809375 -183.14125 326.0353125 -183.90625 325.1640625 C-186.41567112 322.46477558 -186.41567112 322.46477558 -189.59375 322.4140625 C-195.06909502 324.76063894 -197.51507007 329.06116436 -199.81494141 334.43286133 C-204.29751979 346.82820714 -207.4667184 359.57988285 -210.77319336 372.328125 C-213.7098542 383.61404565 -216.82943528 394.74869653 -220.8046875 405.71875 C-221.12411819 406.60115356 -221.44354889 407.48355713 -221.7726593 408.3927002 C-228.33563667 425.98810391 -239.26952505 443.41591694 -256.53125 452.1875 C-273.24074843 459.56184497 -291.59603157 460.02618329 -308.703125 453.578125 C-328.30381436 444.79336008 -340.41074873 425.72023489 -347.97265625 406.35546875 C-349.70751597 401.33013709 -351.15207763 396.26473414 -352.18945312 391.04931641 C-352.48813914 389.56307229 -352.80334935 388.07999399 -353.13964844 386.60180664 C-354.73010321 379.37112802 -355.29865425 372.16644843 -355.78125 364.7890625 C-355.86761719 363.59087891 -355.95398438 362.39269531 -356.04296875 361.15820312 C-356.41616305 355.72319086 -356.69828703 350.33530779 -356.640625 344.88671875 C-356.48289055 324.83426781 -364.01331157 306.74753001 -373.64257812 289.55419922 C-374.49164199 288.02334852 -375.30495731 286.47274381 -376.109375 284.91796875 C-380.31386324 276.80026707 -385.44595865 269.26561498 -390.45703125 261.6328125 C-393.73311971 256.63332985 -396.87806168 251.56713207 -399.97265625 246.453125 C-401.17264314 244.50975876 -402.4204609 242.59558881 -403.69921875 240.703125 C-405.46598815 238.0159428 -406.97664629 235.35341934 -408.40625 232.4765625 C-408.83421875 231.62578125 -409.2621875 230.775 -409.703125 229.8984375 C-410.65625 227.7265625 -410.65625 227.7265625 -410.65625 225.7265625 C-411.31625 225.3965625 -411.97625 225.0665625 -412.65625 224.7265625 C-413.64599609 222.85986328 -413.64599609 222.85986328 -414.6796875 220.421875 C-415.24888916 219.09023315 -415.24888916 219.09023315 -415.82958984 217.73168945 C-416.42441162 216.30602661 -416.42441162 216.30602661 -417.03125 214.8515625 C-417.63960693 213.40172974 -417.63960693 213.40172974 -418.26025391 211.92260742 C-419.05389584 210.02123375 -419.84357627 208.11820073 -420.62890625 206.21337891 C-421.41543738 204.30948011 -422.21951114 202.41281989 -423.03125 200.51953125 C-425.89960732 193.40466054 -426.92375212 186.02046476 -428.04296875 178.47265625 C-428.43352605 174.9246492 -428.43352605 174.9246492 -429.65625 172.7265625 C-431.04099942 162.16143729 -430.62320574 151.91874429 -429.40625 141.3515625 C-429.22400879 139.74958008 -429.22400879 139.74958008 -429.03808594 138.11523438 C-428.23141248 131.69752273 -426.96225922 125.60824515 -425.15332031 119.39599609 C-424.35887957 115.12958396 -425.58069397 111.74809513 -427.09375 107.7890625 C-431.63465438 94.18882909 -431.93823281 79.31444498 -425.97265625 66.0625 C-417.17615841 50.45328425 -401.54831394 41.51590033 -384.73046875 36.61328125 C-379.13907408 35.27470402 -373.40658376 34.64526966 -367.71875 33.8515625 C-359.04216134 32.63580462 -351.94168106 31.09506716 -344.05859375 27.24609375 C-316.29534807 14.84666485 -281.72613827 16.01249461 -253.65625 26.7265625 C-234.24379883 34.61953715 -217.15714726 45.69150567 -201.65625 59.7265625 C-200.80764404 60.49274902 -200.80764404 60.49274902 -199.94189453 61.27441406 C-196.48977718 64.40009688 -193.06376812 67.55235193 -189.65625 70.7265625 C-186.80582305 69.42965104 -184.73536777 68.05322477 -182.51171875 65.85546875 C-181.63193359 65.00214966 -181.63193359 65.00214966 -180.734375 64.1315918 C-179.79851562 63.21953979 -179.79851562 63.21953979 -178.84375 62.2890625 C-151.13688623 35.92755403 -114.38160546 17.49633815 -75.4609375 18.4296875 C-63.73936806 19.34430688 -52.10177404 21.0431063 -40.65625 23.7265625 C-40.39199219 23.02273437 -40.12773437 22.31890625 -39.85546875 21.59375 C-35.94891295 12.25364591 -30.48862386 1.9795724 -20.78125 -2.2109375 C-13.19706897 -4.5299467 -6.96027233 -3.84533564 0 0 Z M-17.140625 17.5703125 C-18.71992967 20.25343226 -20.19515243 22.97734365 -21.65625 25.7265625 C-28.82459523 38.24019232 -37.1816838 46.42274942 -49.76708984 53.32836914 C-53.57299511 55.42052714 -56.86422539 57.3003182 -59.65625 60.7265625 C-59.88700102 62.8093142 -59.88700102 62.8093142 -58.65625 64.7265625 C-55.236516 67.70209618 -51.67093002 69.96162498 -47.71875 72.1640625 C-44.26337385 74.1361345 -41.03662927 76.05197978 -38.03125 78.6640625 C-35.92883186 80.94512472 -35.92883186 80.94512472 -33.65625 80.7265625 C-33.65625 81.3865625 -33.65625 82.0465625 -33.65625 82.7265625 C-32.99625 82.7265625 -32.33625 82.7265625 -31.65625 82.7265625 C-31.39328125 83.29246094 -31.1303125 83.85835938 -30.859375 84.44140625 C-29.56142585 86.90666681 -28.05078018 89.04079714 -26.40625 91.2890625 C-23.1419023 95.83076365 -20.64949907 100.50107135 -18.30859375 105.57421875 C-16.76495533 108.00129326 -16.76495533 108.00129326 -13.66015625 108.72265625 C-10.73856103 109.00090339 -10.73856103 109.00090339 -8.96484375 107.62109375 C-7.35902162 105.29624678 -6.02554242 102.92019226 -4.71875 100.4140625 C-3.02696439 97.22456145 -1.34332286 94.12875089 0.71875 91.1640625 C2.52865007 88.93746414 2.52865007 88.93746414 2.34375 86.7265625 C2.900625 86.4996875 3.4575 86.2728125 4.03125 86.0390625 C6.35862554 84.71811963 7.84109835 83.18925087 9.6796875 81.27734375 C15.79281041 75.5803724 23.0366713 71.12561331 30.34765625 67.1484375 C32.65783398 65.50283144 33.55931768 64.45413108 34.34375 61.7265625 C33.11282422 58.35925449 31.78274364 57.08598639 28.59765625 55.53515625 C27.84782471 55.15367432 27.09799316 54.77219238 26.32543945 54.37915039 C25.52710693 53.97817139 24.72877441 53.57719238 23.90625 53.1640625 C10.16448091 45.87587366 1.15647288 35.77576615 -5.65625 21.7265625 C-6.31625 21.7265625 -6.97625 21.7265625 -7.65625 21.7265625 C-7.800625 20.9221875 -7.945 20.1178125 -8.09375 19.2890625 C-8.39760249 16.80552544 -8.39760249 16.80552544 -9.65625 15.7265625 C-13.02331061 14.86522141 -14.87410823 14.75506009 -17.140625 17.5703125 Z M-369.65625 63.7265625 C-370.50832031 64.44714844 -371.36039063 65.16773437 -372.23828125 65.91015625 C-385.21988346 77.09706691 -394.59359009 91.17776085 -401.65625 106.7265625 C-402.05070312 107.561875 -402.44515625 108.3971875 -402.8515625 109.2578125 C-403.76674991 112.06557192 -403.75190272 113.02430363 -402.65625 115.7265625 C-389.83343564 139.27321864 -367.8818634 158.80073434 -346.65625 174.7265625 C-345.5731958 175.54640625 -345.5731958 175.54640625 -344.46826172 176.3828125 C-333.50318613 184.66846101 -322.34028802 192.48939584 -310.65625 199.7265625 C-309.89795898 200.19771484 -309.13966797 200.66886719 -308.35839844 201.15429688 C-266.59708417 226.97288902 -222.02793137 247.37828602 -175.55999756 263.08135986 C-173.80343236 263.67668065 -172.04930328 264.27917661 -170.29541016 264.88232422 C-123.19697076 281.03355189 -74.46381415 289.72057284 -24.65625 288.7265625 C-24.22803955 287.98083984 -23.7998291 287.23511719 -23.35864258 286.46679688 C-21.7477028 283.66304376 -20.13540176 280.86007901 -18.5222168 278.05761719 C-17.82832289 276.85154435 -17.13495025 275.64517145 -16.44213867 274.43847656 C-9.9339269 263.10432003 -9.9339269 263.10432003 -6.66796875 258.0078125 C-4.48202298 255.08386069 -4.48202298 255.08386069 -4.65625 252.7265625 C-3.99625 252.7265625 -3.33625 252.7265625 -2.65625 252.7265625 C-0.3788999 249.91146257 -0.3788999 249.91146257 -0.65625 246.7265625 C0.00375 246.7265625 0.66375 246.7265625 1.34375 246.7265625 C3.6211001 243.91146257 3.6211001 243.91146257 3.34375 240.7265625 C4.00375 240.7265625 4.66375 240.7265625 5.34375 240.7265625 C7.94961307 236.13614167 10.53956979 231.53729593 13.11230469 226.92822266 C13.88555346 225.54575688 14.66179903 224.16495859 15.44238281 222.78662109 C19.58440761 215.45887468 23.19198368 208.06286765 26.28125 200.2265625 C26.57596191 199.48486816 26.87067383 198.74317383 27.17431641 197.97900391 C28.86090983 193.54856449 29.72001619 189.44671029 30.34375 184.7265625 C31.00236178 183.05669641 31.66897445 181.38996269 32.34375 179.7265625 C38.10587731 150.84478858 32.31353244 122.74088116 19.34375 96.7265625 C15.05442672 100.58770465 12.65518322 104.50305932 10.03125 109.6015625 C6.10338249 116.80849434 2.66221623 122.94888337 -5.5078125 125.6796875 C-12.02782531 127.09923459 -17.80126724 127.17187635 -23.65625 123.7265625 C-29.25485167 119.7382777 -32.49618975 115.29353637 -35.71875 109.2890625 C-40.29806263 100.88494063 -44.9116491 94.51231402 -52.96875 89.1015625 C-53.53343994 88.71822754 -54.09812988 88.33489258 -54.67993164 87.93994141 C-57.89311817 85.78807874 -61.15845741 83.87161156 -64.59375 82.1015625 C-71.04757981 78.63188886 -74.95806089 73.58145601 -77.18359375 66.625 C-78.78683169 60.18554844 -76.83727238 55.32184617 -73.65625 49.7265625 C-71.0788471 46.67437486 -68.67895867 44.74155879 -65.34375 42.5390625 C-64.456875 41.9409375 -63.57 41.3428125 -62.65625 40.7265625 C-62.65625 40.0665625 -62.65625 39.4065625 -62.65625 38.7265625 C-90.19883502 32.5923291 -119.01106176 42.69040939 -142.24829102 57.09033203 C-155.33066148 65.42736505 -167.90099474 75.60801224 -177.65625 87.7265625 C-171.94006779 99.86608348 -167.06477985 107.2734286 -154.3828125 112.69921875 C-148.26156881 114.77793461 -141.95172322 115.40848007 -135.54467773 115.99316406 C-128.67223781 116.65780704 -128.67223781 116.65780704 -125.65625 118.7265625 C-124.08689406 121.86527438 -124.30423897 124.26512072 -124.65625 127.7265625 C-126.34375 130.6640625 -126.34375 130.6640625 -129.65625 132.7265625 C-143.50735705 135.10461401 -161.03729114 130.2540892 -172.65625 122.7265625 C-174.92505175 120.91952008 -177.05630696 119.07081078 -179.1328125 117.046875 C-180.57215335 115.50825232 -180.57215335 115.50825232 -182.65625 115.7265625 C-183.089375 114.581875 -183.089375 114.581875 -183.53125 113.4140625 C-184.61894013 110.57626942 -184.61894013 110.57626942 -186.65625 107.7265625 C-187.31625 107.7265625 -187.97625 107.7265625 -188.65625 107.7265625 C-188.80900391 106.92992187 -188.80900391 106.92992187 -188.96484375 106.1171875 C-189.85933101 103.0243841 -191.25486127 100.34204682 -192.71875 97.4765625 C-193.26660156 96.39890625 -193.81445312 95.32125 -194.37890625 94.2109375 C-194.80042969 93.39109375 -195.22195312 92.57125 -195.65625 91.7265625 C-196.31625 91.7265625 -196.97625 91.7265625 -197.65625 91.7265625 C-197.81444214 90.83819702 -197.81444214 90.83819702 -197.97583008 89.93188477 C-198.75687115 87.40043734 -199.68649775 86.30963947 -201.54296875 84.44140625 C-202.14439697 83.83377441 -202.7458252 83.22614258 -203.36547852 82.60009766 C-204.3447229 81.64176025 -204.3447229 81.64176025 -205.34375 80.6640625 C-206.35489868 79.66705322 -206.35489868 79.66705322 -207.38647461 78.64990234 C-220.95623846 65.47799046 -236.42933581 54.58997136 -253.65625 46.7265625 C-254.4503125 46.35917969 -255.244375 45.99179688 -256.0625 45.61328125 C-267.25927042 40.78000869 -279.48444469 38.05776809 -291.65625 37.7265625 C-292.42098633 37.70078125 -293.18572266 37.675 -293.97363281 37.6484375 C-322.2902712 36.78611125 -348.30472065 44.66386478 -369.65625 63.7265625 Z M-396.65625 61.7265625 C-403.27139698 67.15191397 -403.27139698 67.15191397 -408.65625 73.7265625 C-408.65625 75.0465625 -408.65625 76.3665625 -408.65625 77.7265625 C-409.31625 77.7265625 -409.97625 77.7265625 -410.65625 77.7265625 C-411.33583603 80.12375682 -411.33583603 80.12375682 -411.65625 82.7265625 C-410.99625 83.3865625 -410.33625 84.0465625 -409.65625 84.7265625 C-409.24375 84.04851562 -408.83125 83.37046875 -408.40625 82.671875 C-404.24478224 75.96522384 -399.7142398 69.78301262 -394.65625 63.7265625 C-395.31625 63.0665625 -395.97625 62.4065625 -396.65625 61.7265625 Z M-410.65625 136.7265625 C-417.320552 181.71060099 -396.63846182 220.44408392 -372.19238281 256.44238281 C-351.125382 287.76832999 -339.64524118 316.9765822 -337.65625 354.7265625 C-336.16718998 382.8241638 -332.51845739 411.48092678 -310.65625 431.7265625 C-308.11310171 433.75129979 -305.58240514 435.31788508 -302.65625 436.7265625 C-302.02847656 437.04367187 -301.40070313 437.36078125 -300.75390625 437.6875 C-291.54254584 441.54177365 -278.28203034 441.24329736 -268.98046875 437.81640625 C-252.13322441 429.91660596 -244.15941317 416.49234223 -237.65625 399.7265625 C-233.98137752 389.27767509 -231.10658515 378.61692183 -228.45117188 367.87133789 C-215.92635462 318.3221453 -215.92635462 318.3221453 -200.65625 307.7265625 C-194.4446008 304.4621426 -188.04839069 303.39387381 -181.26171875 305.453125 C-176.4291359 307.42462646 -173.01769845 309.65744069 -169.65625 313.7265625 C-168.85960937 314.6546875 -168.85960937 314.6546875 -168.046875 315.6015625 C-164.03243898 320.71730398 -161.5369498 326.04384534 -159.33203125 332.09765625 C-158.8811338 333.33014854 -158.8811338 333.33014854 -158.42112732 334.58753967 C-154.33069136 346.08578322 -151.44757182 357.93973829 -148.42944336 369.75366211 C-143.69056558 388.21319311 -138.38485857 406.74040198 -127.65625 422.7265625 C-127.06457031 423.62181641 -127.06457031 423.62181641 -126.4609375 424.53515625 C-120.36535943 432.74074212 -110.48003622 437.75946347 -100.65625 439.7265625 C-86.68929628 441.00820163 -75.75323585 438.48178898 -64.65625 429.7265625 C-64.65625 429.0665625 -64.65625 428.4065625 -64.65625 427.7265625 C-64.08648437 427.52546875 -63.51671875 427.324375 -62.9296875 427.1171875 C-59.79213714 425.19799862 -58.18589066 422.53248194 -56.28125 419.4765625 C-55.8891333 418.85177002 -55.4970166 418.22697754 -55.09301758 417.58325195 C-45.03199345 401.13532385 -40.85186121 383.05315233 -40.3659668 363.94628906 C-39.91526388 346.48447344 -38.86582413 328.9806853 -33.42578125 312.2734375 C-32.51163346 309.69136517 -32.51163346 309.69136517 -32.65625 306.7265625 C-33.38996826 306.73292725 -34.12368652 306.73929199 -34.87963867 306.74584961 C-92.42097041 306.89096722 -150.12619387 291.5779197 -203.65625 271.2890625 C-204.68516357 270.90073242 -205.71407715 270.51240234 -206.77416992 270.11230469 C-222.43777996 264.18055245 -237.68497168 257.67889523 -252.78125 250.4140625 C-261.15704024 246.38590222 -261.15704024 246.38590222 -269.57421875 242.4453125 C-276.28232895 239.34875734 -282.85869993 236.22658537 -289.12890625 232.29296875 C-292.29735959 230.32921328 -295.53714477 228.49863345 -298.78125 226.6640625 C-303.21787767 224.14538292 -307.6119106 221.58171726 -311.91015625 218.83203125 C-313.23183182 217.99526573 -314.57109118 217.18618999 -315.91796875 216.390625 C-319.31387309 214.32692279 -322.60726677 212.12836301 -325.90625 209.9140625 C-327.25641699 209.0089752 -328.60667684 208.10402641 -329.95703125 207.19921875 C-330.6010791 206.76754395 -331.24512695 206.33586914 -331.90869141 205.89111328 C-333.29033322 204.97040478 -334.68075313 204.06286984 -336.07421875 203.16015625 C-339.69560992 200.81360685 -343.18370194 198.34359937 -346.6171875 195.73046875 C-347.33205322 195.18696777 -348.04691895 194.6434668 -348.78344727 194.08349609 C-350.21844881 192.98724534 -351.64880268 191.88487851 -353.07397461 190.77587891 C-353.7366333 190.26847168 -354.39929199 189.76106445 -355.08203125 189.23828125 C-355.67411377 188.77897217 -356.26619629 188.31966309 -356.8762207 187.84643555 C-358.62568948 186.60472018 -358.62568948 186.60472018 -360.81713867 186.25708008 C-361.42404541 186.08200928 -362.03095215 185.90693848 -362.65625 185.7265625 C-362.98625 184.7365625 -363.31625 183.7465625 -363.65625 182.7265625 C-365.01517985 181.30681186 -365.01517985 181.30681186 -366.71875 179.9765625 C-367.34910156 179.45578125 -367.97945312 178.935 -368.62890625 178.3984375 C-369.29792969 177.84671875 -369.96695313 177.295 -370.65625 176.7265625 C-371.99362844 175.56453505 -373.32693756 174.39780855 -374.65625 173.2265625 C-375.31882812 172.64777344 -375.98140625 172.06898438 -376.6640625 171.47265625 C-377.9973639 170.30405679 -379.32547439 169.12950937 -380.6484375 167.94921875 C-381.26976562 167.40136719 -381.89109375 166.85351562 -382.53125 166.2890625 C-383.08554687 165.79535156 -383.63984375 165.30164063 -384.2109375 164.79296875 C-385.62511621 163.52865643 -385.62511621 163.52865643 -387.65625 163.7265625 C-388.06484253 162.83360474 -388.06484253 162.83360474 -388.48168945 161.92260742 C-389.62657676 159.78204178 -390.7736644 158.32936529 -392.44921875 156.58984375 C-392.99416992 156.01637207 -393.53912109 155.44290039 -394.10058594 154.85205078 C-394.96345215 153.95462158 -394.96345215 153.95462158 -395.84375 153.0390625 C-400.35090678 148.2845466 -404.59991226 143.49137873 -408.484375 138.203125 C-408.87109375 137.71585938 -409.2578125 137.22859375 -409.65625 136.7265625 C-409.98625 136.7265625 -410.31625 136.7265625 -410.65625 136.7265625 Z M30.34375 232.7265625 C29.28362308 234.34736445 28.27511108 236.00180253 27.28125 237.6640625 C23.06574317 244.6355114 18.68039624 251.49488883 14.28125 258.3515625 C13.60892334 259.39948975 12.93659668 260.44741699 12.24389648 261.52709961 C11.58462158 262.55456299 10.92534668 263.58202637 10.24609375 264.640625 C9.60140137 265.64899414 8.95670898 266.65736328 8.29248047 267.69628906 C6.96998718 269.75276447 5.63522513 271.80139152 4.28955078 273.84277344 C3.32831299 275.31278809 3.32831299 275.31278809 2.34765625 276.8125 C1.76959229 277.68696777 1.19152832 278.56143555 0.59594727 279.46240234 C-0.89823381 281.73287919 -0.89823381 281.73287919 -0.65625 284.7265625 C12.09685286 283.85703276 22.86592403 277.03648707 31.1171875 267.6328125 C34.36729695 262.58168699 34.69817234 257.33455415 34.65625 251.4765625 C34.65496094 250.73092041 34.65367187 249.98527832 34.65234375 249.21704102 C34.55079998 243.36240798 33.58963889 238.1674957 31.34375 232.7265625 C31.01375 232.7265625 30.68375 232.7265625 30.34375 232.7265625 Z " fill="#141414" transform="translate(444.65625,28.2734375)"/>
<path d="M0 0 C6.1491365 2.40618385 9.43859171 8.08133189 12.75 13.5 C15.49397717 17.70743165 18.43685964 19.94112746 22.68359375 22.53515625 C27.24567144 25.42011263 31.5976725 28.77964812 34.5 33.375 C35.53368247 38.80183296 35.89030437 43.21939126 33.375 48.25 C30.20747256 51.91766335 26.94337927 54.81373618 22.82421875 57.328125 C16.72737836 61.05795677 13.72068239 64.9881072 10 71 C7.20708379 75.35694929 4.90290483 78.33362246 -0.08984375 80.08203125 C-5.06613501 81.05676871 -9.5086626 81.83049862 -14.125 79.375 C-16.57943581 77.34742259 -18.4369616 75.75830305 -20 73 C-20 72.34 -20 71.68 -20 71 C-20.66 71 -21.32 71 -22 71 C-22.21914063 70.48050781 -22.43828125 69.96101563 -22.6640625 69.42578125 C-25.86331412 62.3900287 -30.28875956 59.09930826 -36.625 55 C-41.16114637 52.02935869 -44.24925811 49.25222566 -46 44 C-46.79743691 39.4455665 -46.95429149 35.62775606 -44.56640625 31.5546875 C-40.39838353 26.60673296 -35.79344955 23.45266156 -30.1875 20.31640625 C-26.59459887 18.15424968 -24.82711349 15.29542281 -22.61328125 11.828125 C-16.33570596 2.15085528 -11.57383582 -0.90709308 0 0 Z M-6 20 C-7.18640653 21.67368064 -8.3483435 23.36472067 -9.5 25.0625 C-13.69690411 30.93362036 -18.48738932 35.74369466 -25 39 C-23.80254222 42.59237333 -23.04439029 42.787828 -19.875 44.625 C-14.26111537 48.19421099 -9.9853866 53.0292268 -7 59 C-6.01 59 -5.02 59 -4 59 C-2.35777047 56.96891084 -2.35777047 56.96891084 -0.8125 54.375 C2.05372725 50.07565912 4.81624551 47.19939707 9.10546875 44.3515625 C11.31666272 42.77409216 13.12241283 40.9566873 15 39 C14.02160156 38.47212891 14.02160156 38.47212891 13.0234375 37.93359375 C4.67997074 33.22039645 0.17654116 27.86067361 -5 20 C-5.33 20 -5.66 20 -6 20 Z " fill="#161616" transform="translate(376,147)"/>
<path d="M0 0 C2.46886446 3.70329669 2.77160069 6.70587443 2 11 C-0.02852415 14.217659 -1.68145206 15.62233643 -5.359375 16.67578125 C-8.23300202 17.21977712 -11.09869778 17.63169998 -14 18 C-28.65987185 19.94144249 -40.88665174 24.49725574 -52.80078125 33.3359375 C-55.23756294 35.11157687 -57.01230488 36.00230717 -60 36.5625 C-64.16651317 35.78127878 -66.09859123 34.03635801 -69 31 C-70.18846062 28.02884845 -70.18673398 26.63860959 -69.29296875 23.58203125 C-64.22552934 13.46246191 -46.34538811 6.30471143 -35.90527344 2.76708984 C-9.13682261 -5.69864196 -9.13682261 -5.69864196 0 0 Z " fill="#121212" transform="translate(152,81)"/>
<path d="M0 0 C3.06271326 0.83192412 4.27841185 1.82497785 5.94140625 4.52734375 C6.64616643 9.46066503 6.71182023 11.37172278 3.94140625 15.52734375 C0.60912321 17.74886578 -1.19947767 18.27534765 -5.125 18.015625 C-8.51826343 17.15874029 -10.04273183 15.27624636 -12.05859375 12.52734375 C-13.12109375 10.08984375 -13.12109375 10.08984375 -13.05859375 7.52734375 C-9.70666172 1.42203898 -7.18051849 -1.1769174 0 0 Z " fill="#2D2D2D" transform="translate(75.05859375,121.47265625)"/>
<path d="M0 0 C0 0.66 0 1.32 0 2 C-7.75 1.125 -7.75 1.125 -10 0 C-19.21883822 -1.31224966 -28.60963962 -1.18625119 -37.90161133 -1.18530273 C-40.32585646 -1.18751217 -42.74966162 -1.20580603 -45.17382812 -1.22460938 C-46.73697764 -1.22754042 -48.30012927 -1.22952715 -49.86328125 -1.23046875 C-50.57696365 -1.23765427 -51.29064606 -1.24483978 -52.0259552 -1.25224304 C-56.67396094 -1.23125921 -60.58413602 -0.40164928 -65 1 C-67.71562756 1.21794764 -70.26760245 1.0958736 -73 1 C-69.5343499 -1.3104334 -66.39041129 -1.8644277 -62.375 -2.5625 C-61.65006348 -2.69180908 -60.92512695 -2.82111816 -60.17822266 -2.9543457 C-39.77268673 -6.52908821 -20.10769404 -4.71434213 0 0 Z " fill="#8F8F8F" transform="translate(404,52)"/>
<path d="M0 0 C0.99 0.99 0.99 0.99 2 2 C-2.13746012 1.1134014 -6.21855414 0.23547149 -10.27246094 -0.98608398 C-21.84342036 -4.3293637 -32.77057628 -4.50032707 -44.75 -4.3125 C-46.6666569 -4.30097539 -48.58332514 -4.29120015 -50.5 -4.28320312 C-52.32813721 -4.26980297 -54.15626409 -4.25488669 -55.984375 -4.23828125 C-56.83223572 -4.23089432 -57.68009644 -4.22350739 -58.5536499 -4.21589661 C-59.34257629 -4.20306137 -60.13150269 -4.19022614 -60.94433594 -4.17700195 C-61.97781158 -4.16223564 -61.97781158 -4.16223564 -63.03216553 -4.14717102 C-65.1164533 -3.99129065 -66.98239156 -3.53118829 -69 -3 C-70.41534778 -2.93543121 -71.83337689 -2.91388961 -73.25 -2.9375 C-75.10625 -2.9684375 -75.10625 -2.9684375 -77 -3 C-74.16814141 -4.55750215 -71.73358637 -5.37002338 -68.54296875 -5.8515625 C-67.68566162 -5.98095215 -66.82835449 -6.1103418 -65.94506836 -6.24365234 C-43.35242549 -9.36801783 -21.55515275 -7.94551251 0 0 Z " fill="#959595" transform="translate(191,55)"/>
<path d="M0 0 C0.33 0 0.66 0 1 0 C2.80666283 11.06800239 3.57000203 22.00219208 4.10449219 33.18652344 C4.53010678 41.9057655 5.19737643 50.42033363 6.59765625 59.046875 C6.96537693 61.74587336 7.07551867 64.2813279 7 67 C4.41426704 64.77789928 3.60400511 63.41557222 3.3046875 60.02734375 C3.22919678 59.22329102 3.15370605 58.41923828 3.07592773 57.59082031 C3.00962158 56.71522461 2.94331543 55.83962891 2.875 54.9375 C2.79644775 54.01936523 2.71789551 53.10123047 2.63696289 52.15527344 C1.86331715 42.51086551 1.53717632 32.84780676 1.21875 23.1796875 C0.96064193 15.44361506 0.50556302 7.72328192 0 0 Z " fill="#B0B0B0" transform="translate(104,352)"/>
<path d="M0 0 C0.495 1.485 0.495 1.485 1 3 C-12.65482687 13.4827985 -24.88788785 17.07419541 -42 15 C-49.73984118 13.09132443 -55.9851455 9.14800782 -62 4 C-61.67 3.34 -61.34 2.68 -61 2 C-60.12601562 2.68835938 -60.12601562 2.68835938 -59.234375 3.390625 C-48.17504249 11.66773549 -37.77427573 14.22876248 -24 13 C-17.27263542 11.88796296 -12.2797879 9.21963005 -6.8125 5.20703125 C-5 4 -5 4 -3 4 C-3 3.34 -3 2.68 -3 2 C-2.01 1.34 -1.02 0.68 0 0 Z " fill="#CCCCCC" transform="translate(383,454)"/>
<path d="M0 0 C0.33 0.66 0.66 1.32 1 2 C0.29568673 3.60071198 -0.4139851 5.20114847 -1.2109375 6.7578125 C-3.53925318 13.37391747 -3.18260504 20.76113608 -3.1875 27.6875 C-3.19974609 28.61111328 -3.21199219 29.53472656 -3.22460938 30.48632812 C-3.23469222 35.15468456 -3.0932901 38.73132999 -1 43 C-0.875 45.8125 -0.875 45.8125 -1 48 C-0.34 48.33 0.32 48.66 1 49 C0.01 49 -0.98 49 -2 49 C-7.84043961 33.6024774 -8.5895456 18.05005523 -1.90234375 2.7578125 C-1 1 -1 1 0 0 Z " fill="#7A7A7A" transform="translate(21,91)"/>
<path d="M0 0 C6.17513794 0.58624727 12.18664089 1.55239393 18.27832031 2.71411133 C34.14312625 5.73422593 49.91800079 7.57839659 66 9 C66 9.33 66 9.66 66 10 C43.14050606 10.32146163 22.06760566 6.95244626 0 1 C0 0.67 0 0.34 0 0 Z " fill="#B6B6B6" transform="translate(323,307)"/>
<path d="M0 0 C0.33 0 0.66 0 1 0 C1.02698189 1.62490954 1.04638757 3.24994633 1.0625 4.875 C1.07410156 5.77992188 1.08570313 6.68484375 1.09765625 7.6171875 C1 10 1 10 0 12 C-1.49647244 20.56375468 -2.18661148 29.06381766 -2.1875 37.75 C-2.1882251 38.51183594 -2.1889502 39.27367187 -2.18969727 40.05859375 C-2.15483654 43.54936688 -1.85983352 46.63521308 -1 50 C-0.93311409 51.91561254 -0.91468281 53.83335592 -0.9375 55.75 C-0.94652344 56.73484375 -0.95554687 57.7196875 -0.96484375 58.734375 C-0.97644531 59.48203125 -0.98804688 60.2296875 -1 61 C-1.33 61 -1.66 61 -2 61 C-2.2165625 59.329375 -2.2165625 59.329375 -2.4375 57.625 C-2.78372035 54.17857953 -2.78372035 54.17857953 -4 52 C-6.24582927 34.86515443 -4.61109644 16.63216445 0 0 Z " fill="#ACACAC" transform="translate(19,149)"/>
<path d="M0 0 C2.87506421 -0.02712325 5.74986908 -0.04689851 8.625 -0.0625 C9.83736328 -0.07506836 9.83736328 -0.07506836 11.07421875 -0.08789062 C12.26337891 -0.09272461 12.26337891 -0.09272461 13.4765625 -0.09765625 C14.5605835 -0.10551147 14.5605835 -0.10551147 15.66650391 -0.11352539 C18.49551823 0.02410713 21.20697816 0.53449636 24 1 C25.94325195 1.13833375 27.88914619 1.24313991 29.8359375 1.31640625 C30.89941406 1.35830078 31.96289062 1.40019531 33.05859375 1.44335938 C34.15300781 1.48267578 35.24742187 1.52199219 36.375 1.5625 C38.05142578 1.62727539 38.05142578 1.62727539 39.76171875 1.69335938 C42.50770199 1.79897411 45.25376881 1.9010797 48 2 C47.52580569 3.75679853 47.05028977 5.51324036 46.57421875 7.26953125 C46.30955811 8.24768799 46.04489746 9.22584473 45.7722168 10.23364258 C44.94624592 13.19256639 44.01832532 16.10168947 43 19 C41.50171128 15.11764181 42.56889418 12.56550712 43.9375 8.75 C44.50791016 7.13351562 44.50791016 7.13351562 45.08984375 5.484375 C45.39019531 4.66453125 45.69054687 3.8446875 46 3 C45.10394043 3.01047363 44.20788086 3.02094727 43.28466797 3.03173828 C39.88880731 3.06627839 36.49313923 3.09111758 33.09716797 3.10986328 C31.64075738 3.1197839 30.18436593 3.13332468 28.72802734 3.15087891 C18.93327568 3.26579318 9.67737775 2.69741627 0 1 C0 0.67 0 0.34 0 0 Z " fill="#9F9F9F" transform="translate(366,332)"/>
<path d="M0 0 C5.18445939 5.18445939 5.19997209 14.67271282 5.36328125 21.6015625 C5.36230101 23.60125714 5.36113953 25.60104681 5.33618164 27.60058594 C5.31244199 29.62995902 5.31566689 31.65802147 5.32226562 33.6875 C5.28263829 41.0221595 4.84226268 47.88614536 3 55 C2.67 55 2.34 55 2 55 C1.97284617 53.25008666 1.95353449 51.50005055 1.9375 49.75 C1.92589844 48.77546875 1.91429687 47.8009375 1.90234375 46.796875 C2 44 2 44 2.48828125 42.09765625 C5.71976842 28.85102565 1.96957113 13.17063391 0 0 Z " fill="#A6A6A6" transform="translate(475,153)"/>
<path d="M0 0 C0.66 0 1.32 0 2 0 C4.30042236 18.04603175 5.17240833 35.81490034 5 54 C4.67 54 4.34 54 4 54 C3.65912071 50.06311613 3.32871499 46.1254167 3 42.1875 C2.85691406 40.53717773 2.85691406 40.53717773 2.7109375 38.85351562 C2.20214521 32.69349472 1.96445866 26.6328791 2.02734375 20.45385742 C1.98963338 17.06968862 1.54605684 13.90330605 1 10.5625 C0.41515393 6.92751919 0 3.69197641 0 0 Z " fill="#ABABAB" transform="translate(86,350)"/>
<path d="M0 0 C0 0.66 0 1.32 0 2 C-1.64453125 3.55078125 -1.64453125 3.55078125 -3.8125 5.3125 C-9.13474435 9.75720786 -9.13474435 9.75720786 -11.203125 16.16796875 C-11.27752509 19.96857319 -11.03171653 23.33075007 -10 27 C-13.43107375 23.86728049 -14.22201577 20.93893761 -14.5625 16.375 C-14.53713603 10.60892437 -12.02288569 7.83854812 -8.140625 3.8125 C-5.5649987 1.63167773 -3.4417051 0 0 0 Z " fill="#898989" transform="translate(344,170)"/>
<path d="M0 0 C0 0.66 0 1.32 0 2 C-3.94892376 2.0705165 -7.57949875 2.06007161 -11.5 1.5 C-17.1526307 0.75647586 -22.80905925 0.89325225 -28.5 0.9375 C-30.16289062 0.94426758 -30.16289062 0.94426758 -31.859375 0.95117188 C-34.57297399 0.96286842 -37.28645761 0.97925914 -40 1 C-32.87338101 -6.12661899 -8.96285342 -2.52221001 0 0 Z " fill="#8E8E8E" transform="translate(169,66)"/>
<path d="M0 0 C0.66 0.33 1.32 0.66 2 1 C1.52949219 1.42410156 1.05898438 1.84820312 0.57421875 2.28515625 C-3.65538321 6.2695639 -6.09363611 9.50518644 -8 15 C-8.66 15 -9.32 15 -10 15 C-10 16.65 -10 18.3 -10 20 C-8.68 19.01 -7.36 18.02 -6 17 C-6.54723683 20.37462715 -7.0549 22.08235 -9 25 C-9.66 25 -10.32 25 -11 25 C-11.33 25.66 -11.66 26.32 -12 27 C-12.67385515 18.98861097 -11.91394366 13.48299993 -7 7 C-4.7844665 4.52354623 -2.47391972 2.21725946 0 0 Z " fill="#C7C7C7" transform="translate(44,91)"/>
<path d="M0 0 C0.33 0 0.66 0 1 0 C0.98952637 0.648479 0.97905273 1.29695801 0.96826172 1.96508789 C0.80739484 13.46503348 0.67337021 24.70008316 2.5625 36.07421875 C2.96584258 38.77157228 3.0807787 41.27876749 3 44 C-3.2968518 36.67476788 -1.15471754 24.05583333 -1.125 14.9375 C-1.12886719 13.71611328 -1.13273437 12.49472656 -1.13671875 11.23632812 C-1.13542969 10.07423828 -1.13414063 8.91214844 -1.1328125 7.71484375 C-1.13168457 6.66417725 -1.13055664 5.61351074 -1.12939453 4.53100586 C-1 2 -1 2 0 0 Z " fill="#888888" transform="translate(33,168)"/>
<path d="M0 0 C2.87700687 4.31551031 3.83371517 8.96512796 5.1875 13.9375 C5.47302734 14.93974609 5.75855469 15.94199219 6.05273438 16.97460938 C6.31763672 17.94076172 6.58253906 18.90691406 6.85546875 19.90234375 C7.22128052 21.22480103 7.22128052 21.22480103 7.59448242 22.57397461 C8.01571179 25.09399642 7.81451868 26.6037633 7 29 C7 28.01 7 27.02 7 26 C6.34 26 5.68 26 5 26 C4.1534314 23.1700421 3.32261914 20.33692438 2.5 17.5 C2.14228516 16.31277344 2.14228516 16.31277344 1.77734375 15.1015625 C0.28083815 9.88517155 -0.2488739 5.42545097 0 0 Z " fill="#797979" transform="translate(294,390)"/>
<path d="M0 0 C-0.33 0.66 -0.66 1.32 -1 2 C-1.66 1.67 -2.32 1.34 -3 1 C-5.3934153 0.87555398 -7.79088078 0.82432931 -10.1875 0.8125 C-11.48042969 0.79832031 -12.77335937 0.78414063 -14.10546875 0.76953125 C-18.03095696 1.00183196 -21.25151392 1.86476965 -25 3 C-27.71562756 3.21794764 -30.26760245 3.0958736 -33 3 C-29.40726629 0.6048442 -26.04584985 0.07544465 -21.875 -0.625 C-21.11034424 -0.75543701 -20.34568848 -0.88587402 -19.55786133 -1.02026367 C-5.86845322 -3.25161536 -5.86845322 -3.25161536 0 0 Z " fill="#A7A7A7" transform="translate(152,81)"/>
<path d="M0 0 C4.3958194 -0.02907584 8.79161399 -0.0468244 13.1875 -0.0625 C14.43337891 -0.07087891 15.67925781 -0.07925781 16.96289062 -0.08789062 C18.16494141 -0.09111328 19.36699219 -0.09433594 20.60546875 -0.09765625 C22.26292114 -0.10551147 22.26292114 -0.10551147 23.95385742 -0.11352539 C26.75799379 -0.00901923 29.27417329 0.35902041 32 1 C31 4 31 4 28 6 C25.8125 5.625 25.8125 5.625 24 5 C24.99 4.67 25.98 4.34 27 4 C27 3.34 27 2.68 27 2 C18.09 2 9.18 2 0 2 C0 1.34 0 0.68 0 0 Z " fill="#C1C1C1" transform="translate(355,65)"/>
<path d="M0 0 C6.93729238 1.32023303 13.78259689 2.88145432 20.625 4.625 C21.53378906 4.85445313 22.44257813 5.08390625 23.37890625 5.3203125 C25.58650161 5.8780208 27.7935096 6.43793913 30 7 C30 7.33 30 7.66 30 8 C24.3702506 8.35185934 20.10080657 7.93858812 14.90625 5.72265625 C12.7663027 4.83023235 12.7663027 4.83023235 9.375 4.5 C5.73694482 3.96102886 3.18938251 2.7891658 0 1 C0 0.67 0 0.34 0 0 Z " fill="#A7A7A7" transform="translate(293,299)"/>
<path d="M0 0 C1.95144051 3.57014693 3.18588153 7.33263052 4.4375 11.1875 C4.65559326 11.85080322 4.87368652 12.51410645 5.09838867 13.19750977 C5.73411919 15.1310626 6.36711281 17.06551463 7 19 C7.60274268 20.81297404 8.20660247 22.62557787 8.8125 24.4375 C9.204375 25.613125 9.59625 26.78875 10 28 C6.50917564 25.26168868 5.37701336 21.39043271 3.875 17.375 C2.46340881 12.85371422 2.46340881 12.85371422 0 9 C-0.07179964 7.48071962 -0.08392007 5.95832518 -0.0625 4.4375 C-0.05347656 3.61121094 -0.04445312 2.78492188 -0.03515625 1.93359375 C-0.02355469 1.29550781 -0.01195312 0.65742188 0 0 Z " fill="#A9A9A9" transform="translate(36,212)"/>
<path d="M0 0 C0.66 0 1.32 0 2 0 C2.33 3.63 2.66 7.26 3 11 C3.66 11 4.32 11 5 11 C5.144375 12.134375 5.28875 13.26875 5.4375 14.4375 C5.61171478 17.80777201 5.61171478 17.80777201 7 19 C7.14115161 21.67058851 7.04247107 24.32432238 7 27 C4.17444766 21.75254565 2.7149154 16.15423109 1.375 10.375 C1.11460937 9.26898438 0.85421875 8.16296875 0.5859375 7.0234375 C0 4 0 4 0 0 Z " fill="#838383" transform="translate(274,380)"/>
<path d="M0 0 C0.33 0 0.66 0 1 0 C1.02698189 1.62490954 1.04638757 3.24994633 1.0625 4.875 C1.07410156 5.77992188 1.08570313 6.68484375 1.09765625 7.6171875 C1 10 1 10 0 12 C-0.39227838 14.70872518 -0.74569498 17.40751693 -1.0625 20.125 C-1.15337891 20.87910156 -1.24425781 21.63320312 -1.33789062 22.41015625 C-1.56190852 24.27304188 -1.78138573 26.13647252 -2 28 C-2.33 28 -2.66 28 -3 28 C-3.40846396 18.04558208 -2.46481617 9.65386332 0 0 Z " fill="#828282" transform="translate(19,149)"/>
<path d="M0 0 C2 2 2 2 2.23046875 5.58984375 C2.22647623 7.03912778 2.21171518 8.48841279 2.1875 9.9375 C2.18685547 10.66646484 2.18621094 11.39542969 2.18554688 12.14648438 C2.15912584 15.34930071 2.01906863 17.9427941 1 21 C0.34 21 -0.32 21 -1 21 C-1.33 21.66 -1.66 22.32 -2 23 C-1.84660156 22.19304687 -1.69320313 21.38609375 -1.53515625 20.5546875 C-0.9111048 16.40952821 -0.65372796 12.3077704 -0.4375 8.125 C-0.39431641 7.34125 -0.35113281 6.5575 -0.30664062 5.75 C-0.20146649 3.83349351 -0.10032075 1.91676667 0 0 Z " fill="#9E9E9E" transform="translate(479,271)"/>
<path d="M0 0 C0 0.66 0 1.32 0 2 C-0.99 2.33 -1.98 2.66 -3 3 C-4.71125037 4.76369652 -4.71125037 4.76369652 -6.375 6.875 C-8.99285209 9.97640439 -11.29391365 12.20310965 -15 14 C-13.64101764 9.77533744 -11.86283346 7.6105921 -8.5 4.75 C-7.30890625 3.72132813 -7.30890625 3.72132813 -6.09375 2.671875 C-2.74766355 0 -2.74766355 0 0 0 Z " fill="#7B7B7B" transform="translate(389,189)"/>
<path d="M0 0 C0.66 0.33 1.32 0.66 2 1 C-2.03523352 5.81123996 -6.04467233 10.13242719 -11 14 C-11 10.09572976 -9.78171026 9.2747714 -7.1875 6.4375 C-6.47980469 5.65246094 -5.77210937 4.86742188 -5.04296875 4.05859375 C-3 2 -3 2 0 0 Z " fill="#7E7E7E" transform="translate(34,77)"/>
<path d="M0 0 C3.76329578 4.16152814 3.42330818 7.67966148 3.3046875 13.0703125 C2.92089725 16.76060336 2.03969162 18.94046257 0 22 C-1 20 -1 20 -0.56640625 17.86328125 C0.14054044 14.28954387 0.10758675 10.81178104 0.0625 7.1875 C0.05798828 6.49462891 0.05347656 5.80175781 0.04882812 5.08789062 C0.03713156 3.39188932 0.01919924 1.69593297 0 0 Z " fill="#949494" transform="translate(494,80)"/>
<path d="M0 0 C0.66 0.33 1.32 0.66 2 1 C0.7934375 2.2375 0.7934375 2.2375 -0.4375 3.5 C-3.55500586 7.18112274 -3.75501064 10.26353911 -4 15 C-6 14 -6 14 -6.75 11.75 C-7.05184666 8.42968674 -6.63561348 6.89949663 -5 4 C-2.375 1.6875 -2.375 1.6875 0 0 Z " fill="#8B8B8B" transform="translate(89,98)"/>
<path d="M0 0 C1.71446027 5.0159547 -0.21745443 9.21812775 -2 14 C-3.625 17 -3.625 17 -5 19 C-5.33 19.66 -5.66 20.32 -6 21 C-6.66 21 -7.32 21 -8 21 C-5.72564796 13.81783567 -2.96415819 6.9241798 0 0 Z " fill="#9B9B9B" transform="translate(399,423)"/>
<path d="M0 0 C0.33 0 0.66 0 1 0 C1.38614349 6.8218683 0.00865708 12.49577707 -2 19 C-2.66 19 -3.32 19 -4 19 C-3.59060025 12.23784552 -2.43046191 6.32837252 0 0 Z " fill="#868686" transform="translate(217,390)"/>
<path d="M0 0 C0.66 0 1.32 0 2 0 C2 0.66 2 1.32 2 2 C2.66 2 3.32 2 4 2 C4 3.32 4 4.64 4 6 C4.66 6 5.32 6 6 6 C6.33 7.98 6.66 9.96 7 12 C7.66 12 8.32 12 9 12 C9.33 14.64 9.66 17.28 10 20 C8.49569931 17.74354896 7.25993393 15.6484934 6.0546875 13.2421875 C5.52294922 12.18064453 5.52294922 12.18064453 4.98046875 11.09765625 C4.61566406 10.36417969 4.25085938 9.63070313 3.875 8.875 C3.50246094 8.13378906 3.12992187 7.39257812 2.74609375 6.62890625 C0 1.1266598 0 1.1266598 0 0 Z " fill="#949494" transform="translate(72,318)"/>
<path d="M0 0 C0.99 0.33 1.98 0.66 3 1 C2.505 1.515625 2.01 2.03125 1.5 2.5625 C-0.53366895 5.86721204 -0.3468602 8.18453778 0 12 C0.99 13.485 0.99 13.485 2 15 C0.125 14.4375 0.125 14.4375 -2 13 C-3.5 9.75 -3.5 9.75 -4 6 C-2.125 2.5625 -2.125 2.5625 0 0 Z " fill="#8F8F8F" transform="translate(66,123)"/>
<path d="M0 0 C-3.18990161 1.76624624 -6.2706169 2.6634063 -9.8125 3.5 C-14.24466326 4.56871011 -18.62818076 5.70832613 -23 7 C-21.16867971 3.33735941 -16.86726967 2.37450281 -13.25 0.8125 C-8.80643902 -0.29839025 -4.55540126 -0.16204985 0 0 Z " fill="#9F9F9F" transform="translate(135,98)"/>
<path d="M0 0 C-3.39673303 1.85276347 -6.86904604 2.99049196 -10.5625 4.125 C-11.69816406 4.47820312 -12.83382812 4.83140625 -14.00390625 5.1953125 C-17 6 -17 6 -20 6 C-20 5.34 -20 4.68 -20 4 C-17.29120665 2.64560332 -14.99066732 2.93498549 -12 3 C-12 2.34 -12 1.68 -12 1 C-8.0186217 -0.3271261 -4.14954773 -0.06915913 0 0 Z " fill="#7D7D7D" transform="translate(125,67)"/>
<path d="M0 0 C2.87506421 -0.02712325 5.74986908 -0.04689851 8.625 -0.0625 C9.83736328 -0.07506836 9.83736328 -0.07506836 11.07421875 -0.08789062 C15.50341918 -0.1058955 19.63883424 0.10377338 24 1 C24 1.33 24 1.66 24 2 C15.72493475 3.41095583 8.22346683 2.43377448 0 1 C0 0.67 0 0.34 0 0 Z " fill="#656565" transform="translate(366,332)"/>
<path d="M0 0 C0.66 0.33 1.32 0.66 2 1 C-0.97 4.3 -3.94 7.6 -7 11 C-7 9.33333333 -7 7.66666667 -7 6 C-7.66 5.67 -8.32 5.34 -9 5 C-2.25 1.125 -2.25 1.125 0 0 Z " fill="#D6D6D6" transform="translate(55,85)"/>
<path d="M0 0 C0.66 0.33 1.32 0.66 2 1 C0.78258021 2.46815389 -0.44948761 3.92416847 -1.6875 5.375 C-2.37199219 6.18710938 -3.05648438 6.99921875 -3.76171875 7.8359375 C-6.09861313 10.09534323 -7.9302743 11.02155853 -11 12 C-11 10 -11 10 -8.875 7.6875 C-5.99682278 4.99702999 -3.0544225 2.48615785 0 0 Z " fill="#838383" transform="translate(458,105)"/>
<path d="M0 0 C0 4.1907394 -2.32502388 6.05675979 -5 9 C-5.680625 9.804375 -6.36125 10.60875 -7.0625 11.4375 C-8.0215625 12.2109375 -8.0215625 12.2109375 -9 13 C-11.12109375 12.59765625 -11.12109375 12.59765625 -13 12 C-12.39671875 11.55269531 -11.7934375 11.10539062 -11.171875 10.64453125 C-6.89830703 7.41178386 -3.09726243 4.44389827 0 0 Z " fill="#9C9C9C" transform="translate(195,450)"/>
<path d="M0 0 C1.06927734 0.10828125 1.06927734 0.10828125 2.16015625 0.21875 C7.46793427 0.73309726 12.66791429 1.11849079 18 1 C13.6415527 3.90563153 9.19000096 4.22531441 4 4 C1.3125 2.0625 1.3125 2.0625 0 0 Z " fill="#959595" transform="translate(361,224)"/>
<path d="M0 0 C3.22757853 6.45515706 4.46841664 11.79564657 5 19 C0.26910607 14.26910607 0.48423097 6.33323142 0 0 Z " fill="#979797" transform="translate(18,210)"/>
<path d="M0 0 C2.64 0 5.28 0 8 0 C8 0.66 8 1.32 8 2 C9.093125 2.103125 10.18625 2.20625 11.3125 2.3125 C15.05975155 3.01114012 15.65962741 3.31397238 18 6 C5.33029613 2.92482916 5.33029613 2.92482916 0 1 C0 0.67 0 0.34 0 0 Z " fill="#8E8E8E" transform="translate(170,68)"/>
<path d="M0 0 C1.74325447 2.6148817 2.41587957 4.0053433 3.125 6.9375 C3.29257812 7.60652344 3.46015625 8.27554687 3.6328125 8.96484375 C4 11 4 11 4 15 C3.34 15 2.68 15 2 15 C0.2520497 9.75614911 -0.19392201 5.52677733 0 0 Z " fill="#7D7D7D" transform="translate(290,375)"/>
<path d="M0 0 C0.33 0 0.66 0 1 0 C1.19392201 5.52677733 0.7479503 9.75614911 -1 15 C-1.66 15 -2.32 15 -3 15 C-2.44854729 9.76119922 -1.57077907 5.02649303 0 0 Z " fill="#787878" transform="translate(221,375)"/>
<path d="M0 0 C0.33 0 0.66 0 1 0 C1.33745354 2.39531756 1.6700829 4.79114268 2 7.1875 C2.14308594 8.19780273 2.14308594 8.19780273 2.2890625 9.22851562 C2.78324613 12.84664577 3.11346131 16.34796401 3 20 C0.32266002 17.32968716 -0.00280229 15.96278559 -0.29296875 12.109375 C-0.27314945 10.65595991 -0.23754845 9.20268833 -0.1875 7.75 C-0.17396484 7.00492188 -0.16042969 6.25984375 -0.14648438 5.4921875 C-0.11127204 3.66114584 -0.05746851 1.83047831 0 0 Z " fill="#AAAAAA" transform="translate(33,192)"/>
<path d="M0 0 C3.36286253 3.36286253 3.44705523 6.55002265 3.69140625 11.07421875 C3.79324219 11.70972656 3.89507813 12.34523437 4 13 C4.66 13.33 5.32 13.66 6 14 C5.01 14 4.02 14 3 14 C-0.44419134 4.58997722 -0.44419134 4.58997722 0 0 Z " fill="#898989" transform="translate(16,126)"/>
<path d="M0 0 C3.96 0 7.92 0 12 0 C8.85426323 2.09715785 6.98543749 2.52004559 3.3125 3.125 C1.82169922 3.37636719 1.82169922 3.37636719 0.30078125 3.6328125 C-0.45847656 3.75398438 -1.21773438 3.87515625 -2 4 C-1.34 2.68 -0.68 1.36 0 0 Z " fill="#808080" transform="translate(433,331)"/>
<path d="M0 0 C-2.48775874 2.48775874 -4.07275574 2.61866553 -7.5 3.25 C-8.96953125 3.53617187 -8.96953125 3.53617187 -10.46875 3.828125 C-11.72171875 3.91320312 -11.72171875 3.91320312 -13 4 C-13.66 3.34 -14.32 2.68 -15 2 C-9.77487721 0.53329887 -5.4185766 -0.22577402 0 0 Z " fill="#999999" transform="translate(151,95)"/>
<path d="M0 0 C0.33 0.99 0.66 1.98 1 3 C-2.3 5.31 -5.6 7.62 -9 10 C-9 9.01 -9 8.02 -9 7 C-5.66666667 4 -5.66666667 4 -3 4 C-3 3.34 -3 2.68 -3 2 C-2.01 1.34 -1.02 0.68 0 0 Z " fill="#989898" transform="translate(383,454)"/>
<path d="M0 0 C0.66 0.33 1.32 0.66 2 1 C2 1.66 2 2.32 2 3 C2.66 3 3.32 3 4 3 C4.66 5.31 5.32 7.62 6 10 C4 8 2 6 0 4 C-0.66 4.66 -1.32 5.32 -2 6 C-1.125 1.125 -1.125 1.125 0 0 Z " fill="#9E9E9E" transform="translate(370,164)"/>
<path d="M0 0 C0.66 0 1.32 0 2 0 C2.33 3.63 2.66 7.26 3 11 C0 8 0 8 -0.29296875 5.95703125 C-0.1953125 3.97135417 -0.09765625 1.98567708 0 0 Z " fill="#8B8B8B" transform="translate(108,408)"/>
<path d="M0 0 C1.33332095 2.6666419 0.67102033 4.16680303 0 7 C-1.32 6.67 -2.64 6.34 -4 6 C-4.33 4.35 -4.66 2.7 -5 1 C-4.67 1.66 -4.34 2.32 -4 3 C-3.01 3 -2.02 3 -1 3 C-0.67 2.01 -0.34 1.02 0 0 Z " fill="#9E9E9E" transform="translate(373,203)"/>
<path d="M0 0 C0.33 0 0.66 0 1 0 C1.08114106 1.77007714 1.13925505 3.54122098 1.1875 5.3125 C1.23970703 6.79169922 1.23970703 6.79169922 1.29296875 8.30078125 C1 11 1 11 -0.51171875 12.85546875 C-1.00285156 13.23316406 -1.49398438 13.61085938 -2 14 C-1.03644647 4.58997722 -1.03644647 4.58997722 0 0 Z " fill="#949494" transform="translate(402,409)"/>
<path d="M0 0 C2.1793144 1.75864246 2.93686419 2.69396 3.51171875 5.48046875 C3.56972656 6.37378906 3.62773437 7.26710938 3.6875 8.1875 C3.75324219 9.08855469 3.81898438 9.98960937 3.88671875 10.91796875 C3.92410156 11.60503906 3.96148437 12.29210937 4 13 C1.12420019 8.68630028 0 5.19265239 0 0 Z " fill="#929292" transform="translate(281,408)"/>
<path d="M0 0 C1.4391134 0.28359887 2.87625518 0.57721399 4.3125 0.875 C5.11300781 1.03742188 5.91351563 1.19984375 6.73828125 1.3671875 C9 2 9 2 12 4 C7.75519536 4.33292585 5.64457375 4.43885872 2.0625 2 C1.381875 1.34 0.70125 0.68 0 0 Z " fill="#B8B8B8" transform="translate(268,291)"/>
<path d="M0 0 C1.4391134 0.28359887 2.87625518 0.57721399 4.3125 0.875 C5.11300781 1.03742188 5.91351563 1.19984375 6.73828125 1.3671875 C9 2 9 2 12 4 C10.37399059 3.9129995 8.74910322 3.8048219 7.125 3.6875 C6.22007812 3.62949219 5.31515625 3.57148438 4.3828125 3.51171875 C2 3 2 3 0 0 Z " fill="#ADADAD" transform="translate(256,287)"/>
<path d="M0 0 C2.56616632 3.84924948 2.55097676 6.4349304 3 11 C1.5 10 1.5 10 0 8 C-0.27345479 5.28153765 -0.13491285 2.74322801 0 0 Z " fill="#979797" transform="translate(294,390)"/>
<path d="M0 0 C2.79872437 2.52788007 4.45773019 4.20411134 5 8 C2 7 2 7 0 4 C0 2.68 0 1.36 0 0 Z " fill="#8F8F8F" transform="translate(70,281)"/>
<path d="M0 0 C0.33 1.32 0.66 2.64 1 4 C-1.97 6.475 -1.97 6.475 -5 9 C-4.34 7.02 -3.68 5.04 -3 3 C-2.34 3 -1.68 3 -1 3 C-0.67 2.01 -0.34 1.02 0 0 Z " fill="#B1B1B1" transform="translate(443,278)"/>
<path d="M0 0 C0.33 0 0.66 0 1 0 C1.36923077 7.38461538 1.36923077 7.38461538 -0.5 10.5 C-0.995 10.995 -1.49 11.49 -2 12 C-2.17835515 7.45194365 -1.99785435 4.1205746 0 0 Z " fill="#B4B4B4" transform="translate(476,208)"/>
<path d="M0 0 C3 2 3 2 3.51171875 4.3828125 C3.56972656 5.28773438 3.62773437 6.19265625 3.6875 7.125 C3.75324219 8.03507813 3.81898438 8.94515625 3.88671875 9.8828125 C3.92410156 10.58148438 3.96148437 11.28015625 4 12 C2.09681116 9.14521674 1.5380901 7.58058692 0.875 4.3125 C0.70742188 3.50425781 0.53984375 2.69601563 0.3671875 1.86328125 C0.24601562 1.24839844 0.12484375 0.63351563 0 0 Z " fill="#9E9E9E" transform="translate(471,140)"/>
<path d="M0 0 C0.99 0.33 1.98 0.66 3 1 C3.12375 1.969375 3.2475 2.93875 3.375 3.9375 C3.684375 5.4534375 3.684375 5.4534375 4 7 C4.66 7.33 5.32 7.66 6 8 C5.01 8 4.02 8 3 8 C0 2.25 0 2.25 0 0 Z " fill="#828282" transform="translate(67,308)"/>
<path d="" fill="#FFFFFF" transform="translate(0,0)"/>
<path d="" fill="#FFFFFF" transform="translate(0,0)"/>
</svg>
