<?xml version="1.0" encoding="UTF-8"?>
<svg version="1.1" xmlns="http://www.w3.org/2000/svg" width="512" height="512">
<path d="M0 0 C0.639375 -0.01289063 1.27875 -0.02578125 1.9375 -0.0390625 C5.23688268 1.02323874 7.08739739 2.83423744 9 5.625 C10.83776378 9.58362955 12.21280563 13.68615324 13.625 17.8125 C14.56874114 20.49507538 15.52447353 23.17333321 16.48046875 25.8515625 C16.74285843 26.59022049 17.00524811 27.32887848 17.27558899 28.08992004 C19.69141075 34.85335522 22.23550572 41.56546008 24.80078125 48.2734375 C25.22200256 49.37530899 25.64322388 50.47718048 26.07720947 51.61244202 C27.78326914 56.07071054 29.4915918 60.5280936 31.20513916 64.98348999 C47.80444449 108.16928017 47.80444449 108.16928017 39.625 129.15234375 C32.49046413 143.57576842 21.53439112 152.05338132 6.71875 157.45703125 C-2.21514179 160.00172584 -12.0995755 159.79611543 -21.3125 159.75 C-22.31434326 159.74589111 -23.31618652 159.74178223 -24.34838867 159.73754883 C-45.61782334 159.57798947 -45.61782334 159.57798947 -54.81640625 156.24609375 C-57.58086093 155.45978195 -59.11273897 155.19507318 -62 155.625 C-64.63296901 157.36900555 -66.84930383 159.5105377 -69.12109375 161.6953125 C-70.11641869 162.64432938 -70.11641869 162.64432938 -71.1318512 163.61251831 C-72.52976649 164.95884221 -73.92048394 166.312674 -75.30444336 167.67333984 C-77.42002628 169.73298827 -79.58463384 171.72979191 -81.75585938 173.73046875 C-89.18852977 180.49701878 -89.18852977 180.49701878 -92.44384766 189.58959961 C-91.91692008 193.09478376 -91.04030474 196.24577212 -90 199.625 C-90.10945405 206.16126565 -93.9730954 211.74029324 -98 216.625 C-99.86141739 218.38944051 -101.73739431 220.13860438 -103.625 221.875 C-107.6096991 225.5867207 -109.70517202 228.69729693 -111 234.0625 C-112.83974967 241.57258923 -117.09699877 245.93112835 -122.47265625 251.13574219 C-124.04483113 252.66871322 -125.57174139 254.23761621 -127.09375 255.8203125 C-132.43597141 261.32777509 -132.43597141 261.32777509 -135 263.625 C-135.66 263.625 -136.32 263.625 -137 263.625 C-137 264.285 -137 264.945 -137 265.625 C-137.66 265.625 -138.32 265.625 -139 265.625 C-139.24743454 266.19775162 -139.49486908 266.77050323 -139.74980164 267.36061096 C-141.19846206 269.9844592 -142.87718138 271.74222688 -145.00317383 273.85522461 C-145.82775589 274.67965561 -146.65233795 275.50408661 -147.50190735 276.35350037 C-148.84094368 277.67705284 -148.84094368 277.67705284 -150.20703125 279.02734375 C-151.12457687 279.94205948 -152.0421225 280.85677521 -152.98747253 281.79920959 C-155.42575001 284.22986405 -157.86996555 286.65446043 -160.31549072 289.07781982 C-162.79006885 291.53201777 -165.25907888 293.99180258 -167.72851562 296.45117188 C-172.12814112 300.83150314 -176.52992177 305.20963834 -180.94424438 309.57516479 C-182.6443683 311.27039249 -184.31218362 312.98982467 -185.9753418 314.72094727 C-188 316.625 -188 316.625 -190 316.625 C-190.25072266 317.20024414 -190.50144531 317.77548828 -190.75976562 318.36816406 C-192.16728827 320.92941196 -193.78170025 322.66557392 -195.84375 324.734375 C-196.59527344 325.48847656 -197.34679687 326.24257813 -198.12109375 327.01953125 C-198.90613281 327.79683594 -199.69117188 328.57414062 -200.5 329.375 C-201.67755859 330.56416016 -201.67755859 330.56416016 -202.87890625 331.77734375 C-203.63042969 332.52628906 -204.38195312 333.27523438 -205.15625 334.046875 C-205.84525391 334.73362305 -206.53425781 335.42037109 -207.24414062 336.12792969 C-209 337.625 -209 337.625 -211 337.625 C-211.25125893 338.20088206 -211.50251785 338.77676413 -211.76139069 339.37009716 C-213.16469704 341.92483291 -214.75996474 343.63956631 -216.81774902 345.70344543 C-217.61380554 346.50658676 -218.40986206 347.30972809 -219.2300415 348.13720703 C-220.1048114 349.00949951 -220.9795813 349.88179199 -221.88085938 350.78051758 C-222.80143127 351.70620041 -223.72200317 352.63188324 -224.67047119 353.58561707 C-227.19509079 356.12362577 -229.7260781 358.65519209 -232.25866508 361.18524766 C-234.37729531 363.30280683 -236.49293808 365.42333842 -238.60863733 367.54382533 C-243.6068586 372.55314423 -248.61039226 377.55711322 -253.6171875 382.55786133 C-258.76540058 387.70005125 -263.90440766 392.85130987 -269.0389266 398.0071705 C-273.4582703 402.44419997 -277.88347513 406.87532492 -282.31329203 411.30189818 C-284.9539085 413.9407107 -287.59230582 416.58164473 -290.22502136 419.22834206 C-293.16952749 422.18789781 -296.12617262 425.13504078 -299.08398438 428.08129883 C-299.94256042 428.94751862 -300.80113647 429.8137384 -301.68572998 430.70620728 C-315.72481678 444.625 -315.72481678 444.625 -321 444.625 C-321.33 445.285 -321.66 445.945 -322 446.625 C-323.32 446.625 -324.64 446.625 -326 446.625 C-326.33 447.285 -326.66 447.945 -327 448.625 C-340.38696734 452.56091417 -354.60454117 451.25161417 -366.9375 444.75 C-371.00009282 442.37521907 -374.5038688 439.76255364 -378 436.625 C-378.66 436.295 -379.32 435.965 -380 435.625 C-380.495 434.14 -380.495 434.14 -381 432.625 C-381.45375 432.17898438 -381.9075 431.73296875 -382.375 431.2734375 C-389.83734103 423.70346655 -392.66100202 410.99560359 -393.20703125 400.734375 C-393.13750801 396.44642706 -392.15070887 392.67794538 -390.8125 388.625 C-390.58401367 387.92294434 -390.35552734 387.22088867 -390.12011719 386.49755859 C-386.06868934 374.51881836 -377.83356278 366.43510147 -369 357.625 C-368.20890083 356.83390083 -367.41780167 356.04280167 -366.6027298 355.2277298 C-254 242.625 -254 242.625 -251.37814903 240.00441074 C-249.58766409 238.21297587 -247.79949909 236.41947517 -246.0161438 234.62095642 C-245.48088074 234.08135788 -244.94561768 233.54175934 -244.39413452 232.98580933 C-243.82466095 232.41162262 -243.25518738 231.83743591 -242.66845703 231.24584961 C-236.4249679 224.95333669 -230.1738394 218.66847001 -223.91833687 212.38790035 C-220.14061355 208.59449757 -216.36575625 204.79832953 -212.59716797 200.99584961 C-208.94108171 197.30710707 -205.27766027 193.62579685 -201.60909653 189.9494648 C-200.2166668 188.55151049 -198.82687132 187.15092702 -197.43982315 185.74763298 C-195.49696831 183.78291523 -193.54483774 181.82787433 -191.59033203 179.87475586 C-191.02490692 179.29854492 -190.45948181 178.72233398 -189.87692261 178.12866211 C-184.773813 173.06446003 -179.6149472 169.47921546 -172.3125 168.5 C-168.7906504 168.01182283 -166.10533124 167.38493012 -163 165.625 C-163 164.965 -163 164.305 -163 163.625 C-161.42578125 162.0390625 -161.42578125 162.0390625 -159.3125 160.25 C-158.5803125 159.62996094 -157.848125 159.00992188 -157.09375 158.37109375 C-156.4028125 157.79488281 -155.711875 157.21867188 -155 156.625 C-153.6696875 155.4803125 -153.6696875 155.4803125 -152.3125 154.3125 C-147.90920597 151.09928544 -144.92118674 150.55354634 -139.504776 151.03747559 C-132.91498899 151.40975778 -128.35009269 150.32286657 -123.18017578 146.09765625 C-118.0199211 141.38104278 -113.29170156 136.26729588 -108.5625 131.125 C-106.8782371 129.35176757 -105.19011168 127.58219545 -103.49804688 125.81640625 C-99.80526776 121.95889358 -96.15183166 118.06809157 -92.53077698 114.14318848 C-89.85301447 111.48744682 -87.91917405 111.49690585 -84.26953125 111.4921875 C-83.25737549 111.49049561 -82.24521973 111.48880371 -81.20239258 111.48706055 C-80.08372803 111.49133057 -78.96506348 111.49560059 -77.8125 111.5 C-76.64807373 111.4997583 -75.48364746 111.4995166 -74.28393555 111.49926758 C-66.78705881 111.52393631 -59.30474347 111.69461719 -51.8125 111.95703125 C-50.05753655 112.01515927 -48.30257236 112.07326472 -46.54760742 112.13134766 C-43.09882529 112.24647664 -39.65181888 112.38389348 -36.2043457 112.53271484 C-34.59068293 112.58894909 -32.9769955 112.64448153 -31.36328125 112.69921875 C-30.63709595 112.73658646 -29.91091064 112.77395416 -29.16271973 112.81245422 C-23.78419021 112.96930328 -19.90872393 111.86392224 -15 109.625 C-10.51403739 104.90898802 -9.87616542 102.16498214 -9.90234375 95.75463867 C-9.90453415 94.69289177 -9.90453415 94.69289177 -9.9067688 93.60969543 C-9.91058182 92.06663 -9.91670572 90.52356898 -9.92483521 88.98052025 C-9.93763377 86.51722214 -9.94412651 84.05397826 -9.94897461 81.59065247 C-9.96233556 75.45410405 -9.98617893 69.31760509 -10.01037598 63.18109131 C-10.05766161 50.99535698 -10.07379137 38.81065861 -10 26.625 C-9.99129883 24.80600189 -9.99129883 24.80600189 -9.98242188 22.95025635 C-9.9557547 19.96125543 -9.89450304 16.97619933 -9.8125 13.98828125 C-9.80677979 13.17884567 -9.80105957 12.3694101 -9.79516602 11.53544617 C-9.63594009 7.54986355 -9.1270692 5.78141552 -6.578125 2.64379883 C-4.07479539 0.68356847 -3.10642461 -0.06262953 0 0 Z M10 63.625 C8.51055733 66.60388535 8.94517878 69.26306652 9.0078125 72.58203125 C9.02536714 74.02017477 9.04227159 75.45832634 9.05859375 76.89648438 C9.08920163 79.14956466 9.12426223 81.40223094 9.17138672 83.6550293 C9.4467445 97.5605975 9.01938973 110.88577062 -1 121.625 C-9.41734889 128.9960365 -19.21613068 131.1134698 -30.1640625 130.91796875 C-31.54118912 130.91160149 -31.54118912 130.91160149 -32.94613647 130.90510559 C-35.83940678 130.88849497 -38.7319451 130.85087775 -41.625 130.8125 C-43.60285443 130.79743032 -45.58071992 130.78374595 -47.55859375 130.77148438 C-52.37267202 130.73864953 -57.18621251 130.68699238 -62 130.625 C-59.9592501 135.05598946 -57.99511217 135.93859074 -53.55078125 137.74609375 C-36.23136334 143.71373392 -10.58930077 144.86512885 6.43359375 137.90234375 C15.18560147 133.54632164 20.41526175 127.75447728 24 118.625 C24.74690949 115.57760927 24.92515478 112.74970563 25 109.625 C25.03520752 108.93075928 25.07041504 108.23651855 25.10668945 107.52124023 C25.28717948 101.90436511 24.33219482 97.52684054 22.3125 92.3125 C21.90584106 91.2133728 21.90584106 91.2133728 21.4909668 90.09204102 C19.4939419 84.7504813 17.34353608 79.47379406 15.1015625 74.23046875 C13.62287328 70.7330017 12.303017 67.19115178 11 63.625 C10.67 63.625 10.34 63.625 10 63.625 Z M-92.91796875 139.13671875 C-93.4946077 139.70195755 -94.07124664 140.26719635 -94.6653595 140.8495636 C-95.88447049 142.04975683 -97.1006771 143.25290618 -98.31420898 144.45874023 C-100.17666919 146.30178211 -102.05932451 148.12241318 -103.94335938 149.94335938 C-105.12371053 151.11065126 -106.30279063 152.2792301 -107.48046875 153.44921875 C-108.04807419 153.99213058 -108.61567963 154.53504242 -109.20048523 155.09440613 C-110.96977391 156.81594571 -110.96977391 156.81594571 -113 159.625 C-112.93800458 162.85558706 -112.52791453 164.04138225 -110.37109375 166.42578125 C-109.73300781 166.92464844 -109.09492188 167.42351562 -108.4375 167.9375 C-107.47650391 168.70513672 -107.47650391 168.70513672 -106.49609375 169.48828125 C-106.00238281 169.86339844 -105.50867188 170.23851562 -105 170.625 C-101.04230364 169.01702068 -98.31094244 166.27547346 -95.32421875 163.3203125 C-94.79480179 162.79992401 -94.26538483 162.27953552 -93.71992493 161.74337769 C-92.60704659 160.64496594 -91.49692348 159.54375652 -90.3894043 158.43994141 C-88.68787319 156.75037057 -86.96857607 155.08034885 -85.24804688 153.41015625 C-84.16812728 152.33969409 -83.08931169 151.26811678 -82.01171875 150.1953125 C-81.23534309 149.44823532 -81.23534309 149.44823532 -80.44328308 148.68606567 C-78.84321832 147.12329913 -78.84321832 147.12329913 -77 144.625 C-77.11838966 141.89040763 -77.71114592 140.97664844 -79.4375 138.875 C-80.92679355 137.41676832 -80.92679355 137.41676832 -83 137.625 C-83.66 136.305 -84.32 134.985 -85 133.625 C-88.4697791 133.625 -90.55721589 136.81169991 -92.91796875 139.13671875 Z M-149 175.625 C-148.50388524 179.88860282 -146.0836315 181.89983272 -143.1171875 184.8359375 C-142.37844894 185.5718663 -142.37844894 185.5718663 -141.62478638 186.32266235 C-140.58082317 187.35991038 -139.53327187 188.39355781 -138.48242188 189.42382812 C-136.89466085 190.98072138 -135.31754563 192.54775548 -133.7421875 194.1171875 C-128.66111052 199.15844129 -123.5270776 204.0686839 -118 208.625 C-114.63251488 207.10552501 -113.39159663 206.10399158 -112 202.625 C-111.34 202.625 -110.68 202.625 -110 202.625 C-108.49110531 199.60721063 -108.49973724 198.00177363 -109 194.625 C-110.97795359 191.6219276 -113.47465021 189.17197094 -116 186.625 C-116.9485029 185.63988703 -117.89638482 184.6541759 -118.84375 183.66796875 C-119.83187688 182.65222694 -120.82145653 181.63789633 -121.8125 180.625 C-122.29243408 180.13169189 -122.77236816 179.63838379 -123.2668457 179.13012695 C-124.47275542 177.92208024 -125.73261169 176.76838182 -127 175.625 C-127.66 175.625 -128.32 175.625 -129 175.625 C-129.2475 175.026875 -129.495 174.42875 -129.75 173.8125 C-131.23611853 171.21179257 -132.37949839 170.08083423 -135 168.625 C-141.42012524 167.16588063 -144.76373785 171.41024172 -149 175.625 Z M-182.4223175 195.78662109 C-182.93309898 196.29357702 -183.44388046 196.80053295 -183.97014016 197.32285118 C-185.66755241 199.01000657 -187.35779777 200.7041569 -189.0480957 202.3984375 C-190.26861221 203.61460369 -191.48954498 204.83035225 -192.71086121 206.04571533 C-196.01690306 209.33839561 -199.31654076 212.63742268 -202.61463952 215.93805695 C-205.36910804 218.69359634 -208.12654977 221.44615095 -210.88394707 224.19875908 C-217.38600358 230.68973188 -223.88273086 237.18600497 -230.3762207 243.68554688 C-237.07838211 250.39375844 -243.78969151 257.09271738 -250.50550395 263.78726006 C-256.27235867 269.53652015 -262.03341259 275.29154765 -267.78984708 281.05124092 C-271.22767488 284.49088392 -274.66770435 287.92825047 -278.11336708 291.36004639 C-281.34990223 294.58404142 -284.5791505 297.81515937 -287.80287361 301.05196381 C-288.98828996 302.2397532 -290.17628245 303.42497786 -291.36699295 304.60746002 C-292.98921356 306.21927395 -294.60195707 307.84000845 -296.21260071 309.46337891 C-297.11830464 310.3689151 -298.02400858 311.27445129 -298.95715809 312.20742798 C-300.88448901 314.48830018 -301.81130342 315.67093041 -302 318.625 C-300.63072839 320.73808658 -300.63072839 320.73808658 -298.50512695 322.71923828 C-297.71713211 323.51331085 -296.92913727 324.30738342 -296.11726379 325.1255188 C-295.24969955 325.97355072 -294.38213531 326.82158264 -293.48828125 327.6953125 C-292.16862617 329.01147049 -292.16862617 329.01147049 -290.8223114 330.35421753 C-288.95554274 332.21122573 -287.08484866 334.06279051 -285.20532227 335.90673828 C-282.3273481 338.73065401 -279.47304843 341.57754133 -276.61914062 344.42578125 C-274.80577554 346.22505555 -272.99135654 348.02326845 -271.17578125 349.8203125 C-270.31833817 350.67239288 -269.46089508 351.52447327 -268.57746887 352.40237427 C-267.77371323 353.19014252 -266.96995758 353.97791077 -266.1418457 354.78955078 C-265.43711624 355.48364044 -264.73238678 356.1777301 -264.00630188 356.89285278 C-262.06657759 358.56752002 -260.2976039 359.53204127 -258 360.625 C-241.18258353 343.92433267 -224.37945787 327.20940496 -207.59327793 310.47733879 C-199.79900566 302.70885918 -192.00010723 294.94513198 -184.19018555 287.19238281 C-177.3838764 280.43587562 -170.58637192 273.6706552 -163.79933971 266.89478219 C-160.20460955 263.30657609 -156.60559406 259.72291693 -152.9960041 256.14965439 C-149.59944583 252.78700434 -146.21477419 249.4128373 -142.83889389 246.0294323 C-141.59719 244.78910524 -140.35118707 243.55306501 -139.10063362 242.321661 C-137.39450549 240.64038872 -135.70448039 238.94441132 -134.01759338 237.24386597 C-133.26906415 236.51718304 -133.26906415 236.51718304 -132.50541312 235.77581966 C-129.35465117 232.5555625 -128.14659759 230.14207609 -128 225.625 C-130.64942255 220.48147474 -134.73549658 216.61201311 -138.8125 212.58203125 C-139.46323486 211.93175461 -140.11396973 211.28147797 -140.78442383 210.61149597 C-142.15371712 209.24520965 -143.52542587 207.88134025 -144.89941406 206.51977539 C-146.99864154 204.43884662 -149.0897141 202.34998444 -151.1796875 200.25976562 C-152.51515352 198.92921411 -153.85107556 197.59912011 -155.1875 196.26953125 C-156.12203003 195.33667046 -156.12203003 195.33667046 -157.07543945 194.38496399 C-162.0063288 189.07227784 -162.0063288 189.07227784 -168.375 186.1875 C-174.1863633 187.15606055 -178.3928413 191.76625914 -182.4223175 195.78662109 Z M-316 330.625 C-316.99 332.11 -316.99 332.11 -318 333.625 C-317.67 334.285 -317.34 334.945 -317 335.625 C-316.34 335.625 -315.68 335.625 -315 335.625 C-314.73461426 336.21504822 -314.46922852 336.80509644 -314.19580078 337.4130249 C-312.96474737 339.69020981 -311.68937484 341.18921812 -309.8671875 343.01660156 C-308.91610107 343.97714447 -308.91610107 343.97714447 -307.94580078 344.95709229 C-307.26243652 345.63640808 -306.57907227 346.31572388 -305.875 347.015625 C-305.1722998 347.72023865 -304.46959961 348.42485229 -303.74560547 349.15081787 C-302.26189896 350.63588353 -300.77567108 352.11843381 -299.28710938 353.59863281 C-297.00156409 355.87344325 -294.72690983 358.1587536 -292.453125 360.4453125 C-291.01105781 361.88605868 -289.56837065 363.32618465 -288.125 364.765625 C-287.44163574 365.45303772 -286.75827148 366.14045044 -286.05419922 366.84869385 C-285.4201416 367.47644714 -284.78608398 368.10420044 -284.1328125 368.75097656 C-283.57480957 369.30738831 -283.01680664 369.86380005 -282.44189453 370.43707275 C-281.0541017 371.83695394 -281.0541017 371.83695394 -279 371.625 C-279 372.285 -279 372.945 -279 373.625 C-278.01 373.625 -277.02 373.625 -276 373.625 C-275.67 374.615 -275.34 375.605 -275 376.625 C-274.01 375.305 -273.02 373.985 -272 372.625 C-276.08707305 368.48861198 -280.18057878 364.35874208 -284.28027344 360.23486328 C-285.67498149 358.83007692 -287.06789204 357.42350363 -288.45898438 356.01513672 C-290.45497031 353.99498287 -292.4572619 351.98127344 -294.4609375 349.96875 C-295.08495453 349.3344104 -295.70897156 348.7000708 -296.35189819 348.04650879 C-297.8637749 346.53423861 -299.42739652 345.0740171 -301 343.625 C-301.66 343.625 -302.32 343.625 -303 343.625 C-303 342.965 -303 342.305 -303 341.625 C-303.66 341.625 -304.32 341.625 -305 341.625 C-305.33 340.635 -305.66 339.645 -306 338.625 C-306.66 338.625 -307.32 338.625 -308 338.625 C-308 337.965 -308 337.305 -308 336.625 C-308.66 336.625 -309.32 336.625 -310 336.625 C-310.2475 336.00625 -310.495 335.3875 -310.75 334.75 C-312.20628639 332.27431313 -313.37812506 331.67374998 -316 330.625 Z M-336.2746582 349.51147461 C-336.91575027 350.1431102 -337.55684235 350.77474579 -338.21736145 351.42552185 C-338.90488998 352.11912308 -339.59241852 352.8127243 -340.30078125 353.52734375 C-341.37177315 354.59403038 -341.37177315 354.59403038 -342.46440125 355.68226624 C-343.97857894 357.19439871 -345.48895975 358.71034116 -346.99584961 360.22973633 C-349.28248581 362.53227705 -351.58445698 364.81858286 -353.88867188 367.10351562 C-355.36033653 368.57716539 -356.83106886 370.05174693 -358.30078125 371.52734375 C-358.98223709 372.2027269 -359.66369293 372.87811005 -360.36579895 373.57395935 C-368.25817995 381.58106532 -373.8527525 389.35291451 -374.375 400.875 C-374.17109361 409.61898591 -371.30234466 417.51665856 -365.15625 423.83203125 C-357.30725343 430.35864253 -349.69146115 432.55262352 -339.54296875 432.06640625 C-323.23088653 430.03414022 -312.36480335 415.12684386 -301.375 404.0625 C-300.07185054 402.7543222 -298.7684667 401.44637783 -297.46484375 400.13867188 C-294.30719208 396.97012786 -291.1527125 393.79845823 -288 390.625 C-289.3089572 387.50302522 -289.3089572 387.50302522 -292 385.625 C-294 384.625 -294 384.625 -294.91871643 382.78594971 C-296.10687325 380.41141336 -297.43405638 378.93084827 -299.30053711 377.04980469 C-299.97140854 376.36940125 -300.64227997 375.6889978 -301.33348083 374.98797607 C-302.0574556 374.26491272 -302.78143036 373.54184937 -303.52734375 372.796875 C-304.27206436 372.04786926 -305.01678497 371.29886353 -305.78407288 370.52716064 C-307.35764576 368.9478507 -308.93383823 367.37114712 -310.51245117 365.796875 C-312.93362338 363.37887155 -315.34115414 360.94783275 -317.74804688 358.515625 C-319.27783494 356.98356488 -320.80840742 355.45228753 -322.33984375 353.921875 C-323.06179428 353.19071472 -323.78374481 352.45955444 -324.52757263 351.70623779 C-325.20159622 351.03844299 -325.87561981 350.37064819 -326.57006836 349.68261719 C-327.45703651 348.7947049 -327.45703651 348.7947049 -328.36192322 347.88885498 C-331.75121389 345.2738543 -333.66797389 346.91587093 -336.2746582 349.51147461 Z " fill="#141414" transform="translate(423,30.375)"/>
<path d="M0 0 C1.80418396 1.20214748 1.80418396 1.20214748 3.54077148 2.80381775 C4.57788773 3.758 4.57788773 3.758 5.63595581 4.73145866 C10.58968558 9.48506725 15.48092998 14.29658826 20.34765625 19.13891602 C21.57705732 20.35876043 22.80662536 21.57843657 24.03634644 22.79795837 C28.0489375 26.77938524 32.05617978 30.76617064 36.0625 34.75390625 C37.08909666 35.77555693 37.08909666 35.77555693 38.13643265 36.81784701 C44.60313886 43.25379236 51.06780264 49.69178275 57.52763367 56.13462925 C65.7545202 64.33962063 73.99129265 72.53439909 82.2419405 80.71549851 C88.06336379 86.48952803 93.87310744 92.27514942 99.67450237 98.06930107 C103.13025414 101.5201221 106.5907737 104.96580508 110.06399536 108.39904976 C113.33429161 111.63219144 116.58973553 114.87960798 119.83490372 118.13796425 C121.01958919 119.32259626 122.20930884 120.50222168 123.40472031 121.67602921 C134.45570248 132.53808015 144.13105065 144.61458736 144.32983398 160.86303711 C144.22294907 175.96692943 140.91176304 187.99946593 130.1875 199.375 C119.95633257 208.8041065 106.92249127 213.87822439 92.9375 213.3203125 C70.90847152 210.91821099 58.448332 196.61297642 43.6875 181.75 C42.42666959 180.4841386 41.16560322 179.21851218 39.90429688 177.953125 C37.59449029 175.63523293 35.28603835 173.31601098 32.97924805 170.99511719 C30.32453564 168.32501439 27.66349333 165.66134939 25 163 C23.49083598 161.49093485 21.98172821 159.98181345 20.47265625 158.47265625 C19.60825928 157.60825928 18.7438623 156.7438623 17.85327148 155.85327148 C-44 94 -44 94 -46.33105469 91.65576172 C-48.87363096 89.12574483 -51.45284756 86.6411663 -54.046875 84.1640625 C-55.46362895 82.78868801 -56.88033793 81.41326373 -58.29443359 80.03515625 C-59.26673105 79.09319212 -60.2443212 78.1566613 -61.22705078 77.22558594 C-62.66019777 75.86555382 -64.07257648 74.48374287 -65.484375 73.1015625 C-66.32709961 72.29025879 -67.16982422 71.47895508 -68.03808594 70.64306641 C-70.47293703 67.36286507 -70.87399646 65.0527212 -71 61 C-69.23358828 58.19810554 -67.96950178 56.48475089 -65 55 C-61.73585972 54.47773755 -59.20092964 54.20024472 -56.34660339 56.10107422 C-50.12338884 61.73313375 -44.25421708 67.70552788 -38.38042641 73.69723511 C-35.11925778 77.01979541 -31.84227736 80.32672932 -28.56835938 83.63671875 C-24.41913167 87.83397566 -20.27470803 92.03571093 -16.14526367 96.25244141 C-12.79031537 99.67748159 -9.42103844 103.08782059 -6.04161644 106.4887085 C-4.75915394 107.78477572 -3.48212828 109.08624604 -2.21068764 110.39312744 C-0.43957717 112.21230443 1.34918995 114.01214784 3.14331055 115.80859375 C3.66445938 116.35288528 4.18560822 116.89717682 4.72254944 117.45796204 C7.01900535 119.72264879 8.30665082 120.98633805 11.6058197 121.05134583 C14.37009066 119.83748372 16.01868614 118.49534474 18.16357422 116.36987305 C18.94723358 115.60205002 19.73089294 114.83422699 20.53829956 114.0431366 C21.78391159 112.79008476 21.78391159 112.79008476 23.0546875 111.51171875 C24.34610153 110.22960258 24.34610153 110.22960258 25.66360474 108.92158508 C27.47898831 107.11330195 29.28924798 105.2998623 31.09472656 103.48168945 C33.86970038 100.69282614 36.66784755 97.92880889 39.46875 95.16601562 C41.22801471 93.4077018 42.9858766 91.64798303 44.7421875 89.88671875 C45.58474091 89.05742355 46.42729431 88.22812836 47.29537964 87.373703 C48.06012604 86.59642349 48.82487244 85.81914398 49.61279297 85.01831055 C50.29276337 84.33737839 50.97273376 83.65644623 51.67330933 82.95487976 C53.23985375 81.09256371 53.23985375 81.09256371 52.79812622 78.83772278 C51.83069928 76.61017721 50.79970613 75.71726476 48.875 74.25 C46.21198314 72.11655434 43.95989132 69.91557381 41.76171875 67.30859375 C38.00368685 62.94955675 34.01738793 58.86909647 29.9375 54.8125 C29.25623047 54.12736328 28.57496094 53.44222656 27.87304688 52.73632812 C24.90570676 49.77468895 21.94245756 46.88535461 18.6953125 44.23046875 C16.48439275 42.40085255 14.7380198 40.70676521 12.9375 38.5 C9.60503802 34.59477112 6.06163087 30.94431671 2.4375 27.3125 C1.89536865 26.7659375 1.3532373 26.219375 0.79467773 25.65625 C-1.84010993 23.03064556 -4.49818805 20.55703056 -7.40234375 18.23046875 C-8.25957031 17.49441406 -9.11679687 16.75835937 -10 16 C-10 15.34 -10 14.68 -10 14 C-10.66 14 -11.32 14 -12 14 C-13.1978022 6.81318681 -13.1978022 6.81318681 -12.4375 3.6875 C-8.87989216 -0.48882224 -5.11255343 -1.51923873 0 0 Z M63.8125 94.875 C61.78368446 96.78811334 61.78368446 96.78811334 62 99 C61.14390137 99.36931641 61.14390137 99.36931641 60.27050781 99.74609375 C57.6215719 101.20898997 55.81451454 102.92645319 53.671875 105.0625 C52.87265625 105.85914063 52.0734375 106.65578125 51.25 107.4765625 C50.425 108.30929687 49.6 109.14203125 48.75 110 C47.90953125 110.83273437 47.0690625 111.66546875 46.203125 112.5234375 C45.01203125 113.71839844 45.01203125 113.71839844 43.796875 114.9375 C43.06823242 115.66839844 42.33958984 116.39929688 41.58886719 117.15234375 C39.78266279 118.84659142 39.78266279 118.84659142 40 121 C39.34 121 38.68 121 38 121 C38 121.66 38 122.32 38 123 C37.34 123 36.68 123 36 123 C36 123.66 36 124.32 36 125 C35.34 125 34.68 125 34 125 C34 125.66 34 126.32 34 127 C32.68 127.66 31.36 128.32 30 129 C30 129.66 30 130.32 30 131 C29.34 131 28.68 131 28 131 C28 131.66 28 132.32 28 133 C27.34 133 26.68 133 26 133 C25.67 134.32 25.34 135.64 25 137 C26.82771311 137.75984466 26.82771311 137.75984466 29 138 C30.78525718 136.89475257 30.78525718 136.89475257 32.25 135.1875 C32.77078125 134.64480469 33.2915625 134.10210937 33.828125 133.54296875 C35.20160922 132.05747044 35.20160922 132.05747044 35 130 C35.66 130 36.32 130 37 130 C37 129.34 37 128.68 37 128 C37.61875 127.7525 38.2375 127.505 38.875 127.25 C41.35068687 125.79371361 41.95125002 124.62187494 43 122 C43.66 122 44.32 122 45 122 C45 121.34 45 120.68 45 120 C45.639375 119.731875 46.27875 119.46375 46.9375 119.1875 C49.33131686 118.11332248 49.33131686 118.11332248 50 115 C50.99 114.67 51.98 114.34 53 114 C53 113.34 53 112.68 53 112 C53.66 112 54.32 112 55 112 C55 111.34 55 110.68 55 110 C56.32 109.34 57.64 108.68 59 108 C59 107.34 59 106.68 59 106 C59.66 106 60.32 106 61 106 C61 105.34 61 104.68 61 104 C61.66 104 62.32 104 63 104 C63 103.34 63 102.68 63 102 C63.66 102 64.32 102 65 102 C65 101.34 65 100.68 65 100 C65.66 100 66.32 100 67 100 C67 99.34 67 98.68 67 98 C68.32 97.34 69.64 96.68 71 96 C70.34 95.67 69.68 95.34 69 95 C69 94.34 69 93.68 69 93 C65.89944369 92.67460431 65.89944369 92.67460431 63.8125 94.875 Z M80.04475403 110.59448242 C79.30529037 111.34060791 78.56582672 112.0867334 77.80395508 112.85546875 C76.96331009 113.69634033 76.1226651 114.53721191 75.25654602 115.40356445 C74.35333115 116.32226318 73.45011627 117.24096191 72.51953125 118.1875 C71.59154221 119.11973389 70.66355316 120.05196777 69.70744324 121.01245117 C67.23974477 123.49160706 64.78118706 125.97963969 62.32440186 128.46960449 C59.81610967 131.00857822 57.29930928 133.53908637 54.78320312 136.0703125 C49.8470904 141.03860514 44.92057906 146.01632376 40 151 C41.34099691 153.97576164 42.82552656 156.08460589 45.11352539 158.40405273 C46.06075218 159.37041908 46.06075218 159.37041908 47.02711487 160.35630798 C47.71039352 161.04181229 48.39367218 161.72731659 49.09765625 162.43359375 C49.80595078 163.14854507 50.5142453 163.8634964 51.2440033 164.60011292 C52.7452234 166.11145293 54.249166 167.62009284 55.75561523 169.1262207 C58.04025252 171.41521014 60.30843889 173.71966886 62.57617188 176.02539062 C64.04068182 177.49577324 65.50614719 178.96520498 66.97265625 180.43359375 C67.64176529 181.11707382 68.31087433 181.80055389 69.0002594 182.50474548 C76.57548574 190.00865004 83.90147971 194.08661653 94.625 194.3125 C104.17851724 194.21339712 111.23525083 191.62335854 118.2421875 185.0703125 C125.05543393 177.04582227 126.6998541 168.21786987 126 158 C124.77140163 151.70222408 122.07385334 146.90951556 118 142 C117.34 142 116.68 142 116 142 C115.72860703 141.40427185 115.45721405 140.8085437 115.17759705 140.19476318 C114.01902447 138.03545713 112.87429458 136.61539421 111.15844727 134.88378906 C110.5876796 134.30348938 110.01691193 133.7231897 109.42884827 133.12530518 C108.8142424 132.51161072 108.19963654 131.89791626 107.56640625 131.265625 C106.93266586 130.62759949 106.29892548 129.98957397 105.64598083 129.33221436 C104.30779859 127.98829918 102.96700125 126.64698355 101.6237793 125.30810547 C99.56472839 123.25222496 97.51937858 121.18335518 95.47460938 119.11328125 C94.17268591 117.80908584 92.86997801 116.50567291 91.56640625 115.203125 C90.6475338 114.27043793 90.6475338 114.27043793 89.71009827 113.31890869 C85.35606646 108.59041187 85.35606646 108.59041187 80.04475403 110.59448242 Z " fill="#151515" transform="translate(337,268)"/>
<path d="M0 0 C16.60302505 12.81158798 29.04851532 31.96262635 32 53 C33.26650638 67.21965962 32.49011864 81.55626478 26.30078125 94.62890625 C24.88512597 98.29770656 24.84990141 99.35406371 26 103 C27.49997542 105.06708205 27.49997542 105.06708205 29.49414062 106.93237305 C30.60033752 108.03327522 30.60033752 108.03327522 31.72888184 109.15641785 C32.52991333 109.93366714 33.33094482 110.71091644 34.15625 111.51171875 C35.38245056 112.72587212 35.38245056 112.72587212 36.63342285 113.96455383 C39.24634546 116.54846995 41.87253214 119.11838296 44.5 121.6875 C47.12483015 124.26987036 49.74685211 126.85503232 52.36657715 129.44258118 C53.99787943 131.0521286 55.63264605 132.65817359 57.27111816 134.26042175 C58.00858276 134.98490005 58.74604736 135.70937836 59.50585938 136.45581055 C60.15792358 137.09358932 60.80998779 137.7313681 61.48181152 138.38847351 C63.44983309 140.47748877 63.96024385 141.79128022 64.5 144.625 C63.27659354 152.8829936 53.05359887 160.16090988 47.375 165.875 C46.12589844 167.15503906 46.12589844 167.15503906 44.8515625 168.4609375 C43.63726562 169.68296875 43.63726562 169.68296875 42.3984375 170.9296875 C41.67317871 171.66429199 40.94791992 172.39889648 40.20068359 173.15576172 C36.99000904 175.84640245 34.31458117 177 30.125 177 C25.36349333 175.47631787 21.27104366 172.44897056 18.93359375 167.9453125 C18.62550781 167.30335938 18.31742188 166.66140625 18 166 C16.38025441 164.28769752 14.7041054 162.62836738 13 161 C11.83066057 159.83601224 10.66412768 158.66920014 9.5 157.5 C8.90445313 156.90574219 8.30890625 156.31148437 7.6953125 155.69921875 C6.24576936 154.24633565 4.80904173 152.78068559 3.375 151.3125 C1.07068716 148.9792956 1.07068716 148.9792956 -1.4375 147.125 C-4.24785653 144.79446044 -6.17784748 142.26164423 -8.27734375 139.29296875 C-10.01071182 137.70366568 -10.01071182 137.70366568 -12.765625 138.1484375 C-17.39611131 139.3675752 -21.79538016 141.05248853 -26.26953125 142.74609375 C-33.669585 145.23344166 -40.51191969 146.3422244 -48.3125 146.25 C-49.14064209 146.24395752 -49.96878418 146.23791504 -50.82202148 146.23168945 C-61.00525245 146.06800381 -70.34658271 144.20356769 -80 141 C-80 140.34 -80 139.68 -80 139 C-80.68835938 138.91621094 -81.37671875 138.83242187 -82.0859375 138.74609375 C-85.71115831 137.81792059 -88.5313824 136.091256 -91.625 134.0625 C-92.23529053 133.66498535 -92.84558105 133.2674707 -93.47436523 132.85791016 C-101.99484086 127.16130649 -109.33192915 120.59352678 -115 112 C-115.66 111.67 -116.32 111.34 -117 111 C-118.38115419 108.45592593 -119.65252096 105.93197692 -120.875 103.3125 C-121.23215088 102.55098633 -121.58930176 101.78947266 -121.95727539 101.00488281 C-131.50977836 80.07350281 -133.41223797 59.31762647 -125.828125 37.65234375 C-124.6566958 34.70475404 -123.37942766 31.85565725 -122 29 C-121.55914062 28.06671875 -121.11828125 27.1334375 -120.6640625 26.171875 C-117.1010254 19.12454195 -112.51183709 13.61728093 -107 8 C-106.20722656 7.17113281 -105.41445312 6.34226562 -104.59765625 5.48828125 C-75.38925551 -22.49029209 -31.96088649 -22.39466253 0 0 Z M-98.87109375 26.28515625 C-100.39481401 28.46585719 -101.71415909 30.67158539 -103 33 C-103.78310547 34.33611328 -103.78310547 34.33611328 -104.58203125 35.69921875 C-112.77268591 50.62574026 -113.68242001 66.59951344 -109.64257812 82.85205078 C-106.7233266 92.61024793 -101.41657491 102.01039208 -94 109 C-93.32324219 109.67289062 -92.64648438 110.34578125 -91.94921875 111.0390625 C-80.1001508 122.2777877 -64.15320458 128.44302335 -47.78125 128.21875 C-29.0573353 126.74608255 -14.25616161 120.26974444 -1.1328125 106.60546875 C10.39909083 92.51796047 14.85739045 75.98376474 14 58 C13.57262418 54.58584997 12.88257513 51.32362155 12 48 C11.81695312 47.26394531 11.63390625 46.52789062 11.4453125 45.76953125 C8.29270625 34.77433045 0.87145657 26.02746742 -7 18 C-7.54011719 17.43539062 -8.08023438 16.87078125 -8.63671875 16.2890625 C-19.76492462 5.69344079 -35.93227267 1.45075083 -50.91088867 1.58007812 C-70.06516266 2.29586846 -86.87162632 11.63027432 -98.87109375 26.28515625 Z M10.93359375 117.96875 C10.10988281 118.8040625 9.28617188 119.639375 8.4375 120.5 C7.61121094 121.3353125 6.78492188 122.170625 5.93359375 123.03125 C4.97646484 124.00578125 4.97646484 124.00578125 4 125 C5.62156024 129.10108886 8.5767703 131.83148167 11.6640625 134.859375 C12.21613373 135.40861633 12.76820496 135.95785767 13.33700562 136.52374268 C15.09501815 138.27059293 16.8598689 140.01034601 18.625 141.75 C19.8207708 142.93573591 21.01608865 144.1219288 22.2109375 145.30859375 C25.13540253 148.21105085 28.06601874 151.1071641 31 154 C33.96695379 152.57046772 36.27796966 151.06179607 38.75 148.875 C39.36359375 148.33617187 39.9771875 147.79734375 40.609375 147.2421875 C41.06828125 146.83226562 41.5271875 146.42234375 42 146 C41.505 144.515 41.505 144.515 41 143 C40.34 143 39.68 143 39 143 C38.75378906 142.42926758 38.50757813 141.85853516 38.25390625 141.27050781 C36.79101003 138.6215719 35.07354681 136.81451454 32.9375 134.671875 C32.14085937 133.87265625 31.34421875 133.0734375 30.5234375 132.25 C29.69070312 131.425 28.85796875 130.6 28 129.75 C27.16726562 128.90953125 26.33453125 128.0690625 25.4765625 127.203125 C24.67992187 126.4090625 23.88328125 125.615 23.0625 124.796875 C22.33160156 124.06823242 21.60070312 123.33958984 20.84765625 122.58886719 C19.15340858 120.78266279 19.15340858 120.78266279 17 121 C17 120.34 17 119.68 17 119 C16.34 119 15.68 119 15 119 C14.67 118.01 14.34 117.02 14 116 C12.64498098 115.88503469 12.64498098 115.88503469 10.93359375 117.96875 Z " fill="#141414" transform="translate(161,47)"/>
<path d="M0 0 C12.55821276 9.95325841 20.77696707 22.04121917 23.5234375 38 C25.23742992 54.52483716 21.94084945 69.50556433 11.41796875 82.625 C0.13072169 95.68012913 -14.07080898 103.43703438 -31.4765625 105 C-44.4422704 104.68247246 -56.9822073 100.66815261 -67.4765625 93 C-68.32347656 92.39027344 -69.17039062 91.78054687 -70.04296875 91.15234375 C-75.15539482 87.29011794 -78.78739954 83.86342982 -81.4765625 78 C-82.04246094 76.93265625 -82.60835937 75.8653125 -83.19140625 74.765625 C-90.72472507 60.54658271 -93.01042844 46.274578 -88.7890625 30.5 C-83.67981516 14.95937266 -73.08047411 3.01091168 -58.6640625 -4.75 C-39.49319653 -13.6591601 -17.41392978 -12.13222736 0 0 Z M-65.71484375 24.5625 C-71.93693566 33.1713367 -73.63883686 43.60281318 -72.015625 53.93359375 C-69.80375643 64.14722214 -64.71174582 72.47369859 -56.4765625 79 C-46.09532914 85.50120428 -35.48374589 87.43025505 -23.5390625 84.875 C-15.45060513 82.70990787 -8.9262256 78.32864102 -3.4765625 72 C-3.4765625 71.34 -3.4765625 70.68 -3.4765625 70 C-2.8165625 70 -2.1565625 70 -1.4765625 70 C4.51443353 58.84119823 7.76307251 48.6195858 4.3984375 35.9375 C0.43797805 24.42114095 -6.22707873 17.26440222 -16.6640625 11.125 C-35.61057926 3.5463933 -52.77528474 9.51295396 -65.71484375 24.5625 Z " fill="#181818" transform="translate(145.4765625,65)"/>
<path d="M0 0 C0.99 0.495 0.99 0.495 2 1 C0.79296875 2.9765625 0.79296875 2.9765625 -1 5 C-3.43041998 5.44032476 -5.67120212 5.37525993 -8.13671875 5.3359375 C-15.84857769 7.1244996 -22.00015347 14.71884683 -27.38949585 20.15571594 C-28.19529638 20.96051319 -29.00109691 21.76531043 -29.83131564 22.59449548 C-32.51520025 25.27743169 -35.19188939 27.96743063 -37.86865234 30.6574707 C-39.79659791 32.58874244 -41.72606764 34.5184888 -43.65548706 36.44828796 C-47.80124249 40.59639856 -51.94338528 44.748088 -56.08311081 48.90221596 C-62.07004232 54.90987795 -68.06301186 60.91148755 -74.05754097 66.91156747 C-83.78671105 76.64997963 -93.5117729 86.39248312 -103.23388672 96.13793945 C-103.81499858 96.72044463 -104.39611044 97.3029498 -104.99483176 97.90310665 C-105.57669616 98.48636659 -106.15856057 99.06962653 -106.75805724 99.67056102 C-115.02043083 107.95273155 -123.2837931 116.23391398 -131.54833984 124.51391602 C-132.13055838 125.0972254 -132.71277692 125.68053479 -133.31263845 126.28152023 C-143.00897669 135.99586057 -152.70733281 145.70818475 -162.40672648 155.4194743 C-168.3886666 161.4090135 -174.36851839 167.40062432 -180.34570141 173.39491089 C-184.43503481 177.49578469 -188.52604011 181.59498523 -192.6183819 185.69285689 C-194.98145037 188.05926638 -197.34337072 190.42679419 -199.70367432 192.79596329 C-202.25764741 195.35932174 -204.81463045 197.91963885 -207.37240601 200.47920227 C-208.12374923 201.23482258 -208.87509246 201.99044288 -209.64920366 202.76896077 C-210.3309977 203.44999716 -211.01279174 204.13103355 -211.7152462 204.83270741 C-212.30555166 205.42447673 -212.89585711 206.01624605 -213.50405061 206.62594777 C-215 208 -215 208 -217 209 C-218.13350534 211.01669827 -218.13350534 211.01669827 -219 213 C-219.66 213 -220.32 213 -221 213 C-219.56706542 208.58111793 -217.34633753 205.87195251 -214.1875 202.5 C-212.90939453 201.12328125 -212.90939453 201.12328125 -211.60546875 199.71875 C-209.10440437 197.10894369 -206.55937516 194.55252558 -204 192 C-203.20890083 191.20890083 -202.41780167 190.41780167 -201.6027298 189.6027298 C-89 77 -89 77 -86.37814903 74.37941074 C-84.58766409 72.58797587 -82.79949909 70.79447517 -81.0161438 68.99595642 C-80.21324921 68.18655861 -80.21324921 68.18655861 -79.39413452 67.36080933 C-78.82466095 66.78662262 -78.25518738 66.21243591 -77.66845703 65.62084961 C-71.4249679 59.32833669 -65.1738394 53.04347001 -58.91833687 46.76290035 C-55.14061355 42.96949757 -51.36575625 39.17332953 -47.59716797 35.37084961 C-43.94108171 31.68210707 -40.27766027 28.00079685 -36.60909653 24.3244648 C-35.2166668 22.92651049 -33.82687132 21.52592702 -32.43982315 20.12263298 C-30.49696831 18.15791523 -28.54483774 16.20287433 -26.59033203 14.24975586 C-26.02490692 13.67354492 -25.45948181 13.09733398 -24.87692261 12.50366211 C-19.72558373 7.39159847 -14.56007441 3.84426153 -7.1875 2.875 C-3.12055909 2.44620122 -3.12055909 2.44620122 0 0 Z " fill="#595959" transform="translate(258,196)"/>
<path d="M0 0 C0.33 0 0.66 0 1 0 C1.04628695 12.33463355 1.08185067 24.66924654 1.10362434 37.00394917 C1.11407322 42.73109817 1.12825256 48.45818787 1.15087891 54.18530273 C1.17256791 59.70956698 1.18456031 65.23377409 1.18975449 70.75807762 C1.19345734 72.86845995 1.20068782 74.97883907 1.21146011 77.08919716 C1.22592258 80.03910775 1.22798014 82.98878052 1.22705078 85.9387207 C1.23783661 87.2550222 1.23783661 87.2550222 1.24884033 88.59791565 C1.22810432 94.65784352 1.22810432 94.65784352 -1 98 C-1.78533417 82.36950181 -2.16042488 66.77615037 -2.13037109 51.1262207 C-2.12498542 47.80350218 -2.13037443 44.48091775 -2.13671875 41.15820312 C-2.14037105 30.74558747 -2.02284959 20.35234114 -1.5546875 9.94921875 C-1.51594513 9.05539993 -1.47720276 8.16158112 -1.43728638 7.24067688 C-1.12545787 1.12545787 -1.12545787 1.12545787 0 0 Z " fill="#838383" transform="translate(415,35)"/>
<path d="M0 0 C0 0.66 0 1.32 0 2 C-0.99 2.33 -1.98 2.66 -3 3 C-4.646476 4.62428096 -4.646476 4.62428096 -6.25 6.625 C-10.05787464 11.11861478 -14.06666765 15.43238181 -18.50390625 19.31640625 C-25.72155047 27.43861162 -26.57988077 38.42151891 -26.625 48.75 C-26.6355542 49.79043457 -26.6461084 50.83086914 -26.65698242 51.90283203 C-26.53884369 58.47176163 -25.35678392 63.69296719 -22.75537109 69.73144531 C-22 72 -22 72 -23 75 C-23.81756238 72.93950145 -24.62884734 70.87651147 -25.4375 68.8125 C-25.88996094 67.66394531 -26.34242187 66.51539063 -26.80859375 65.33203125 C-31.69746977 51.65920749 -29.46820226 36.57912594 -23.9375 23.484375 C-20.23217255 16.12518298 -9.11458202 0 0 0 Z " fill="#9E9E9E" transform="translate(84,63)"/>
<path d="M0 0 C1.27875 0.28875 2.5575 0.5775 3.875 0.875 C23.50631408 4.76789514 44.48551504 5.96130974 64 1 C63.67 1.66 63.34 2.32 63 3 C62.01 3 61.02 3 60 3 C60 3.66 60 4.32 60 5 C56.14168302 6.23992927 52.27144535 6.1794491 48.26171875 6.203125 C47.50389603 6.20882507 46.7460733 6.21452515 45.96528625 6.22039795 C44.35732408 6.22983588 42.74934267 6.23637714 41.14135742 6.24023438 C38.7338436 6.24981557 36.32723093 6.28079555 33.91992188 6.3125 C22.2630469 6.39247443 10.85709514 5.68410101 0 1 C0 0.67 0 0.34 0 0 Z " fill="#A2A2A2" transform="translate(366,167)"/>
<path d="M0 0 C3.23932555 1.1494381 6.0646984 2.61814361 9 4.375 C23.0892059 12.33846421 38.04642928 13.30530579 53.50366211 9.97949219 C56.83551053 9.28517251 58.70900759 8.90300253 62 10 C61.34 10 60.68 10 60 10 C60 10.66 60 11.32 60 12 C40.87024816 15.78539259 21.75035603 16.08544783 5 5 C3.28873033 3.37916328 1.60781672 1.72350833 0 0 Z " fill="#B3B3B3" transform="translate(73,162)"/>
<path d="M0 0 C-13.83759088 8.01300883 -40.79346631 5.57080155 -56 3 C-56.66 2.34 -57.32 1.68 -58 1 C-51.69427917 0.90130176 -45.4588316 0.93320723 -39.1706543 1.45947266 C-28.46603093 2.32565414 -18.06504337 1.35802405 -7.40917969 0.19946289 C-4.92823754 -0.00594142 -2.48824973 -0.03352764 0 0 Z " fill="#898989" transform="translate(432,186)"/>
<path d="M0 0 C6.49325573 0.89123118 6.49325573 0.89123118 9.44433594 1.5246582 C13.69504956 2.31527145 17.93743735 2.19045735 22.25 2.1875 C23.21695801 2.18814453 24.18391602 2.18878906 25.18017578 2.18945312 C33.89196269 2.12639693 42.39102446 1.27878682 51 0 C45.19636688 5.80363312 34.73390753 5.30093852 27 5.3125 C17.67126145 5.22901357 8.67353244 4.69284565 0 1 C0 0.67 0 0.34 0 0 Z " fill="#8D8D8D" transform="translate(86,188)"/>
<path d="M0 0 C1.80125336 2.70188004 3.00243753 4.93057703 4 8 C3.67 8.99 3.34 9.98 3 11 C2.67 11 2.34 11 2 11 C2.00523682 11.96824707 2.01047363 12.93649414 2.01586914 13.93408203 C2.034047 17.54588894 2.04547854 21.15769184 2.05493164 24.76953125 C2.05994272 26.32910849 2.06675337 27.88868108 2.07543945 29.44824219 C2.08764686 31.69727736 2.09326068 33.9462501 2.09765625 36.1953125 C2.10281754 36.8861795 2.10797882 37.57704651 2.11329651 38.28884888 C2.11375529 42.29915055 1.7735266 46.06545295 1 50 C0.67 50 0.34 50 0 50 C0 33.5 0 17 0 0 Z " fill="#B7B7B7" transform="translate(431,85)"/>
<path d="M0 0 C0.93423645 3.01031744 1.04449911 3.86650268 0 7 C-0.26008066 10.84958777 -0.23148803 14.70506806 -0.25 18.5625 C-0.270625 19.60986328 -0.29125 20.65722656 -0.3125 21.73632812 C-0.34695254 28.66559593 0.59432694 34.49688154 3 41 C3.66 41 4.32 41 5 41 C5.99 43.64 6.98 46.28 8 49 C7.34 49 6.68 49 6 49 C-1.56275504 35.17984216 -6.51076747 22.20060192 -2 6.5 C-1.34359102 4.33020366 -0.6803122 2.16242091 0 0 Z " fill="#999999" transform="translate(34,413)"/>
<path d="M0 0 C1.27474609 3.88372641 0.31838959 5.76893235 -1.23046875 9.49609375 C-2.76835994 14.50009502 -2.77001651 19.79761495 -3 25 C-3.66 25 -4.32 25 -5 25 C-4.89171875 26.12535156 -4.89171875 26.12535156 -4.78125 27.2734375 C-4.18281132 33.87288627 -3.86807783 40.37457568 -4 47 C-4.33 47 -4.66 47 -5 47 C-8.73021634 30.26268148 -6.10623329 15.7393427 0 0 Z " fill="#A2A2A2" transform="translate(37,80)"/>
<path d="M0 0 C7.13299655 3.12068599 11.93268344 9.58615465 16 16 C16.66 16.33 17.32 16.66 18 17 C18.91951948 18.97080811 19.76345621 20.97734587 20.5625 23 C21.83213365 26.77263921 21.83213365 26.77263921 24 30 C24.14115161 32.67058851 24.04247107 35.32432238 24 38 C22.59174611 35.34392621 21.61745936 32.82779031 20.8125 29.9375 C17.74138904 20.61721301 11.66068112 13.24306545 5.015625 6.19140625 C3.19143615 4.20813116 1.572801 2.18499885 0 0 Z " fill="#C2C2C2" transform="translate(150,61)"/>
<path d="M0 0 C0.66 0.33 1.32 0.66 2 1 C-13.00707547 17.91273585 -13.00707547 17.91273585 -19 21 C-14.92843458 12.09984443 -7.90048149 5.52302178 0 0 Z " fill="#717171" transform="translate(64,46)"/>
<path d="M0 0 C1.13199829 0.01256836 1.13199829 0.01256836 2.28686523 0.02539062 C7.96891027 0.14710092 13.38121151 0.8006958 18.875 2.3125 C18.545 3.3025 18.215 4.2925 17.875 5.3125 C17.30136719 5.168125 16.72773437 5.02375 16.13671875 4.875 C6.74813595 2.82347356 -2.57292633 3.13432661 -12.125 3.3125 C-8.50128186 -0.28275962 -4.81895801 -0.11374658 0 0 Z " fill="#727272" transform="translate(111.125,46.6875)"/>
<path d="M0 0 C0 0.66 0 1.32 0 2 C-0.99 2.33 -1.98 2.66 -3 3 C-4.646476 4.62428096 -4.646476 4.62428096 -6.25 6.625 C-9.64121152 10.63082341 -13.23933198 14.3422074 -17 18 C-17.78515625 16.3125 -17.78515625 16.3125 -18 14 C-14.30093335 9.20121084 -6.68755796 0 0 0 Z " fill="#6A6A6A" transform="translate(84,63)"/>
<path d="M0 0 C2.3125 2.0625 2.3125 2.0625 4 4 C3.01 4 2.02 4 1 4 C1 3.34 1 2.68 1 2 C-2.37335275 2.32436084 -5.3180705 2.70274868 -8.4375 4.0625 C-10.95753315 7.18734111 -10.25729613 10.07623402 -10 14 C-10.66 14 -11.32 14 -12 14 C-13.1978022 6.81318681 -13.1978022 6.81318681 -12.4375 3.6875 C-9.04703215 -0.29261443 -4.91084851 -1.93849283 0 0 Z " fill="#8D8D8D" transform="translate(337,268)"/>
<path d="M0 0 C2.72115583 4.08173375 2.34327532 7.26660241 2.3125 12.0625 C2.30903564 12.91851807 2.30557129 13.77453613 2.30200195 14.65649414 C2.16217034 22.78913171 1.17564711 29.51956791 -4 36 C-3.71410149 34.29069188 -3.42098242 32.58259088 -3.125 30.875 C-2.96257812 29.92367188 -2.80015625 28.97234375 -2.6328125 27.9921875 C-2 25 -2 25 -0.9375 22.25 C0.33822265 17.82749481 0.2145608 13.6994899 0.125 9.125 C0.11597656 8.24585938 0.10695313 7.36671875 0.09765625 6.4609375 C0.07424577 4.3071729 0.0383801 2.15354986 0 0 Z " fill="#B0B0B0" transform="translate(479,419)"/>
<path d="M0 0 C-0.66 0 -1.32 0 -2 0 C-2 0.66 -2 1.32 -2 2 C-12.41755521 4.06142435 -22.42308574 4.21367504 -33 4 C-33 3.67 -33 3.34 -33 3 C-32.37544922 2.9498877 -31.75089844 2.89977539 -31.10742188 2.84814453 C-28.23767462 2.61395531 -25.36888231 2.36954849 -22.5 2.125 C-21.51773438 2.04636719 -20.53546875 1.96773437 -19.5234375 1.88671875 C-15.05853432 1.49976047 -10.7998477 1.04713399 -6.46875 -0.1328125 C-3 -1 -3 -1 0 0 Z " fill="#9D9D9D" transform="translate(135,172)"/>
<path d="M0 0 C-1.58199631 0.64910154 -3.16565724 1.29414694 -4.75 1.9375 C-5.63171875 2.29714844 -6.5134375 2.65679687 -7.421875 3.02734375 C-12.43267044 4.91778021 -16.91961533 5.12371466 -22.25 5.0625 C-22.99507813 5.05798828 -23.74015625 5.05347656 -24.5078125 5.04882812 C-26.3385764 5.03709246 -28.16929873 5.0191585 -30 5 C-30 4.67 -30 4.34 -30 4 C-29.22398437 3.97421875 -28.44796875 3.9484375 -27.6484375 3.921875 C-19.86772574 3.51334121 -13.28293908 2.14837341 -5.8984375 -0.2578125 C-3 -1 -3 -1 0 0 Z " fill="#919191" transform="translate(417,157)"/>
<path d="M0 0 C0.33 0.99 0.66 1.98 1 3 C-3.6463321 7.97217876 -7.89180978 11.94590489 -14 15 C-14 13 -14 13 -12.125 10.875 C-10 9 -10 9 -8 9 C-8 8.34 -8 7.68 -8 7 C-7.34 7 -6.68 7 -6 7 C-6 6.34 -6 5.68 -6 5 C-5.34 5 -4.68 5 -4 5 C-4 4.34 -4 3.68 -4 3 C-3.34 3 -2.68 3 -2 3 C-2 2.34 -2 1.68 -2 1 C-1.34 0.67 -0.68 0.34 0 0 Z " fill="#7B7B7B" transform="translate(406,365)"/>
<path d="M0 0 C0.66 0.33 1.32 0.66 2 1 C0.8125 2.9609375 0.8125 2.9609375 -1 5 C-3.375 5.5390625 -3.375 5.5390625 -6 5.625 C-9.71079578 5.76857246 -10.79002587 5.86001725 -14 8 C-16.1875 7.625 -16.1875 7.625 -18 7 C-13.76982763 3.79090372 -9.54648029 3.25491263 -4.42578125 2.52734375 C-1.83191295 2.19241801 -1.83191295 2.19241801 0 0 Z " fill="#ADADAD" transform="translate(258,196)"/>
<path d="M0 0 C1.13598633 0.00483398 1.13598633 0.00483398 2.29492188 0.00976562 C3.47344727 0.02233398 3.47344727 0.02233398 4.67578125 0.03515625 C5.47306641 0.03966797 6.27035156 0.04417969 7.09179688 0.04882812 C9.05732382 0.06059775 11.0228121 0.07853277 12.98828125 0.09765625 C12.98828125 0.42765625 12.98828125 0.75765625 12.98828125 1.09765625 C11.42980469 1.26201172 11.42980469 1.26201172 9.83984375 1.4296875 C1.95039392 2.30986844 -5.49860275 3.3886 -13.01171875 6.09765625 C-11.69921875 4.59765625 -11.69921875 4.59765625 -10.01171875 3.09765625 C-9.02171875 3.09765625 -8.03171875 3.09765625 -7.01171875 3.09765625 C-7.01171875 2.43765625 -7.01171875 1.77765625 -7.01171875 1.09765625 C-4.30455633 0.19526878 -2.77395107 -0.02085677 0 0 Z " fill="#8F8F8F" transform="translate(105.01171875,71.90234375)"/>
<path d="M0 0 C0.93423645 3.01031744 1.04449911 3.86650268 0 7 C-0.32909171 13.07851754 -0.06466852 19.01123956 1 25 C-2.88925115 21.11074885 -2.18279253 16.16749923 -2.1875 10.9375 C-2.19974609 10.21755859 -2.21199219 9.49761719 -2.22460938 8.75585938 C-2.23519011 4.9573753 -2.15755655 3.23633482 0 0 Z " fill="#A8A8A8" transform="translate(50,419)"/>
<path d="M0 0 C0.33 0 0.66 0 1 0 C0.59200675 8.02386726 -1.91036813 14.62364642 -5 22 C-6.24752897 18.25741309 -5.5279335 17.53837233 -4 14 C-3.31060191 11.67328146 -2.64533078 9.33932406 -2 7 C-1.62635225 5.6871144 -1.25140016 4.37459915 -0.875 3.0625 C-0.441875 1.5465625 -0.441875 1.5465625 0 0 Z " fill="#A6A6A6" transform="translate(191,123)"/>
<path d="M0 0 C0.66 0 1.32 0 2 0 C2.34933594 0.85464844 2.69867188 1.70929688 3.05859375 2.58984375 C3.51363281 3.69457031 3.96867188 4.79929687 4.4375 5.9375 C4.88996094 7.03964844 5.34242188 8.14179687 5.80859375 9.27734375 C6.74424608 11.86568916 6.74424608 11.86568916 8 13 C8.14115161 15.67058851 8.04247107 18.32432238 8 21 C6.58262899 18.29908701 5.48724666 15.65485393 4.5625 12.75 C3.16410069 8.44778172 1.61356893 4.22601388 0 0 Z " fill="#949494" transform="translate(166,78)"/>
<path d="M0 0 C0.680625 -0.00515625 1.36125 -0.0103125 2.0625 -0.015625 C4 0.25 4 0.25 7 2.25 C6.67 2.91 6.34 3.57 6 4.25 C5.01 3.59 4.02 2.93 3 2.25 C1.0103005 1.85986284 -0.99019869 1.51797351 -3 1.25 C-3.33 2.24 -3.66 3.23 -4 4.25 C-4.99 4.25 -5.98 4.25 -7 4.25 C-7 3.59 -7 2.93 -7 2.25 C-4.00261059 0.25174039 -3.36652492 -0.02550398 0 0 Z " fill="#B7B7B7" transform="translate(423,30.75)"/>
<path d="M0 0 C5.45479185 0.56820748 9.91059256 1.94637945 15 4 C11.80153844 5.06615385 10.69739078 4.95342597 7.5 4.25 C6.7265625 4.09015625 5.953125 3.9303125 5.15625 3.765625 C2.76405127 2.9162211 1.63598319 1.90864706 0 0 Z " fill="#A8A8A8" transform="translate(129,33)"/>
<path d="M0 0 C1.4835001 0.42257276 2.96176424 0.86356322 4.4375 1.3125 C5.67306641 1.67794922 5.67306641 1.67794922 6.93359375 2.05078125 C7.61550781 2.36402344 8.29742187 2.67726562 9 3 C9.33 3.99 9.66 4.98 10 6 C6.38238619 5.67112602 4.44334967 5.37334709 1.625 3 C0 1 0 1 0 0 Z " fill="#A3A3A3" transform="translate(184,218)"/>
<path d="M0 0 C4.12989477 4.26311718 4.61271765 7.28758534 5 13 C2.94876752 10.94876752 2.35852882 9.72994937 1.375 7.0625 C0.98441406 6.02802734 0.98441406 6.02802734 0.5859375 4.97265625 C0 3 0 3 0 0 Z " fill="#A0A0A0" transform="translate(435,96)"/>
<path d="M0 0 C0.6875 1.6875 0.6875 1.6875 1 4 C-0.3125 6.75 -0.3125 6.75 -2 9 C-2.66 9 -3.32 9 -4 9 C-2.94124926 5.59687262 -1.99097846 2.98646769 0 0 Z " fill="#929292" transform="translate(44,67)"/>
<path d="" fill="#FFFFFF" transform="translate(0,0)"/>
<path d="" fill="#FFFFFF" transform="translate(0,0)"/>
</svg>
