<?xml version="1.0" encoding="UTF-8"?>
<svg version="1.1" xmlns="http://www.w3.org/2000/svg" width="512" height="512">
<path d="M0 0 C32.56037849 7.77957761 64.83501957 9.97305795 97.69140625 2.2421875 C111.77284095 -1.05267134 125.16828131 -3.68698101 139.6875 -3.625 C140.92048828 -3.62330811 142.15347656 -3.62161621 143.42382812 -3.61987305 C165.90116929 -3.11361285 187.55946871 5.54769737 204 21 C206.34549674 24.51824511 206.57991403 25.85775694 206 30 C203.9375 32.875 203.9375 32.875 201 35 C195.07906558 35.74454864 191.80383122 34.09305856 187.25 30.5625 C182.92580403 27.25681428 182.92580403 27.25681428 178 25 C178 24.34 178 23.68 178 23 C177.47792969 22.82984375 176.95585937 22.6596875 176.41796875 22.484375 C172.10956613 21.06584664 167.85944834 19.56425929 163.625 17.9375 C145.71628312 11.47252752 125.95654868 12.85143544 108.08862305 19.00219727 C105.10068084 19.9674743 102.28300439 20.55601907 99.18359375 21.03515625 C98.08853516 21.20466797 96.99347656 21.37417969 95.86523438 21.54882812 C94.73408203 21.71833984 93.60292969 21.88785156 92.4375 22.0625 C91.33341797 22.23587891 90.22933594 22.40925781 89.09179688 22.58789062 C56.63817145 27.53266368 23.56291983 25.16822638 -8.10205078 16.71362305 C-29.76659369 10.98675282 -51.33165823 14.14494344 -71 24.59375 C-89.4818353 35.72485535 -101.95057154 53.34441454 -107.875 73.9375 C-112.62201133 93.74098284 -108.28169113 111.9884976 -102.6875 131.0625 C-102.1598368 132.88264921 -101.63274862 134.7029652 -101.10620117 136.5234375 C-99.70847506 141.34540808 -98.2991845 146.16391323 -96.88562012 150.98126221 C-95.98245047 154.05981959 -95.08138428 157.13898687 -94.18066406 160.21826172 C-92.39667935 166.31376812 -90.60647959 172.40742822 -88.8125 178.5 C-88.5269223 179.47059357 -88.2413446 180.44118713 -87.94711304 181.44119263 C-87.14018581 184.1802213 -86.33042626 186.91839372 -85.51953125 189.65625 C-85.27840607 190.47508163 -85.03728088 191.29391327 -84.78884888 192.13755798 C-83.62485367 196.15600575 -83.62485367 196.15600575 -82 200 C-81.18425003 200.00364563 -80.36850006 200.00729126 -79.5280304 200.01104736 C-71.83277767 200.04894561 -64.1380081 200.10581847 -56.4430666 200.18390274 C-52.48717423 200.22337856 -48.53150449 200.25556627 -44.57543945 200.27099609 C-40.75613097 200.2861624 -36.9374345 200.32060631 -33.11839867 200.36830902 C-31.66284702 200.38312331 -30.20720798 200.39104105 -28.75158119 200.39188385 C-26.70913405 200.39425536 -24.66837582 200.42134398 -22.6262207 200.45410156 C-21.46484085 200.46298401 -20.303461 200.47186646 -19.10688782 200.48101807 C-15.32196576 201.11326045 -13.64330194 202.24841035 -11 205 C-10.15422886 210.32835821 -10.15422886 210.32835821 -11 213 C-13.02998307 215.72575061 -14.6432115 217.71308146 -18.07470703 218.43873596 C-20.6224397 218.57856792 -23.12524051 218.56199713 -25.67578125 218.48828125 C-27.06351997 218.47766914 -27.06351997 218.47766914 -28.47929382 218.46684265 C-31.42453003 218.43892815 -34.36784173 218.37619557 -37.3125 218.3125 C-39.31312352 218.2874133 -41.31377694 218.26460078 -43.31445312 218.24414062 C-48.21037316 218.18911108 -53.10486068 218.10285901 -58 218 C-57.7834375 219.08539063 -57.566875 220.17078125 -57.34375 221.2890625 C-57.06220674 222.7343179 -56.78097314 224.17963365 -56.5 225.625 C-56.35691406 226.33785156 -56.21382813 227.05070313 -56.06640625 227.78515625 C-55.93105469 228.48769531 -55.79570312 229.19023437 -55.65625 229.9140625 C-55.46772461 230.8723999 -55.46772461 230.8723999 -55.27539062 231.85009766 C-54.93002804 234.54625274 -55 237.28181539 -55 240 C16.94 240 88.88 240 163 240 C163.33 235.38 163.66 230.76 164 226 C164.58534264 223.31431023 165.21015621 220.63281263 166 218 C165.12762192 218.16200394 164.25524384 218.32400787 163.35643005 218.49092102 C157.37188042 219.33746703 151.32806534 219.14738227 145.29711914 219.14526367 C143.91006887 219.14825934 142.52301943 219.1516628 141.13597107 219.15544128 C137.38389749 219.16424252 133.63184675 219.16661772 129.87976384 219.16725707 C127.53234767 219.1679696 125.18493725 219.17010773 122.83752251 219.17275429 C114.63915516 219.18199381 106.44080402 219.18609079 98.24243164 219.18530273 C90.61424325 219.18470183 82.98612554 219.19525975 75.35795504 219.2110464 C68.79553174 219.22414097 62.2331315 219.22948585 55.67069525 219.22884732 C51.75700639 219.22859297 47.84338045 219.23140994 43.92970467 219.24202538 C40.24836795 219.25173908 36.56715391 219.25176323 32.88581276 219.24450874 C30.90023832 219.2429725 28.9146638 219.25128611 26.92910767 219.25994873 C12.31301313 219.20867542 12.31301313 219.20867542 6 215 C4.60714286 208.35714286 4.60714286 208.35714286 5.6875 204.625 C7.35366321 202.56213127 8.51009969 201.96105885 11 201 C14.28770065 200.73828697 14.28770065 200.73828697 18.27655029 200.7215271 C19.01092386 200.7157347 19.74529744 200.7099423 20.50192475 200.70397437 C22.9632417 200.68696596 25.42437122 200.68409717 27.88574219 200.68115234 C29.64986125 200.67185474 31.41397591 200.66168632 33.17808533 200.65071106 C37.96900863 200.62337804 42.75990247 200.60825186 47.55088329 200.59528303 C52.55708895 200.57966695 57.56323432 200.55287188 62.56939697 200.5272522 C72.05009556 200.48043744 81.53080546 200.44370637 91.01156068 200.41057932 C101.80471385 200.372377 112.59780652 200.32296189 123.39090872 200.27259517 C145.59389449 200.16923519 167.79691854 200.079988 190 200 C192.37374 193.79809192 192.37374 193.79809192 194.35498047 187.46435547 C194.57920685 186.66595245 194.80343323 185.86754944 195.03445435 185.04495239 C195.26800629 184.20253998 195.50155823 183.36012756 195.7421875 182.4921875 C197.93381288 174.70681305 200.18626611 166.94295564 202.5078125 159.1953125 C202.8041156 158.20513123 203.1004187 157.21494995 203.40570068 156.19476318 C204.61730724 152.14878522 205.83100116 148.10343811 207.04638672 144.05859375 C214.34455405 122.39146849 214.34455405 122.39146849 218 100 C218.06316406 98.9171875 218.12632812 97.834375 218.19140625 96.71875 C218.63791702 83.00654836 215.51382862 71.01151669 209.98828125 58.5234375 C208.59190869 54.9579961 208.29351362 52.76792736 209 49 C211.61117604 45.69251035 213.62603815 44.18319491 217.8125 43.625 C222.12781554 44.13268418 223.19536887 45.74258359 226 49 C233.27121406 62.73831738 236.31745131 78.2076831 236.4375 93.625 C236.44765137 94.51767578 236.45780273 95.41035156 236.46826172 96.33007812 C236.28770385 110.43902254 232.35744705 124.05209802 228.32421875 137.4609375 C227.87144215 138.98660413 227.41929287 140.51245705 226.96772766 142.03848267 C226.02707408 145.2113796 225.08125805 148.38266988 224.13110352 151.55273438 C222.93016841 155.55980984 221.7389089 159.56967756 220.55089951 163.58060169 C217.74074503 173.06606063 214.89150076 182.53902241 212 192 C211.6755188 193.06423187 211.3510376 194.12846375 211.01672363 195.22494507 C210.22350695 197.8024577 209.41284822 200.37327777 208.58984375 202.94140625 C208.27390511 203.96728348 208.27390511 203.96728348 207.95158386 205.0138855 C206.14130129 210.50255285 203.15795347 214.33749366 198 217 C194.8856237 218.05507442 192.02365066 218.10557435 188.75 218.0625 C187.85796875 218.05347656 186.9659375 218.04445312 186.046875 218.03515625 C185.03367187 218.01775391 185.03367187 218.01775391 184 218 C183.80277344 219.91619141 183.80277344 219.91619141 183.6015625 221.87109375 C180.77116815 247.07343785 180.77116815 247.07343785 173.87890625 253.7578125 C169.00608137 256.97934745 164.35269795 257.32737373 158.63671875 257.4140625 C157.44874443 257.44311172 157.44874443 257.44311172 156.23677063 257.4727478 C153.72045481 257.53227232 151.20409256 257.57881958 148.6875 257.625 C146.9758921 257.66320481 145.26430291 257.70225799 143.55273438 257.7421875 C139.36864251 257.8379513 135.18446069 257.9220818 131 258 C131 260.31 131 262.62 131 265 C132.03125 265.515625 133.0625 266.03125 134.125 266.5625 C139.13088903 269.42590914 142.4503399 273.39375347 145.375 278.3125 C147.23111501 286.29379456 146.1917784 292.81476001 141.88671875 299.80859375 C137.55407592 305.7515994 131.76227557 307.52049896 125 310 C124.01 317.92 123.02 325.84 122 334 C123.98 334.33 125.96 334.66 128 335 C133.14977912 338.44139945 138.28579313 342.94313574 140 349 C140.78308934 356.66022013 140.84608471 363.68918229 136 370 C133.375 372.375 133.375 372.375 131 374 C130.34 374.66 129.68 375.32 129 376 C126.72265625 376.8515625 126.72265625 376.8515625 124.0625 377.625 C123.18722656 377.88539063 122.31195313 378.14578125 121.41015625 378.4140625 C119 379 119 379 116 379 C115.93941406 380.05058594 115.87882813 381.10117187 115.81640625 382.18359375 C115.38453527 389.48282152 114.90736046 396.74111635 114 404 C115.2684375 404.3403125 115.2684375 404.3403125 116.5625 404.6875 C123.76987509 407.43940685 127.7113767 411.04329686 131 418 C133.09943855 423.42354958 132.56041521 429.24354267 130.5 434.5625 C127.6018052 440.42982443 123.40992022 444.59914096 117.328125 447.09765625 C111.20523256 449 111.20523256 449 108 449 C107.94884033 449.81484863 107.89768066 450.62969727 107.8449707 451.46923828 C107.25988672 460.24734768 106.45442721 468.97819505 105.43530273 477.71582031 C105.26895223 479.16528222 105.10920789 480.61551633 104.95581055 482.06640625 C103.83309269 492.66998443 102.79150768 501.78093561 94 509 C91.24659548 509.49109019 89.11241083 509.6768256 86.36743164 509.63110352 C85.61556076 509.63825882 84.86368988 509.64541412 84.08903503 509.65278625 C81.61211742 509.66964742 79.13701674 509.65028602 76.66015625 509.62890625 C74.93289541 509.62973528 73.20563466 509.63219597 71.4783783 509.63621521 C67.86107592 509.63907154 64.24439328 509.62439019 60.62719727 509.59692383 C55.99895882 509.5628665 51.37183017 509.56885211 46.74353886 509.5875864 C43.17718826 509.59817509 39.61109415 509.58920126 36.04476738 509.57420158 C34.33879801 509.56903128 32.63280173 509.56948757 30.92683601 509.57574654 C28.53796314 509.58122053 26.15065704 509.56075529 23.76196289 509.53344727 C23.06203217 509.53997314 22.36210144 509.54649902 21.64096069 509.55322266 C16.66027407 509.45680701 13.84840452 508.09806566 10 505 C6.32233047 500.53607009 5.13747661 496.55455951 4.25 491 C4.12496094 490.31421875 3.99992188 489.6284375 3.87109375 488.921875 C3.17408655 484.90833906 2.87282911 481.06946835 3 477 C2.34 477.33 1.68 477.66 1 478 C-6.69341764 477.87788226 -12.75865665 475.5556472 -19 471 C-20.2109375 469.09765625 -20.2109375 469.09765625 -21 467 C-21.29261719 466.24203125 -21.58523437 465.4840625 -21.88671875 464.703125 C-24.28513467 457.35578258 -24.51573393 452.13083712 -21.4375 444.875 C-18.98249582 440.38887725 -15.57989182 437.25759189 -11 435 C-8.03 434.34 -5.06 433.68 -2 433 C-2.99 426.07 -3.98 419.14 -5 412 C-8.3 412 -11.6 412 -15 412 C-20.92722404 410.20039063 -25.59445476 407.25021558 -29 402 C-29.66 401.34 -30.32 400.68 -31 400 C-33.14218692 393.75310652 -33.15996839 385.65166079 -30.4375 379.625 C-25.8367443 371.89829531 -19.2292713 368.93097334 -11 366 C-11.33 359.4 -11.66 352.8 -12 346 C-13.32 346.33 -14.64 346.66 -16 347 C-22.75700047 345.33626726 -30.39962306 342.76224749 -34.46875 336.875 C-37.7849236 330.97958027 -39.27198002 325.71438632 -38 319 C-35.90661431 312.50858383 -32.77596181 308.12747042 -27.2578125 304.15625 C-24.28116212 302.63187541 -21.22788918 301.84002899 -18 301 C-18.12117188 300.02804687 -18.24234375 299.05609375 -18.3671875 298.0546875 C-19.53633183 288.488426 -20.50092449 278.91839997 -21.30224609 269.31396484 C-21.37910645 268.42016113 -21.4559668 267.52635742 -21.53515625 266.60546875 C-21.63389038 265.41667114 -21.63389038 265.41667114 -21.73461914 264.20385742 C-21.99194608 262.06688383 -22.42972795 260.07325965 -23 258 C-24.03406982 257.98018066 -25.06813965 257.96036133 -26.13354492 257.93994141 C-29.98225619 257.86367773 -33.8305996 257.77499286 -37.67895508 257.68261719 C-39.34229248 257.64441304 -41.00571008 257.60954537 -42.66918945 257.578125 C-45.0649068 257.53228766 -47.46007609 257.47432533 -49.85546875 257.4140625 C-50.5952446 257.40251129 -51.33502045 257.39096008 -52.09721375 257.37905884 C-58.82280579 257.18824612 -63.84501595 255.37052996 -69 251 C-72.24119893 244.3483201 -73.06767749 236.66623752 -74.1875 229.4375 C-74.36474609 228.33341797 -74.54199219 227.22933594 -74.72460938 226.09179688 C-75.15647951 223.39552656 -75.5814482 220.6983641 -76 218 C-76.60038086 218.01305176 -77.20076172 218.02610352 -77.81933594 218.03955078 C-78.61629883 218.04970215 -79.41326172 218.05985352 -80.234375 218.0703125 C-81.02038086 218.08336426 -81.80638672 218.09641602 -82.61621094 218.10986328 C-88.02629881 217.86052494 -91.81847466 216.10096679 -95.75 212.4375 C-101.29759886 204.80030557 -103.16183846 195.13575378 -105.5859375 186.17578125 C-107.13809224 180.45234942 -108.77914969 174.75595842 -110.4375 169.0625 C-110.7355957 168.03825928 -111.03369141 167.01401855 -111.34082031 165.95874023 C-113.15899943 159.75417938 -115.07274682 153.58884134 -117.0625 147.4375 C-119.35151341 140.32753467 -121.36062686 133.16375766 -123.25 125.9375 C-123.4962915 124.99769287 -123.74258301 124.05788574 -123.99633789 123.08959961 C-126.42886258 113.62586022 -128.37625326 104.68468575 -128.3125 94.875 C-128.30758545 93.96484131 -128.3026709 93.05468262 -128.29760742 92.11694336 C-127.85222402 66.06315635 -117.50827536 43.77485867 -100 25 C-99.34902344 24.27941406 -98.69804688 23.55882813 -98.02734375 22.81640625 C-73.64619713 -3.06334513 -33.07468113 -8.78762448 0 0 Z M-5 257 C-3.68 269.87 -2.36 282.74 -1 296 C8.2983233 294.31392448 8.2983233 294.31392448 17.41796875 292.14453125 C18.09409714 291.96605148 18.77022552 291.78757172 19.46684265 291.60368347 C21.70818751 291.01077868 23.94783044 290.41169921 26.1875 289.8125 C27.80021006 289.38445313 29.41300587 288.95672923 31.02587891 288.52929688 C36.6859233 287.02701191 42.34308838 285.51403245 48 284 C49.14611755 283.69334412 50.29223511 283.38668823 51.4730835 283.07073975 C62.7529371 280.05234165 74.03247479 277.0327715 85.30932617 274.00317383 C87.0773333 273.52851433 87.0773333 273.52851433 88.88105774 273.04426575 C91.09629225 272.44946159 93.31137994 271.85411028 95.52629089 271.25810242 C101.0057863 269.78722611 106.49093404 268.35607778 112 267 C112.33 263.7 112.66 260.4 113 257 C74.06 257 35.12 257 -5 257 Z M115.36328125 282.64453125 C114.40496651 282.90021126 114.40496651 282.90021126 113.42729187 283.16105652 C112.07597259 283.52272501 110.7253006 283.88681957 109.37524414 284.25317383 C107.33827681 284.80551046 105.29926685 285.34968221 103.25976562 285.89257812 C97.05610974 287.55473969 90.89053565 289.25580156 84.83325195 291.39941406 C82.13979302 292.28180972 79.39586071 292.82808308 76.625 293.41015625 C71.36520928 294.59204375 66.17483716 296.06034105 60.97167969 297.46777344 C57.81648505 298.31947283 54.65810391 299.15916311 51.5 300 C47.84322819 300.97463546 44.1866639 301.94997071 40.53125 302.9296875 C31.70829215 305.29158551 22.87302575 307.60361586 14.03125 309.89404297 C9.00110864 311.20080874 3.99246684 312.55450669 -1 314 C-2.43207079 314.39533222 -3.86437643 314.78981441 -5.296875 315.18359375 C-6.78135601 315.60118585 -8.26572997 316.01915862 -9.75 316.4375 C-10.88115234 316.74397461 -10.88115234 316.74397461 -12.03515625 317.05664062 C-17.16960009 318.51039831 -17.16960009 318.51039831 -21 322 C-20.75794651 325.31818985 -20.75794651 325.31818985 -19 328 C-11.2104007 328.55441268 -4.61182706 326.8407728 2.84765625 324.71875 C4.66456215 324.21933899 4.66456215 324.21933899 6.51817322 323.70983887 C10.36938112 322.65071443 14.21635078 321.57729712 18.0625 320.5 C21.91222515 319.42277947 25.76310631 318.35045413 29.61753845 317.29016113 C32.0098287 316.63207504 34.39960867 315.96477362 36.78639221 315.2869873 C42.70183455 313.65944722 47.85865314 312.49156409 54 313 C56.77577672 314.61174132 56.95299519 315.83005953 57.8125 318.9375 C58.01421348 322.23215352 58.0345567 323.43468938 56 326 C50.94088861 328.96365106 45.71552436 330.27868942 40.078125 331.6640625 C38.66632965 332.02037247 38.66632965 332.02037247 37.22601318 332.38388062 C34.23561196 333.13748556 31.24297535 333.8816907 28.25 334.625 C25.24317655 335.37706605 22.23686511 336.1310985 19.23114014 336.88754272 C17.36439782 337.3567854 15.49694211 337.82320083 13.62872314 338.28652954 C12.78734802 338.49699921 11.9459729 338.70746887 11.07910156 338.92431641 C10.33774963 339.108461 9.59639771 339.29260559 8.83258057 339.48233032 C6.9252318 339.95937242 6.9252318 339.95937242 5 341 C5.14203337 343.37528151 5.28851612 345.75015251 5.4375 348.125 C5.47681641 348.79015625 5.51613281 349.4553125 5.55664062 350.140625 C5.812152 354.15018817 6.26782413 358.04994196 7 362 C15.52235236 360.46111952 23.85748085 358.27260288 32.21875 356.04296875 C33.68585097 355.65400657 35.15301539 355.26528361 36.62023926 354.87678528 C39.68677372 354.06415582 42.75277516 353.24955638 45.81835938 352.43334961 C51.21419343 350.99675802 56.61187879 349.56717213 62.00959778 348.13768196 C65.70631011 347.15776806 69.40170292 346.17332063 73.09448242 345.17868042 C74.49916786 344.80053003 75.90387123 344.42244622 77.30859375 344.04443359 C77.97964645 343.86379301 78.65069916 343.68315243 79.34208679 343.49703789 C83.24871845 342.4511174 87.16433867 341.46215307 91.09765625 340.52197266 C91.9539563 340.30946365 92.81025635 340.09695465 93.69250488 339.87800598 C95.18378629 339.50994342 96.67998657 339.16091987 98.18151855 338.83720398 C100.30428176 338.36256256 100.30428176 338.36256256 103 337 C105.79517902 331.18436617 106.05868891 324.61291099 106.0234375 318.23828125 C106.01836182 317.04199097 106.01836182 317.04199097 106.01318359 315.8215332 C106.00883301 315.22042725 106.00448242 314.61932129 106 314 C105.14619751 314.22719727 105.14619751 314.22719727 104.27514648 314.45898438 C101.66485144 315.14820618 99.05129445 315.82417614 96.4375 316.5 C95.54224609 316.73847656 94.64699219 316.97695313 93.72460938 317.22265625 C88.73044918 318.50321015 84.19886966 319.48843949 79 319 C76 316.9375 76 316.9375 74 314 C73.6875 310.4375 73.6875 310.4375 75 307 C80.85304178 303.5369988 86.77912447 301.75562576 93.3359375 300.08984375 C95.30601696 299.56976516 97.27606824 299.0495798 99.24609375 298.52929688 C102.32642617 297.72724526 105.40771793 296.92905509 108.48974609 296.13354492 C111.48273974 295.35769767 114.47187345 294.56817158 117.4609375 293.77734375 C118.38796478 293.54289047 119.31499207 293.30843719 120.27011108 293.06687927 C121.12505157 292.83976761 121.97999207 292.61265594 122.86083984 292.37866211 C123.61392426 292.18421005 124.36700867 291.989758 125.14291382 291.78941345 C127.36647834 291.04474858 127.36647834 291.04474858 129 288 C128.6758631 284.67759676 128.39223697 283.39223697 126 281 C122.04086893 281 119.16914547 281.62392797 115.36328125 282.64453125 Z M103 354 C96.97341413 355.75446315 90.91220362 357.3658487 84.84375 358.96875 C83.25210022 359.39021301 83.25210022 359.39021301 81.6282959 359.82019043 C77.11200218 361.01606581 72.59528838 362.21035117 68.07861328 363.40478516 C64.771013 364.27972339 61.46362713 365.15546869 58.15625 366.03125 C57.14252319 366.29901245 56.12879639 366.5667749 55.08435059 366.84265137 C48.9222107 368.47446914 42.79053509 370.19020087 36.66845703 371.96679688 C32.22915237 373.21710549 27.76985634 374.37738883 23.3046875 375.53125 C21.43616008 376.0167815 19.56767165 376.50246306 17.69921875 376.98828125 C14.7788709 377.74679398 11.85828106 378.50432075 8.93701172 379.25927734 C6.10046 379.99281086 3.26500179 380.73045009 0.4296875 381.46875 C-0.44124542 381.69276489 -1.31217834 381.91677979 -2.20950317 382.14758301 C-8.26350076 383.63883413 -8.26350076 383.63883413 -14 386 C-15.16448881 388.90351124 -15.16448881 388.90351124 -15 392 C-13.82859011 393.78899252 -13.82859011 393.78899252 -12 395 C-6.25664565 395.43694455 -0.18667872 393.42457585 5.29296875 391.84765625 C6.06399429 391.63230225 6.83501984 391.41694824 7.62940979 391.19506836 C9.28603238 390.7317923 10.94181162 390.26549159 12.59680176 389.79641724 C17.07988778 388.52640668 21.56958763 387.28014155 26.05859375 386.03125 C26.97738312 385.77505386 27.89617249 385.51885773 28.84280396 385.25489807 C37.02687124 382.97835017 45.23553456 380.80348043 53.45553589 378.66088867 C67.69838438 374.94640077 81.93062903 371.18993912 96.14367676 367.36300659 C98.11799855 366.83288708 100.09317133 366.30592597 102.06921387 365.78225708 C104.82193966 365.05212085 107.57138353 364.31069038 110.3203125 363.56640625 C111.14139496 363.3511731 111.96247742 363.13593994 112.80844116 362.91418457 C118.39287768 361.40419056 118.39287768 361.40419056 123 358 C123.50014953 355.45741537 123.50014953 355.45741537 123 353 C121.12061828 350.70172688 121.12061828 350.70172688 118.0625 350.6875 C112.85272186 350.82889273 107.9559805 352.51592892 103 354 Z M88.375 386.25 C82.57105777 387.98896507 76.75988265 389.62041242 70.875 391.0625 C70.21886719 391.22331055 69.56273437 391.38412109 68.88671875 391.54980469 C68.23316406 391.7099707 67.57960938 391.87013672 66.90625 392.03515625 C58.23901453 394.16095977 49.63310021 396.51520538 41.0625 399 C35.21513894 400.69160559 29.33738776 402.19795819 23.41625977 403.60546875 C19.80517694 404.47965841 16.40974316 405.52091755 13 407 C13.14120016 409.58366245 13.28778333 412.16682885 13.4375 414.75 C13.47681641 415.47960937 13.51613281 416.20921875 13.55664062 416.9609375 C13.76147098 420.4272973 14.0852002 423.65333026 15 427 C23.05946221 426.40045464 30.57045075 424.42125309 38.34375 422.2890625 C39.72166446 421.9160269 41.09971899 421.54350836 42.47790527 421.17147827 C45.35342221 420.39379244 48.22770366 419.6117503 51.10107422 418.82617188 C54.7605312 417.82577185 58.42212706 416.83349887 62.0845871 415.84415627 C64.92670235 415.07596291 67.76802423 414.30487027 70.60908508 413.53278732 C71.95796442 413.16629014 73.30699061 412.80033297 74.65617371 412.4349556 C81.8474972 410.48448787 88.96033779 408.4448041 96 406 C96.06058594 405.16855469 96.12117188 404.33710938 96.18359375 403.48046875 C96.30927734 401.85044922 96.30927734 401.85044922 96.4375 400.1875 C96.55931641 398.56908203 96.55931641 398.56908203 96.68359375 396.91796875 C97 394 97 394 98 391 C98.03954234 388.66700175 98.04401732 386.33291811 98 384 C94.6619038 384 91.54740252 385.28389415 88.375 386.25 Z M94.7734375 423.7890625 C93.65648499 424.0843132 92.53953247 424.3795639 91.38873291 424.6837616 C87.71549045 425.65682132 84.04522226 426.64061521 80.375 427.625 C77.83135096 428.30217815 75.28756677 428.97884881 72.74365234 429.6550293 C67.47682677 431.05612771 62.21158049 432.46303473 56.94726562 433.87353516 C50.4628699 435.6108079 43.9752041 437.33542783 37.48629761 439.05578613 C32.67671531 440.3318823 27.86856592 441.61330762 23.06085205 442.89642334 C20.77412284 443.5061176 18.48697309 444.11423681 16.19940186 444.72076416 C13.01946389 445.5648868 9.84153609 446.41618631 6.6640625 447.26953125 C5.25244843 447.64201241 5.25244843 447.64201241 3.81231689 448.02201843 C2.9533783 448.25427628 2.0944397 448.48653412 1.20947266 448.72583008 C0.46428375 448.92485428 -0.28090515 449.12387848 -1.04867554 449.32893372 C-3.28210541 450.00465651 -3.28210541 450.00465651 -6 452 C-6.41666667 455 -6.41666667 455 -6 458 C-4.09690048 460.33781119 -4.09690048 460.33781119 -0.84242249 460.23754883 C3.11012326 459.99319189 6.68679442 459.25993335 10.47875977 458.19921875 C11.19237167 458.00724411 11.90598358 457.81526947 12.64122009 457.61747742 C14.99361827 456.98244005 17.34241485 456.33501456 19.69140625 455.6875 C21.35809831 455.23505206 23.02500867 454.78340756 24.69212341 454.33251953 C29.09349221 453.13991186 33.49194767 451.93689229 37.88983154 450.73150635 C42.25113932 449.53782132 46.61485638 448.35302341 50.97851562 447.16796875 C56.09766224 445.77751167 61.2164864 444.38594362 66.33340454 442.98730469 C74.25138851 440.82428013 82.17309771 438.6797359 90.11279297 436.59765625 C90.82069316 436.41146729 91.52859335 436.22527832 92.25794506 436.03344727 C95.54611036 435.16882862 98.83538422 434.30967474 102.12757874 433.46044922 C103.26231125 433.16283691 104.39704376 432.86522461 105.56616211 432.55859375 C106.54991318 432.30392334 107.53366425 432.04925293 108.54722595 431.78686523 C111.21498865 431.05457613 111.21498865 431.05457613 114 429 C114.41666667 426 114.41666667 426 114 423 C112.18008578 420.77002239 112.18008578 420.77002239 109.57666016 420.70068359 C104.47007278 421.1280335 99.71144766 422.45603637 94.7734375 423.7890625 Z M81.62255859 455.65234375 C80.96877731 455.82790802 80.31499603 456.00347229 79.6414032 456.18435669 C77.47643478 456.7663649 75.31244218 457.35191955 73.1484375 457.9375 C71.64919815 458.34128263 70.14989927 458.74484431 68.65054321 459.14819336 C64.70110237 460.21129041 60.75247931 461.2773947 56.80401611 462.34411621 C52.77608141 463.43174056 48.74738462 464.51653415 44.71875 465.6015625 C36.81174914 467.73159703 28.90560954 469.86480745 21 472 C19.97838159 476.46129133 20.20869136 480.25890668 20.875 484.75 C20.96652344 485.43449219 21.05804688 486.11898437 21.15234375 486.82421875 C21.39150523 490.2027786 21.39150523 490.2027786 23 493 C24.93306498 493.09396057 26.86958838 493.11743517 28.80493164 493.11352539 C30.66674828 493.11341209 30.66674828 493.11341209 32.56617737 493.11329651 C33.9308374 493.10818911 35.29549702 493.1029731 36.66015625 493.09765625 C38.04878183 493.095792 39.43740807 493.09436813 40.82603455 493.09336853 C44.48721115 493.08954387 48.1483483 493.07971403 51.80950928 493.06866455 C55.54292263 493.05844932 59.27634234 493.05387067 63.00976562 493.04882812 C70.33986177 493.03809171 77.66992536 493.02101591 85 493 C86.34021458 488.59056269 87.32979126 484.43398475 87.8515625 479.83984375 C87.98046875 478.71642578 88.109375 477.59300781 88.2421875 476.43554688 C88.36851562 475.28119141 88.49484375 474.12683594 88.625 472.9375 C88.7590625 471.77927734 88.893125 470.62105469 89.03125 469.42773438 C89.6142659 464.24900636 90.07283283 459.21725838 90 454 C87.05530423 454 84.46516418 454.88579842 81.62255859 455.65234375 Z " fill="#131313" transform="translate(202,3)"/>
<path d="M0 0 C28.5716912 6.65560026 58.88186506 6.46367949 87.33569336 -0.69799805 C93.57179322 -2.21881788 99.894027 -3.32467203 106.3125 -2.375 C109.0625 0.25 109.0625 0.25 110.3125 3.625 C110.3125 7.0997112 109.77511389 8.92102234 107.875 11.8125 C104.03578931 14.52803927 99.83373621 15.48744538 95.3125 16.625 C94.39658081 16.86355713 94.39658081 16.86355713 93.4621582 17.10693359 C84.88047038 19.17511549 76.03462261 20.31740659 67.3125 21.625 C66.37905762 21.76679687 65.44561523 21.90859375 64.48388672 22.0546875 C43.47220778 25.06128657 21.71734788 22.78974304 0.90112305 19.07421875 C-1.78835497 18.60749805 -4.48221804 18.23737387 -7.1875 17.875 C-13.60384091 16.73223563 -19.03406888 13.76250628 -24.6875 10.625 C-25.29300459 2.75344037 -25.29300459 2.75344037 -23.3125 -0.9375 C-16.32924935 -4.76166107 -7.27740738 -1.81506654 0 0 Z " fill="#1A1A1A" transform="translate(213.6875,45.375)"/>
<path d="M0 0 C39.6 0 79.2 0 120 0 C120 3.63 120 7.26 120 11 C119 12 119 12 116.4375 12.0625 C115.633125 12.041875 114.82875 12.02125 114 12 C115.32 11.67 116.64 11.34 118 11 C118.33 7.7 118.66 4.4 119 1 C117.90121017 1.07359238 116.80242035 1.14718475 115.67033386 1.2230072 C102.591604 2.03845645 89.5866696 2.05099606 76.48828125 1.87890625 C74.2958381 1.85453063 72.10338894 1.83069119 69.91093445 1.80735779 C64.20813 1.74525551 58.50543549 1.6759897 52.80273438 1.60510254 C46.95643008 1.53374131 41.11004934 1.46933357 35.26367188 1.40429688 C23.84236386 1.27624024 12.42116007 1.14059663 1 1 C1.13703339 1.81064407 1.27406677 2.62128815 1.41525269 3.45649719 C1.59516754 4.52699814 1.7750824 5.59749908 1.96044922 6.70043945 C2.1387326 7.75858353 2.31701599 8.8167276 2.5007019 9.90693665 C3.15980921 13.9899898 3.67443089 18.07698018 4.125 22.1875 C4.21136719 22.91646484 4.29773438 23.64542969 4.38671875 24.39648438 C4.96914442 29.62444808 5.07283974 34.73992987 5 40 C5.55461914 39.84329834 6.10923828 39.68659668 6.68066406 39.52514648 C9.20106861 38.8191486 11.72536308 38.12820255 14.25 37.4375 C15.55904297 37.0672168 15.55904297 37.0672168 16.89453125 36.68945312 C17.73886719 36.46064453 18.58320313 36.23183594 19.453125 35.99609375 C20.22817383 35.78138428 21.00322266 35.5666748 21.80175781 35.34545898 C24.19024018 34.9701033 25.720964 35.25318442 28 36 C26.94039062 36.34933594 25.88078125 36.69867188 24.7890625 37.05859375 C23.40101541 37.51814988 22.01299601 37.97778964 20.625 38.4375 C19.92632812 38.66759766 19.22765625 38.89769531 18.5078125 39.13476562 C14.68189163 40.38735399 14.68189163 40.38735399 11 42 C8.6670134 42.04022391 6.33293334 42.04320247 4 42 C3.42322557 37.46595471 2.85386203 32.93105905 2.29101562 28.39526367 C2.0989844 26.85595297 1.90501487 25.31688268 1.70898438 23.77807617 C1.42574375 21.55189158 1.149746 19.3249033 0.875 17.09765625 C0.78750488 16.4222731 0.70000977 15.74688995 0.60986328 15.05104065 C-0.01213253 9.92485495 0 5.26019947 0 0 Z " fill="#7D7D7D" transform="translate(196,259)"/>
<path d="M0 0 C1.125 3.75 1.125 3.75 0 6 C-1.37962905 6.00496522 -1.37962905 6.00496522 -2.7871294 6.01003075 C-25.1450306 6.09117674 -47.50286344 6.18324143 -69.86066914 6.28752708 C-80.67264192 6.33769384 -91.48460696 6.38413624 -102.29663086 6.421875 C-111.71807401 6.45476939 -121.13945782 6.49458637 -130.56083554 6.54279006 C-135.55146773 6.56808049 -140.54206043 6.58985421 -145.53273964 6.60334396 C-150.22683582 6.61614128 -154.92079672 6.63817034 -159.61481857 6.66738319 C-161.34059248 6.67647725 -163.06638819 6.68215344 -164.79218483 6.68421364 C-167.14284625 6.68752332 -169.49312111 6.70296518 -171.84370422 6.7215271 C-173.1609464 6.72705786 -174.47818857 6.73258862 -175.83534718 6.73828697 C-179.15852428 6.75595571 -179.15852428 6.75595571 -182 9 C-182.99 9 -183.98 9 -185 9 C-185 8.34 -185 7.68 -185 7 C-181.29176598 4.64195117 -178.05091516 4.73970973 -173.72344971 4.7215271 C-172.98907614 4.7157347 -172.25470256 4.7099423 -171.49807525 4.70397437 C-169.0367583 4.68696596 -166.57562878 4.68409717 -164.11425781 4.68115234 C-162.35013875 4.67185474 -160.58602409 4.66168632 -158.82191467 4.65071106 C-154.03099137 4.62337804 -149.24009753 4.60825186 -144.44911671 4.59528303 C-139.44291105 4.57966695 -134.43676568 4.55287188 -129.43060303 4.5272522 C-119.94990444 4.48043744 -110.46919454 4.44370637 -100.98843932 4.41057932 C-90.19528615 4.372377 -79.40219348 4.32296189 -68.60909128 4.27259517 C-46.40610551 4.16923519 -24.20308146 4.079988 -2 4 C-1.34 2.68 -0.68 1.36 0 0 Z " fill="#BDBDBD" transform="translate(394,199)"/>
<path d="M0 0 C2.64 0 5.28 0 8 0 C8.50484474 3.24926665 9.00302594 6.49952099 9.5 9.75 C9.64308594 10.67039062 9.78617188 11.59078125 9.93359375 12.5390625 C10.06894531 13.42851562 10.20429688 14.31796875 10.34375 15.234375 C10.46943359 16.05131836 10.59511719 16.86826172 10.72460938 17.70996094 C11 20 11 20 11 24 C9.73542969 24.14695312 9.73542969 24.14695312 8.4453125 24.296875 C7.34960938 24.44640625 6.25390625 24.5959375 5.125 24.75 C4.03445312 24.88921875 2.94390625 25.0284375 1.8203125 25.171875 C-1.09740539 25.69445716 -1.09740539 25.69445716 -2.2265625 27.90625 C-2.48179687 28.5971875 -2.73703125 29.288125 -3 30 C-5.5 32.75 -5.5 32.75 -8 35 C-8.66 35 -9.32 35 -10 35 C-10 41.6 -10 48.2 -10 55 C-9.34 55.33 -8.68 55.66 -8 56 C-8.99 56.495 -8.99 56.495 -10 57 C-13.37316783 53.62683217 -13.19864547 49.87608927 -13.3125 45.25 C-13.23188444 38.62340087 -11.89596601 34.3030912 -7.52734375 29.3203125 C-2.97451012 24.99350607 2.13588452 23.08858907 8 21 C7.505 11.1 7.505 11.1 7 1 C5.68 1.33 4.36 1.66 3 2 C2.01 1.34 1.02 0.68 0 0 Z " fill="#949494" transform="translate(183,348)"/>
<path d="M0 0 C2.50871275 2.50871275 2.96839057 4.54850182 4 7.9375 C4.33 8.99839844 4.66 10.05929688 5 11.15234375 C7.26206657 19.85599832 8.36327876 28.19581202 8.3125 37.1875 C8.30839111 38.67817993 8.30839111 38.67817993 8.30419922 40.19897461 C8.15426038 50.88513283 6.54219956 60.88162995 3 71 C2.67 71 2.34 71 2 71 C1.73775506 66.89149601 1.87414408 64.06100712 3.49609375 60.2734375 C5.69582227 53.92293387 5.37663375 47.39043905 5.28125 40.7590332 C5.24972204 38.54296234 5.24023235 36.32760248 5.234375 34.11132812 C5.58579198 27.35117669 5.58579198 27.35117669 4 21 C3.47646864 18.02159047 3.03987567 15.0344531 2.59765625 12.04296875 C2.10243035 9.01399845 2.10243035 9.01399845 0.93359375 6.36328125 C0 4 0 4 0 0 Z " fill="#909090" transform="translate(430,59)"/>
<path d="M0 0 C2.97 0 5.94 0 9 0 C9 0.33 9 0.66 9 1 C6.36 1 3.72 1 1 1 C1.18175781 1.98613281 1.18175781 1.98613281 1.3671875 2.9921875 C2.49067461 9.3701374 3.38709556 15.75527674 4.125 22.1875 C4.21249512 22.92274902 4.29999023 23.65799805 4.39013672 24.41552734 C4.96876234 29.63712876 5.07274762 34.74658245 5 40 C5.55461914 39.84329834 6.10923828 39.68659668 6.68066406 39.52514648 C9.20106861 38.8191486 11.72536308 38.12820255 14.25 37.4375 C15.55904297 37.0672168 15.55904297 37.0672168 16.89453125 36.68945312 C17.73886719 36.46064453 18.58320313 36.23183594 19.453125 35.99609375 C20.22817383 35.78138428 21.00322266 35.5666748 21.80175781 35.34545898 C24.19024018 34.9701033 25.720964 35.25318442 28 36 C26.94039062 36.34933594 25.88078125 36.69867188 24.7890625 37.05859375 C23.40101541 37.51814988 22.01299601 37.97778964 20.625 38.4375 C19.92632812 38.66759766 19.22765625 38.89769531 18.5078125 39.13476562 C14.68189163 40.38735399 14.68189163 40.38735399 11 42 C8.6670134 42.04022391 6.33293334 42.04320247 4 42 C3.42322557 37.46595471 2.85386203 32.93105905 2.29101562 28.39526367 C2.0989844 26.85595297 1.90501487 25.31688268 1.70898438 23.77807617 C0.69859939 15.8367595 -0.29213304 8.02452934 0 0 Z " fill="#A1A1A1" transform="translate(196,259)"/>
<path d="M0 0 C0.87398437 -0.020625 1.74796875 -0.04125 2.6484375 -0.0625 C8.79637714 -0.09898629 13.80411935 0.9445245 19.5 3.25 C16.0953922 4.25135524 13.58662352 4.00682271 10.078125 3.51953125 C-5.0914725 1.93361878 -18.99290776 4.36873543 -32.98828125 10.359375 C-33.81714844 10.65328125 -34.64601562 10.9471875 -35.5 11.25 C-36.16 10.92 -36.82 10.59 -37.5 10.25 C-29.77055202 5.18983173 -22.68642946 3.16567822 -13.7109375 1.79296875 C-3.21629017 0.01832644 -3.21629017 0.01832644 0 0 Z " fill="#626262" transform="translate(171.5,13.75)"/>
<path d="M0 0 C8.25 0 16.5 0 25 0 C25 0.33 25 0.66 25 1 C6.23832287 3.25704387 -12.16988338 3.61979498 -31 2 C-31 1.67 -31 1.34 -31 1 C-27.70835283 0.97047239 -24.41674062 0.95302708 -21.125 0.9375 C-19.74828125 0.92493164 -19.74828125 0.92493164 -18.34375 0.91210938 C-12.1664353 0.89035827 -6.13278165 1.26069892 0 2 C0 1.34 0 0.68 0 0 Z " fill="#8F8F8F" transform="translate(263,25)"/>
<path d="M0 0 C0.64431976 -0.00029205 1.28863953 -0.00058411 1.95248413 -0.00088501 C4.0736049 0.00050384 6.19437059 0.01604362 8.31542969 0.03173828 C9.7894471 0.03547 11.26346701 0.03831622 12.73748779 0.04031372 C16.61074716 0.04793767 20.48385574 0.06757543 24.35705566 0.08972168 C28.31190959 0.11020685 32.26678796 0.11932114 36.22167969 0.12939453 C43.97695665 0.15082257 51.73210951 0.18494346 59.48730469 0.22705078 C59.48730469 0.55705078 59.48730469 0.88705078 59.48730469 1.22705078 C58.69216965 1.23513763 57.89703461 1.24322449 57.07780457 1.2515564 C49.58807572 1.32946469 42.09854275 1.41674372 34.6090498 1.51457787 C30.7585276 1.56454533 26.9080329 1.61087518 23.05737305 1.64892578 C19.3419683 1.68577314 15.62679332 1.7321313 11.91158485 1.78511429 C10.49344217 1.80366123 9.07525022 1.81876811 7.65703392 1.83039474 C5.67221835 1.84725128 3.68752931 1.87742153 1.70288086 1.90820312 C0.57258957 1.92152679 -0.55770172 1.93485046 -1.72224426 1.94857788 C-4.72176231 2.02746496 -4.72176231 2.02746496 -7.51269531 4.22705078 C-8.50269531 4.22705078 -9.49269531 4.22705078 -10.51269531 4.22705078 C-10.51269531 3.56705078 -10.51269531 2.90705078 -10.51269531 2.22705078 C-6.97257775 0.03623087 -4.11743659 -0.01571541 0 0 Z " fill="#BDBDBD" transform="translate(219.5126953125,203.77294921875)"/>
<path d="M0 0 C0.33 0 0.66 0 1 0 C0.93941406 0.92554687 0.87882812 1.85109375 0.81640625 2.8046875 C-0.02879452 16.19355205 -0.51916425 29.5938046 -1 43 C-1.33 43 -1.66 43 -2 43 C-4.16434563 28.39066698 -3.28254452 14.34159331 0 0 Z " fill="#8E8E8E" transform="translate(77,71)"/>
<path d="M0 0 C1.4540625 0.0309375 1.4540625 0.0309375 2.9375 0.0625 C1.9375 2.0625 1.9375 2.0625 0.203125 2.68359375 C-2.34394284 3.10956889 -4.73106169 3.15896629 -7.3125 3.125 C-8.20453125 3.11597656 -9.0965625 3.10695312 -10.015625 3.09765625 C-10.69109375 3.08605469 -11.3665625 3.07445312 -12.0625 3.0625 C-12.18753906 4.3309375 -12.31257813 5.599375 -12.44140625 6.90625 C-13.02956668 12.18212138 -13.96747558 17.3576557 -15 22.5625 C-15.16951172 23.46742188 -15.33902344 24.37234375 -15.51367188 25.3046875 C-15.68318359 26.16320312 -15.85269531 27.02171875 -16.02734375 27.90625 C-16.1780835 28.68162109 -16.32882324 29.45699219 -16.48413086 30.25585938 C-16.67499268 30.85205078 -16.86585449 31.44824219 -17.0625 32.0625 C-18.0525 32.5575 -18.0525 32.5575 -19.0625 33.0625 C-18.94737847 31.33264758 -18.81994323 29.60361249 -18.6875 27.875 C-18.61789062 26.91207031 -18.54828125 25.94914062 -18.4765625 24.95703125 C-18.05651956 22.02069333 -17.16428191 19.80229229 -16.0625 17.0625 C-15.65569164 14.84233672 -15.30348797 12.61162985 -15 10.375 C-14.16234399 4.26218799 -14.16234399 4.26218799 -13.0625 2.0625 C-11.03125 1.68359375 -11.03125 1.68359375 -8.5625 1.5 C-5.22241108 1.24103741 -3.19844683 0.06527443 0 0 Z " fill="#A0A0A0" transform="translate(398.0625,217.9375)"/>
<path d="M0 0 C1.25722396 3.35259722 0.75648054 6.13709779 0.26171875 9.61328125 C-0.73512712 18.70392049 0.18080434 27.93033371 1 37 C-3.01152815 30.98270778 -3.29826201 24.92716585 -3.1875 17.9375 C-3.18685547 17.16083984 -3.18621094 16.38417969 -3.18554688 15.58398438 C-3.1527911 11.28569837 -2.84627427 7.23137134 -2 3 C-1.34 3 -0.68 3 0 3 C0 2.01 0 1.02 0 0 Z " fill="#787878" transform="translate(92,78)"/>
<path d="M0 0 C-0.60328125 0.38671875 -1.2065625 0.7734375 -1.828125 1.171875 C-5.95289869 3.85963076 -9.57500361 6.43800375 -13 10 C-13.66 10 -14.32 10 -15 10 C-15 11.65 -15 13.3 -15 15 C-15.66 15 -16.32 15 -17 15 C-17 18.96 -17 22.92 -17 27 C-17.33 27 -17.66 27 -18 27 C-19.31203805 19.48560025 -18.9635677 13.86717324 -14.9296875 7.2421875 C-11.30260914 2.46213058 -6.15330097 -2.06007669 0 0 Z " fill="#8A8A8A" transform="translate(197,438)"/>
<path d="M0 0 C5.28 0 10.56 0 16 0 C16.22786458 3.54817708 16.45572917 7.09635417 16.68359375 10.64453125 C16.87184547 13.99181893 16.87184547 13.99181893 18 17 C18.03954234 19.33299825 18.04401732 21.66708189 18 24 C16.35 24 14.7 24 13 24 C13.99 23.67 14.98 23.34 16 23 C15.01 16.07 14.02 9.14 13 2 C9.7 2 6.4 2 3 2 C2.01 1.34 1.02 0.68 0 0 Z " fill="#898989" transform="translate(184,413)"/>
<path d="M0 0 C-1.43554025 0.50559908 -2.8735202 1.0042749 -4.3125 1.5 C-5.51326172 1.91765625 -5.51326172 1.91765625 -6.73828125 2.34375 C-9 3 -9 3 -12 3 C-12.06058594 4.05058594 -12.12117188 5.10117187 -12.18359375 6.18359375 C-12.61546473 13.48282152 -13.09263954 20.74111635 -14 28 C-13.34 28.33 -12.68 28.66 -12 29 C-13.32 29 -14.64 29 -16 29 C-16.5338079 19.66824711 -14.91281635 11.07449185 -13 2 C-12.01 2 -11.02 2 -10 2 C-10 1.34 -10 0.68 -10 0 C-3.375 -1.125 -3.375 -1.125 0 0 Z " fill="#989898" transform="translate(330,379)"/>
<path d="M0 0 C-0.77190674 0.20157715 -1.54381348 0.4031543 -2.33911133 0.61083984 C-5.83179573 1.52641066 -9.32214342 2.45059658 -12.8125 3.375 C-14.02744141 3.69210937 -15.24238281 4.00921875 -16.49414062 4.3359375 C-17.65751953 4.6453125 -18.82089844 4.9546875 -20.01953125 5.2734375 C-21.62985229 5.69761963 -21.62985229 5.69761963 -23.27270508 6.13037109 C-26.17555552 6.9179099 -26.17555552 6.9179099 -29 9 C-31.04296875 9.1953125 -31.04296875 9.1953125 -33.1875 9.125 C-35.0746875 9.063125 -35.0746875 9.063125 -37 9 C-37 9.66 -37 10.32 -37 11 C-39.64 11 -42.28 11 -45 11 C-41.13472521 8.78078592 -36.92363969 7.74519782 -32.65625 6.58203125 C-31.44708923 6.24977791 -31.44708923 6.24977791 -30.21350098 5.91081238 C-28.51291489 5.44548878 -26.81168535 4.98251125 -25.10986328 4.52172852 C-22.5065567 3.81428178 -19.90764857 3.09202886 -17.30859375 2.36914062 C-15.65389502 1.91835515 -13.99895474 1.46845518 -12.34375 1.01953125 C-11.56761353 0.80190628 -10.79147705 0.58428131 -9.99182129 0.36006165 C-6.2513183 -0.63644451 -3.69709965 -1.14960092 0 0 Z " fill="#B6B6B6" transform="translate(318,366)"/>
<path d="M0 0 C0.66 0.33 1.32 0.66 2 1 C-3.17703948 6.83444132 -8.40280876 12.56478535 -14 18 C-14.99 17.67 -15.98 17.34 -17 17 C-11.6749489 10.87372593 -6.27309565 5.16205691 0 0 Z " fill="#6D6D6D" transform="translate(113,18)"/>
<path d="M0 0 C4.29 0 8.58 0 13 0 C14.81655599 7.99284636 15.55217307 15.82126607 16 24 C15.34 23.67 14.68 23.34 14 23 C13.35253099 20.42497419 12.8280709 17.92228084 12.375 15.3125 C12.2409375 14.60416016 12.106875 13.89582031 11.96875 13.16601562 C11.22547017 9.05901536 10.85477504 5.1917203 11 1 C10.01 1.495 10.01 1.495 9 2 C7.45386986 1.91348369 5.91090613 1.75997364 4.375 1.5625 C3.14910156 1.40974609 3.14910156 1.40974609 1.8984375 1.25390625 C0.95871094 1.12822266 0.95871094 1.12822266 0 1 C0 0.67 0 0.34 0 0 Z " fill="#B1B1B1" transform="translate(194,479)"/>
<path d="M0 0 C0.33 0 0.66 0 1 0 C1 2.31 1 4.62 1 7 C-16.23404255 13 -16.23404255 13 -23 13 C-23 13.66 -23 14.32 -23 15 C-25.75078884 15.91692961 -27.35948913 16.10886083 -30.1875 16.0625 C-32.0746875 16.0315625 -32.0746875 16.0315625 -34 16 C-30.67957546 13.78638364 -27.99913925 13.06306596 -24.14453125 12.0546875 C-23.48289474 11.87994904 -22.82125824 11.70521057 -22.13957214 11.525177 C-20.03189518 10.96983167 -17.9222723 10.42232505 -15.8125 9.875 C-14.38072398 9.49921341 -12.94908161 9.12291719 -11.51757812 8.74609375 C-8.01324873 7.8248166 -4.5071321 6.91055717 -1 6 C-0.67 4.02 -0.34 2.04 0 0 Z " fill="#B5B5B5" transform="translate(298,403)"/>
<path d="M0 0 C5.08708176 -0.16049385 9.51270924 0.38054654 14.46484375 1.53125 C15.14301651 1.68662231 15.82118927 1.84199463 16.51991272 2.0020752 C18.66082609 2.49427257 20.79911692 2.99693616 22.9375 3.5 C24.39892725 3.83793784 25.86051462 4.17518406 27.32226562 4.51171875 C30.88339555 5.333163 34.44225435 6.16400441 38 7 C38 7.33 38 7.66 38 8 C31.10046028 7.62104801 24.35147421 6.82015277 17.5625 5.5625 C16.88896484 5.44028076 16.21542969 5.31806152 15.52148438 5.19213867 C11.8094279 4.4787452 8.47069465 3.48304506 5 2 C3.34080104 1.63128912 1.6752357 1.28718326 0 1 C0 0.67 0 0.34 0 0 Z " fill="#B0B0B0" transform="translate(187,1)"/>
<path d="M0 0 C0.33 0 0.66 0 1 0 C3.19385228 6.28725959 3.42769342 12.31539778 3.625 18.9375 C3.66367188 20.00291016 3.70234375 21.06832031 3.7421875 22.16601562 C3.83586146 24.77717734 3.92158335 27.38834304 4 30 C3.34 29.67 2.68 29.34 2 29 C1.5103525 26.3734341 1.1506479 23.83841778 0.875 21.1875 C0.79008301 20.42445557 0.70516602 19.66141113 0.61767578 18.87524414 C-0.03905008 12.57424357 -0.21966456 6.33366155 0 0 Z " fill="#888888" transform="translate(182,275)"/>
<path d="M0 0 C0.66 0.33 1.32 0.66 2 1 C3.83738291 6.51214873 4.04369286 13.60193023 2.328125 19.1875 C1.5 20.8125 1.5 20.8125 0 23 C-1 21 -1 21 -0.56640625 18.89453125 C0.1663013 15.15014301 0.10660919 11.48428369 0.0625 7.6875 C0.05798828 6.94693359 0.05347656 6.20636719 0.04882812 5.44335938 C0.03712175 3.62887101 0.01918898 1.81442466 0 0 Z " fill="#7E7E7E" transform="translate(339,348)"/>
<path d="M0 0 C1.79244141 0.01740234 1.79244141 0.01740234 3.62109375 0.03515625 C5.41740234 0.04869141 5.41740234 0.04869141 7.25 0.0625 C8.17683594 0.07410156 9.10367187 0.08570313 10.05859375 0.09765625 C10.05859375 0.42765625 10.05859375 0.75765625 10.05859375 1.09765625 C9.19693604 1.26370361 9.19693604 1.26370361 8.31787109 1.43310547 C5.68895773 1.94214954 3.06128663 2.45735069 0.43359375 2.97265625 C-0.47003906 3.14667969 -1.37367188 3.32070313 -2.3046875 3.5 C-6.98005563 4.42142292 -11.4565838 5.44378485 -15.94140625 7.09765625 C-16.60140625 6.43765625 -17.26140625 5.77765625 -17.94140625 5.09765625 C-14.79364948 2.99915174 -12.99069965 2.61199123 -9.31640625 2.03515625 C-5.889869 1.49104732 -3.26118584 0.1082731 0 0 Z " fill="#9A9A9A" transform="translate(322.94140625,15.90234375)"/>
<path d="M0 0 C0 0.66 0 1.32 0 2 C-0.83144531 2.20496094 -1.66289062 2.40992188 -2.51953125 2.62109375 C-3.60621094 2.89050781 -4.69289063 3.15992188 -5.8125 3.4375 C-7.43091797 3.83775391 -7.43091797 3.83775391 -9.08203125 4.24609375 C-11.0740843 4.76077412 -13.04811524 5.34937175 -15 6 C-16.39439664 6.06665376 -17.79169875 6.08538199 -19.1875 6.0625 C-21.0746875 6.0315625 -21.0746875 6.0315625 -23 6 C-19.50164396 3.66776264 -16.08595267 2.84754451 -12.0625 1.875 C-11.34642578 1.69324219 -10.63035156 1.51148438 -9.89257812 1.32421875 C-6.46464446 0.47914891 -3.55227969 0 0 0 Z " fill="#999999" transform="translate(264,419)"/>
<path d="M0 0 C-0.99 0 -1.98 0 -3 0 C-3 0.66 -3 1.32 -3 2 C-7.03244895 3.22726707 -11.06809926 4.29038606 -15.1875 5.1875 C-16.00605469 5.36667969 -16.82460938 5.54585938 -17.66796875 5.73046875 C-20.08673475 6.01002462 -21.70085366 5.74524054 -24 5 C-21.41710408 4.18608745 -18.83371003 3.37382071 -16.25 2.5625 C-15.52039063 2.33240234 -14.79078125 2.10230469 -14.0390625 1.86523438 C-13.33007812 1.64287109 -12.62109375 1.42050781 -11.890625 1.19140625 C-11.24125977 0.98717041 -10.59189453 0.78293457 -9.92285156 0.57250977 C-6.16106654 -0.54752399 -3.82672193 -1.23001776 0 0 Z " fill="#939393" transform="translate(304,302)"/>
<path d="M0 0 C0 0.33 0 0.66 0 1 C-0.93199219 1.15855469 -1.86398438 1.31710938 -2.82421875 1.48046875 C-10.85705327 2.95058306 -17.95542502 4.88497897 -25.48828125 8.109375 C-26.31714844 8.40328125 -27.14601562 8.6971875 -28 9 C-28.66 8.67 -29.32 8.34 -30 8 C-20.16401506 1.95001313 -11.50753847 -0.43424673 0 0 Z " fill="#A6A6A6" transform="translate(164,16)"/>
<path d="M0 0 C2.68826864 0.11490912 5.37513469 0.24163199 8.0625 0.375 C8.81466797 0.4059375 9.56683594 0.436875 10.34179688 0.46875 C15.18961281 0.72058459 19.38308043 1.49168365 24 3 C24 3.33 24 3.66 24 4 C16.0212191 4.30687619 7.08302095 4.01371187 0 0 Z " fill="#898989" transform="translate(208,62)"/>
<path d="M0 0 C24.23295455 -0.25568182 24.23295455 -0.25568182 31 2 C31 2.66 31 3.32 31 4 C29.9275 3.85691406 28.855 3.71382812 27.75 3.56640625 C22.18036546 2.87020193 16.59227149 2.40993845 11 1.9375 C9.40865234 1.80118164 9.40865234 1.80118164 7.78515625 1.66210938 C5.19021916 1.44002016 2.59516977 1.21935059 0 1 C0 0.67 0 0.34 0 0 Z " fill="#808080" transform="translate(333,15)"/>
<path d="M0 0 C2.35500948 0.11517421 4.70849073 0.24187978 7.0625 0.375 C8.37347656 0.44460937 9.68445313 0.51421875 11.03515625 0.5859375 C14.91076348 0.99068072 18.28793827 1.8467381 22 3 C23.99488234 3.36270588 25.9937811 3.70640699 28 4 C28 4.33 28 4.66 28 5 C18.30850793 4.57286737 9.42995201 3.27866621 0 1 C0 0.67 0 0.34 0 0 Z " fill="#979797" transform="translate(204,21)"/>
<path d="M0 0 C0.33 0 0.66 0 1 0 C1 1.98 1 3.96 1 6 C2.87945312 5.44119141 2.87945312 5.44119141 4.796875 4.87109375 C6.44776644 4.39271043 8.09881653 3.91487436 9.75 3.4375 C10.575 3.19064453 11.4 2.94378906 12.25 2.68945312 C13.04921875 2.46064453 13.8484375 2.23183594 14.671875 1.99609375 C15.4050293 1.78138428 16.13818359 1.5666748 16.89355469 1.34545898 C19.23869816 0.96085328 20.75825808 1.27121236 23 2 C19.82024682 4.11983545 18.03249531 4.49568894 14.3125 5.0625 C13.25160156 5.22621094 12.19070312 5.38992188 11.09765625 5.55859375 C7.40217389 6.08518834 3.7082093 6.5721297 0 7 C0 4.69 0 2.38 0 0 Z " fill="#B7B7B7" transform="translate(208,359)"/>
<path d="M0 0 C1.51400391 0.01740234 1.51400391 0.01740234 3.05859375 0.03515625 C4.07050781 0.04417969 5.08242188 0.05320312 6.125 0.0625 C7.29869141 0.07990234 7.29869141 0.07990234 8.49609375 0.09765625 C8.49609375 0.42765625 8.49609375 0.75765625 8.49609375 1.09765625 C7.10197266 1.38769531 7.10197266 1.38769531 5.6796875 1.68359375 C-2.04129948 3.25339245 -2.04129948 3.25339245 -9.62890625 5.34765625 C-12.46294904 6.08697176 -13.81668127 6.17254624 -16.50390625 5.09765625 C-13.49523928 3.09187827 -11.8591455 2.63887122 -8.37890625 2.03515625 C-5.30351671 1.49584881 -2.90918812 0.11346288 0 0 Z " fill="#A5A5A5" transform="translate(314.50390625,352.90234375)"/>
<path d="M0 0 C0 0.33 0 0.66 0 1 C-2.49840454 1.50938345 -4.99823388 2.00763114 -7.5 2.5 C-8.19609375 2.64308594 -8.8921875 2.78617187 -9.609375 2.93359375 C-14.49087203 3.88277373 -19.02718299 4.13440046 -24 4 C-24 3.67 -24 3.34 -24 3 C-15.8390222 0.56907044 -8.50922528 -0.40735653 0 0 Z " fill="#919191" transform="translate(305,62)"/>
<path d="M0 0 C-7.78713476 5.19142317 -13.74413709 5.37580195 -23 5 C-23 4.67 -23 4.34 -23 4 C-20.10555905 3.3267344 -17.20969987 2.66119596 -14.3125 2 C-13.49587891 1.80921875 -12.67925781 1.6184375 -11.83789062 1.421875 C-7.82760674 0.51266084 -4.14282748 -0.27000098 0 0 Z " fill="#AAAAAA" transform="translate(309,44)"/>
<path d="M0 0 C3.09803639 3.09803639 2.96440477 5.45717272 3.25 9.8125 C3.21753974 14.13782992 1.92071716 17.15856569 0 21 C-0.33 21 -0.66 21 -1 21 C-0.835 20.13375 -0.67 19.2675 -0.5 18.375 C0.39266231 12.30238178 0.07639812 6.12033868 0 0 Z " fill="#A2A2A2" transform="translate(331,419)"/>
<path d="M0 0 C0.66 0 1.32 0 2 0 C2.6986179 2.91440599 3.3842031 5.83086087 4.0625 8.75 C4.36124023 9.9875 4.36124023 9.9875 4.66601562 11.25 C4.84970703 12.04921875 5.03339844 12.8484375 5.22265625 13.671875 C5.39547119 14.4050293 5.56828613 15.13818359 5.74633789 15.89355469 C6 18 6 18 5 22 C3.02 15.07 1.04 8.14 -1 1 C-0.67 0.67 -0.34 0.34 0 0 Z " fill="#888888" transform="translate(76,114)"/>
<path d="M0 0 C0 0.66 0 1.32 0 2 C-3.63 2.33 -7.26 2.66 -11 3 C-11 3.66 -11 4.32 -11 5 C-13.75078884 5.91692961 -15.35948913 6.10886083 -18.1875 6.0625 C-20.0746875 6.0315625 -20.0746875 6.0315625 -22 6 C-18.64153509 3.7610234 -15.41108679 2.87127846 -11.5625 1.875 C-10.89412109 1.69324219 -10.22574219 1.51148438 -9.53710938 1.32421875 C-6.2051237 0.44581618 -3.47463228 0 0 0 Z " fill="#A0A0A0" transform="translate(250,451)"/>
<path d="M0 0 C7.85879863 0.35224909 14.65062002 1.13498747 22 4 C22 4.33 22 4.66 22 5 C16.03784045 4.59686466 10.62800765 4.14400291 5 2 C3.33911955 1.63893903 1.67381019 1.29537827 0 1 C0 0.67 0 0.34 0 0 Z " fill="#959595" transform="translate(350,0)"/>
<path d="M0 0 C0.66 0 1.32 0 2 0 C2.11083416 5.43087408 2.11115605 10.66645094 1 16 C0.34 16.33 -0.32 16.66 -1 17 C-2.59854133 11.0853971 -1.25890714 5.84715547 0 0 Z " fill="#848484" transform="translate(300,386)"/>
<path d="M0 0 C0 0.99 0 1.98 0 3 C-0.84304688 3.27714844 -1.68609375 3.55429687 -2.5546875 3.83984375 C-4.19824219 4.38318359 -4.19824219 4.38318359 -5.875 4.9375 C-6.96554687 5.29714844 -8.05609375 5.65679687 -9.1796875 6.02734375 C-11.90758682 6.89914074 -11.90758682 6.89914074 -14 8 C-14.66 7.34 -15.32 6.68 -16 6 C-10.75824848 3.65794081 -5.46737191 1.74807129 0 0 Z " fill="#8B8B8B" transform="translate(321,55)"/>
<path d="M0 0 C-1.32 0.33 -2.64 0.66 -4 1 C-4 1.66 -4 2.32 -4 3 C-9.24385089 4.7479503 -13.47322267 5.19392201 -19 5 C-16.07382565 3.0492171 -13.97955419 2.28486538 -10.625 1.375 C-9.68914062 1.11460937 -8.75328125 0.85421875 -7.7890625 0.5859375 C-5.09876365 0.02074867 -2.73855429 -0.10954217 0 0 Z " fill="#939393" transform="translate(244,385)"/>
<path d="M0 0 C1.974667 2.96200051 2.71955354 5.09771632 3.625 8.5 C3.88539062 9.4590625 4.14578125 10.418125 4.4140625 11.40625 C5 14 5 14 5 17 C5.66 17 6.32 17 7 17 C7 18.98 7 20.96 7 23 C3.93957815 19.56250611 2.90264774 15.86907458 1.8125 11.5 C1.63525391 10.83613281 1.45800781 10.17226562 1.27539062 9.48828125 C0.42008388 6.17933393 0 3.44526634 0 0 Z " fill="#A8A8A8" transform="translate(97,187)"/>
<path d="M0 0 C-3.27724872 1.82860979 -6.48004399 2.70723391 -10.125 3.5625 C-14.17552646 4.47042749 -14.17552646 4.47042749 -18 6 C-18.66 5.67 -19.32 5.34 -20 5 C-20 4.34 -20 3.68 -20 3 C-18.865625 2.855625 -17.73125 2.71125 -16.5625 2.5625 C-13.19222799 2.38828522 -13.19222799 2.38828522 -12 1 C-7.96497918 0.30163101 -4.09439083 -0.12407245 0 0 Z " fill="#8F8F8F" transform="translate(224,311)"/>
<path d="M0 0 C-3.52106829 1.94539023 -7.1475537 3.05706819 -11 4.1875 C-12.216875 4.55230469 -13.43375 4.91710937 -14.6875 5.29296875 C-17.72881752 5.94211789 -19.16511645 6.11269179 -22 5 C-18.62851015 2.7523401 -16.0762778 2.20201163 -12.125 1.375 C-10.91070312 1.11460937 -9.69640625 0.85421875 -8.4453125 0.5859375 C-5.52909158 0.08998156 -2.94382903 -0.12312593 0 0 Z " fill="#9C9C9C" transform="translate(328,283)"/>
<path d="M0 0 C1.4540625 0.0309375 1.4540625 0.0309375 2.9375 0.0625 C1.9375 2.0625 1.9375 2.0625 0.203125 2.68359375 C-2.34394284 3.10956889 -4.73106169 3.15896629 -7.3125 3.125 C-8.20453125 3.11597656 -9.0965625 3.10695312 -10.015625 3.09765625 C-10.69109375 3.08605469 -11.3665625 3.07445312 -12.0625 3.0625 C-12.3925 4.7125 -12.7225 6.3625 -13.0625 8.0625 C-14.1875 4.3125 -14.1875 4.3125 -13.0625 2.0625 C-11.03125 1.68359375 -11.03125 1.68359375 -8.5625 1.5 C-5.22241108 1.24103741 -3.19844683 0.06527443 0 0 Z " fill="#949494" transform="translate(398.0625,217.9375)"/>
<path d="M0 0 C5.61 0 11.22 0 17 0 C12.35801341 3.09465773 8.59035842 3.40657152 3 3 C2.01 2.01 1.02 1.02 0 0 Z " fill="#707070" transform="translate(278,320)"/>
<path d="M0 0 C1.26650391 0.00966797 1.26650391 0.00966797 2.55859375 0.01953125 C3.43128906 0.03628906 4.30398437 0.05304688 5.203125 0.0703125 C6.53537109 0.08384766 6.53537109 0.08384766 7.89453125 0.09765625 C10.08100558 0.12116673 12.26692594 0.15402751 14.453125 0.1953125 C14.453125 0.5253125 14.453125 0.8553125 14.453125 1.1953125 C13.26074219 1.24429688 12.06835938 1.29328125 10.83984375 1.34375 C9.27341432 1.41878854 7.70700921 1.4943359 6.140625 1.5703125 C5.35494141 1.60125 4.56925781 1.6321875 3.75976562 1.6640625 C2.6237793 1.72207031 2.6237793 1.72207031 1.46484375 1.78125 C0.76834717 1.8126709 0.07185059 1.8440918 -0.64575195 1.87646484 C-2.87220239 2.11649503 -2.87220239 2.11649503 -5.546875 4.1953125 C-6.536875 4.1953125 -7.526875 4.1953125 -8.546875 4.1953125 C-8.546875 3.5353125 -8.546875 2.8753125 -8.546875 2.1953125 C-5.55561181 0.47325062 -3.44001787 -0.04648673 0 0 Z " fill="#ACACAC" transform="translate(217.546875,203.8046875)"/>
<path d="M0 0 C0.33 0 0.66 0 1 0 C1.2248832 5.4042243 0.4886411 9.81275243 -1 14.9375 C-1.19078125 15.62134766 -1.3815625 16.30519531 -1.578125 17.00976562 C-2.04404937 18.67544526 -2.52088411 20.33806675 -3 22 C-3.33 22 -3.66 22 -4 22 C-4.33161884 16.80463817 -3.50580433 13.03603647 -1.734375 8.15625 C-0.82090959 5.47416007 -0.35972088 2.80582285 0 0 Z " fill="#A1A1A1" transform="translate(436,108)"/>
<path d="M0 0 C0 0.66 0 1.32 0 2 C-5.24385089 3.7479503 -9.47322267 4.19392201 -15 4 C-12.3851183 2.25674553 -10.9946567 1.58412043 -8.0625 0.875 C-7.39347656 0.70742188 -6.72445313 0.53984375 -6.03515625 0.3671875 C-4 0 -4 0 0 0 Z " fill="#8A8A8A" transform="translate(276,348)"/>
<path d="M0 0 C0 0.66 0 1.32 0 2 C-5.24385089 3.7479503 -9.47322267 4.19392201 -15 4 C-12.3851183 2.25674553 -10.9946567 1.58412043 -8.0625 0.875 C-7.39347656 0.70742188 -6.72445312 0.53984375 -6.03515625 0.3671875 C-4 0 -4 0 0 0 Z " fill="#909090" transform="translate(207,327)"/>
<path d="M0 0 C0 0.33 0 0.66 0 1 C-5.57067277 2.59162079 -10.21101581 3.20674944 -16 3 C-11.07132571 -0.28578286 -5.80561576 -1.81425492 0 0 Z " fill="#909090" transform="translate(249,317)"/>
<path d="M0 0 C-4.77105802 2.67179249 -9.53911054 4 -15 4 C-15 3.34 -15 2.68 -15 2 C-9.75614911 0.2520497 -5.52677733 -0.19392201 0 0 Z " fill="#797979" transform="translate(253,303)"/>
<path d="M0 0 C0 0.66 0 1.32 0 2 C-5.24385089 3.7479503 -9.47322267 4.19392201 -15 4 C-12.3851183 2.25674553 -10.9946567 1.58412043 -8.0625 0.875 C-7.39347656 0.70742188 -6.72445313 0.53984375 -6.03515625 0.3671875 C-4 0 -4 0 0 0 Z " fill="#909090" transform="translate(319,297)"/>
<path d="M0 0 C-6.1878107 3.46517399 -12.05374496 4.24372825 -19 4 C-15.93089979 1.9539332 -14.19311799 1.49086694 -10.625 0.875 C-9.68914062 0.70742187 -8.75328125 0.53984375 -7.7890625 0.3671875 C-5.15262977 0.02009412 -2.65503612 -0.06758274 0 0 Z " fill="#898989" transform="translate(162,0)"/>
<path d="M0 0 C0 0.66 0 1.32 0 2 C-4.92737019 3.97094808 -8.78020872 4.1799928 -14 4 C-9.52281208 1.01520806 -5.36175907 0 0 0 Z " fill="#888888" transform="translate(258,381)"/>
<path d="M0 0 C1.32 0.33 2.64 0.66 4 1 C4.3125 4.3125 4.3125 4.3125 4 8 C1.75 10 1.75 10 -1 11 C-3.3125 10.6875 -3.3125 10.6875 -5 10 C-3.02 9.01 -1.04 8.02 1 7 C1.15149298 3.37114676 1.15149298 3.37114676 0 0 Z " fill="#969696" transform="translate(323,354)"/>
<path d="M0 0 C2.85793316 2.85793316 2.40799941 5.14665584 2.625 9.125 C2.69976562 10.40632813 2.77453125 11.68765625 2.8515625 13.0078125 C2.92503906 14.48894531 2.92503906 14.48894531 3 16 C1 15 1 15 0.33203125 13.14453125 C-0.71785969 8.43186288 -1.22634591 4.78274903 0 0 Z " fill="#7B7B7B" transform="translate(207,487)"/>
<path d="M0 0 C0 0.99 0 1.98 0 3 C-4.49656104 5.24828052 -8.07872966 5.16682272 -13 5 C-10.14589666 3.49439503 -7.31875358 2.36783204 -4.25 1.375 C-3.45078125 1.11460937 -2.6515625 0.85421875 -1.828125 0.5859375 C-1.22484375 0.39257812 -0.6215625 0.19921875 0 0 Z " fill="#999999" transform="translate(315,432)"/>
<path d="M0 0 C1.31225809 3.93677426 0.3393954 5.7794262 -0.9375 9.6875 C-1.50791016 11.45673828 -1.50791016 11.45673828 -2.08984375 13.26171875 C-2.39019531 14.16535156 -2.69054687 15.06898438 -3 16 C-3.33 16 -3.66 16 -4 16 C-4.5326514 9.741346 -2.81849506 5.54891215 0 0 Z " fill="#919191" transform="translate(421,165)"/>
<path d="M0 0 C-1.74816858 0.50636607 -3.49862263 1.00484619 -5.25 1.5 C-6.22453125 1.7784375 -7.1990625 2.056875 -8.203125 2.34375 C-11 3 -11 3 -15 3 C-15 2.34 -15 1.68 -15 1 C-13.25215171 0.63536268 -11.50159498 0.2836922 -9.75 -0.0625 C-8.28820312 -0.35833984 -8.28820312 -0.35833984 -6.796875 -0.66015625 C-4.131881 -0.98397535 -2.51128277 -0.85503199 0 0 Z " fill="#7C7C7C" transform="translate(251,440)"/>
<path d="M0 0 C-3.83704776 2.55803184 -7.75712791 4.34505724 -12.4375 3.625 C-12.953125 3.41875 -13.46875 3.2125 -14 3 C-8.99067246 -0.00559652 -5.67276511 -0.29341888 0 0 Z " fill="#8A8A8A" transform="translate(296,427)"/>
<path d="M0 0 C5.93002267 -0.37851209 10.47239641 0.89424625 16 3 C16 3.33 16 3.66 16 4 C11.72440538 4.19886487 8.90022453 3.70009787 5 2 C3.34080104 1.63128912 1.6752357 1.28718326 0 1 C0 0.67 0 0.34 0 0 Z " fill="#898989" transform="translate(187,1)"/>
<path d="M0 0 C1.8871875 0.0309375 1.8871875 0.0309375 3.8125 0.0625 C0.80809979 2.06543347 -0.89743945 2.55521626 -4.375 3.1875 C-5.72658203 3.43886719 -5.72658203 3.43886719 -7.10546875 3.6953125 C-7.79253906 3.81648438 -8.47960937 3.93765625 -9.1875 4.0625 C-6.53873473 0.0893521 -4.49238456 -0.07364565 0 0 Z " fill="#828282" transform="translate(241.1875,468.9375)"/>
<path d="M0 0 C1.15957207 3.47871621 0.77456651 4.34219645 -0.4375 7.6875 C-0.72496094 8.49574219 -1.01242188 9.30398437 -1.30859375 10.13671875 C-1.65083984 11.05904297 -1.65083984 11.05904297 -2 12 C-2.33 12 -2.66 12 -3 12 C-3.125 4.25 -3.125 4.25 -2 2 C-1.34 2 -0.68 2 0 2 C0 1.34 0 0.68 0 0 Z " fill="#9C9C9C" transform="translate(96,66)"/>
<path d="M0 0 C-1.60064843 0.53154742 -3.20568874 1.04988353 -4.8125 1.5625 C-5.70582031 1.85253906 -6.59914063 2.14257812 -7.51953125 2.44140625 C-10 3 -10 3 -13 2 C-9.41117936 -1.58882064 -4.65095462 -1.36250433 0 0 Z " fill="#989898" transform="translate(298,388)"/>
<path d="M0 0 C1.8871875 0.0309375 1.8871875 0.0309375 3.8125 0.0625 C0.91157498 1.99645001 -0.08424737 2.36381941 -3.375 2.6875 C-4.633125 2.81125 -5.89125 2.935 -7.1875 3.0625 C-7.1875 2.4025 -7.1875 1.7425 -7.1875 1.0625 C-4.43671116 0.14557039 -2.82801087 -0.04636083 0 0 Z " fill="#797979" transform="translate(260.1875,299.9375)"/>
<path d="M0 0 C-4.95 1.485 -4.95 1.485 -10 3 C-10.33 2.01 -10.66 1.02 -11 0 C-6.79405774 -0.72795155 -4.19895255 -1.04973814 0 0 Z " fill="#A0A0A0" transform="translate(242,403)"/>
<path d="M0 0 C1.8871875 0.0309375 1.8871875 0.0309375 3.8125 0.0625 C0.27838679 2.18296792 -3.13143835 2.59449289 -7.1875 3.0625 C-7.1875 2.4025 -7.1875 1.7425 -7.1875 1.0625 C-4.43671116 0.14557039 -2.82801087 -0.04636083 0 0 Z " fill="#707070" transform="translate(253.1875,397.9375)"/>
<path d="M0 0 C2.00841268 0.01421885 4.01537247 0.13420475 6.01953125 0.265625 C2.33218367 2.72385672 -0.67746846 3.27805116 -4.98046875 4.265625 C-3.72152968 1.74774686 -2.88459378 0.38688832 0 0 Z " fill="#8A8A8A" transform="translate(186.98046875,318.734375)"/>
<path d="M0 0 C0.66 0 1.32 0 2 0 C2.23053497 2.84326464 2.35903101 4.46145349 0.75 6.875 C-1 8 -1 8 -3.1875 7.6875 C-3.785625 7.460625 -4.38375 7.23375 -5 7 C-4.01 6.67 -3.02 6.34 -2 6 C-0.77479736 2.99152582 -0.77479736 2.99152582 0 0 Z " fill="#858585" transform="translate(331,287)"/>
</svg>
