<?xml version="1.0" encoding="UTF-8"?>
<svg version="1.1" xmlns="http://www.w3.org/2000/svg" width="512" height="512">
<path d="M0 0 C24.60218258 9.70099083 45.15226996 9.97719989 69.63000488 -0.26745605 C73.22613324 -1.76628736 76.84528529 -3.2073036 80.46484375 -4.6484375 C81.1920462 -4.93819458 81.91924866 -5.22795166 82.66848755 -5.52648926 C113.60972741 -17.77336561 146.96031905 -26.05330155 180 -30 C180.78971191 -30.10022461 181.57942383 -30.20044922 182.39306641 -30.30371094 C189.91142508 -31.17186741 197.43857499 -31.24327458 205 -31.25 C206.02646637 -31.25101212 206.02646637 -31.25101212 207.07366943 -31.25204468 C227.06147183 -31.22081465 246.75390839 -28.92524723 263 -16 C263 -15.34 263 -14.68 263 -14 C263.66 -14 264.32 -14 265 -14 C283.12623296 6.15666639 287.25324776 30.79783841 286 57 C285.23254417 66.05560805 282.97817299 74.68744544 280.1875 83.3125 C279.96368652 84.00504883 279.73987305 84.69759766 279.50927734 85.41113281 C278.38934129 88.65871835 277.20313331 91.64140651 275.50512695 94.63891602 C270.67691978 103.18246368 270.01482749 110.76154875 269.8125 120.3125 C268.92600628 150.92302224 268.92600628 150.92302224 261.97265625 157.5859375 C245.96597885 169.060031 222.25762551 173.08935109 202.92578125 170.41015625 C198.90359951 169.98992831 198.50195401 169.95421764 195.5 172.125 C189.22270044 176.65930693 181.38327251 178.05952453 174 180 C173.13890625 180.23847656 172.2778125 180.47695313 171.390625 180.72265625 C155.41570097 184.77644336 138.1057848 183.52639762 122 181 C122 181.66 122 182.32 122 183 C107.28954324 196.0292617 74.19635002 192.77565854 56 192 C43.35286709 191.17785953 43.35286709 191.17785953 37.77734375 188.38671875 C35.07545062 186.67326074 35.07545062 186.67326074 32.1875 187.625 C30.53077877 188.33966406 28.874301 189.05492324 27.22094727 189.77734375 C20.13240172 192.51964647 13.2741444 192.45539419 5.75 192.375 C5.08158081 192.3713443 4.41316162 192.3676886 3.7244873 192.36392212 C-6.48581312 192.2990761 -16.59084673 191.71398402 -26.75 190.6875 C-28.50425293 190.51130127 -28.50425293 190.51130127 -30.29394531 190.33154297 C-48.75830914 188.24169086 -48.75830914 188.24169086 -53.6875 183.3125 C-54.120625 182.549375 -54.55375 181.78625 -55 181 C-57.06271639 181.3110685 -59.12516466 181.62391516 -61.1875 181.9375 C-62.33605469 182.11152344 -63.48460937 182.28554688 -64.66796875 182.46484375 C-67.83392716 182.92130983 -67.83392716 182.92130983 -70.22998047 183.57104492 C-73.78250392 184.12117569 -77.10660057 183.79064427 -80.65234375 183.3984375 C-81.38892715 183.32009674 -82.12551056 183.24175598 -82.88441467 183.16104126 C-84.44398648 182.99186772 -86.00310454 182.81846451 -87.56176758 182.64111328 C-89.89708502 182.37952701 -92.23405033 182.14420044 -94.57226562 181.91015625 C-105.7660714 180.70676099 -116.93277358 178.82033346 -126.3125 172.125 C-131.79017978 168.80956224 -137.72444382 170.04922941 -143.81640625 170.703125 C-148.01899749 171.10075291 -151.85088927 170.69494471 -156 170 C-157.04353638 169.83443604 -157.04353638 169.83443604 -158.1081543 169.66552734 C-160.26290167 169.31494266 -162.41265043 168.94188522 -164.5625 168.5625 C-165.27857422 168.44068359 -165.99464844 168.31886719 -166.73242188 168.19335938 C-177.44460417 166.31214811 -189.4173359 163.36121196 -196.32421875 154.25390625 C-201.23556581 145.47190649 -201.1521527 134.66979023 -201.47973633 124.88720703 C-201.98046092 111.27254757 -203.86385931 100.40191215 -210.01904297 88.10009766 C-215.09446874 77.23429066 -217.24061122 64.86477652 -218 53 C-218.0505957 52.23848633 -218.10119141 51.47697266 -218.15332031 50.69238281 C-219.38110568 28.95439878 -214.37530281 6.03536479 -200.02734375 -10.98046875 C-152.82652969 -57.99939143 -52.62278158 -21.02354503 0 0 Z M-188 -3 C-198.61658325 9.51774202 -203.21068542 24.81905114 -204 41 C-204.04125 41.70125 -204.0825 42.4025 -204.125 43.125 C-204.46563929 54.36609671 -202.82736252 67.41734264 -199 78 C-198.34 78.33 -197.68 78.66 -197 79 C-196.70867187 78.48050781 -196.41734375 77.96101563 -196.1171875 77.42578125 C-192.43540152 71.1621139 -188.3250479 66.2340464 -181.3046875 63.50390625 C-168.67431612 60.74235047 -157.07704355 63.57044179 -146.39453125 70.31640625 C-141.50604602 73.75349782 -137.19216857 77.75655108 -133 82 C-132.16151196 80.54462432 -131.32936066 79.08559627 -130.5 77.625 C-130.0359375 76.81289063 -129.571875 76.00078125 -129.09375 75.1640625 C-127.84964141 73.10663126 -127.84964141 73.10663126 -128 71 C-127.484375 70.7525 -126.96875 70.505 -126.4375 70.25 C-123.88209061 68.93953365 -121.43143002 67.48920874 -118.9765625 66 C-108.84568524 60.87449688 -96.74049226 62.15381783 -86.05859375 64.96484375 C-74.7301268 68.79887152 -65.11557455 76.34338715 -57 85 C-56.52691406 84.28714844 -56.05382812 83.57429688 -55.56640625 82.83984375 C-48.27451408 72.27868219 -40.841779 65.60872899 -28 63 C-11.75694568 61.35133935 3.04217028 65.41861732 16.01171875 75.29296875 C22.41020066 80.78361693 26.86850913 86.69130284 31 94 C31.99694396 95.66849649 32.99604817 97.33571081 34 99 C36.26276281 96.96146145 36.26276281 96.96146145 37.6875 93.4375 C45.16026197 78.21622839 58.10765094 69.94919561 73.47265625 64.05078125 C84.63954784 61.01700145 98.54674659 61.79503017 108.6171875 67.4765625 C113.62347845 70.72990884 117.34406437 74.12863683 120.6484375 79.10546875 C122.22590784 81.31666272 124.0433127 83.12241283 126 85 C126.46148437 84.43152344 126.92296875 83.86304688 127.3984375 83.27734375 C136.83426366 72.10726496 148.34745078 65.21466011 163 63 C173.79495658 62.28580005 183.95492591 62.26907245 192.875 69.25 C195.1050675 72.13596971 197.04160132 75.08715795 198.88671875 78.23046875 C200.00465005 80.15262586 200.00465005 80.15262586 202 82 C202.40089844 81.49210937 202.80179687 80.98421875 203.21484375 80.4609375 C210.23477566 71.96061178 219.94608845 65.06287786 231 63 C249.07387008 61.79507533 249.07387008 61.79507533 256 67 C259.82003219 70.68051797 263.05996494 74.58994741 266 79 C266.65077296 76.95990245 267.29539824 74.91784331 267.9375 72.875 C268.29714844 71.73804688 268.65679687 70.60109375 269.02734375 69.4296875 C271.13080774 62.01265384 271.18622741 54.88898464 271.18530273 47.22436523 C271.18748285 45.20339688 271.20565832 43.18298102 271.22460938 41.16210938 C271.24858558 25.07407884 267.07783033 10.89556123 257 -2 C256.34 -2 255.68 -2 255 -2 C255 -2.66 255 -3.32 255 -4 C254.34 -4 253.68 -4 253 -4 C252.67 -4.99 252.34 -5.98 252 -7 C249.84078876 -8.33171133 247.77527177 -9.46813976 245.5 -10.5625 C244.85780518 -10.8733252 244.21561035 -11.18415039 243.55395508 -11.50439453 C200.18285516 -31.92138483 133.28697225 -8.89235518 91.3828125 6.15112305 C84.74384211 8.56759419 78.16843895 11.10938251 71.6184082 13.7565918 C48.11106059 23.22806538 25.13010826 25.44987479 1.00634766 16.23876953 C-1.74593691 15.06690129 -4.41643627 13.75870274 -7.0859375 12.41015625 C-10.99710481 10.51748682 -15.02129981 9.24480822 -19.15625 7.93359375 C-22.62928758 6.79340696 -25.98636764 5.44175917 -29.35546875 4.02734375 C-55.84773707 -6.26433508 -85.00773921 -13.72720596 -113.3828125 -15.7890625 C-114.87338523 -15.90919821 -116.36337063 -16.04650222 -117.84667969 -16.23632812 C-140.49405722 -19.10204089 -170.43351049 -20.07580545 -188 -3 Z M-183 80 C-185.34091156 85.40611506 -186.59905877 90.34783094 -187.1875 96.1875 C-187.26645508 96.93306152 -187.34541016 97.67862305 -187.42675781 98.44677734 C-188.47362856 109.00838897 -187.99922138 119.31102608 -187.1875 129.875 C-187.08260254 131.35637451 -187.08260254 131.35637451 -186.97558594 132.86767578 C-186.49510363 138.50233584 -185.74510202 143.01912813 -183 148 C-170.76642697 156.56350112 -153.34965737 156.93518066 -139 156 C-138.67 155.67 -138.34 155.34 -138 155 C-138.1257598 152.30559636 -138.30212958 149.62695472 -138.5 146.9375 C-138.95728851 140.26756706 -139.00093846 133.71678489 -138.6015625 127.04296875 C-138.5640387 126.35079758 -138.52651489 125.6586264 -138.487854 124.94548035 C-138.18046869 119.29280167 -138.18046869 119.29280167 -137.95629883 116.59396362 C-136.96285691 104.59360351 -139.36147701 96.07236427 -146.90478516 86.61083984 C-150.15983725 83.07965962 -153.5466687 80.85555471 -158 79 C-159.03125 78.443125 -160.0625 77.88625 -161.125 77.3125 C-168.20316461 74.34881415 -177.48432314 74.34289552 -183 80 Z M-117.57421875 80.6953125 C-126.3255836 94.84135431 -125.17726086 115.93300055 -125.25 131.9375 C-125.2593457 133.25298828 -125.26869141 134.56847656 -125.27832031 135.92382812 C-125.88825021 148.54181502 -125.88825021 148.54181502 -121.43652344 159.69775391 C-108.48397287 169.21904108 -85.61554582 170.18510839 -70 169 C-68.58774238 168.68711274 -67.1811832 168.3474823 -65.78125 167.98339844 C-64.5334375 167.65887695 -63.285625 167.33435547 -62 167 C-61.90685951 159.21939019 -61.8360137 151.43891373 -61.79275131 143.6578846 C-61.77197558 140.04385655 -61.74384487 136.43021305 -61.69824219 132.81640625 C-61.65442186 129.32152463 -61.63078782 125.82701024 -61.62049103 122.33187485 C-61.60962519 120.36558659 -61.57845819 118.39944377 -61.54681396 116.43338013 C-61.54453019 107.20744472 -62.80593623 99.18360663 -69 92 C-69.66 92 -70.32 92 -71 92 C-71.26941406 91.40058594 -71.53882813 90.80117188 -71.81640625 90.18359375 C-75.62571969 83.15585048 -83.71956962 79.42681013 -91 77 C-94.67958777 76.32738718 -98.26512973 76.08753602 -102 76 C-103.2375 75.9175 -104.475 75.835 -105.75 75.75 C-110.34202716 76.10323286 -114.36766257 77.24209816 -117.57421875 80.6953125 Z M-41.4921875 85.609375 C-45.055945 91.25968481 -46.49245967 97.26298891 -47.125 103.875 C-47.20210205 104.63474121 -47.2792041 105.39448242 -47.35864258 106.17724609 C-48.82744303 121.82687287 -49.27404675 137.54505948 -48.6875 153.25 C-48.65293701 154.24338379 -48.61837402 155.23676758 -48.58276367 156.26025391 C-48.30452556 162.13123062 -47.92053749 167.34079424 -44.375 172.25 C-33.39697493 180.3390711 -13.05032836 178.20335639 0.0625 178.25 C0.73435333 178.25517639 1.40620667 178.26035278 2.09841919 178.26568604 C9.64145444 178.31150676 16.76888733 178.29559133 24 176 C33.31290361 162.03064459 26.78049724 130.64559672 23.68383789 114.79760742 C20.93515423 101.7275017 15.53398817 91.15005091 4.37109375 83.10546875 C-10.49407778 74.00027427 -29.17494198 71.44751784 -41.4921875 85.609375 Z M54.8125 90.76953125 C38.31217778 111.07488467 39.15237206 146.52372055 41.61694336 171.16943359 C42.23290638 174.11302231 43.54678635 175.36452423 46 177 C52.42602993 178.67623315 59.15657401 178.24269768 65.75 178.25 C66.45653717 178.25133942 67.16307434 178.25267883 67.89102173 178.25405884 C77.72126181 178.25003295 87.41375886 177.84132405 97.1875 176.6875 C98.72519043 176.51105957 98.72519043 176.51105957 100.29394531 176.33105469 C105.11573541 175.69044309 109.11245276 175.15522371 113 172 C115.82105232 167.76842153 116.12258227 164.03829955 116.14526367 159.03637695 C116.15164352 158.07379471 116.15802338 157.11121246 116.16459656 156.11946106 C116.16570938 155.08617172 116.1668222 154.05288239 116.16796875 152.98828125 C116.17129715 151.90604782 116.17462555 150.82381439 116.17805481 149.70878601 C116.18311586 147.41320214 116.18546339 145.11761093 116.18530273 142.82202148 C116.18746391 139.37014968 116.20555772 135.91861108 116.22460938 132.46679688 C116.25066887 122.51067753 116.19859213 112.61771512 115.12109375 102.7109375 C115.04440964 102.00129349 114.96772552 101.29164948 114.88871765 100.5605011 C113.72835033 91.32248316 110.11530344 85.2902545 103.0625 79.375 C87.75112544 69.16741696 66.02518581 78.72041525 54.8125 90.76953125 Z M137.7578125 90.78125 C132.44395405 97.48852022 129.91920531 104.49403917 129.79467773 112.96191406 C129.77473251 114.16285706 129.75478729 115.36380005 129.73423767 116.60113525 C129.71752518 117.89291687 129.70081268 119.18469849 129.68359375 120.515625 C129.66301037 121.85512921 129.64201354 123.19462713 129.62062073 124.53411865 C129.56554291 128.05215341 129.51607094 131.5702454 129.46777344 135.08837891 C129.41745375 138.68136664 129.36182244 142.27427173 129.30664062 145.8671875 C129.199234 152.91138655 129.09775051 159.9556598 129 167 C130.59831705 167.33012481 132.19722899 167.65737031 133.79638672 167.98339844 C135.13188065 168.25721344 135.13188065 168.25721344 136.49435425 168.53656006 C152.97856226 171.5854509 175.76058985 167.76271394 190 159 C194.86189436 151.8070604 193.24207603 140.745038 193.25 132.375 C193.25100708 131.64067749 193.25201416 130.90635498 193.25305176 130.14978027 C193.2417035 117.89700137 192.54090752 106.02161688 190 94 C189.86609863 93.32517578 189.73219727 92.65035156 189.59423828 91.95507812 C188.43184098 86.3586635 187.26698932 81.27516728 182.5625 77.6875 C167.39137238 70.32752916 148.30327094 79.68076743 137.7578125 90.78125 Z M213.98046875 88.140625 C206.74213682 96.85710051 205.54924392 105.13628808 205.70703125 116.25390625 C205.71127609 117.39536606 205.71552094 118.53682587 205.71989441 119.71287537 C205.73657849 123.3296651 205.77421234 126.94588098 205.8125 130.5625 C205.82756008 133.02668462 205.84124616 135.49087803 205.85351562 137.95507812 C205.88644834 143.9702452 205.93654471 149.98508158 206 156 C209.14056255 156.05163346 212.28101321 156.0821886 215.421875 156.109375 C216.29827637 156.12403809 217.17467773 156.13870117 218.07763672 156.15380859 C229.01419026 156.22449731 241.87124426 154.39012901 251 148 C254.17833218 142.19608907 254.76450526 136.59678172 255.25 130.0625 C255.33080811 129.0206958 255.41161621 127.9788916 255.49487305 126.90551758 C256.00747005 119.31555465 256.08364684 111.78860981 255.8125 104.1875 C255.7825293 103.2291626 255.75255859 102.2708252 255.72167969 101.28344727 C255.17142362 89.76186482 255.17142362 89.76186482 250.08129883 79.80932617 C245.30296863 75.65540182 242.19392799 75.62516141 236.0625 75.7578125 C226.89742241 76.4826018 220.17134641 81.57853417 213.98046875 88.140625 Z " fill="#151515" transform="translate(222,310)"/>
<path d="M0 0 C1.18398069 -0.00525911 1.18398069 -0.00525911 2.39188018 -0.01062447 C5.04096989 -0.01994005 7.68983985 -0.01501474 10.33893871 -0.01015663 C12.2557368 -0.01389281 14.17253337 -0.01849419 16.08932751 -0.02388728 C21.36014515 -0.03613666 26.63089941 -0.03585452 31.90172803 -0.03349853 C37.58488438 -0.03309085 43.26802026 -0.04412476 48.95116711 -0.05361366 C60.08673261 -0.07023509 71.22227694 -0.07572372 82.35785381 -0.07683842 C91.40798075 -0.07778832 100.45810071 -0.0818957 109.50822544 -0.08823967 C130.98437359 -0.10298799 152.46051486 -0.11528907 173.9366684 -0.11424255 C174.62347535 -0.1142114 175.31028231 -0.11418024 176.0179016 -0.11414814 C179.4989204 -0.11398192 182.97993919 -0.11378384 186.46095798 -0.11357872 C187.49797118 -0.11351889 187.49797118 -0.11351889 188.55593413 -0.11345784 C189.95399634 -0.11337697 191.35205855 -0.11329337 192.75012076 -0.11320706 C214.50209946 -0.11198153 236.25401581 -0.12699518 258.00597668 -0.15435219 C282.44455226 -0.18507544 306.88307972 -0.20225921 331.32167691 -0.20042574 C344.26131089 -0.19976132 357.20087455 -0.20527647 370.14049244 -0.22678185 C381.15679126 -0.24497317 392.17298789 -0.24935777 403.18929521 -0.235763 C408.8106381 -0.22922315 414.43178481 -0.22915301 420.05310917 -0.2464695 C425.19948721 -0.26215997 430.34551287 -0.25937763 435.49188211 -0.24190123 C437.35322494 -0.23882248 439.21459382 -0.24249655 441.07590596 -0.25362138 C460.53135422 -0.362199 460.53135422 -0.362199 468.77477551 6.56976891 C480.3717802 20.42174674 478.99673926 38.60174348 477.57946301 56.04242516 C476.24500819 68.00696483 469.91301871 76.50880695 460.85290051 84.06976891 C453.1788459 89.36222036 444.02427988 90.63793134 435.02477551 92.25726891 C433.88524426 92.47254234 432.74571301 92.68781578 431.57165051 92.90961266 C422.77490205 94.42362589 413.92777157 94.85210262 405.02477551 95.25726891 C405.08665051 97.14445641 405.08665051 97.14445641 405.14977551 99.06976891 C405.07560874 125.0281357 405.07560874 125.0281357 399.02477551 133.25726891 C393.64182612 138.50564456 385.76993675 139.25726891 378.49352551 139.25726891 C372.42155626 138.75820294 367.30848118 137.18963525 362.58727551 133.19476891 C361.02477551 131.25726891 361.02477551 131.25726891 361.02477551 129.25726891 C360.36477551 128.92726891 359.70477551 128.59726891 359.02477551 128.25726891 C358.5223341 125.94403648 358.5223341 125.94403648 358.17321301 122.90180016 C358.04430676 121.80416344 357.91540051 120.70652672 357.78258801 119.57562828 C357.59309582 117.84022789 357.59309582 117.84022789 357.39977551 116.06976891 C357.26571301 114.93217125 357.13165051 113.79457359 356.99352551 112.62250328 C356.40338775 107.46481972 355.95223863 102.45429431 356.02477551 97.25726891 C355.36477551 97.58726891 354.70477551 97.91726891 354.02477551 98.25726891 C351.35267143 98.40313966 348.70292536 98.49202761 346.02868176 98.53851891 C345.21740322 98.5566111 344.40612469 98.57470329 343.57026196 98.59334373 C340.9093379 98.65211228 338.24832736 98.70463617 335.58727551 98.75726891 C331.89320291 98.8365985 328.19921601 98.9194791 324.50524426 99.00336266 C323.59075512 99.02382149 322.67626598 99.04428032 321.73406506 99.06535912 C314.61816589 99.22988045 307.51055621 99.50499805 300.39977551 99.81976891 C283.286323 100.54756677 266.14965146 100.34608379 249.02477551 100.25726891 C248.94960705 101.22382408 248.94960705 101.22382408 248.87292004 102.20990562 C248.63803766 105.18454982 248.3939556 108.15837406 248.14977551 111.13226891 C248.07114269 112.14547203 247.99250988 113.15867516 247.91149426 114.20258141 C246.31180066 133.39890456 246.31180066 133.39890456 240.02477551 139.25726891 C232.09552851 144.25614201 222.98899874 143.83984165 214.02477551 142.25726891 C209.42593203 140.58166505 206.17414136 138.095665 203.64977551 133.88226891 C199.31930425 123.73332306 199.76532589 111.10409807 199.02477551 100.25726891 C197.06024426 100.26512413 197.06024426 100.26512413 195.05602551 100.27313805 C190.12081131 100.29146214 185.18560002 100.30279938 180.25036144 100.31220055 C178.12861148 100.31717892 176.00686485 100.32396403 173.88512707 100.33270836 C162.78116124 100.37727102 151.7699131 100.28540583 140.6942091 99.47772789 C134.40941445 99.10013843 128.13050029 99.19174861 121.83727551 99.25726891 C96.54650365 99.51813298 96.54650365 99.51813298 92.02477551 97.25726891 C91.95129894 98.87181969 91.95129894 98.87181969 91.87633801 100.51898766 C90.57106643 126.92493511 90.57106643 126.92493511 86.02477551 133.25726891 C79.6629879 138.71022971 73.19153037 139.60218644 65.03478527 138.97992516 C58.983217 138.34881821 53.50891458 137.68380998 49.21227551 132.99555016 C42.05991222 122.52580784 42.65543096 107.42511972 43.02477551 95.25726891 C42.36993176 95.28047203 41.71508801 95.30367516 41.04040051 95.32758141 C34.8879719 95.4492396 29.17328815 94.94087654 23.12633801 93.82367516 C19.93388287 93.24067013 16.73759708 92.77600491 13.52477551 92.31976891 C-0.60604974 90.1484056 -12.03443779 86.98733798 -21.16272449 75.44476891 C-27.02071789 67.26863909 -29.11877394 59.40367338 -29.17834949 49.42914391 C-29.18404957 48.68070213 -29.18974964 47.93226036 -29.19562244 47.16113853 C-29.20503921 45.58105429 -29.21159316 44.0009507 -29.21545887 42.42084312 C-29.2251377 40.02872142 -29.25618053 37.63746965 -29.28772449 35.24555016 C-29.34149953 27.40704478 -29.16528039 20.55913052 -25.97522449 13.25726891 C-25.60397449 12.37039391 -25.23272449 11.48351891 -24.85022449 10.56976891 C-18.54200586 2.78963259 -9.71726626 -0.05489203 0 0 Z M-14.33142567 21.12763023 C-15.83602907 26.10474647 -15.30643344 31.57022668 -15.29089832 36.73651695 C-15.28775954 38.92038448 -15.31113496 41.10286766 -15.33655262 43.28656578 C-15.38648518 53.9256266 -14.61484517 62.57931773 -6.95569324 70.53851891 C14.86121448 89.47232443 72.53407028 83.32644167 100.02477551 84.25726891 C101.98157238 84.32461235 101.98157238 84.32461235 103.97790051 84.39331627 C189.45452653 87.32066344 275.11706807 87.50111407 455.02477551 70.25726891 C456.23144723 68.18436121 456.23144723 68.18436121 457.02477551 66.25726891 C457.68477551 66.25726891 458.34477551 66.25726891 459.02477551 66.25726891 C463.31965287 58.27008998 463.61742024 50.57151265 463.49132824 41.73334312 C463.46214258 39.49708402 463.47080037 37.2631719 463.48375988 35.02680016 C463.6054434 25.70462143 463.6054434 25.70462143 460.02477551 17.25726891 C455.91178485 14.06842926 452.23775731 13.82950978 447.21107101 13.87415886 C446.42707073 13.86919934 445.64307044 13.86423983 444.83531258 13.85913002 C442.19823522 13.84613742 439.56166117 13.85457011 436.92457104 13.86285973 C435.01887048 13.85797256 433.1131729 13.85178357 431.20748037 13.84440184 C425.96278937 13.82795717 420.71824824 13.83032944 415.47354043 13.83577681 C409.82040843 13.83844141 404.1673169 13.82392597 398.51420116 13.81168175 C387.43631355 13.79060189 376.35847825 13.78608834 365.28057296 13.78786963 C356.27901992 13.7891759 347.27748323 13.78538004 338.27593327 13.77794456 C335.68566543 13.77584543 333.09539759 13.77374783 330.50512975 13.77165174 C329.21599278 13.77060822 327.92685581 13.76956469 326.59865408 13.76848954 C309.13677772 13.75495163 291.67491245 13.74736513 274.21303177 13.75181389 C273.18853169 13.75207182 273.18853169 13.75207182 272.14333465 13.75233496 C268.68153078 13.75322387 265.21972692 13.75416868 261.75792307 13.75513297 C260.72661421 13.75541952 260.72661421 13.75541952 259.67447082 13.75571186 C258.28409941 13.75609895 256.893728 13.75648928 255.50335659 13.75688284 C233.86567716 13.76285383 212.22810465 13.74741112 190.59044933 13.71527672 C166.28667444 13.67921353 141.98298783 13.65990892 117.67918009 13.66481543 C104.80835964 13.66706297 91.9376452 13.66177529 79.06684589 13.63692284 C68.11043618 13.6159475 57.15419061 13.61228033 46.19777424 13.63122243 C40.60512533 13.64040323 35.01278278 13.64145151 29.42015743 13.62086678 C24.30343001 13.60224153 19.18726167 13.60656507 14.0705561 13.62941259 C12.2166399 13.63361976 10.36268155 13.6293278 8.50880981 13.61581665 C5.99329918 13.59872774 3.4797564 13.61229535 0.96432114 13.63364983 C0.24030486 13.6213723 -0.48371141 13.60909477 -1.22966757 13.5964452 C-7.41919709 13.70661961 -10.74470756 16.18112305 -14.33142567 21.12763023 Z M57.02477551 96.25726891 C57.30354688 99.98751672 57.60005453 103.71615055 57.89977551 107.44476891 C57.97840832 108.49986656 58.05704113 109.55496422 58.13805676 110.64203453 C58.22184582 111.66361656 58.30563488 112.68519859 58.39196301 113.73773766 C58.46527843 114.67512779 58.53859386 115.61251793 58.61413097 116.57831383 C58.99300498 119.72503437 58.99300498 119.72503437 61.02477551 124.25726891 C65.31477551 124.25726891 69.60477551 124.25726891 74.02477551 124.25726891 C75.62560311 120.2551999 76.32274906 118.04630621 76.65758801 113.95648766 C76.74137707 112.98002281 76.82516613 112.00355797 76.91149426 110.99750328 C76.99012707 109.99010094 77.06875988 108.98269859 77.14977551 107.94476891 C77.23614269 106.91803062 77.32250988 105.89129234 77.41149426 104.83344078 C77.62288128 102.30854025 77.82706901 99.78327132 78.02477551 97.25726891 C70.99838136 96.50921173 64.09085741 96.11931937 57.02477551 96.25726891 Z M370.02477551 97.25726891 C370.33295367 100.6535089 370.64708198 104.04917338 370.96227551 107.44476891 C371.04928722 108.40447594 371.13629894 109.36418297 371.22594738 110.35297203 C371.3129591 111.28431969 371.39997082 112.21566734 371.48961926 113.17523766 C371.5681715 114.02883873 371.64672375 114.8824398 371.72765636 115.76190758 C372.03200355 118.31797376 372.36838148 120.7663308 373.02477551 123.25726891 C375.49855675 124.49415953 377.20392867 124.39036978 379.96227551 124.38226891 C380.83754894 124.38484703 381.71282238 124.38742516 382.61461926 124.39008141 C385.16936607 124.35548894 385.16936607 124.35548894 388.02477551 123.25726891 C389.75181411 114.25319387 390.55027649 105.39761828 391.02477551 96.25726891 C388.64969696 96.23007335 386.27493587 96.21033644 383.89977551 96.19476891 C383.23461926 96.18639 382.56946301 96.17801109 381.88415051 96.16937828 C377.81796197 96.14944598 374.01276631 96.4683673 370.02477551 97.25726891 Z M214.02477551 100.25726891 C213.64558045 115.12069799 213.64558045 115.12069799 218.02477551 128.25726891 C220.853478 128.57718597 220.853478 128.57718597 224.02477551 128.50726891 C225.09727551 128.51242516 226.16977551 128.51758141 227.27477551 128.52289391 C230.16839729 128.5375454 230.16839729 128.5375454 232.02477551 126.25726891 C232.50072447 123.55141088 232.86524476 120.92113313 233.14977551 118.19476891 C233.23614269 117.46838219 233.32250988 116.74199547 233.41149426 115.99359703 C234.00611413 110.65617577 234.02477551 105.72716516 234.02477551 100.25726891 C227.42477551 100.25726891 220.82477551 100.25726891 214.02477551 100.25726891 Z " fill="#171717" transform="translate(31.975224494934082,2.7427310943603516)"/>
<path d="M0 0 C5.45030462 3.681232 10.81938017 7.67559919 12.125 14.3125 C11.375 17.5 11.375 17.5 9.6875 19.375 C7.12504527 20.6215996 5.22119742 21.2610389 2.375 21.5 C0.3125 20.1015625 0.3125 20.1015625 -1.625 18.125 C-4.49623689 15.21903041 -6.42701996 13.59240837 -10.625 13.5 C-12.63907025 14.94565805 -12.63907025 14.94565805 -14.375 17 C-17.93510086 20.39089454 -17.93510086 20.39089454 -21.0703125 20.88671875 C-23.51447183 20.6863134 -25.38792819 20.51642889 -27.625 19.5 C-29.52633761 17.05301225 -29.62913626 15.65635057 -29.546875 12.546875 C-28.40111283 8.76003394 -26.85986437 7.3109783 -23.875 4.75 C-23.01390625 3.99203125 -22.1528125 3.2340625 -21.265625 2.453125 C-14.71851117 -2.38941482 -7.4984376 -3.10280177 0 0 Z " fill="#282828" transform="translate(421.625,188.5)"/>
<path d="M0 0 C5.07372454 3.47279204 10.6424607 7.59649635 12.0625 13.75 C11.1283115 17.17535784 10.24732579 18.4919613 7.3125 20.5 C2.6628777 21.19249694 0.05215535 20.25553552 -3.6875 17.5 C-4.3475 16.7575 -5.0075 16.015 -5.6875 15.25 C-7.53570196 13.26973771 -7.53570196 13.26973771 -10 13.375 C-12.72715303 14.51659894 -13.9595369 15.6114246 -16.0625 17.625 C-18.9067757 20.20844692 -19.35985507 20.4890785 -23.4375 20.625 C-26.6875 19.5 -26.6875 19.5 -28.6875 17.8125 C-30.14347225 14.44556417 -29.91434739 12.97606761 -28.6875 9.5 C-21.32647345 -0.03211584 -11.74004164 -4.77561016 0 0 Z " fill="#2E2E2E" transform="translate(108.6875,188.5)"/>
<path d="M0 0 C4.73663614 2.65965879 8.81333683 6.08643034 12 10.5 C12.67222965 14.22781897 12.72745939 16.09054742 11 19.4375 C7.74338636 21.167576 4.53184581 21.26420056 1 20.5 C-1.9375 18.0625 -1.9375 18.0625 -4 15.5 C-5.02482596 14.29184385 -5.02482596 14.29184385 -7.125 14.0625 C-10.95587415 14.64545911 -12.50724659 16.53069926 -15.3046875 19.0859375 C-17.55409676 20.96217287 -19.06274243 21.57729625 -22 21.5 C-24.2831838 20.3584081 -26.19012683 19.30987317 -28 17.5 C-28.55663965 14.02100216 -28.76884022 11.56882122 -26.6484375 8.62109375 C-19.32875803 1.1563105 -10.55258157 -4.72472587 0 0 Z " fill="#272727" transform="translate(264,202.5)"/>
<path d="M0 0 C2.41210499 2.37692031 2.97044508 3.75038202 3.37231445 7.14453125 C3.3693335 8.35496094 3.36635254 9.56539062 3.36328125 10.8125 C3.36377975 11.46323486 3.36427826 12.11396973 3.36479187 12.78442383 C3.36245815 14.15611841 3.35277093 15.52781782 3.33618164 16.89941406 C3.31257632 18.99323005 3.31562686 21.08577208 3.32226562 23.1796875 C3.27431005 34.66698534 3.27431005 34.66698534 1 38 C-1.97679006 39.15508649 -4.83355452 39.30988345 -8 39 C-10.72895433 36.95328425 -11.66941422 35.39928981 -12.453125 32.08203125 C-12.7812364 29.71185814 -12.91678505 27.39152538 -13 25 C-13.03996094 24.05511719 -13.07992188 23.11023438 -13.12109375 22.13671875 C-13.27025563 15.37178884 -13.18609306 8.46766393 -11 2 C-7.50248535 -1.49751465 -4.61123318 -1.50366299 0 0 Z " fill="#262626" transform="translate(417,208)"/>
<path d="M0 0 C3.5 0.9375 3.5 0.9375 5.19165039 3.08007812 C7.69077446 8.53813897 6.9692398 14.53389701 6.9375 20.4375 C6.95748047 21.75621094 6.97746094 23.07492188 6.99804688 24.43359375 C6.99740234 25.70332031 6.99675781 26.97304687 6.99609375 28.28125 C6.99794678 29.43818359 6.9997998 30.59511719 7.00170898 31.78710938 C6.39637296 35.58820724 5.21924122 37.25557625 2.5 39.9375 C-1.29471923 40.74488707 -2.88152781 40.32381841 -6.1640625 38.2734375 C-10.42362077 33.78421678 -9.08562824 26.66512521 -8.9375 20.9375 C-8.92879883 19.03097656 -8.92879883 19.03097656 -8.91992188 17.0859375 C-8.77781532 6.28583942 -8.77781532 6.28583942 -6.5 1.9375 C-3.5 -0.0625 -3.5 -0.0625 0 0 Z " fill="#393939" transform="translate(100.5,207.0625)"/>
<path d="M0 0 C3.76135337 0.62689223 4.70655666 1.48429362 7 4.5 C7.50170898 7.84399414 7.50170898 7.84399414 7.49609375 11.78515625 C7.49754898 12.48265488 7.49900421 13.1801535 7.50050354 13.89878845 C7.49884789 15.36884756 7.48732377 16.8389246 7.46655273 18.30883789 C7.43754701 20.55885315 7.445958 22.80651803 7.45898438 25.05664062 C7.45274792 26.48699061 7.4443577 27.91733317 7.43359375 29.34765625 C7.42384521 30.64711182 7.41409668 31.94656738 7.40405273 33.28540039 C7 36.5 7 36.5 5.65258789 38.38452148 C3.02936448 40.15516822 1.15864381 40.5 -2 40.5 C-5.36846155 37.89446604 -6.83368402 36.38279363 -7.63110352 32.15014648 C-7.63037842 30.90305908 -7.62965332 29.65597168 -7.62890625 28.37109375 C-7.63131821 27.69957779 -7.63373016 27.02806183 -7.63621521 26.3361969 C-7.63523991 24.92337103 -7.62192141 23.51050544 -7.59692383 22.09790039 C-7.56253339 19.93959566 -7.57629332 17.78537257 -7.59570312 15.62695312 C-7.58880581 14.24998264 -7.57913443 12.87302268 -7.56640625 11.49609375 C-7.55552979 10.25013428 -7.54465332 9.0041748 -7.53344727 7.72045898 C-6.7353579 2.90233689 -4.82081513 0.80346919 0 0 Z " fill="#101010" transform="translate(256,221.5)"/>
<path d="M0 0 C59.08503781 -0.09152717 118.17007393 -0.16203242 177.25516772 -0.20426132 C184.22846155 -0.20925065 191.20175522 -0.21443686 198.17504883 -0.21972656 C198.86897385 -0.2202496 199.56289887 -0.22077263 200.27785192 -0.22131152 C222.76830681 -0.23835566 245.25872149 -0.26839996 267.74915202 -0.30518888 C291.51706099 -0.34399682 315.28493883 -0.3679852 339.05287939 -0.37635398 C353.29134718 -0.3818463 367.52969954 -0.39920224 381.7681318 -0.43166587 C391.52791424 -0.45278657 401.28763688 -0.45920557 411.04744052 -0.45400551 C416.68090097 -0.45143995 422.31415948 -0.45541201 427.94758415 -0.4768219 C433.10529118 -0.49628084 438.26266038 -0.49727407 443.42038292 -0.48359558 C445.285948 -0.4819049 447.15153413 -0.48698452 449.01705777 -0.49953273 C459.91036618 -0.56854284 469.36173735 -0.51153274 478 7 C477.67 7.66 477.34 8.32 477 9 C476.48050781 8.65066406 475.96101563 8.30132812 475.42578125 7.94140625 C474.37970703 7.25884766 474.37970703 7.25884766 473.3125 6.5625 C472.62800781 6.11003906 471.94351562 5.65757813 471.23828125 5.19140625 C453.81458302 -4.0829881 419.46087373 1.82483354 400.01550961 1.79939139 C394.6334602 1.79128816 389.25142431 1.7776256 383.86938477 1.76467896 C374.57168508 1.74305493 365.27398394 1.72486001 355.97627258 1.70907402 C342.53376766 1.68624577 329.09127781 1.65812185 315.64878577 1.62875474 C293.83292116 1.58123637 272.01705035 1.53793014 250.20117188 1.49731445 C229.02408364 1.45787892 207.84700089 1.41643374 186.66992188 1.37231445 C185.36194918 1.36959018 184.05397649 1.36686591 182.70636827 1.36405908 C176.14387207 1.35037828 169.58137596 1.33665827 163.01887989 1.32291877 C108.67926475 1.20920187 54.33963768 1.10233842 0 1 C0 0.67 0 0.34 0 0 Z " fill="#8E8E8E" transform="translate(24,3)"/>
<path d="M0 0 C0.33614182 2.18927995 0.66553434 4.37959669 0.9921875 6.5703125 C1.1763623 7.78992676 1.36053711 9.00954102 1.55029297 10.26611328 C2.18377009 15.52583045 2.17431127 20.71255818 2 26 C1.67 26 1.34 26 1 26 C0.66274935 22.95872183 0.33007668 19.91705809 0 16.875 C-0.09539062 16.0190625 -0.19078125 15.163125 -0.2890625 14.28125 C-0.76845209 9.82977526 -1.11765458 5.48558075 -1 1 C-1.66 1.33 -2.32 1.66 -3 2 C-5.67210407 2.14587075 -8.32185014 2.2347587 -10.99609375 2.28125 C-11.80737228 2.29934219 -12.61865082 2.31743439 -13.45451355 2.33607483 C-16.1154376 2.39484337 -18.77644814 2.44736726 -21.4375 2.5 C-25.1315726 2.57932959 -28.8255595 2.6622102 -32.51953125 2.74609375 C-33.43402039 2.76655258 -34.34850952 2.78701141 -35.29071045 2.80809021 C-42.40660962 2.97261155 -49.5142193 3.24772914 -56.625 3.5625 C-73.7384525 4.29029786 -90.87512404 4.08881488 -108 4 C-108.0501123 4.64437012 -108.10022461 5.28874023 -108.15185547 5.95263672 C-108.38673785 8.92728091 -108.63081991 11.90110515 -108.875 14.875 C-108.95363281 15.88820313 -109.03226562 16.90140625 -109.11328125 17.9453125 C-110.55212602 35.2114498 -110.55212602 35.2114498 -114.125 39.625 C-115.053125 40.305625 -115.053125 40.305625 -116 41 C-115.68933594 40.2884375 -115.37867188 39.576875 -115.05859375 38.84375 C-114.00131004 36.00351922 -113.48532328 33.49600493 -113.0625 30.5 C-112.82080078 28.82357422 -112.82080078 28.82357422 -112.57421875 27.11328125 C-112.48575684 26.4785791 -112.39729492 25.84387695 -112.30615234 25.18994141 C-111.94674964 22.6190943 -111.57708215 20.04980443 -111.20703125 17.48046875 C-110.46508115 12.32119579 -109.73047613 7.16090899 -109 2 C-95.52866481 0.9850108 -82.06664168 0.67810804 -68.5625 0.4375 C-67.43734985 0.41632111 -66.31219971 0.39514221 -65.1529541 0.37332153 C-43.4342491 -0.03229649 -21.7216947 -0.11730726 0 0 Z " fill="#838383" transform="translate(389,99)"/>
<path d="M0 0 C0.66 0 1.32 0 2 0 C2 21.45 2 42.9 2 65 C-4.76196809 67.25398936 -4.76196809 67.25398936 -8.546875 67.265625 C-9.3829126 67.26989502 -10.2189502 67.27416504 -11.08032227 67.27856445 C-11.96131592 67.26913818 -12.84230957 67.25971191 -13.75 67.25 C-14.67159912 67.24250732 -15.59319824 67.23501465 -16.54272461 67.22729492 C-47.61488511 66.74983619 -47.61488511 66.74983619 -56.81640625 58.33984375 C-57.20699219 57.89769531 -57.59757812 57.45554687 -58 57 C-57.47792969 57.18175781 -56.95585938 57.36351562 -56.41796875 57.55078125 C-37.83580585 63.89670378 -18.60565249 67.20092286 1 64 C0.83701416 62.94876953 0.67402832 61.89753906 0.50610352 60.81445312 C-0.23153686 54.87689938 -0.12370673 48.94292574 -0.09765625 42.96875 C-0.0962413 41.73709106 -0.09482635 40.50543213 -0.09336853 39.2364502 C-0.08779612 35.32427484 -0.07524867 31.41215789 -0.0625 27.5 C-0.05691482 24.8385425 -0.05291916 22.17708556 -0.04882812 19.515625 C-0.03783572 13.01039693 -0.02112514 6.50520264 0 0 Z " fill="#B2B2B2" transform="translate(159,413)"/>
<path d="M0 0 C5.56843749 -0.02481649 11.13684241 -0.04291507 16.70532227 -0.05493164 C18.59758058 -0.05994403 20.48983505 -0.06675567 22.38208008 -0.07543945 C25.11019848 -0.08764098 27.83826543 -0.09325938 30.56640625 -0.09765625 C31.40522842 -0.10281754 32.2440506 -0.10797882 33.10829163 -0.11329651 C37.84842374 -0.11374387 42.30167285 0.30775348 47 1 C50.07008827 1.18662426 53.14001538 1.25350381 56.21484375 1.31640625 C57.07058487 1.33718735 57.92632599 1.35796844 58.80799866 1.37937927 C61.51775776 1.44429954 64.2276064 1.50348978 66.9375 1.5625 C68.78451414 1.60574005 70.63151952 1.64935601 72.47851562 1.69335938 C76.98558741 1.79992119 81.49274844 1.90134737 86 2 C86 2.33 86 2.66 86 3 C75.73220918 4.71129847 65.2180397 4.28868494 54.875 3.5 C45.58771166 2.8359635 36.30304252 2.94659142 26.99755859 3.03710938 C5.36883399 3.184417 5.36883399 3.184417 1 1 C0.93941406 2.12277344 0.87882812 3.24554688 0.81640625 4.40234375 C0.39705018 11.96340965 -0.04339834 19.4838441 -1 27 C-1.33 27 -1.66 27 -2 27 C-2.20336221 20.59409026 -1.7799249 14.46705514 -0.9921875 8.12109375 C-0.89736084 7.33762573 -0.80253418 6.55415771 -0.70483398 5.74694824 C-0.47255045 3.83097433 -0.23664536 1.91544007 0 0 Z " fill="#838383" transform="translate(123,99)"/>
<path d="M0 0 C1.6015625 1.16796875 1.6015625 1.16796875 3.6015625 4.16796875 C2.9209375 3.87921875 2.2403125 3.59046875 1.5390625 3.29296875 C0.5696875 2.92171875 -0.3996875 2.55046875 -1.3984375 2.16796875 C-2.3678125 1.79671875 -3.3371875 1.42546875 -4.3359375 1.04296875 C-12.6467669 -1.25344464 -22.3002623 -0.57717539 -30.3984375 2.16796875 C-31.13578125 2.41289062 -31.873125 2.6578125 -32.6328125 2.91015625 C-38.94620832 5.30416205 -42.27279995 8.95935134 -46.3984375 14.16796875 C-48.00012269 15.98292181 -49.5822639 17.55359222 -51.3984375 19.16796875 C-52.3884375 19.16796875 -53.3784375 19.16796875 -54.3984375 19.16796875 C-55.82788695 16.81358142 -56.48505011 15.68764442 -56.0234375 12.91796875 C-55.8171875 12.34046875 -55.6109375 11.76296875 -55.3984375 11.16796875 C-54.4084375 12.48796875 -53.4184375 13.80796875 -52.3984375 15.16796875 C-51.93695313 14.66007812 -51.47546875 14.1521875 -51 13.62890625 C-38.29090724 0.21654353 -17.87123295 -9.00461738 0 0 Z " fill="#919191" transform="translate(476.3984375,374.83203125)"/>
<path d="M0 0 C1 3 1 3 0.07250977 5.55102539 C-1.36264417 10.16619036 -1.22954399 14.38202984 -1.16015625 19.18359375 C-1.15495468 20.15732437 -1.14975311 21.13105499 -1.14439392 22.1342926 C-1.12664478 25.23551645 -1.09549807 28.33640389 -1.0625 31.4375 C-1.03478572 34.53499283 -1.0100634 37.63243526 -0.99131775 40.72999573 C-0.9791657 42.65332842 -0.96166782 44.57663717 -0.93800354 46.49986267 C-0.93147263 47.38090164 -0.92494171 48.26194061 -0.91821289 49.16967773 C-0.90995987 49.93545639 -0.90170685 50.70123505 -0.89320374 51.49021912 C-1.02887826 54.67865764 -1.54867865 57.84075058 -2 61 C6.58 60.67 15.16 60.34 24 60 C20.03379202 61.98310399 18.60857712 62.24051678 14.359375 62.1953125 C13.28945313 62.18886719 12.21953125 62.18242187 11.1171875 62.17578125 C10.00601562 62.15902344 8.89484375 62.14226562 7.75 62.125 C6.62335938 62.11597656 5.49671875 62.10695313 4.3359375 62.09765625 C1.55707635 62.07410658 -1.2213539 62.0412168 -4 62 C-3.88229917 54.25859712 -3.75746962 46.51733272 -3.62768555 38.77612305 C-3.58437617 36.14268601 -3.54269825 33.50922161 -3.50268555 30.87573242 C-3.44488645 27.09024817 -3.38121933 23.30490111 -3.31640625 19.51953125 C-3.29969376 18.34227982 -3.28298126 17.16502838 -3.26576233 15.95210266 C-3.24581711 14.85133896 -3.22587189 13.75057526 -3.20532227 12.61645508 C-3.18977798 11.65048904 -3.1742337 10.68452301 -3.15821838 9.68928528 C-3.00239026 7.04062799 -2.58591456 4.58456095 -2 2 C-1.34 2 -0.68 2 0 2 C0 1.34 0 0.68 0 0 Z " fill="#828282" transform="translate(430,405)"/>
<path d="M0 0 C1.17881294 3.53643881 0.72786381 4.5568191 -0.3125 8.0625 C-3.7995979 21.56300746 -4.19359837 35.05880318 -4.25 48.9375 C-4.26389771 50.91036987 -4.26389771 50.91036987 -4.27807617 52.9230957 C-4.42402931 65.28238327 -4.42402931 65.28238327 -1 77 C-2.32 76.67 -3.64 76.34 -5 76 C-7.49642653 67.25749425 -7.43591639 58.5156943 -7.4375 49.5 C-7.43989685 48.6850708 -7.4422937 47.8701416 -7.44476318 47.03051758 C-7.44515499 31.04954021 -6.21070082 14.92151382 0 0 Z " fill="#888888" transform="translate(102,393)"/>
<path d="M0 0 C0.66 0 1.32 0 2 0 C2 0.66 2 1.32 2 2 C2.66 2 3.32 2 4 2 C7.09849236 8.84250396 8.27683789 15.67358613 6.4934082 23.11328125 C5.82461332 27.02611187 5.87695481 30.8389422 5.90234375 34.80078125 C5.90446617 36.0553437 5.90446617 36.0553437 5.90663147 37.33525085 C5.91220816 39.994371 5.92475635 42.6534055 5.9375 45.3125 C5.94251801 47.12044149 5.94708039 48.9283843 5.95117188 50.73632812 C5.96216996 55.15758484 5.9794185 59.57877793 6 64 C-2.92126677 66.37892537 -12.12138919 64.957489 -21 63 C-21 62.67 -21 62.34 -21 62 C-12.75 62 -4.5 62 4 62 C3.814375 59.36 3.62875 56.72 3.4375 54 C3.02110448 47.27835279 2.99301906 40.62562602 3.296875 33.8984375 C3.32705215 33.19704651 3.35722931 32.49565552 3.38832092 31.77301025 C3.54339965 28.26150419 3.72570974 24.75415752 3.94506836 21.24609375 C4.33316141 13.20144393 3.85121098 7.15907118 0 0 Z " fill="#A7A7A7" transform="translate(79,403)"/>
<path d="M0 0 C0.66 0 1.32 0 2 0 C1.86722656 0.65484375 1.73445313 1.3096875 1.59765625 1.984375 C-1.3736255 17.33961208 -1.39714556 32.33062647 -0.1875 47.875 C-0.11748779 48.86218018 -0.04747559 49.84936035 0.0246582 50.86645508 C0.50265015 56.47988189 1.14018973 61.09282555 4 66 C6.14089888 67.59396588 6.14089888 67.59396588 8.6875 68.3125 C9.56535156 68.61285156 10.44320312 68.91320312 11.34765625 69.22265625 C14.8841679 70.25913021 18.40170194 71.20037821 22 72 C22 72.33 22 72.66 22 73 C6.83057359 71.77665916 6.83057359 71.77665916 0.78515625 67.39453125 C-1.66575266 64.10698823 -1.93073545 60.96967595 -2.25 57 C-2.32371826 56.18474854 -2.39743652 55.36949707 -2.47338867 54.52954102 C-3.92347598 36.24429377 -3.99028266 17.95627198 0 0 Z " fill="#A5A5A5" transform="translate(36,392)"/>
<path d="M0 0 C0.99 0.495 0.99 0.495 2 1 C-11.83103999 8.56792754 -25.5218671 9.20072507 -41 9 C-41 9.66 -41 10.32 -41 11 C-53.21 11 -65.42 11 -78 11 C-78 10.67 -78 10.34 -78 10 C-76.75202637 9.92483154 -75.50405273 9.84966309 -74.21826172 9.7722168 C-69.47244636 9.48413004 -64.72737136 9.18504199 -59.98242188 8.88305664 C-57.95037457 8.7551756 -55.9181508 8.63006091 -53.88574219 8.50805664 C-42.85439722 7.84388002 -31.88759848 6.99399239 -20.9296875 5.53515625 C-19.57917801 5.3587989 -19.57917801 5.3587989 -18.2013855 5.17887878 C-12.37732008 4.35770652 -7.22130342 3.07270927 -1.828125 0.671875 C-1.22484375 0.45015625 -0.6215625 0.2284375 0 0 Z " fill="#A6A6A6" transform="translate(483,75)"/>
<path d="M0 0 C2.16430664 1.56420898 2.16430664 1.56420898 4 4 C4.50170898 7.34399414 4.50170898 7.34399414 4.49609375 11.28515625 C4.49754898 11.98265488 4.49900421 12.6801535 4.50050354 13.39878845 C4.49884789 14.86884756 4.48732377 16.3389246 4.46655273 17.80883789 C4.43754701 20.05885315 4.445958 22.30651803 4.45898438 24.55664062 C4.45274792 25.98699061 4.4443577 27.41733317 4.43359375 28.84765625 C4.42384521 30.14711182 4.41409668 31.44656738 4.40405273 32.78540039 C4 36 4 36 2.65649414 37.89233398 C0.11468928 39.59199038 -1.96815977 39.87625142 -5 40 C-7.375 38.5625 -7.375 38.5625 -9 37 C-8.67 36.34 -8.34 35.68 -8 35 C-7.34 35.33 -6.68 35.66 -6 36 C-3.69 36 -1.38 36 1 36 C1 25.11 1 14.22 1 3 C-2.3 3.33 -5.6 3.66 -9 4 C-8.67 3.01 -8.34 2.02 -8 1 C-5.15916359 -0.42041821 -3.14522722 -0.31452272 0 0 Z " fill="#BBBBBB" transform="translate(259,222)"/>
<path d="M0 0 C2.17677053 2.17677053 2.40476159 2.97086974 3.03515625 5.87890625 C3.20466797 6.63494141 3.37417969 7.39097656 3.54882812 8.16992188 C3.71833984 8.95947266 3.88785156 9.74902344 4.0625 10.5625 C4.76884587 15.68965219 4.76884587 15.68965219 7 20 C7.10910729 21.63567292 7.1490618 23.27601977 7.16113281 24.9152832 C7.17074036 25.96339676 7.1803479 27.01151031 7.19024658 28.09138489 C7.19449646 29.23298569 7.19874634 30.37458649 7.203125 31.55078125 C7.20882507 32.71626999 7.21452515 33.88175873 7.22039795 35.08256531 C7.22986591 37.55495287 7.23638902 40.02735316 7.24023438 42.49975586 C7.24993179 46.2858686 7.28093574 50.07143689 7.3125 53.85742188 C7.31903044 56.2552051 7.32428075 58.65299222 7.328125 61.05078125 C7.3466452 62.75407341 7.3466452 62.75407341 7.36553955 64.49177551 C7.36253845 65.54934555 7.35953735 66.60691559 7.35644531 67.6965332 C7.36009094 68.62617386 7.36373657 69.55581451 7.36749268 70.5136261 C6.9359341 73.43345565 5.9349062 74.81524867 4 77 C3.34 76.67 2.68 76.34 2 76 C2.309375 75.484375 2.61875 74.96875 2.9375 74.4375 C6.25357993 66.83002252 5.24020836 57.54794488 5.25 49.375 C5.25167175 48.64233917 5.25334351 47.90967834 5.25506592 47.15481567 C5.25694224 33.41545732 4.33954575 19.98368349 0.8984375 6.62890625 C0 3 0 3 0 0 Z " fill="#B3B3B3" transform="translate(409,393)"/>
<path d="M0 0 C0.90720795 0.00141495 1.81441589 0.0028299 2.74911499 0.00428772 C5.65308905 0.00989529 8.55698665 0.02244907 11.4609375 0.03515625 C13.42708222 0.04017027 15.39322815 0.04473335 17.359375 0.04882812 C22.1849254 0.05986719 27.01041847 0.0771369 31.8359375 0.09765625 C32.17207932 2.2869362 32.50147184 4.47725294 32.828125 6.66796875 C33.0122998 7.88758301 33.19647461 9.10719727 33.38623047 10.36376953 C34.01970759 15.6234867 34.01024877 20.81021443 33.8359375 26.09765625 C33.5059375 26.09765625 33.1759375 26.09765625 32.8359375 26.09765625 C32.49868685 23.05637808 32.16601418 20.01471434 31.8359375 16.97265625 C31.74054688 16.11671875 31.64515625 15.26078125 31.546875 14.37890625 C31.06748541 9.92743151 30.71828292 5.583237 30.8359375 1.09765625 C30.1759375 1.42765625 29.5159375 1.75765625 28.8359375 2.09765625 C26.01740198 2.2790453 23.22024194 2.40474924 20.3984375 2.484375 C19.56256104 2.50989944 18.72668457 2.53542389 17.86547852 2.5617218 C16.09691531 2.61375475 14.32827373 2.66317875 12.55957031 2.71020508 C9.84655707 2.78486401 7.13437203 2.87547778 4.421875 2.96679688 C2.70575663 3.01530449 0.9896111 3.06286256 -0.7265625 3.109375 C-1.54116943 3.1384343 -2.35577637 3.16749359 -3.19506836 3.19743347 C-5.184509 3.24213 -7.17579238 3.17922698 -9.1640625 3.09765625 C-9.8240625 2.43765625 -10.4840625 1.77765625 -11.1640625 1.09765625 C-7.72801485 -0.62036757 -3.77967354 -0.02200555 0 0 Z " fill="#757575" transform="translate(357.1640625,98.90234375)"/>
<path d="M0 0 C27.18626927 -0.73316357 53.5365242 1.17539993 80 8 C80 8.33 80 8.66 80 9 C74.92754364 9.28592134 70.42499083 9.37680846 65.625 7.5625 C61.12197592 5.86891977 56.89971766 5.54437728 52.12109375 5.24609375 C48.02242116 4.92291932 44.02735317 4.23093391 39.984375 3.5 C31.31891597 2.04819535 22.77758403 1.6997099 14 1.4375 C12.63931211 1.39421865 11.27863485 1.35060161 9.91796875 1.30664062 C6.61206843 1.20113317 3.30610001 1.09901744 0 1 C0 0.67 0 0.34 0 0 Z " fill="#ABABAB" transform="translate(69,279)"/>
<path d="M0 0 C7.27632502 -0.09311365 14.55251936 -0.16397273 21.82932186 -0.20724869 C25.2091028 -0.22803026 28.58847297 -0.25617154 31.96801758 -0.30175781 C35.8629015 -0.35050659 39.75720944 -0.37302285 43.65234375 -0.390625 C44.8526976 -0.41127014 46.05305145 -0.43191528 47.28977966 -0.45318604 C56.09294491 -0.45551803 63.21338307 1.09859397 70 7 C69.67 7.66 69.34 8.32 69 9 C68.48050781 8.65066406 67.96101563 8.30132812 67.42578125 7.94140625 C66.72839844 7.48636719 66.03101563 7.03132812 65.3125 6.5625 C64.28576172 5.88380859 64.28576172 5.88380859 63.23828125 5.19140625 C59.13904883 3.00944135 54.86814277 2.85783779 50.29174805 2.70288086 C49.17096359 2.66291489 48.05017914 2.62294891 46.89543152 2.58177185 C45.0967437 2.52389244 45.0967437 2.52389244 43.26171875 2.46484375 C41.40786308 2.40037804 41.40786308 2.40037804 39.51655579 2.33460999 C36.24352905 2.2215294 32.97040897 2.1120029 29.69720459 2.00421143 C26.35206909 1.89317085 23.00710216 1.77736924 19.66210938 1.66210938 C13.10821388 1.43709282 6.55417338 1.21676288 0 1 C0 0.67 0 0.34 0 0 Z " fill="#808080" transform="translate(432,3)"/>
<path d="M0 0 C0.66 0 1.32 0 2 0 C5.82651385 19.03007333 6.97184376 43.72054554 -3 61 C-5.35953094 58.64046906 -5.49141413 57.22104383 -6 54 C-5.01 54.66 -4.02 55.32 -3 56 C0.5494893 45.19307276 1.38039406 34.85805219 1.3125 23.5 C1.30541016 22.21270996 1.29832031 20.92541992 1.29101562 19.59912109 C1.19833058 12.99874447 0.87480192 6.54323385 0 0 Z " fill="#AEAEAE" transform="translate(491,331)"/>
<path d="M0 0 C2.02999279 3.04498919 2.70188742 5.16845066 3.5625 8.6875 C3.81128906 9.68136719 4.06007813 10.67523438 4.31640625 11.69921875 C7.76114357 28.33237897 6.67114819 45.5235373 3 62 C2.67 62 2.34 62 2 62 C2.06928711 61.39808838 2.13857422 60.79617676 2.20996094 60.17602539 C3.02580478 52.32461718 3.21894865 44.50583473 3.24023438 36.62036133 C3.25000097 34.43728367 3.2811659 32.25512642 3.3125 30.07226562 C3.36390676 23.07597913 3.17141631 16.70149594 0.66577148 10.0612793 C-0.429734 6.66951075 -0.19626163 3.53270936 0 0 Z " fill="#929292" transform="translate(502,322)"/>
<path d="M0 0 C2 1 2 1 3.0625 3.875 C7.20444842 19.8251347 5.76069586 38.63720082 4.1875 54.875 C4.11748779 55.65875 4.04747559 56.4425 3.9753418 57.25 C3.62865039 60.33600288 3.37086181 62.52699015 1.42578125 65.0078125 C0.95527344 65.33523438 0.48476563 65.66265625 0 66 C-0.66 65.67 -1.32 65.34 -2 65 C-1.53078125 64.07058594 -1.0615625 63.14117187 -0.578125 62.18359375 C1.51144504 57.27556247 1.85747075 52.33936157 2.25 47.0625 C2.3315332 46.0214209 2.41306641 44.9803418 2.49707031 43.90771484 C3.0157056 36.29154428 3.0543893 28.75091056 2.75 21.125 C2.71165039 20.15828369 2.67330078 19.19156738 2.63378906 18.19555664 C2.30389191 11.98518875 1.38705716 6.06055024 0 0 Z " fill="#ABABAB" transform="translate(474,393)"/>
<path d="M0 0 C0.28875 0.639375 0.5775 1.27875 0.875 1.9375 C1.82823451 4.15206079 1.82823451 4.15206079 4 5 C4.33333333 6.66666667 4.66666667 8.33333333 5 10 C5.66 10.33 6.32 10.66 7 11 C8.07255838 14.21767514 8.18773204 16.70919576 8.28125 20.09375 C8.31863281 21.28871094 8.35601562 22.48367188 8.39453125 23.71484375 C8.46484375 26.23828125 8.53515625 28.76171875 8.60546875 31.28515625 C8.64285156 32.48011719 8.68023437 33.67507813 8.71875 34.90625 C8.74904297 36.00259766 8.77933594 37.09894531 8.81054688 38.22851562 C8.88953301 41.08658638 8.88953301 41.08658638 10 44 C10.06937062 46.22818441 10.08457084 48.45834524 10.0625 50.6875 C10.05347656 51.86699219 10.04445313 53.04648437 10.03515625 54.26171875 C10.02355469 55.16535156 10.01195312 56.06898438 10 57 C7.66884585 53.28466685 7.4912327 49.4631914 7.18359375 45.19921875 C7.12220718 44.44461868 7.06082062 43.69001862 6.99757385 42.91255188 C6.80307993 40.50474722 6.61982444 38.09625398 6.4375 35.6875 C6.24948735 33.28967502 6.05910684 30.89206058 5.86671448 28.49458313 C5.74792188 27.00555292 5.63197598 25.51629182 5.51939392 24.02677917 C5.00398361 15.04829072 5.00398361 15.04829072 1.9375 6.75 C0.43616043 4.07857728 0 3.16928058 0 0 Z " fill="#949494" transform="translate(14,401)"/>
<path d="M0 0 C0.62003906 0.29648437 1.24007812 0.59296875 1.87890625 0.8984375 C21.85308074 7.94814615 46.15215597 5.3194005 67 5 C64.33616167 7.66383833 62.35092155 7.23823547 58.72894287 7.25224304 C57.86448547 7.24505753 57.00002808 7.23787201 56.109375 7.23046875 C55.21317444 7.23001053 54.31697388 7.22955231 53.39361572 7.2290802 C51.48700648 7.22605262 49.58039983 7.21815134 47.67382812 7.20581055 C44.80329253 7.18783375 41.93308537 7.18529907 39.0625 7.18554688 C9.02121262 7.131113 9.02121262 7.131113 0 2 C0 1.34 0 0.68 0 0 Z " fill="#C2C2C2" transform="translate(177,482)"/>
<path d="M0 0 C1.06347656 -0.01417969 2.12695312 -0.02835937 3.22265625 -0.04296875 C5.9375 0.1875 5.9375 0.1875 7.9375 2.1875 C0.0175 2.6825 0.0175 2.6825 -8.0625 3.1875 C-8.02125 4.445625 -7.98 5.70375 -7.9375 7 C-7.9375 12.41086071 -8.40208312 17.74593993 -8.9375 23.125 C-9.01597168 23.96587158 -9.09444336 24.80674316 -9.17529297 25.6730957 C-9.30121826 26.86938599 -9.30121826 26.86938599 -9.4296875 28.08984375 C-9.50300293 28.80648193 -9.57631836 29.52312012 -9.65185547 30.26147461 C-10.0625 32.1875 -10.0625 32.1875 -12.0625 35.1875 C-12.24717288 23.61466649 -11.63904351 12.49427347 -9.0625 1.1875 C-5.83852808 0.11284269 -3.38779214 0.02058197 0 0 Z " fill="#7F7F7F" transform="translate(445.0625,94.8125)"/>
<path d="M0 0 C3.97915159 -0.02886984 7.95827653 -0.04675406 11.9375 -0.0625 C13.07380859 -0.07087891 14.21011719 -0.07925781 15.38085938 -0.08789062 C16.46044922 -0.09111328 17.54003906 -0.09433594 18.65234375 -0.09765625 C20.15269165 -0.10551147 20.15269165 -0.10551147 21.68334961 -0.11352539 C24 0 24 0 25 1 C25.23968924 4.83502781 25.3947653 8.6637589 25.51757812 12.50390625 C25.72571938 17.52285958 26.33018418 22.16294256 27.57006836 27.03491211 C28.15517366 29.70925199 28.13968666 32.27611016 28 35 C21.7015343 28.7015343 22.67888417 12.61047779 22 4 C22 3.01 22 2.02 22 1 C14.74 1 7.48 1 0 1 C0 0.67 0 0.34 0 0 Z " fill="#B2B2B2" transform="translate(209,102)"/>
<path d="M0 0 C2.64590014 -0.02684679 5.29153096 -0.04676357 7.9375 -0.0625 C8.69224609 -0.07087891 9.44699219 -0.07925781 10.22460938 -0.08789062 C12.14994313 -0.09652441 14.07535581 -0.05224333 16 0 C16.33 0.33 16.66 0.66 17 1 C19.16296273 1.20931897 21.3309471 1.36797069 23.5 1.5 C29.88888889 1.88888889 29.88888889 1.88888889 31 3 C31.04092937 5.33297433 31.04241723 7.66705225 31 10 C31.66 10 32.32 10 33 10 C33 17.26 33 24.52 33 32 C32.67 32 32.34 32 32 32 C30.53948097 22.57182803 29.70967173 13.56470344 30 4 C29.34515625 4.02320312 28.6903125 4.04640625 28.015625 4.0703125 C20.78570885 4.21327694 14.09279485 3.31982404 7 2 C4.66922347 1.64172185 2.33658127 1.31862472 0 1 C0 0.67 0 0.34 0 0 Z " fill="#858585" transform="translate(45,94)"/>
<path d="M0 0 C-2.49092811 1.24546405 -3.41080733 0.7767578 -6 0 C-6 -0.66 -6 -1.32 -6 -2 C-6.92683594 -2.20496094 -7.85367188 -2.40992188 -8.80859375 -2.62109375 C-10.00613281 -2.89050781 -11.20367187 -3.15992188 -12.4375 -3.4375 C-14.22994141 -3.83775391 -14.22994141 -3.83775391 -16.05859375 -4.24609375 C-19 -5 -19 -5 -20 -6 C-23.34640139 -6.25393557 -26.70762101 -6.18524082 -30.0625 -6.1875 C-30.99255859 -6.19974609 -31.92261719 -6.21199219 -32.88085938 -6.22460938 C-38.61009661 -6.23668788 -43.50623764 -5.63712824 -49 -4 C-48 -6 -48 -6 -44.375 -7.625 C-29.13739385 -12.36558858 -13.1334722 -8.13275132 0 0 Z " fill="#9A9A9A" transform="translate(150,381)"/>
<path d="M0 0 C0.33 0.66 0.66 1.32 1 2 C0.67 2.66 0.34 3.32 0 4 C-0.2367387 8.439568 -0.22848641 12.88323141 -0.24023438 17.32836914 C-0.24985731 19.52985628 -0.28083781 21.73037601 -0.3125 23.93164062 C-0.36818034 31.520029 0.11135038 37.87719818 3 45 C3 45.99 3 46.98 3 48 C-1.59005642 44.0219511 -2.83280008 40.27599969 -3.2746582 34.26123047 C-3.29438714 32.87999626 -3.30257932 31.49856143 -3.30078125 30.1171875 C-3.30506638 29.38049835 -3.3093515 28.6438092 -3.31376648 27.88479614 C-3.31947996 26.33678206 -3.32003217 24.78874115 -3.31567383 23.24072266 C-3.31249982 20.87486276 -3.33605662 18.51023817 -3.36132812 16.14453125 C-3.36360007 14.63541824 -3.3643051 13.12630188 -3.36328125 11.6171875 C-3.372491 10.91294647 -3.38170074 10.20870544 -3.39118958 9.48312378 C-3.35242255 5.36893007 -2.89993977 2.99147645 0 0 Z " fill="#9E9E9E" transform="translate(18,22)"/>
<path d="M0 0 C14.19 0 28.38 0 43 0 C33.2485909 4.87570455 23.86943757 3.98224236 13.3125 2.625 C12.02666016 2.47289062 10.74082031 2.32078125 9.41601562 2.1640625 C6.27530081 1.79044587 3.13716314 1.40217581 0 1 C0 0.67 0 0.34 0 0 Z " fill="#606060" transform="translate(121,490)"/>
<path d="M0 0 C0.66 0.66 1.32 1.32 2 2 C0.35369672 1.85957123 -1.29204179 1.71250671 -2.9375 1.5625 C-4.31228516 1.44068359 -4.31228516 1.44068359 -5.71484375 1.31640625 C-8 1 -8 1 -9 0 C-12.55448735 -0.28105447 -16.12323265 -0.23187277 -19.6875 -0.25 C-20.68201172 -0.270625 -21.67652344 -0.29125 -22.70117188 -0.3125 C-28.40081124 -0.3428374 -31.93833678 0.16982272 -37 3 C-39.375 2.6875 -39.375 2.6875 -41 2 C-39.58521865 1.35004703 -38.16808513 0.70521278 -36.75 0.0625 C-35.96109375 -0.29714844 -35.1721875 -0.65679687 -34.359375 -1.02734375 C-23.72519181 -5.41130337 -10.70249216 -3.29540013 0 0 Z " fill="#929292" transform="translate(222,375)"/>
<path d="M0 0 C0.66 0.33 1.32 0.66 2 1 C1.67 1.33 1.34 1.66 1 2 C0.91152257 4.52094076 0.88472699 7.01430893 0.90234375 9.53515625 C0.9037587 10.28840683 0.90517365 11.04165741 0.90663147 11.81773376 C0.91224624 14.2326956 0.92480117 16.64756601 0.9375 19.0625 C0.9425131 20.69596221 0.94707634 22.32942586 0.95117188 23.96289062 C0.96222046 27.97529585 0.97949494 31.98763241 1 36 C-2.23641724 33.21477229 -2.54523869 30.89115065 -2.875 26.65234375 C-3.28787658 17.89161877 -3.19840018 9.55289997 -1 1 C-0.67 0.67 -0.34 0.34 0 0 Z " fill="#BEBEBE" transform="translate(407,209)"/>
<path d="M0 0 C12.87 0 25.74 0 39 0 C33.51530055 2.74234973 28.36884252 2.79468624 22.3125 3.25 C20.59256836 3.4046875 20.59256836 3.4046875 18.83789062 3.5625 C12.07393522 4.08905863 6.53240936 3.86441503 0 2 C0 1.34 0 0.68 0 0 Z " fill="#686868" transform="translate(421,477)"/>
<path d="M0 0 C0 0.33 0 0.66 0 1 C-1.37671875 1.02126953 -1.37671875 1.02126953 -2.78125 1.04296875 C-14.95482979 1.51610158 -20.20388118 4.66195163 -28.3359375 13.42578125 C-30 15 -30 15 -32 15 C-30.3808825 8.32114033 -24.44613075 4.54755211 -18.9375 1.0625 C-13.17752948 -1.15495344 -6.08595197 -0.21148096 0 0 Z " fill="#7E7E7E" transform="translate(58,372)"/>
<path d="M0 0 C0 0.66 0 1.32 0 2 C-11.49901479 4.49108251 -21.50098521 4.49108251 -33 2 C-33 1.67 -33 1.34 -33 1 C-28.43755286 0.83186513 -23.87503444 0.66574745 -19.3125 0.5 C-18.01892578 0.45230469 -16.72535156 0.40460938 -15.39257812 0.35546875 C-13.52182617 0.28779297 -13.52182617 0.28779297 -11.61328125 0.21875 C-9.89298706 0.1559082 -9.89298706 0.1559082 -8.13793945 0.09179688 C-5.42259389 0.01236251 -2.71620292 -0.01779658 0 0 Z " fill="#636363" transform="translate(91,477)"/>
<path d="M0 0 C0.66 0.33 1.32 0.66 2 1 C0.60919892 2.58775549 -0.78788404 4.17000939 -2.1875 5.75 C-2.96480469 6.63171875 -3.74210937 7.5134375 -4.54296875 8.421875 C-6.89603596 10.89091214 -9.23240233 13.00919025 -12 15 C-12.66 15 -13.32 15 -14 15 C-14 14.34 -14 13.68 -14 13 C-14.66 13 -15.32 13 -16 13 C-15.67 11.68 -15.34 10.36 -15 9 C-14.01 9.99 -13.02 10.98 -12 12 C-11.55269531 11.46890625 -11.10539062 10.9378125 -10.64453125 10.390625 C-7.33285362 6.52111681 -4.14442456 3.01412695 0 0 Z " fill="#767676" transform="translate(360,382)"/>
<path d="M0 0 C0.85851562 0.36931641 0.85851562 0.36931641 1.734375 0.74609375 C-0.02754785 2.58878386 -1.79914306 4.42000132 -3.578125 6.24609375 C-4.32739258 7.03306641 -4.32739258 7.03306641 -5.09179688 7.8359375 C-6.42652004 9.19717835 -7.8425634 10.47748891 -9.265625 11.74609375 C-10.255625 11.74609375 -11.245625 11.74609375 -12.265625 11.74609375 C-13.69507445 9.39170642 -14.35223761 8.26576942 -13.890625 5.49609375 C-13.684375 4.91859375 -13.478125 4.34109375 -13.265625 3.74609375 C-12.275625 5.06609375 -11.285625 6.38609375 -10.265625 7.74609375 C-9.46898437 6.86244141 -9.46898437 6.86244141 -8.65625 5.9609375 C-7.94984375 5.20941406 -7.2434375 4.45789063 -6.515625 3.68359375 C-5.81953125 2.92949219 -5.1234375 2.17539062 -4.40625 1.3984375 C-2.265625 -0.25390625 -2.265625 -0.25390625 0 0 Z " fill="#797979" transform="translate(434.265625,382.25390625)"/>
<path d="M0 0 C0.99 0.66 1.98 1.32 3 2 C3.26711404 4.55395487 3.34849029 6.86274374 3.29296875 9.4140625 C3.28872391 10.14370209 3.28447906 10.87334167 3.28010559 11.62509155 C3.26329353 13.95876759 3.22563868 16.2915844 3.1875 18.625 C3.17245634 20.20571671 3.15876738 21.78644693 3.14648438 23.3671875 C3.11338201 27.24512344 3.06158404 31.12241598 3 35 C2.67 35 2.34 35 2 35 C1.67 24.44 1.34 13.88 1 3 C-2.3 3.33 -5.6 3.66 -9 4 C-8.67 3.01 -8.34 2.02 -8 1 C-5.22899606 -0.38550197 -3.0665294 -0.1877467 0 0 Z " fill="#272727" transform="translate(259,222)"/>
<path d="M0 0 C-4.16294854 2.77529903 -6.90663042 3.33892796 -11.875 4 C-16.56232264 4.59574074 -16.56232264 4.59574074 -21.1796875 5.55859375 C-23.25972097 6.06297955 -25.11319207 6.09811347 -27.25 6.0625 C-29.10625 6.0315625 -29.10625 6.0315625 -31 6 C-26.5778147 3.59749933 -22.08765421 2.83442106 -17.1875 1.875 C-16.31029297 1.69324219 -15.43308594 1.51148438 -14.52929688 1.32421875 C-9.58769889 0.3410736 -5.03681572 -0.20614525 0 0 Z " fill="#8A8A8A" transform="translate(394,282)"/>
<path d="M0 0 C-1.4436756 3.36608301 -3.26433341 5.395974 -5.9375 7.875 C-9.24188823 11.07743796 -11.29764241 13.74410603 -13 18 C-13.89486468 15.53352921 -14.11463103 14.33374346 -13.25 11.81640625 C-10.48092702 6.82342152 -6.50560826 0 0 0 Z " fill="#707070" transform="translate(18,6)"/>
<path d="M0 0 C0.66 0.33 1.32 0.66 2 1 C-2.71890538 6.40052505 -7.30358857 11.61814505 -13 16 C-13 11.08924079 -9.30469813 8.39044878 -6 5 C-4.05397986 3.23549584 -2.07285289 1.6178364 0 0 Z " fill="#676767" transform="translate(277,382)"/>
<path d="M0 0 C0.86625 0.495 1.7325 0.99 2.625 1.5 C0.10171122 2.76164439 -1.41121092 2.19790201 -4.11328125 1.76171875 C-10.78834842 0.98930165 -17.80665788 1.04036842 -24.375 2.5 C-24.375 1.84 -24.375 1.18 -24.375 0.5 C-16.88354157 -2.36203359 -7.53764216 -3.25243864 0 0 Z " fill="#5F5F5F" transform="translate(213.375,385.5)"/>
<path d="M0 0 C9.24 0 18.48 0 28 0 C24.3951411 3.6048589 18.91605404 3.51081035 14 4 C8.98213458 3.94757454 4.55312715 3.20312604 0 1 C0 0.67 0 0.34 0 0 Z " fill="#848484" transform="translate(399,138)"/>
<path d="M0 0 C7.51214312 0.58572403 14.34343032 2.78576712 21.5 5.0625 C22.70398438 5.43955078 23.90796875 5.81660156 25.1484375 6.20507812 C28.1009244 7.13065934 31.05129861 8.06244294 34 9 C29.98254049 10.22158298 27.95968208 9.39753485 24 8 C21.67305036 7.62468554 19.34023315 7.28082798 17 7 C17 6.34 17 5.68 17 5 C16.02417969 4.89042969 15.04835937 4.78085937 14.04296875 4.66796875 C12.77066406 4.50941406 11.49835938 4.35085938 10.1875 4.1875 C8.92292969 4.03667969 7.65835938 3.88585937 6.35546875 3.73046875 C3.08474189 3.01844789 1.941158 2.63391327 0 0 Z " fill="#A1A1A1" transform="translate(158,290)"/>
<path d="M0 0 C15.13649208 -0.63166196 15.13649208 -0.63166196 22 3 C22.33 3.66 22.66 4.32 23 5 C22.38253906 4.855625 21.76507813 4.71125 21.12890625 4.5625 C15.98857176 3.43585135 11.27064946 2.80401303 6.0078125 3.02734375 C3.86277109 2.99813112 2.05476761 2.59431619 0 2 C0 1.34 0 0.68 0 0 Z " fill="#606060" transform="translate(113,384)"/>
<path d="M0 0 C-3.94593239 2.6306216 -8.13888754 4.29112953 -12.5 6.125 C-13.36753906 6.49753906 -14.23507812 6.87007813 -15.12890625 7.25390625 C-15.96292969 7.60582031 -16.79695313 7.95773437 -17.65625 8.3203125 C-18.41744141 8.64273926 -19.17863281 8.96516602 -19.96289062 9.29736328 C-22 10 -22 10 -25 10 C-25 9.34 -25 8.68 -25 8 C-21.77660487 6.65240132 -18.54544684 5.32450141 -15.3125 4 C-14.40048828 3.6184375 -13.48847656 3.236875 -12.54882812 2.84375 C-11.66259766 2.4828125 -10.77636719 2.121875 -9.86328125 1.75 C-9.05157471 1.41484375 -8.23986816 1.0796875 -7.40356445 0.734375 C-4.81531415 -0.05642814 -2.69063295 -0.13400818 0 0 Z " fill="#696969" transform="translate(308,318)"/>
<path d="M0 0 C0.66 0 1.32 0 2 0 C2 0.66 2 1.32 2 2 C2.66 2 3.32 2 4 2 C7.62983021 10.01587506 7.91581964 17.42516209 6 26 C5.67 26 5.34 26 5 26 C4.97421875 24.96101563 4.9484375 23.92203125 4.921875 22.8515625 C4.6171858 14.52405691 3.90010453 7.54624877 0 0 Z " fill="#626262" transform="translate(79,403)"/>
<path d="M0 0 C1.2375 0.7425 1.2375 0.7425 2.5 1.5 C-1.26505391 3.38252695 -5.88236317 2.50725204 -10.01953125 2.4375 C-13.01856702 2.49135474 -15.59802116 2.79246992 -18.5 3.5 C-13.14712782 -2.22203578 -7.13044924 -3.05590682 0 0 Z " fill="#8C8C8C" transform="translate(263.5,202.5)"/>
<path d="M0 0 C0.66 0.33 1.32 0.66 2 1 C-1.72346836 5.42094803 -5.29521038 9.57833482 -10 13 C-10 9.28115772 -9.1259934 8.63852271 -6.6875 5.9375 C-5.76517578 4.89916016 -5.76517578 4.89916016 -4.82421875 3.83984375 C-3 2 -3 2 0 0 Z " fill="#6F6F6F" transform="translate(179,378)"/>
<path d="M0 0 C-7.64652601 4.12378149 -17.5067442 3.43934969 -26 4 C-25.67 3.34 -25.34 2.68 -25 2 C-21.97265625 1.3671875 -21.97265625 1.3671875 -18.0625 0.875 C-17.38823975 0.79008301 -16.71397949 0.70516602 -16.01928711 0.61767578 C-10.65862229 -0.01674508 -5.3891255 -0.22824532 0 0 Z " fill="#595959" transform="translate(335,497)"/>
<path d="M0 0 C6.93 0 13.86 0 21 0 C21 0.66 21 1.32 21 2 C23.31 2 25.62 2 28 2 C28 2.33 28 2.66 28 3 C25.95840905 3.0272616 23.91671037 3.04651345 21.875 3.0625 C20.73804687 3.07410156 19.60109375 3.08570313 18.4296875 3.09765625 C15.17568081 3.0050023 12.19559152 2.59048974 9 2 C7.37662207 1.79893943 5.75165811 1.61002434 4.125 1.4375 C3.34382813 1.35371094 2.56265625 1.26992188 1.7578125 1.18359375 C1.17773438 1.12300781 0.59765625 1.06242187 0 1 C0 0.67 0 0.34 0 0 Z " fill="#8C8C8C" transform="translate(97,293)"/>
<path d="M0 0 C0.33 0 0.66 0 1 0 C1.50734284 2.3736397 2.00602386 4.74857425 2.5 7.125 C2.64308594 7.79015625 2.78617188 8.4553125 2.93359375 9.140625 C3.7612283 13.16056422 4.15330658 16.89904899 4 21 C-0.49973925 16.50026075 -0.43952244 7.16525321 -1 1 C-0.67 0.67 -0.34 0.34 0 0 Z " fill="#8F8F8F" transform="translate(233,116)"/>
<path d="M0 0 C0.66 0 1.32 0 2 0 C1.55643705 6.20988129 0.08467498 10.60540561 -3 16 C-5.35953094 13.64046906 -5.49141413 12.22104383 -6 9 C-4.515 9.99 -4.515 9.99 -3 11 C-2.01 7.37 -1.02 3.74 0 0 Z " fill="#A4A4A4" transform="translate(491,376)"/>
<path d="M0 0 C0.68449219 0.30679687 1.36898437 0.61359375 2.07421875 0.9296875 C5.32877506 2.12027285 8.38379086 2.64013204 11.8125 3.125 C13.55466797 3.37636719 13.55466797 3.37636719 15.33203125 3.6328125 C16.65267578 3.81457031 16.65267578 3.81457031 18 4 C18 4.66 18 5.32 18 6 C10.88658735 6.45164525 6.28453206 5.32797915 0 2 C0 1.34 0 0.68 0 0 Z " fill="#979797" transform="translate(177,482)"/>
<path d="M0 0 C0.66 0.33 1.32 0.66 2 1 C2.25 4.3125 2.25 4.3125 2 8 C-0.01032321 10.23369246 -1.70463895 10.88923961 -4.5 11.9375 C-7 12 -7 12 -9.3125 10.0625 C-9.869375 9.381875 -10.42625 8.70125 -11 8 C-7.7 8 -4.4 8 -1 8 C-0.26665571 4.02245872 -0.26665571 4.02245872 0 0 Z " fill="#ABABAB" transform="translate(431,198)"/>
<path d="M0 0 C0.33 0 0.66 0 1 0 C1.36517527 6.57315478 0.13619737 11.79485526 -2 18 C-2.66 17.67 -3.32 17.34 -4 17 C-2.68 11.39 -1.36 5.78 0 0 Z " fill="#737373" transform="translate(8,326)"/>
<path d="M0 0 C-0.90363281 0.33773438 -1.80726562 0.67546875 -2.73828125 1.0234375 C-3.91777344 1.46945312 -5.09726562 1.91546875 -6.3125 2.375 C-8.07013672 3.03628906 -8.07013672 3.03628906 -9.86328125 3.7109375 C-13.08553593 4.91489648 -13.08553593 4.91489648 -16 7 C-18.1875 6.625 -18.1875 6.625 -20 6 C-5.36814394 -1.57617843 -5.36814394 -1.57617843 0 0 Z " fill="#A1A1A1" transform="translate(55,283)"/>
<path d="M0 0 C1.63001953 0.01353516 1.63001953 0.01353516 3.29296875 0.02734375 C4.12441406 0.03894531 4.95585938 0.05054688 5.8125 0.0625 C5.4825 1.0525 5.1525 2.0425 4.8125 3.0625 C0.1925 3.0625 -4.4275 3.0625 -9.1875 3.0625 C-9.1875 2.4025 -9.1875 1.7425 -9.1875 1.0625 C-5.90230525 -0.03256492 -3.45086585 -0.03710608 0 0 Z " fill="#6B6B6B" transform="translate(52.1875,383.9375)"/>
<path d="M0 0 C1.4540625 0.0309375 1.4540625 0.0309375 2.9375 0.0625 C-0.18392688 3.18392688 -3.75476149 3.57564543 -8.0625 4.0625 C-12.09305878 3.94182459 -16.06258836 3.56333496 -20.0625 3.0625 C-20.0625 2.7325 -20.0625 2.4025 -20.0625 2.0625 C-18.91910156 2.00191406 -17.77570313 1.94132813 -16.59765625 1.87890625 C-15.10675695 1.79451572 -13.61587225 1.70986698 -12.125 1.625 C-11.37025391 1.58568359 -10.61550781 1.54636719 -9.83789062 1.50585938 C-6.18983161 1.29319226 -3.41264921 0.0696459 0 0 Z " fill="#ADADAD" transform="translate(111.0625,137.9375)"/>
<path d="M0 0 C0.99 0.495 0.99 0.495 2 1 C2.47597366 3.70599842 2.84093629 6.33595404 3.125 9.0625 C3.21136719 9.82111328 3.29773438 10.57972656 3.38671875 11.36132812 C3.59939517 13.23996986 3.80075459 15.11988636 4 17 C0.51645625 11.77468437 -0.30934332 6.1868663 0 0 Z " fill="#838383" transform="translate(6,373)"/>
<path d="M0 0 C0.33 0 0.66 0 1 0 C1.33 3.3 1.66 6.6 2 10 C2.66 10 3.32 10 4 10 C5.06775224 11.96466413 6.06553465 13.96855359 7 16 C6.67 16.66 6.34 17.32 6 18 C2.48902782 14.95715744 1.04538967 12.53002191 0 8 C-0.14580512 5.30746547 -0.09312178 2.70053172 0 0 Z " fill="#5D5D5D" transform="translate(15,52)"/>
<path d="M0 0 C6.78982507 0.37035409 11.26884891 2.40476401 17 6 C16.01 6.495 16.01 6.495 15 7 C12.99029266 6.01965496 10.99270131 5.01446612 9 4 C6.02540354 2.91788742 3.02026395 1.94634937 0 1 C0 0.67 0 0.34 0 0 Z " fill="#ADADAD" transform="translate(58,373)"/>
<path d="M0 0 C1.76923828 0.01353516 1.76923828 0.01353516 3.57421875 0.02734375 C4.47785156 0.03894531 5.38148438 0.05054688 6.3125 0.0625 C6.3125 0.3925 6.3125 0.7225 6.3125 1.0625 C4.41757994 1.40098652 2.52151534 1.73306911 0.625 2.0625 C-0.43074219 2.248125 -1.48648437 2.43375 -2.57421875 2.625 C-5.33654062 3.01318074 -7.90492043 3.14509976 -10.6875 3.0625 C-8.63221196 -1.04807609 -4.03316787 -0.03993236 0 0 Z " fill="#787878" transform="translate(388.6875,294.9375)"/>
<path d="M0 0 C5.4185766 -0.22577402 9.77487721 0.53329887 15 2 C15 2.33 15 2.66 15 3 C4.44191344 3.3690205 4.44191344 3.3690205 0 1 C0 0.67 0 0.34 0 0 Z " fill="#808080" transform="translate(134,285)"/>
<path d="M0 0 C0.66 0.33 1.32 0.66 2 1 C2 4.96 2 8.92 2 13 C1.34 13 0.68 13 0 13 C-1.28571429 4.57142857 -1.28571429 4.57142857 0 0 Z " fill="#777777" transform="translate(414,412)"/>
<path d="M0 0 C0.33 0 0.66 0 1 0 C1.4726477 8.19256018 1.4726477 8.19256018 -0.5 11.5625 C-0.995 12.036875 -1.49 12.51125 -2 13 C-2.66 12.67 -3.32 12.34 -4 12 C-3.690625 11.484375 -3.38125 10.96875 -3.0625 10.4375 C-1.7129419 7.34145494 -1.44037297 4.33425247 -1 1 C-0.67 0.67 -0.34 0.34 0 0 Z " fill="#8E8E8E" transform="translate(415,457)"/>
<path d="M0 0 C0.66 0.33 1.32 0.66 2 1 C-0.31 3.64 -2.62 6.28 -5 9 C-5.99 8.67 -6.98 8.34 -8 8 C-5.33333333 5.33333333 -2.66666667 2.66666667 0 0 Z " fill="#666666" transform="translate(30,292)"/>
<path d="M0 0 C4.95 0.99 4.95 0.99 10 2 C10 2.66 10 3.32 10 4 C4.62295082 5.3442623 4.62295082 5.3442623 1.625 3.6875 C0 2 0 2 0 0 Z " fill="#808080" transform="translate(250,257)"/>
<path d="M0 0 C0.99 0.66 1.98 1.32 3 2 C2.67 2.66 2.34 3.32 2 4 C1.67 3.67 1.34 3.34 1 3 C-0.69141656 3.08963062 -2.37959602 3.24577676 -4.0625 3.4375 C-4.98160156 3.53933594 -5.90070313 3.64117187 -6.84765625 3.74609375 C-7.91306641 3.87177734 -7.91306641 3.87177734 -9 4 C-8.67 3.01 -8.34 2.02 -8 1 C-5.22899606 -0.38550197 -3.0665294 -0.1877467 0 0 Z " fill="#A0A0A0" transform="translate(259,222)"/>
<path d="M0 0 C1.10844919 3.32534757 0.84454356 5.62182575 0 9 C-0.99 9 -1.98 9 -3 9 C-3.33 6.69 -3.66 4.38 -4 2 C-3.34 2.66 -2.68 3.32 -2 4 C-1.34 2.68 -0.68 1.36 0 0 Z " fill="#909090" transform="translate(258,404)"/>
<path d="M0 0 C1.32 0 2.64 0 4 0 C4 0.66 4 1.32 4 2 C5.36125 1.9071875 5.36125 1.9071875 6.75 1.8125 C10.28982642 2.01672076 11.44931155 2.64551835 14 5 C8.34388537 5.56561146 4.77357872 3.71391278 0 1 C0 0.67 0 0.34 0 0 Z " fill="#8E8E8E" transform="translate(35,471)"/>
<path d="M0 0 C0.99 0.33 1.98 0.66 3 1 C3.33 2.98 3.66 4.96 4 7 C4.66 7 5.32 7 6 7 C6 8.98 6 10.96 6 13 C4.43926745 10.65890118 3.13626133 8.43666597 1.875 5.9375 C1.34519531 4.89916016 1.34519531 4.89916016 0.8046875 3.83984375 C0 2 0 2 0 0 Z " fill="#878787" transform="translate(484,315)"/>
<path d="M0 0 C5.37992836 0.33990833 9.53273547 0.68557793 14 4 C12 5 12 5 9.94140625 4.51171875 C9.15636719 4.23972656 8.37132812 3.96773438 7.5625 3.6875 C6.78003906 3.42324219 5.99757812 3.15898437 5.19140625 2.88671875 C3 2 3 2 0 0 Z " fill="#8E8E8E" transform="translate(181,310)"/>
<path d="M0 0 C0.66 1.32 1.32 2.64 2 4 C2.66 3.67 3.32 3.34 4 3 C3.67 4.98 3.34 6.96 3 9 C2.01 8.67 1.02 8.34 0 8 C0 5.36 0 2.72 0 0 Z " fill="#8E8E8E" transform="translate(22,384)"/>
<path d="M0 0 C-1.4096347 0.70180531 -2.82807641 1.38593958 -4.25 2.0625 C-5.03890625 2.44535156 -5.8278125 2.82820313 -6.640625 3.22265625 C-9.25993522 4.08564091 -10.44855176 3.93045933 -13 3 C-11.5903653 2.29819469 -10.17192359 1.61406042 -8.75 0.9375 C-7.96109375 0.55464844 -7.1721875 0.17179687 -6.359375 -0.22265625 C-3.74006478 -1.08564091 -2.55144824 -0.93045933 0 0 Z " fill="#9E9E9E" transform="translate(194,374)"/>
<path d="M0 0 C2.62386487 3.06117568 3 3.73173127 3 8 C3.66 8 4.32 8 5 8 C4.67 8.99 4.34 9.98 4 11 C3.71125 10.360625 3.4225 9.72125 3.125 9.0625 C2.17176549 6.84793921 2.17176549 6.84793921 0 6 C0 4.02 0 2.04 0 0 Z " fill="#8B8B8B" transform="translate(391,125)"/>
<path d="M0 0 C0.75 1.5625 0.75 1.5625 1 4 C-0.13084437 6.50286409 -1.52139516 8.67007722 -3 11 C-3.75 9.4375 -3.75 9.4375 -4 7 C-2.86915563 4.49713591 -1.47860484 2.32992278 0 0 Z " fill="#A3A3A3" transform="translate(8,13)"/>
<path d="M0 0 C5.21979128 -0.1799928 9.07262981 0.02905192 14 2 C14 2.33 14 2.66 14 3 C8.80790596 3.21192221 4.873261 2.5912689 0 1 C0 0.67 0 0.34 0 0 Z " fill="#7E7E7E" transform="translate(107,487)"/>
<path d="M0 0 C2.97 0.33 5.94 0.66 9 1 C9 1.66 9 2.32 9 3 C9.66 3.33 10.32 3.66 11 4 C6.44262737 3.56179109 3.42346555 3.14958831 0 0 Z " fill="#848484" transform="translate(127,373)"/>
<path d="M0 0 C1.27875 0.103125 2.5575 0.20625 3.875 0.3125 C4.95394531 0.39951172 4.95394531 0.39951172 6.0546875 0.48828125 C8 1 8 1 10 4 C6.44219804 3.39009109 3.3171411 2.4216319 0 1 C0 0.67 0 0.34 0 0 Z " fill="#838383" transform="translate(219,324)"/>
<path d="M0 0 C-6 4 -6 4 -10 4 C-10 3.34 -10 2.68 -10 2 C-6.49223216 0.39644899 -3.85645121 -0.22036864 0 0 Z " fill="#747474" transform="translate(308,318)"/>
</svg>
